<?xml version="1.0" encoding="UTF-8"?>
<svg id="Layer_2" data-name="Layer 2" xmlns="http://www.w3.org/2000/svg" viewBox="0 0 144.26 175.84">
  <defs>
    <style>
      .cls-1 {
        fill: #fff;
      }
    </style>
  </defs>
  <g id="PREVIEW">
    <g>
      <path d="M128.79,98.33c-3.68-8.98-8.05-13.23-9.89-14.73,0,0,0,0,0-.01.7-2.2-.92-6.98-4.94-14.62-5.27-9.98-11.42-12.5-16.36-14.53-.96-.39-1.87-.77-2.74-1.17-4.13-1.94-8.23-6.25-9.84-8.05.83-.6,1.79-1.1,2.84-1.5,1.75-.65,3.21-.76,5.29-1.14,1.22-.22,1.89-5.46,1.44-10.15-.6-6.17-3.98-11.29-5.41-12.09-2.09-1.17-6.04-2.02-13.05.6-.4.15-.76.29-1.07.42-.35-2.44-1.79-7.11-7.61-11.15-3.14-2.19-6.63-1.59-9-.7-.67.25-1.25.52-1.72.77.06-1.24.38-3.27.54-4.29.33-2.07.37-2.47.22-2.87C56.17-.47,49.87-.18,48.73.25c-.79.3-1.28,1.3-1.59,2.41-1.5-.67-3.31-.68-5.17.02-.86.32-1.64.77-2.05,1.17-.69.68-1.2,2.32-2.08,5.72-.08.29-.15.57-.22.83-.19.72-.55,1.26-.94,1.41-.28.1-.62,0-1.01-.3-.59-.47-1.85-1.87-3.07-3.22-3.16-3.53-4.22-4.58-5.13-4.72-.03,0-.06,0-.1-.01-1.09-.08-2.25.11-3.45.56-4.8,1.79-9.5,7.55-9.83,10.83-.13,1.27,1.3,2.68,4.85,5.83,1.28,1.14,3.19,2.84,3.51,3.43,0,.98-1.51,6.01-3.05,10.52-2.84-.5-7.75-.76-11.97.82-2.71,1.01-4.79,2.64-6.2,4.83-1.99,3.11-1.59,9.47,1.18,18.91,1.67,5.7,3.74,10.87,4.41,12.5-5.66,9-7.34,21.62-4.74,35.64,2.14,11.57,5.11,15.49,6.22,16.6,1.03,11.81,8.89,22.95,22.76,32.24,12.03,8.05,27.85,14.28,44.57,17.53,18.51,3.6,38.4,2.45,53.2-3.08,5.21-1.95,9.31-4.32,11.55-6.67,5.89-6.21,3.97-11.79,1.32-19.51-.62-1.8-1.26-3.66-1.87-5.72-1.18-3.96-2.35-8.93-3.59-14.18-2.11-8.94-4.5-19.07-7.46-26.29Z"/>
      <g>
        <path class="cls-1" d="M117.38,83.23c-6.9.76-10.98-2.22-11.88-2.97,0-1.09-.29-4.86-3.62-10.89-.17-.3-.54-.42-.86-.25-.31.17-.42.55-.25.86,3.15,5.71,3.45,9.28,3.46,10.24-.8.62-1.72,1.14-2.78,1.53-3.91,1.46-8.46.93-10.07.67.3-1.86.88-7.29-1.7-10.78-.2-.27-.61-.34-.89-.13-.28.21-.34.6-.13.89,2.36,3.2,1.67,8.58,1.43,10.03-.69.18-2.28.53-4.18.48-3.31-.07-5.9-1.24-7.7-3.47-5.58-6.92-3.74-12-1.79-17.38.98-2.69,1.99-5.48,2.01-8.5,0-.88-.04-1.72-.15-2.52,1.62.95,3.42,1.34,5.37,1.14.06,0,.12-.02.17-.04.33-.12.44-.47.37-.75-.06-.26-.29-.51-.66-.47-1.96.2-3.74-.27-5.27-1.39-.04-.03-.08-.05-.13-.07-.22-1.66-.71-3.18-1.13-4.46-.37-1.13-.83-2.53-.56-2.83.11-.12.38-.19.73-.18,1.42.03,3.94,1.27,5.82,3.51.22.26.63.3.89.07.27-.23.3-.63.08-.89-.45-.53-.93-1.01-1.43-1.44.13-.15.27-.29.41-.43.47.71,1.04,1.24,1.7,1.55.16.08.33.08.49.02.25-.09.44-.35.45-.61,0-.23-.11-.42-.34-.53-.53-.25-.96-.67-1.34-1.27.24-.18.49-.35.75-.52.02.08.05.16.09.23.36.59.75,1,1.24,1.27.14.08.31.09.48.03.16-.06.3-.19.37-.34.14-.31.01-.65-.31-.83-.32-.18-.54-.51-.75-.86-.02-.04-.05-.07-.08-.1.27-.13.54-.26.83-.38.22.38.5.73.91,1.11.17.16.38.21.58.13.21-.08.38-.28.42-.51.05-.22-.03-.44-.19-.59-.19-.18-.38-.37-.53-.58.7-.22,1.46-.41,2.25-.57.4.69.8,1.2,1.15,1.44.21.14.4.2.58.15.02,0,.04-.01.06-.02,1.19-.44,1.75-5.49,1.08-9.64-.59-3.62-2.56-8.52-3.44-9.11-.14-.1-.28-.09-.38,0-.94.97-2.18,4.38-1.53,9.39.32,2.41,1.07,4.84,1.9,6.62-1.01.22-1.96.48-2.81.8-2.09.78-3.78,1.91-5.05,3.35-1.58-1.11-3.2-1.71-4.33-1.74-.73-.02-1.31.19-1.68.59-.69.74-.42,1.9.08,3.46-.46-.5-.97-.95-1.54-1.34-3.49-2.38-8.81-2.28-15.36.33-7.93,3.15-13.31,10.13-16.37,15.28,2.42-7.4,6.15-15.39,12.4-21.36,10.03-9.58,19.52-14.1,19.61-14.15.32-.15.45-.53.3-.84-.14-.3-.48-.44-.79-.33-.02,0-.04.01-.05.02-.1.05-9.73,4.62-19.94,14.38-10.54,10.07-14.05,25.56-16.15,34.82-1.53,6.75-3.71,8.98-4.78,9.7-.05-.33-.1-.67-.16-1.01-1.62-9.38-12.73-21.46-12.83-21.57-.05-.07-1.27-1.78-1.79-5.28-.5-3.34-.46-9.05,2.54-17.26.12-.33-.05-.69-.38-.81-.31-.11-.7.06-.81.38-.05.15-.1.28-.15.43-1.88-.13-7.65-.38-11.81,1.17-2.1.78-3.52,1.92-4.22,3.37-.07.14-.04.3.09.44.91,1,7.41,1.63,14.69-1.09,0,0,0,0,0,0,0,0,.02,0,.03-.01-3.08,11.16-.58,17.07.46,18.88-2.96,2.14-6.6,6.26-11.09,12.59-.1.14-.14.31-.11.47.03.17.12.31.26.41.17.12.39.15.59.08.12-.04.22-.12.29-.23,4.36-6.14,7.99-10.27,10.81-12.3,1.7,1.92,8.85,10.27,11.43,17.73-1.01-.69-2.17-1.13-3.33-1.24-.4-.04-.7.31-.65.71.04.31.26.52.57.55,1.42.13,2.86.9,3.87,2.04.05.06.11.1.18.14.05.21.09.42.13.63.05.31.1.61.14.92-1.28-1.13-2.52-1.81-3.86-2.11-.13-.03-.25-.02-.37.02-.27.1-.45.39-.43.69.02.26.19.45.45.51,1.46.32,2.83,1.19,4.28,2.72.04.04.08.07.13.1.58,7.88-2.25,14.23-5.58,16.49-1.78,1.21-17.36,12.11-17.6,23.65,0,.17.06.33.17.45.12.12.27.19.45.2.08,0,.16-.01.24-.04.25-.09.41-.32.41-.58.23-10.91,15.33-21.46,17.05-22.62,2.43-1.65,4.58-5.08,5.6-9.61.88-1.82,1.75-3.41,2.62-4.8.04.44.15.87.35,1.29.88,1.81,2.68,2.23,4.51,2.42l.29.03c1.2.12,2.33.23,3.29.99.94.74,1.29,2.03,1.61,3.18.12.45.2.94.27,1.41.11.72.23,1.46.52,2.13.4.93,1.02,1.68,2.07,2.52.19.15.42.19.65.1.23-.09.41-.29.44-.51.03-.19-.05-.37-.22-.51-.9-.72-1.57-1.42-1.9-2.47-.18-.58-.29-1.2-.39-1.81-.09-.52-.18-1.05-.32-1.56-.51-1.88-1.33-3.12-2.56-3.91-1-.64-2.22-.75-3.4-.85-.6-.05-1.17-.1-1.71-.22-.96-.21-1.65-.74-1.98-1.55-.41-1.01-.21-2.38.51-3.48.03-.05.05-.1.07-.15,1.52-1.85,3.05-3.05,4.59-3.62,1.54-.57,3.12-.51,4.69.2,6.67,3,12.47,3.75,17.71,2.29,5.89-1.65,8.2,1.85,8.92,3.44.54,1.19,1.25,1.92,2.18,2.23.89.3,1.91.21,3.22-.28.63-.24,1.35-.57,2.26-1.05.89-.47,1.9-.92,3-1.33,2.52-.94,4.73-1.39,4.75-1.4.04,0,.07-.02.1-.03.96-.14,1.66-.32,1.91-.39,1.1.22,6.47,1.14,11.19-.62h0c1.11-.41,2.11-.95,2.98-1.6,1.24,1.01,5.53,3.91,12.68,3.13.05,0,.1-.02.15-.04.27-.1.44-.37.41-.66-.04-.35-.35-.6-.7-.56ZM33.11,82.65c3.53-1.62,5.37-8.63,5.85-10.79.42-1.85.9-3.95,1.48-6.21,0,0,0,0,0,0,.06-.16,6.06-15.68,18.75-20.72,6.15-2.44,11.06-2.59,14.18-.46,1.98,1.36,3.22,3.6,3.64,6.54,0,.01,0,.02,0,.03.11.78.17,1.62.16,2.5-.02,2.81-.99,5.49-1.94,8.08-1.99,5.47-4.04,11.13,1.99,18.6,1.93,2.39,4.47,3.4,6.84,3.75-.19.07-.38.14-.58.21-1.16.43-2.23.91-3.18,1.41-.59.31-1.35.71-2.09.98-1.02.38-1.8.47-2.39.27-.58-.2-1.05-.71-1.43-1.56-2.64-5.8-8.64-4.63-10.42-4.13-4.94,1.38-10.45.66-16.85-2.22-1.89-.85-3.8-.93-5.65-.24-3.62,1.35-6.47,5.44-8.31,8.72.11-1.51.09-3.11-.07-4.77Z"/>
        <path class="cls-1" d="M23.46,12.91c-.28.25-.26.61-.12.86.16.26.43.37.68.28.07-.03.14-.07.2-.12,1.94-1.74,4.27-4.17,5.08-7.6.05-.22,0-.43-.16-.57-.18-.16-.46-.2-.69-.12-.2.08-.34.24-.39.45-.71,3.03-2.83,5.24-4.6,6.81Z"/>
        <path class="cls-1" d="M45.35,9.75s.08-.02.11-.03c.27-.1.4-.38.32-.68-.09-.31-.39-.58-.79-.5-1.69.33-3.21,0-4.38-.95-.18-.15-.41-.19-.62-.11-.22.08-.4.29-.44.52-.03.2.04.4.22.54,1.51,1.23,3.39,1.64,5.58,1.21Z"/>
        <path class="cls-1" d="M9.24,44.46s.09-.02.13-.04h0c.35-.13.46-.51.39-.8-.08-.31-.34-.47-.65-.42-2.65.42-4.7.17-6.26-.75-.2-.12-.37-.1-.48-.06-.21.08-.37.31-.39.56-.02.26.1.5.32.63,1.74,1.03,4.07,1.33,6.93.87Z"/>
        <path class="cls-1" d="M62.02,27.22c.19.14.44.19.66.11.2-.08.33-.25.35-.48.13-1.29-.09-2.57-.64-3.82-.16-.36-.54-.44-.84-.34-.17.06-.3.18-.36.33-.06.14-.05.3.02.46.49,1.1.68,2.13.58,3.16-.02.23.06.44.24.57Z"/>
        <path class="cls-1" d="M64.21,25.79c-.01.21.07.4.23.51.18.13.43.16.64.08.23-.09.38-.29.39-.55.11-2.46-.68-4.71-2.51-7.1-.16-.21-.39-.28-.62-.2-.2.07-.36.25-.42.47-.06.2-.02.41.11.59,1.58,2.07,2.27,4.04,2.17,6.2Z"/>
        <path class="cls-1" d="M67.21,24.33c.27-.1.43-.34.43-.62,0-2.63-.73-5.02-2.08-6.92-.17-.24-.44-.32-.71-.22-.2.07-.36.24-.42.43-.05.18-.02.37.1.53,1.22,1.71,1.84,3.82,1.85,6.27,0,.2.08.37.23.47.16.11.4.14.6.06Z"/>
        <path class="cls-1" d="M81.75,29.72c.29-.11.53-.42.43-.8-.51-1.91-.39-3.69.34-5,.12-.23.1-.46-.05-.64-.18-.21-.5-.29-.76-.19-.14.05-.26.16-.34.3-1.1,1.99-.82,4.34-.39,5.97.04.17.14.3.27.37.14.07.32.08.49.02Z"/>
        <path class="cls-1" d="M83.23,29.66c.14.07.31.08.48.02.29-.11.54-.42.45-.8-.43-1.84-.4-3.45.1-4.78.09-.24.04-.5-.15-.68-.19-.19-.46-.26-.69-.17-.15.06-.26.18-.33.35-.62,1.63-.66,3.5-.14,5.71.05.21.17.32.26.37Z"/>
        <path class="cls-1" d="M85.58,31.82c.14.07.32.08.49.02h0c.29-.11.53-.42.43-.8-.67-2.53-1.23-5.19-.22-7.48.1-.24.07-.49-.11-.67-.18-.2-.48-.27-.71-.18-.15.06-.26.17-.33.33-1.19,2.66-.56,5.62.17,8.42.05.17.14.29.28.36Z"/>
        <path class="cls-1" d="M81.35,54.27s.08-.03.12-.04c.03,0,.06-.02.1-.03.37-.14.5-.54.41-.86-.09-.29-.34-.44-.64-.37-.12.03-.24.06-.35.1-1.87.7-2.32,3.27-2.5,5.15-.02.23.07.44.25.57.19.14.45.19.65.11.2-.08.33-.25.35-.48.07-.79.21-1.55.41-2.26.3-1.07.7-1.71,1.21-1.89Z"/>
        <path class="cls-1" d="M39.87,91.14c-.71-.04-1.44-.08-2.13-.27-.34-.1-.66-.26-.96-.41-.62-.32-1.27-.65-2.1-.38-.63.2-1.07.76-1.15,1.41-.19,1.57.63,3.14,1.35,4.52l.19.36c.18.34.52.39.78.29.18-.07.32-.2.39-.37.06-.16.05-.33-.04-.49l-.04-.07c-.56-1.09-1.15-2.22-1.37-3.44-.1-.51,0-.83.27-.93.31-.12.88.02,1.51.35.73.38,1.53.58,2.59.64.26.02.52.01.77.01.71,0,1.39,0,2.04.37.61.35.96,1.04,1.24,1.73.32.79.5,1.65.68,2.48.14.65.28,1.31.48,1.95.06.18.18.32.34.39.17.09.39.09.57.03.24-.09.44-.34.33-.69-.22-.66-.37-1.36-.52-2.04-.27-1.23-.55-2.49-1.2-3.61-.98-1.68-2.46-1.77-4.02-1.85Z"/>
        <path class="cls-1" d="M42.2,112.51c-.06-.45-.12-.88-.19-1.3-.54-3.32-1.85-6.41-3.87-9.19-1.31-1.8-3.12-3.86-5.47-3.79-.27,0-.51.05-.73.14-.99.37-1.35,1.41-1.71,2.42-.3.84-.6,1.72-1.27,2.14-.27.17-.35.46-.21.75.13.27.46.48.81.35.04-.02.09-.04.13-.06.81-.51,1.18-1.29,1.46-2.07.06-.15.11-.32.16-.48.25-.78.52-1.59,1.2-1.84.18-.07.39-.09.62-.07,2.06.16,3.73,2.77,4.83,4.5l.18.29c1.76,2.75,2.28,5.7,2.82,8.82.09.54.19,1.08.29,1.63.59,3.15,1.97,5.18,4.11,6.03.15.06.31.06.45.01.25-.09.43-.36.44-.63,0-.25-.14-.44-.38-.54-2.87-1.14-3.31-4.3-3.69-7.09Z"/>
        <path class="cls-1" d="M43.25,106.88c-.14-.07-.32-.08-.49-.02-.29.11-.54.42-.44.8.49,2.04,1.31,3.37,2.51,4.06.77.44,1.63.72,2.45,1,.98.32,1.98.66,2.85,1.26.18.13.39.15.59.08.24-.09.42-.31.45-.54.03-.21-.06-.4-.25-.53-1.02-.71-2.17-1.09-3.29-1.46-.28-.09-.55-.18-.83-.28-1.78-.63-2.76-1.82-3.28-4-.05-.21-.17-.32-.27-.37Z"/>
        <path class="cls-1" d="M47.85,119.32c.04-.17,0-.35-.14-.5-.14-.16-.38-.38-.66-.64-1.03-.95-2.75-2.55-2.11-3.47.02-.02.04-.04.08-.06.42-.16,1.73.54,2.43.92.25.14.46.25.57.29.15.06.31.07.46.01.25-.09.43-.35.44-.63,0-.24-.14-.44-.38-.54-.24-.1-.54-.25-.86-.42-.97-.51-2.17-1.14-3.1-.79-.19.07-.36.18-.51.33-.7.68-.48,1.83-.05,2.68.44.85,1.13,1.52,1.8,2.17.3.29.61.59.89.91.19.21.47.28.73.18.21-.08.37-.25.42-.44Z"/>
        <path class="cls-1" d="M21.2,110.68l.07-.06c1.13-.91,2.21-1.9,3.25-2.85.45-.41.91-.83,1.37-1.24.28-.25.26-.61.12-.86-.2-.33-.59-.41-.88-.15-.41.37-.82.74-1.23,1.11-1.28,1.15-2.6,2.35-3.97,3.45-1.25,1-2.46,2.2-2.88,4.14-.84,3.82,1.82,7.43,3.96,10.34.15.21.3.41.45.61.17.23.44.32.71.22.2-.07.36-.24.42-.43.05-.18.02-.36-.1-.53-.16-.22-.32-.43-.48-.65-1.92-2.6-4.09-5.55-3.76-8.93.18-1.9,1.54-2.99,2.97-4.15Z"/>
        <path class="cls-1" d="M38.21,151c-1.03-.7-2.19-1.23-3.3-1.74-1.11-.51-2.26-1.03-3.28-1.73-3.43-2.33-4.82-6.39-6.16-10.31-.36-1.06-.71-2.05-1.09-3.02-1.73-4.4-3.9-9.3-7.7-11.8-.67-.44-2.38-1.4-3.93-.92-1.43.45-2.24,1.73-2.51,3.9-.03.23.06.44.23.57.19.15.45.19.66.11.2-.08.33-.25.36-.48.13-1.06.51-2.41,1.59-2.81.46-.17,1.01-.15,1.64.05,1.67.54,2.87,1.89,3.92,3.28,2.76,3.63,4.4,7.92,6.11,12.76,1.3,3.67,2.86,7.46,6.47,9.92,1.12.77,2.38,1.34,3.59,1.91.65.3,1.32.61,1.97.95,2.05,1.07,3.41,2.81,4.87,4.8.17.23.44.32.71.22.2-.07.36-.24.42-.43.05-.18.02-.37-.1-.53-1.21-1.66-2.55-3.39-4.46-4.69Z"/>
        <path class="cls-1" d="M38.66,148.63c-.97-.72-2.08-1.14-3.15-1.54-.9-.34-1.84-.69-2.67-1.22-1.34-.85-1.93-2.43-2.5-3.96-.18-.48-.35-.94-.54-1.37-.2-.46-.37-.95-.52-1.43l-.06-.19c-.11-.34-.2-.64-.26-.93,0,0,0,0,0,0,.16.09.35.11.52.04h0c.23-.09.41-.3.44-.54.03-.21-.06-.4-.24-.54-.53-.39-1.04-.52-1.43-.38-.48.18-.69.76-.56,1.55.25,1.5.9,2.99,1.53,4.43.15.34.29.67.43,1,1.12,2.67,2.86,3.75,5.29,4.62,2.91,1.04,5.17,3.03,7.13,6.26.15.25.41.34.68.24.19-.07.35-.24.42-.43.06-.18.04-.37-.06-.54-1.32-2.17-2.77-3.83-4.45-5.07Z"/>
        <path class="cls-1" d="M34.81,135.13c-1.24-.53-2.57-.66-3.85-.79-1.2-.12-2.45-.25-3.6-.7-.14-.06-.29-.06-.41-.01-.23.09-.38.33-.38.6,0,.28.15.51.41.62,1.19.47,2.46.59,3.68.72,1.04.1,2.12.21,3.14.53,2.14.67,4.05,2.38,5.81,4.13.18.18.42.24.65.15.22-.08.38-.27.43-.49.04-.2-.02-.39-.17-.54-1.33-1.33-3.37-3.21-5.71-4.21Z"/>
        <path class="cls-1" d="M37.22,144.08c.19-.07.35-.23.42-.42.07-.18.05-.38-.04-.55-1.18-2.17-2.75-3.78-4.55-4.67-.16-.08-.32-.09-.47-.03-.23.09-.4.33-.41.6-.01.25.12.47.35.59,1.58.78,2.94,2.2,4.04,4.24.14.26.39.36.66.26Z"/>
        <path class="cls-1" d="M81.44,129.84c.45-1.13.91-2.3,1.67-3.31.83-1.11,1.91-2.05,2.95-2.96.64-.56,1.3-1.13,1.9-1.75,1.41-1.44,2.37-3.24,2.94-5.52.5-1.99.55-4.05.55-6.15,0-2.54-.08-5.13-.29-7.92-.03-.45-.06-.91-.09-1.37-.15-2.26-.31-4.6-.76-6.82-.18-.86-.42-1.73-.65-2.56-.49-1.74-.99-3.54-.91-5.4.01-.23-.09-.44-.27-.57-.19-.14-.44-.18-.64-.1-.2.08-.32.25-.33.49-.1,2.2.48,4.27,1.04,6.28.7,2.51.92,4.99,1.16,7.61v.08c.41,4.47.86,9.54.28,14.4-.28,2.35-1.02,4.32-2.2,5.86-.83,1.08-1.89,2.01-2.91,2.9-.67.58-1.36,1.18-1.98,1.83-1.23,1.27-1.93,2.86-2.6,4.41-.96,2.19-1.86,4.25-4.15,5.43-.37.19-.43.6-.3.9.13.29.41.42.69.31.02,0,.05-.02.08-.03,1.68-.86,2.89-2.02,3.78-3.66.41-.76.74-1.57,1.05-2.35Z"/>
        <path class="cls-1" d="M81.28,132.92c-1,.38-1.91,1.64-2.63,2.65-.33.47-.62.87-.87,1.12-.2.2-.23.47-.08.69.15.23.48.4.81.28h0c.09-.03.17-.09.24-.16.14-.15.38-.47.67-.87.65-.9,1.63-2.26,2.3-2.51.14-.05.25-.05.34,0,.44.27.16,1.52.05,2.06-.02.08-.03.15-.04.21-.08.4-.18.8-.29,1.19-.08.32-.17.65-.24.98-.05.23.01.43.17.57.18.16.46.2.69.12.2-.08.34-.24.39-.46.06-.25.14-.56.24-.91.45-1.56,1.13-3.93-.29-4.81-.45-.28-.94-.33-1.44-.15Z"/>
        <path class="cls-1" d="M87.87,124.17c-.95.35-1.83,1.13-2.41,1.68-1.39,1.33-1.85,3.03-1.3,4.93.15.52.33,1.02.51,1.5.55,1.5,1.06,2.92.46,4.61-.08.24-.03.47.14.64.19.18.47.25.7.16h0c.11-.04.27-.14.35-.37.47-1.33.5-2.62.07-4.08-.14-.49-.33-.96-.51-1.43-.29-.74-.59-1.51-.7-2.31-.23-1.66,1.26-3.14,2.73-3.97.68-.38,1.22-.41,1.66-.07,1.06.82,1.17,3.52,1.05,4.7-.02.22.06.42.22.54.18.14.44.18.65.1.22-.08.36-.27.38-.51.3-3.05-.3-5-1.83-5.97-.64-.4-1.37-.46-2.18-.15Z"/>
        <path class="cls-1" d="M96.02,105.22c-1.08,1.56-1.4,3.43-1.71,5.24-.05.27-.09.54-.14.8-.29,1.61-.95,3.12-1.59,4.58-.43.99-.87,2-1.21,3.05-.76,2.4-.44,4.35,1.11,6.73,2.04,3.15,2.84,5.98,2.45,8.68-.03.23.04.44.21.57.19.15.45.19.67.11.2-.08.33-.25.37-.47.32-2.13-.04-4.37-1.08-6.85-.42-1-1.02-1.91-1.6-2.8l-.22-.34c-1.04-1.6-1.28-3.01-.81-4.86.31-1.22.84-2.38,1.35-3.5.48-1.05.98-2.13,1.29-3.27.22-.77.35-1.59.48-2.38.25-1.56.51-3.18,1.42-4.5.17-.24.16-.54-.03-.78-.26-.33-.73-.35-.96,0Z"/>
        <path class="cls-1" d="M26.49,85.51c-.17-.09-.35-.1-.52-.04-.25.09-.43.33-.44.59-.02.23.1.42.32.54l.4.21c1.27.67,2.58,1.36,3.68,2.33.19.16.43.21.66.12.23-.08.4-.28.44-.5.03-.19-.04-.38-.2-.52-1.26-1.11-2.74-1.9-4.17-2.66l-.16-.09Z"/>
        <path class="cls-1" d="M30.25,85.52c.18.16.4.21.61.13.22-.08.39-.28.43-.51.04-.21-.03-.41-.2-.57-.79-.72-1.75-1.19-2.68-1.65-.24-.12-.48-.24-.72-.36-.16-.08-.33-.1-.48-.04-.23.09-.4.33-.42.59-.02.25.11.46.34.58.24.12.49.24.73.36.83.41,1.7.83,2.4,1.46Z"/>
        <path class="cls-1" d="M93.03,73.81c-.13-.06-.29-.06-.45,0-.32.12-.56.47-.42.86.72,2.01.57,4.17.36,6.22-.02.22.05.41.22.53.18.14.43.17.65.09.23-.08.37-.27.39-.52.26-2.58.28-4.73-.48-6.85-.06-.16-.15-.27-.28-.33Z"/>
        <path class="cls-1" d="M95.36,81.31c.2-.07.34-.23.4-.45.28-1.08.5-2.24.31-3.39-.03-.2-.14-.36-.31-.45-.18-.1-.4-.12-.59-.05-.27.1-.4.34-.36.63.18,1.04-.05,2.07-.29,3.03-.06.22,0,.42.15.56.18.16.46.21.69.12Z"/>
        <path class="cls-1" d="M97.61,81.46h0c.15-.06.26-.17.33-.33.34-.78.45-1.65.33-2.58-.02-.2-.13-.36-.29-.46-.17-.1-.4-.12-.6-.05-.27.1-.41.34-.37.63.09.74.02,1.38-.23,1.94-.1.24-.06.49.11.67.18.19.48.27.71.18Z"/>
        <path class="cls-1" d="M109.68,76.63c-.27.1-.43.34-.42.62.02.77-.05,1.55-.12,2.3-.02.27-.05.54-.07.81-.02.23.08.44.26.58.19.14.44.18.65.11.2-.08.33-.25.34-.49.02-.28.05-.56.07-.84.07-.84.15-1.71.13-2.57,0-.2-.09-.37-.24-.47-.16-.11-.4-.13-.6-.06Z"/>
        <path class="cls-1" d="M111.11,80.95c0,.21.1.38.26.48.17.12.41.14.61.06.26-.1.41-.32.4-.6-.01-.37.02-.74.05-1.1.05-.54.1-1.09,0-1.67-.04-.22-.16-.33-.25-.39-.14-.08-.33-.09-.51-.02-.27.1-.52.38-.45.77.08.46.03.92-.03,1.4-.04.35-.09.7-.07,1.05Z"/>
        <path class="cls-1" d="M53.78,79.72c.21-.08.37-.31.39-.56.02-.26-.1-.5-.32-.64-.82-.49-.97-1.8-1.08-2.75l-.02-.14c-.02-.2-.13-.36-.28-.46-.17-.11-.4-.13-.6-.05-.27.1-.41.34-.38.63.17,1.47.47,3.1,1.81,3.91.2.12.37.1.48.06Z"/>
        <path class="cls-1" d="M55.5,78.23h0c.2-.08.36-.24.42-.44.05-.18,0-.36-.12-.52-.34-.44-.57-.9-.69-1.42-.03-.14-.13-.26-.28-.34-.17-.09-.38-.11-.54-.04-.32.12-.46.43-.38.8.15.62.44,1.21.87,1.75.18.23.45.3.72.2Z"/>
        <path class="cls-1" d="M17.87,15.29h0c1.55-.58,3.88-2.23,5.66-4.02,2.14-2.15,3.74-4.95,3.29-5.77-.07-.14-.24-.28-.6-.21-.38.08-.83.22-1.31.4-.99.37-3.49,1.46-5.43,3.58-1.84,2.02-3.64,4.62-3.18,5.86.11.3.47.56,1.57.16Z"/>
        <path class="cls-1" d="M44.36,7.91c1.08.04,2.02-.08,2.72-.34h0c.62-.23,1.03-.58,1.15-.94.06.33.05.53.04.57-1.22,3.55-.88,6.48-.87,6.6.04.35.36.59.7.55.05,0,.1-.02.15-.04.27-.1.44-.38.41-.67,0-.03-.3-2.82.82-6.08,0,0,0-.02,0-.03,1.19.25,2.45.22,3.78-.09.03,0,.06-.02.08-.03.28-.11.41-.38.32-.68-.09-.31-.41-.58-.82-.49-.85.2-2.11.35-3.41-.01-.13-.59-.42-1.36-1.05-2.21-.2-.27-.61-.34-.89-.13-.14.1-.23.25-.25.41-.01.09,0,.18.02.27-.45-.43-1.06-.77-1.83-.85-1.1-.11-2.11,0-2.92.3-.65.24-1.18.61-1.55,1.09-.14.18-.12.52.05.91.38.83,1.49,1.82,3.33,1.89Z"/>
        <path class="cls-1" d="M51.52,4.63c1.89.47,3.01.22,3.52.03.63-.24.98-.63.92-1.02-.05-.29-.37-.68-.86-1.02-.63-.44-2.43-1.42-5.49-.84-.49.09-.78.44-.75.88.04.65.76,1.5,2.66,1.98Z"/>
        <path class="cls-1" d="M36.24,51.52c.6-.22.92-.92.69-1.52-.22-.6-.92-.92-1.52-.69-.6.22-.92.92-.69,1.52.22.6.92.92,1.52.69Z"/>
        <path class="cls-1" d="M32.7,51.77c.03-.31-.02-.53-.19-.81-.14-.24-.44-.39-.68-.43-.17-.03-.35-.01-.51.05-.03.01-.06.02-.08.04-.18.07-.32.17-.43.3-.19.23-.23.47-.24.76,0,.26.17.59.4.75.34.24.7.3,1.05.17.31-.12.65-.44.68-.83Z"/>
        <path class="cls-1" d="M33.53,53.67c.38-.14.58-.59.44-.97-.14-.38-.59-.58-.97-.44-.38.14-.58.59-.44.97.14.38.59.58.97.44Z"/>
        <path class="cls-1" d="M33.54,48.05c-.16.06-.27.17-.32.31-.05.12-.04.27,0,.4.1.26.37.46.7.33.16-.06.27-.16.32-.31.05-.13.04-.27,0-.4-.1-.26-.37-.46-.7-.33Z"/>
        <path class="cls-1" d="M52.07,24.86c.18.47.73.72,1.2.55.47-.18.72-.73.55-1.2-.18-.47-.73-.73-1.2-.55-.47.18-.72.73-.55,1.2Z"/>
        <path class="cls-1" d="M54.84,22.64c.05,0,.11-.02.16-.04.18-.07.32-.19.4-.35.09-.17.1-.36.03-.55-.14-.36-.54-.54-.91-.4-.05.02-.1.04-.17.09l-.03.02c-.3.19-.33.54-.24.8.1.26.35.5.7.45h.06Z"/>
        <path class="cls-1" d="M52.6,23.44c.16-.06.27-.17.32-.31.05-.12.04-.27,0-.4-.1-.26-.37-.46-.7-.33-.16.06-.27.17-.32.31-.05.12-.04.27,0,.4.1.26.37.46.7.33h0Z"/>
        <path class="cls-1" d="M54.53,23.65s-.05.02-.12.06c0,0-.02,0-.02.02l-.11.11c-.06.08-.1.16-.12.26-.02.12-.03.16-.01.2.01.16.1.3.26.38.08.04.15.07.22.07.1,0,.2,0,.29-.04.2-.07.32-.23.35-.42v-.03c.03-.25-.07-.45-.3-.58-.11-.07-.25-.08-.39-.03-.01,0-.03,0-.04,0Z"/>
        <path class="cls-1" d="M69.46,50.32c.71-.26,1.08-1.09.82-1.79-.26-.71-1.09-1.08-1.79-.82-.71.27-1.08,1.09-.82,1.8.26.71,1.09,1.08,1.79.82Z"/>
        <path class="cls-1" d="M67.99,47.04c.17-.06.31-.19.37-.35.1-.25.04-.54-.15-.74-.18-.19-.44-.24-.69-.15-.25.09-.41.31-.42.57-.02.27.13.53.38.66.15.08.33.08.51.02Z"/>
        <path class="cls-1" d="M69.87,47.51c.16.06.32.06.46,0,.14-.05.26-.16.36-.34l.03-.05c.13-.24.1-.53-.09-.74-.2-.24-.53-.33-.8-.23-.27.1-.46.38-.46.7,0,.29.16.52.42.62l.08.03Z"/>
        <path class="cls-1" d="M72.56,49.45s.04,0,.06,0c.01,0,.05,0,.06,0,0,0,.02,0,.03,0,.03,0,.05,0,.08-.02,0,0,.03,0,.03-.01.15-.06.27-.22.29-.39.02-.21-.07-.47-.3-.55-.15-.05-.27-.07-.44,0-.23.09-.36.36-.27.6.07.2.26.35.46.38Z"/>
        <path class="cls-1" d="M12.24,43.18c-.2.14-.3.38-.28.62,0,.02-.02.07.06.27.16.36.53.52.89.38.05-.02.09-.04.14-.07l-.06-.1.08.08c.23-.14.31-.42.3-.63,0-.21-.12-.43-.29-.54-.29-.19-.6-.19-.84-.02Z"/>
        <path class="cls-1" d="M13.75,46.08c.21.56.87.86,1.43.65.56-.21.86-.87.65-1.43-.21-.56-.87-.86-1.43-.65-.57.21-.86.87-.65,1.43Z"/>
        <path class="cls-1" d="M15.26,43.99c.05-.14.05-.29,0-.44-.11-.28-.4-.5-.77-.36-.17.06-.29.18-.35.34-.05.14-.05.29,0,.44.1.28.4.5.77.36.17-.06.29-.18.35-.34Z"/>
        <path class="cls-1" d="M16.2,43.01c.03-.09.03-.19,0-.29-.07-.19-.27-.33-.51-.24-.11.04-.19.12-.23.22-.03.09-.03.19,0,.29.07.19.27.33.51.24.11-.04.19-.12.23-.22Z"/>
        <path class="cls-1" d="M8.02,111.56c.08-.03.15-.08.22-.14l.05-.04c.3-.28.39-.6.27-.93-.12-.33-.4-.51-.81-.52h-.06c-.09,0-.17,0-.25.04-.39.15-.62.67-.47,1.08.15.41.67.66,1.06.51Z"/>
        <path class="cls-1" d="M8.12,112.67c.15.39.6.6,1,.45.39-.15.6-.6.45-1-.15-.39-.6-.6-1-.46-.39.15-.6.6-.45,1Z"/>
        <path class="cls-1" d="M8.04,114.83h0c.06-.02.11-.06.16-.1.11-.1.2-.19.26-.34.07-.17.08-.43-.07-.6-.1-.11-.2-.19-.35-.22-.06-.01-.11-.02-.19,0l-.12.03s-.02.01-.04.02c-.37.07-.59.49-.46.83.12.31.5.49.8.38Z"/>
        <path class="cls-1" d="M10.6,112.09c.32-.12.5-.5.37-.82s-.5-.5-.82-.37c-.32.12-.49.5-.37.82.12.32.5.49.82.37Z"/>
        <path class="cls-1" d="M9.78,114.02c.18.25.5.34.79.23.11-.04.21-.11.28-.2.11-.14.16-.32.15-.5-.02-.18-.1-.35-.24-.46-.27-.22-.66-.19-.92.06-.23.22-.25.6-.06.86Z"/>
        <path class="cls-1" d="M57.87,136.81c-.25-.67-.79-1.26-1.54-1.43.66-.26,1-1.03.75-1.7-.25-.68-1.04-1.03-1.71-.78-.68.25-1.03,1.04-.78,1.71.14.38.46.66.82.78-.1.02-.21.05-.31.09-.62.23-1.05.65-1.26,1.21-.18.49-.17,1.06.03,1.6.37.99,1.4,1.83,2.77,1.32.62-.23,1.05-.65,1.26-1.21.18-.49.17-1.06-.03-1.6Z"/>
        <path class="cls-1" d="M59.27,135.58c.45-.17.68-.68.51-1.13-.17-.45-.68-.68-1.13-.51-.45.17-.68.68-.51,1.13.17.45.68.68,1.13.52Z"/>
        <path class="cls-1" d="M58.76,138.25c-.5.19-.76.77-.58,1.27.19.5.77.76,1.27.58.5-.19.77-.77.58-1.27-.19-.5-.77-.77-1.27-.58Z"/>
        <path class="cls-1" d="M58.53,141.13c-.28.11-.5.4-.54.73-.03.29.08.55.31.69.28.18.5.22.81.15.02,0,.04-.01.06-.02.25-.09.43-.38.46-.6,0,0,0-.03,0-.04.07-.27-.01-.54-.23-.74-.24-.22-.59-.29-.87-.19Z"/>
        <path class="cls-1" d="M110.61,88.99c.11-.04.21-.11.28-.2.23-.28.19-.67-.1-.94-.17-.15-.42-.2-.65-.11-.11.04-.21.11-.28.2-.22.28-.19.67.1.94.17.15.42.2.65.11Z"/>
        <path class="cls-1" d="M114.37,87.74c-.18-.47-.67-.83-1.27-.6-.28.11-.48.3-.58.56-.08.23-.08.49.01.73.18.47.67.83,1.27.6.28-.11.48-.3.58-.56.08-.23.08-.49-.01-.73Z"/>
        <path class="cls-1" d="M111.28,90.81c-.07.03-.14.06-.2.11-.38.27-.47.83-.19,1.21.22.3.67.44,1,.32.08-.03.15-.07.21-.12.33-.29.43-.65.3-1.01-.16-.44-.68-.67-1.12-.51Z"/>
        <path class="cls-1" d="M115.97,90.82c.08-.27-.01-.54-.27-.81-.18-.18-.45-.22-.72-.12-.27.1-.45.32-.47.57-.02.37.08.63.32.79.22.14.47.18.69.1.22-.08.38-.27.45-.52Z"/>
        <path class="cls-1" d="M117.66,89.85c-.08-.02-.17-.02-.25,0-.23.09-.37.38-.28.61.09.23.38.36.61.28.08-.03.15-.08.19-.15l.04-.06c.08-.12.1-.27.05-.4-.05-.13-.16-.22-.3-.26l-.07-.02Z"/>
        <path class="cls-1" d="M117.23,94.19c-.14.05-.25.15-.3.29-.04.12-.04.25,0,.37.09.24.34.42.65.31.14-.05.25-.15.3-.29.04-.12.04-.25,0-.37-.09-.24-.34-.42-.65-.31Z"/>
        <path class="cls-1" d="M114.86,92.41c-.06-.08-.13-.13-.2-.16,0,0-.02-.01-.03-.01-.24-.11-.57,0-.67.26-.02.05-.04.1-.05.17-.02.21.06.39.21.51.15.11.35.14.54.06.03-.01.06-.02.1-.04.17-.09.25-.33.23-.49,0-.04-.01-.07-.02-.11,0,0,0,0,0-.01,0-.03-.02-.05-.04-.09-.02-.03-.04-.06-.06-.09Z"/>
        <path class="cls-1" d="M84.4,71.8c-.13-.35-.46-.57-.89-.57v.11l-.04-.11c-.09,0-.18.02-.26.05-.43.16-.67.71-.5,1.15.16.44.71.7,1.13.54.08-.03.16-.08.22-.13l-.07-.09.1.06c.32-.28.43-.66.3-1.01Z"/>
        <path class="cls-1" d="M80.34,76.23c.18.49.75.75,1.24.57.49-.18.75-.75.57-1.24-.18-.49-.75-.75-1.24-.57-.49.18-.75.75-.57,1.24Z"/>
        <path class="cls-1" d="M84.66,76.33l.08-.04c.33-.19.37-.57.26-.86-.11-.3-.39-.56-.76-.48l-.08.02c-.44.09-.81.5-.62,1.01.17.45.63.55,1,.41.05-.02.09-.04.13-.06Z"/>
        <path class="cls-1" d="M83.51,77.98c-.17.21-.21.48-.09.71.12.26.39.42.69.42.07,0,.13-.01.2-.03.26-.1.44-.39.43-.71,0-.21-.11-.39-.28-.51-.29-.19-.72-.14-.94.12Z"/>
        <path class="cls-1" d="M87.01,77.87c.19-.07.32-.23.34-.42.02-.19-.04-.32-.12-.47-.11-.2-.37-.28-.62-.19-.25.09-.39.32-.34.55.03.17.07.3.21.43.14.13.34.16.53.09Z"/>
        <path class="cls-1" d="M71.39,168.03c-.36.14-.56.56-.42.92.14.36.56.56.92.42.36-.14.55-.56.42-.92-.14-.36-.56-.56-.92-.42Z"/>
        <path class="cls-1" d="M73.62,167.7c-.42.16-.64.64-.48,1.06.16.42.64.64,1.06.48.42-.16.64-.64.48-1.06-.16-.42-.64-.64-1.06-.48Z"/>
        <path class="cls-1" d="M72.63,166.23c-.1-.26-.38-.47-.72-.34-.16.06-.27.17-.33.32-.05.13-.05.27,0,.41.1.27.38.47.72.34.16-.06.27-.17.33-.32.05-.13.05-.27,0-.41Z"/>
      </g>
      <g>
        <path class="cls-1" d="M137.64,134.87c-5.09-1.25-33.55,21.78-39.74,28.23-6.19,6.45-16.38-9.3-10.97-16.57,10.73-14.42,31.45-30.18,48.54-29.96,1,.01,6.3,16.98,5.82,19.18-.23,1.07-2.73,2.5-2.73,2.5,0,0-.76-2.74-.92-3.38Z"/>
        <g>
          <path class="cls-1" d="M103.69,129.72c.23,1.92,5.58,14.95,8.38,14.69.8-.07,9.31-6.37,14.68-9.25,5.37-2.88,7.57-4.01,7.71-4.43.14-.43-2.21-7.47-5.08-13.61-.75-1.6-7.17-.74-14.5,3.33-7.32,4.07-11.36,7.91-11.2,9.27Z"/>
          <path class="cls-1" d="M128.39,133.25l-2.07,1.11c-3.02,1.62-6.93,4.24-10.06,6.35-1.88,1.26-3.82,2.56-4.35,2.8-.46-.05-1.85-1.33-4.16-5.95-1.74-3.48-3.04-6.92-3.16-7.95.03-.54,2.66-3.89,10.73-8.37,1.79-.99,3.6-1.83,5.37-2.49"/>
        </g>
        <path d="M141.2,131.69c-1.19-5.26-3.75-13.6-5.09-15.29-.07-.09-.28-.36-.62-.36-1.88-.02-3.84.15-5.86.5-1.27-1.36-5.53-.6-9.43.85-1.84.69-3.71,1.56-5.56,2.59-6.46,3.59-11.12,7.45-11.46,9.45-6.28,4.84-12.11,10.65-16.67,16.78-3.06,4.12-1.4,10.75,1.72,14.91,2.48,3.3,5.48,4.7,8.02,3.75h0c.73-.27,1.42-.74,2.04-1.39,5.64-5.87,28.65-24.54,37.05-27.68.93-.35,1.52-.44,1.88-.44.26.97.83,3.04.83,3.04.04.16.16.29.31.35.15.06.33.05.47-.03.45-.26,2.71-1.61,2.98-2.85.02-.07.02-.17.02-.29.02-.43-.03-1.39-.58-3.75-.01-.05-.04-.1-.06-.15ZM87.36,146.85c4.39-5.91,9.98-11.51,16.01-16.22.55,1.82,2.08,5.72,3.86,8.99,1.12,2.08,2.35,3.94,3.52,4.8.02.01.04.03.05.04.07.05.14.09.2.13.06.04.12.08.18.11.01,0,.02.01.03.02.31.16.62.25.91.22.08,0,.16-.03.25-.06h0c.57-.21,2-1.17,4.69-2.97,3.11-2.09,6.99-4.69,9.95-6.28l2.07-1.11c4.89-2.62,5.71-3.07,5.9-3.63.25-.76-2.38-8.04-4.81-13.36,1.77-.29,3.49-.44,5.14-.43.84,1.09,3.53,9.15,4.81,14.34-1.62.09-3.48.53-5.56,1.3-14.15,5.29-34.9,24.86-39.28,29.42-.83.87-1.77,1.32-2.79,1.35-1.15-.59-2.32-1.62-3.4-3.05-2.89-3.84-4.47-9.92-1.72-13.62Z"/>
        <g>
          <path d="M92.15,147.47c.66-.25,1.01-1.01.76-1.67,0-.02-.02-.04-.02-.07-.25-.66-1.01-1.01-1.67-.76-.66.25-1.01,1.01-.76,1.67,0,.02.02.05.02.07.25.66,1.01,1.01,1.67.76Z"/>
          <path d="M95.25,140.91c-1.57.59-.66,3.02.91,2.43,1.57-.59.66-3.02-.91-2.43Z"/>
          <path d="M99.19,136.6c-1.57.59-.66,3.02.91,2.43,1.57-.59.66-3.02-.91-2.43Z"/>
          <path d="M103.31,143.42c.29-.64,0-1.42-.64-1.72-.03-.01-.06-.03-.09-.04-.64-.29-1.43,0-1.72.64-.29.64,0,1.43.64,1.72.03.01.06.03.09.04.64.3,1.43,0,1.72-.64Z"/>
          <path d="M97.03,145.9s-.03.06-.04.09c-.29.64,0,1.43.64,1.72.64.3,1.42,0,1.72-.64.01-.03.03-.06.04-.09.29-.64,0-1.43-.64-1.72-.64-.29-1.43,0-1.72.64Z"/>
          <path d="M94.75,152.01c.17-.39.18-.74.05-1.15-.21-.68-1.03-1-1.67-.76-.48.18-.77.6-.82,1.07-.13.59.14,1.22.72,1.48.63.29,1.44,0,1.72-.64Z"/>
          <path d="M96.58,154.69c-1.52-.7-2.6,1.66-1.08,2.36.02.01.05.02.07.03,1.52.7,2.6-1.66,1.08-2.36-.02-.01-.05-.02-.07-.03Z"/>
          <path d="M99.67,150.95s-.04.02-.06.02c-.66.25-1.01,1.01-.76,1.67.25.66,1.01,1.01,1.67.76.02,0,.04-.02.06-.02.66-.25,1.01-1.01.76-1.67-.25-.66-1.01-1.01-1.67-.76Z"/>
          <path d="M104.45,146.47c-1.57.59-.66,3.02.91,2.43,1.57-.59.66-3.02-.91-2.43Z"/>
        </g>
        <path class="cls-1" d="M111.13,141.51c.46-.18,2.4-1.48,4.45-2.86,3.13-2.1,7.03-4.72,10.03-6.33l2.07-1.11c2.83-1.51,4.78-2.56,5.3-2.98-.85-2.55-2.4-6.72-4.29-10.77-.31-.37-3.24-.48-8,1.3-1.77.66-3.58,1.5-5.37,2.49-8.07,4.48-10.71,7.83-10.73,8.37.12,1.03,1.42,4.47,3.16,7.95.11.22.21.42.32.62,1.27,2.11,2.4,3.39,3.06,3.33Z"/>
      </g>
      <path class="cls-1" d="M97.34,164.62c-.4.15-.85.23-1.32.23-1.81,0-3.7-1.1-4.68-2.13-.2-.21-.19-.54.02-.73.21-.2.53-.19.73.02.83.87,2.42,1.81,3.93,1.81.73,0,1.32-.23,1.75-.68,5.47-5.7,34.7-29.74,40.24-28.38.19.05.33.19.38.38.16.64.62,2.43.92,3.37.18.57-.82.89-1,.28-.25-.83-.58-2.1-.84-3.06-5.32-.23-32.14,21.03-38.95,28.12-.33.35-.73.61-1.18.78Z"/>
    </g>
  </g>
</svg>