<?xml version="1.0" encoding="UTF-8"?>
<svg id="Layer_2" data-name="Layer 2" xmlns="http://www.w3.org/2000/svg" viewBox="0 0 178.9 184.56">
  <defs>
    <style>
      .cls-1, .cls-2, .cls-3 {
        fill: #fff;
      }

      .cls-2 {
        stroke: #fff;
      }

      .cls-2, .cls-3, .cls-4, .cls-5 {
        stroke-linecap: round;
        stroke-linejoin: round;
      }

      .cls-2, .cls-3, .cls-5 {
        stroke-width: 2px;
      }

      .cls-3, .cls-4, .cls-5 {
        stroke: #000;
      }
    </style>
  </defs>
  <g id="OBJECTS">
    <g>
      <path class="cls-4" d="M90.45,159.75c-.51-2.65,3.39-2.83,5.63-2.33,2.93.71,5.42.79,9.1.99-3.55-.49-4.78-3.89-5.86-4.38-1.08-.5-2.47.78-2.93,1.84-.46,1.06-1.3.87-1.31.28-.04-2.54,1.85-4.24,4.86-3.46,3.08.71,6.01,4.67,9.25,4.31,0,0,10.77-16.97,10.51-17.96-.25-.99-5.44-19.03-5.44-19.03l6.42,2.55s2.62,14.99,2,16.61c-.62,1.63-11.55,17.89-11.55,17.89,0,0,3.79-2.19,5.82-1.56,2.03.64,2.8,4.45,2.03,4.24-.77-.21-3.01-2.76-3.7-2.76s-3.86,1.63-6.55,1.91c0,0-.4,1.48-4.1,1.27-3.69-.21-9.55-1.91-11.17-1.06-1.62.85-2.54,3.04-3.01.64Z"/>
      <path class="cls-4" d="M50.57,163.2c-.66-3.43,4.38-3.65,7.28-3.02,3.79.91,7,1.01,11.76,1.28-4.59-.64-6.18-5.03-7.57-5.67-1.4-.64-3.19,1-3.79,2.38s-1.68,1.12-1.7.37c-.05-3.29,2.39-5.48,6.28-4.48,3.99.91,7.77,6.03,11.96,5.57,0,0,13.91-21.93,13.58-23.21-.33-1.28-7.03-24.59-7.03-24.59l8.29,3.3s3.39,19.37,2.59,21.47c-.8,2.1-14.93,23.12-14.93,23.12,0,0,4.91-2.83,7.53-2.01,2.62.82,3.61,5.76,2.62,5.48-1-.27-3.89-3.56-4.78-3.56s-4.98,2.1-8.47,2.47c0,0-.52,1.92-5.29,1.64-4.77-.27-12.35-2.47-14.44-1.37-2.09,1.1-3.29,3.93-3.89.82Z"/>
      <path class="cls-3" d="M27.81,20.9s5.62,5.89,6.97,18.79c0,0-15.23,2.41-21.97,0,0,0-7.37,3.81-10.54,6.54-.21.18-.4.36-.57.53-2.73,2.73,1.95-24.92,26.12-25.85Z"/>
      <path d="M9.93,40.81c4.45-4.06,11.77-6.67,17.71-7.12.69-.05.78.98.16,1.16-2.84.85-5.75,1.39-8.57,2.33-3.17,1.06-6.12,2.56-9.23,3.74-.06.02-.12-.07-.07-.12h0Z"/>
      <path d="M23.97,27.84c0,.09.01.19.02.28.05.67-.6,1.24-1.23,1.24-.71,0-1.19-.56-1.23-1.24,0-.1-.02-.19-.02-.28.02-1.59,2.49-1.59,2.47,0h0Z"/>
      <path class="cls-5" d="M26.77,25.03S30.66,1.57,49.24,1.02c18.58-.55,36.25,8.02,43.18,21.32,0,0,31.7,8.02,42.08,39.9,10.38,31.88,14.76,65.4,14.76,65.4,0,0-38.81-.36-75.42-17.67-36.62-17.31-24.78-57.39-24.78-57.39,0,0-20.35-14.29-22.29-27.55Z"/>
      <g>
        <path class="cls-1" d="M86.72,37.14c2.52,1.32,4.69,3.29,7.14,4.75.84.49,5.1,2.72,3.85-.13-.44-.99-1.12-1.95-1.84-2.85-1.44-1.12-2.83-2.37-3.87-3.75-.23-.31.25-.62.51-.39,3.13,2.78,6.92,6.43,11.06,7.5,3.55.92-.67-6.03-1.29-6.91-1.69-2.43-3.76-4.67-5.93-6.68-.12-.12.06-.29.18-.18,2.87,2.32,5.53,4.98,7.7,7.97,1.1,1.51,3.12,5.29.86,6.71-.11.07-.23.12-.35.17.75.62,1.37,2.24,1.58,2.81.51,1.43-.3,3.2-2.04,2.51-.52-.21-.43-.89.13-.96.4-.04.85.02.88-.48.04-.57-.1-1.11-.28-1.65-.21-.66-.85-1.42-.99-2.12-1.97.05-4.63-2.01-5.81-2.83-.12-.08-.24-.17-.37-.26.41.55.77,1.16,1,1.84.44,1.26-.54,2.12-1.7,2.11-1.92-.03-3.94-1.62-5.44-2.63-1.84-1.24-3.55-2.65-5.33-3.97-.33-.25-.05-.76.33-.56Z"/>
        <path class="cls-1" d="M108.27,58.46c1.67,1.78,3.04,4.17,5.2,5.42.95.55,1.02-.87,1.08-1.5.02-.26,0-.52-.02-.78-.09-.12-.1-.25-.06-.36-.17-.87-.56-1.72-.91-2.47-.88-1.85-2.14-3.49-3.21-5.23-.11-.18.16-.33.28-.16,1.61,2.28,3.45,4.39,4.48,7.02.11.29.21.63.29.98,1.9,1.9,3.96,4.61,6.6,5.29,2.41.62.39-5.09.07-5.75-.97-1.97-2.36-3.77-3.88-5.34-.15-.15.07-.37.23-.23,2.22,1.94,4.21,4.33,5.39,7.05.59,1.36,1.22,4.42-.48,5.37-2.6,1.46-5.82-2.55-7.79-4.97-.03.87-.29,1.7-.96,2.2-2.15,1.62-5.77-4.97-6.72-6.14-.23-.29.15-.69.41-.41Z"/>
      </g>
      <path d="M138.13,129.4c-10.52-6.25-18.95-15.08-28.17-23-.39-.34.12-.99.55-.71,10.27,6.59,18.25,15.99,27.7,23.61.06.05-.02.14-.08.1h0Z"/>
      <g>
        <path class="cls-5" d="M143.84,111.46c.63.23,46.5,71.16,30.79,62.72,0,0,4.34,9.38,1.29,9.38-5.28,0-15.59-11.25-15.59-11.25,0,0,9.02,14.85-8.91.81-28.58-22.38-43.35-55.09-43.35-55.09,0,0,7.56-16.88,35.77-6.56Z"/>
        <g>
          <path class="cls-1" d="M133.9,142.69c3.95,4.87,8.01,9.65,11.95,14.53,1.69.52,3.41.96,5.11,1.46.04,0,.03.07-.01.06-1.67-.25-3.21-.56-4.78-1.13.39.48.79.96,1.17,1.45.24.31.48.62.72.93,1.5.22,2.84.85,4.31,1.23.04,0,.02.07-.01.06-1.38-.17-2.69-.49-4-.92.36.47.72.94,1.08,1.42,1.22.43,2.46.79,3.69,1.19.12.04.06.22-.06.18-1.1-.32-2.21-.61-3.31-.94.25.33.5.67.74,1,1.12.44,2.23.87,3.37,1.22.04.01.02.07-.02.06-1.07-.29-2.12-.64-3.16-1.01.48.66.95,1.32,1.42,1.98.04-.04.1-.06.17-.03,1.39.41,2.58,1.22,3.95,1.67.1.03.07.21-.04.19-1.34-.25-2.54-.78-3.75-1.35.41.58.82,1.16,1.23,1.74,1.25.25,2.52.93,3.69,1.41.08.03.04.15-.04.12-1.07-.36-2.25-.61-3.3-1.05.54.77,1.1,1.54,1.65,2.3.03,0,.06-.02.09,0,1.26.43,2.43,1.18,3.65,1.7.04.02.02.08-.02.06-1.12-.37-2.3-.75-3.37-1.28,1.01,1.39,2.03,2.76,3.09,4.1.05.07-.04.15-.1.09-1.44-1.76-2.82-3.57-4.18-5.4-.32.72-.85,1.34-1.04,2.11,0,.04-.07.02-.06-.01.15-.84.68-1.52.94-2.33-.56-.75-1.12-1.5-1.68-2.26-.45,1.01-.94,2-1.3,3.06-.05.16-.29.08-.25-.08.33-1.12.73-2.23,1.37-3.22-.35-.47-.7-.94-1.05-1.42-.39,1-.89,1.95-1.18,2.99-.02.08-.14.04-.12-.04.28-1.08.79-2.08,1.17-3.13-.36-.48-.71-.97-1.08-1.45-.37,1.1-.8,2.18-1.22,3.26-.01.04-.08.02-.06-.02.41-1.12.83-2.23,1.19-3.37-.29-.38-.58-.76-.87-1.14-.35.98-.85,1.87-1.18,2.86-.02.07-.14.05-.12-.03.17-1.15.6-2.12,1.05-3.16-.29-.38-.59-.76-.88-1.13-.2.89-.85,1.67-.93,2.58,0,.07-.12.04-.09-.02.4-.92.55-1.96.72-2.95-.24-.31-.48-.63-.73-.94-.33.84-.59,1.7-.74,2.59,0,.04-.07.04-.07,0,.08-.98.27-1.95.57-2.89-.06-.08-.12-.16-.19-.24-.38-.47-.77-.93-1.16-1.4-.06.37-.14.73-.29,1.1-.23.56-.46,1.12-.69,1.68-.05.12-.21.06-.19-.06.24-1.06.46-2.07.87-3.07-4.02-4.85-8.18-9.58-12.02-14.59-.2-.26.18-.6.39-.34Z"/>
          <path class="cls-1" d="M162.65,171.59c-.03.12-.2.1-.18-.02.16-1.13.43-2.24.59-3.36-.66-1.13-1.32-2.26-1.98-3.39-.11.32-.22.64-.35.95-.25.63-.67,1.16-.87,1.83,0,.04-.06.02-.06-.02.05-1.14.46-2.36.88-3.44-.43-.74-.87-1.48-1.3-2.22-.17.45-.42.9-.6,1.29-.28.62-.61,1.21-1.05,1.72-.1.12-.29-.02-.19-.15.44-.58.72-1.25.98-1.93.17-.45.29-1.03.55-1.45-.62-1.05-1.24-2.1-1.87-3.14-.17.46-.3.94-.52,1.38-.4.8-.82,1.57-1.16,2.4-.06.15-.28.06-.22-.1.47-1.39,1.11-2.66,1.74-3.96-1.42-2.36-2.87-4.69-4.39-6.98-.13-.2.15-.44.29-.24,1.26,1.78,2.49,3.58,3.7,5.4.02,0,.03-.02.05-.01,3.38.46,6.68,1.84,9.84,3.12.22.09.08.43-.14.36-3.06-1.07-6.19-1.8-9.27-2.75.68,1.03,1.35,2.07,2.02,3.11h0c2.93.5,5.69,1.84,8.45,2.92.18.07.07.35-.12.3-2.6-.82-5.22-1.57-7.81-2.4.41.65.82,1.29,1.22,1.94,2.99.88,5.82,2.45,8.33,4.34.13.1-.02.29-.15.2-2.39-1.56-4.94-2.52-7.55-3.53.71,1.14,1.4,2.29,2.1,3.45,2.79.85,5.12,2.47,7.55,4.1.23.15,0,.58-.24.44-2.21-1.29-4.46-2.56-6.77-3.65,1.66,2.79,3.29,5.59,4.89,8.42.25.45-.34.97-.62.52-1.72-2.7-3.36-5.46-4.99-8.22-.18.94-.55,1.85-.77,2.77Z"/>
          <path class="cls-1" d="M160.43,172.73c-7.35-12.72-15.74-24.85-23.27-37.46-.32-.54.52-1.03.84-.49,7.54,12.63,16.14,24.59,22.68,37.8.08.17-.16.31-.25.15h0Z"/>
          <path class="cls-1" d="M174.77,174.82c-4.25-6.32-7.74-13.04-11.43-19.69-3.84-6.92-8.64-13.26-12.63-20.09-.14-.25.22-.55.41-.32,9.94,12.13,16.33,26.35,23.82,39.99.06.11-.1.2-.17.1h0Z"/>
        </g>
      </g>
      <g>
        <path class="cls-2" d="M35.24,27.66s9.8-12.89,23.82-7.14c0,0-1.5,12.83-10.84,14.33-9.07,1.45-12.98-7.18-12.98-7.18Z"/>
        <path d="M50.35,26.27c1.49-2.28,2.24-4.79,2.31-7.18-10.5-.48-17.42,8.56-17.42,8.56,0,0,1.18,2.57,3.71,4.67,4.11.39,8.62-1.83,11.39-6.06Z"/>
      </g>
      <g>
        <path class="cls-5" d="M62.25,48.8c12.2-3.29,39.28,3.88,49.91,19.28,10.63,15.41,36.51,64.16,34.89,66.01-1.62,1.85-10.48-5.39-10.48-5.39,0,0,4.14,5.8.48,5.69-3.67-.11-15.62-6.76-15.62-6.76,0,0,2.07,5.05-3.03,3.78-5.1-1.28-57.04-19.12-66.76-37.29-9.72-18.16-6.82-40.63,10.61-45.33Z"/>
        <g>
          <path class="cls-1" d="M122.64,128.34c-11.08-6.88-20.64-15.3-30.82-23.4-.17-.14.05-.43.24-.31,5.12,3.51,10.25,7.06,15.07,10.97,5.23,4.24,11.13,7.5,15.67,12.53.1.11-.03.29-.16.2h0Z"/>
          <path class="cls-1" d="M101.16,108.73c5.31,3.33,10.7,6.55,16.01,9.89,1.77-.05,3.54-.19,5.3-.27.04,0,.05.06,0,.06-1.66.31-3.22.51-4.89.47.53.33,1.05.66,1.58.99.33.21.66.43.99.65,1.49-.28,2.96-.12,4.47-.22.04,0,.04.06,0,.06-1.36.29-2.7.41-4.08.43.49.33.99.66,1.48,1,1.29,0,2.58-.05,3.87-.07.13,0,.12.19,0,.2-1.15.05-2.29.13-3.43.18.34.24.68.47,1.02.71,1.2.05,2.39.1,3.59.06.04,0,.04.06,0,.06-1.11.07-2.21.07-3.31.07.66.47,1.32.94,1.98,1.41.03-.05.07-.08.15-.09,1.45-.06,2.83.33,4.28.3.11,0,.14.18.03.19-1.34.2-2.66.08-3.99-.07.58.41,1.15.83,1.73,1.25,1.26-.17,2.68.06,3.95.14.08,0,.08.13,0,.13-1.12,0-2.33.15-3.46.08.77.55,1.54,1.1,2.3,1.65.02-.02.05-.03.08-.03,1.33,0,2.68.33,4,.43.04,0,.04.06,0,.07-1.18.01-2.42.03-3.6-.12,1.4.99,2.81,1.96,4.25,2.88.07.04,0,.16-.07.11-1.93-1.2-3.82-2.47-5.7-3.76-.07.78-.37,1.54-.31,2.33,0,.04-.06.05-.06,0-.13-.84.16-1.66.13-2.5-.77-.53-1.55-1.06-2.32-1.59-.1,1.11-.24,2.2-.24,3.31,0,.17-.25.17-.26,0-.05-1.17-.03-2.35.25-3.49-.48-.34-.97-.67-1.45-1-.05,1.07-.21,2.13-.15,3.21,0,.08-.12.08-.13,0-.08-1.12.07-2.22.1-3.34-.49-.34-.99-.68-1.48-1.02,0,1.16-.05,2.32-.1,3.48,0,.04-.07.04-.07,0,.03-1.19.07-2.38.04-3.57-.39-.27-.79-.53-1.19-.8-.01,1.04-.2,2.04-.2,3.09,0,.07-.11.09-.13.02-.21-1.14-.12-2.2-.02-3.33-.4-.27-.8-.52-1.2-.79.1.9-.26,1.85-.05,2.74.02.07-.1.08-.09.01.08-1-.11-2.04-.28-3.02-.33-.22-.66-.44-1-.65-.04.9,0,1.8.14,2.69,0,.04-.05.06-.06.02-.24-.95-.37-1.93-.39-2.92-.09-.05-.17-.11-.26-.17-.51-.32-1.03-.63-1.55-.95.06.38.11.74.08,1.14-.03.6-.08,1.21-.11,1.81,0,.13-.18.12-.2,0-.12-1.08-.23-2.11-.17-3.19-5.37-3.29-10.84-6.43-16.09-9.92-.28-.18-.03-.63.26-.45Z"/>
          <path class="cls-1" d="M134.22,124.07c-.01.12-.2.13-.19,0,.02-1.16.17-2.31.2-3.47-.85-1.06-1.69-2.12-2.53-3.18-.08.33-.16.67-.25,1-.18.67-.57,1.25-.69,1.95,0,.04-.06.03-.06,0-.09-1.16.18-2.44.49-3.58-.55-.7-1.11-1.39-1.67-2.09-.12.47-.33.96-.48,1.38-.22.66-.5,1.3-.9,1.87-.09.13-.31.01-.22-.13.39-.64.61-1.35.8-2.07.13-.48.18-1.07.4-1.53-.79-.98-1.58-1.96-2.38-2.94-.12.48-.2.98-.38,1.46-.32.85-.67,1.69-.93,2.56-.05.16-.29.09-.25-.07.32-1.46.84-2.82,1.35-4.21-1.81-2.21-3.65-4.39-5.56-6.51-.17-.19.1-.46.28-.28,1.57,1.64,3.11,3.31,4.62,5,.02,0,.03-.02.05-.02,3.66.05,7.34,1.04,10.86,1.96.25.06.14.43-.1.38-3.38-.71-6.81-1.06-10.21-1.66.85.96,1.7,1.92,2.54,2.89h0c3.18.15,6.28,1.16,9.35,1.92.21.05.12.35-.09.31-2.87-.51-5.75-.95-8.61-1.47.52.6,1.03,1.21,1.55,1.81,3.29.53,6.5,1.77,9.41,3.37.15.08.02.29-.13.22-2.75-1.29-5.58-1.95-8.47-2.64.9,1.07,1.79,2.15,2.67,3.23,3.08.52,5.76,1.88,8.55,3.22.26.13.07.59-.2.47-2.52-1.03-5.06-2.04-7.67-2.86,2.12,2.61,4.21,5.25,6.28,7.9.33.42-.23,1.02-.6.6-2.18-2.52-4.28-5.1-6.36-7.7-.07.97-.35,1.93-.46,2.9Z"/>
          <path class="cls-1" d="M108.71,74.11c4.64,5.81,9.24,12.77,12.12,19.64.96,2.27,4.46,12.67-1.28,11.3-2.3-.55-4.51-2.6-6.33-3.99-3.21-2.45-6.26-5.11-9.28-7.79-5.43-4.82-12.53-10.16-16.25-16.53-.21-.37.26-.69.56-.43,9.63,8.23,17.8,18.04,28.14,25.5.81.58,1.65,1.12,2.52,1.61,2.65,1.48,2.65-2.35,2.38-3.91-.46-2.7-1.4-5.17-2.55-7.63-2.85-6.08-6.15-12.27-10.09-17.73-.02-.03.03-.07.05-.04h0Z"/>
          <path class="cls-1" d="M107.7,95.71c1.27,3.77,6.61,14.69-1.96,11.85-4.85-1.61-9.14-5.54-12.95-8.8-6.19-5.31-12.37-11.17-17.21-17.76-.25-.34.28-.69.56-.43,8.45,7.52,15.47,16.43,24.76,23.03,1.79,1.28,8.88,6.08,9.03,1.42.1-3.14-1.52-6.3-2.3-9.28-.01-.04.05-.06.06-.02h0Z"/>
          <path class="cls-1" d="M85.25,94.23c1.35,1.35,9.97,9.17,6.12,11.43-2.26,1.32-5.73-.41-7.87-1.18-5.4-1.93-10.5-4.95-15.15-8.27-.27-.19-.04-.61.26-.45,5.77,3.1,10.98,6.54,17.25,8.64,1.25.42,2.48.68,3.8.77,3.49.24.36-4.78-.13-5.55-1.23-1.93-2.82-3.63-4.32-5.35-.03-.03.02-.08.04-.04h0Z"/>
          <path class="cls-1" d="M82.64,103.68c1.27,1.87,4.71,5.99.56,6.87-3.48.73-7.95-2.6-10.8-4.18-.26-.14-.08-.57.2-.47,2.49.8,4.7,2.37,7.19,3.25,1.27.45,4.5,1.32,4.57-1.12.04-1.44-1.22-3.01-1.83-4.27-.04-.08.07-.14.11-.07h0Z"/>
          <path class="cls-1" d="M73.52,64.59c3.03,3.9,5.9,7.15,7.33,11.98.65,2.22-.26,4.88-2.89,4.94-5.8.15-11.53-5.29-15.71-8.77-.29-.24.08-.7.39-.51,3.73,2.29,7.04,5.13,11.03,7.02,1.19.57,2.47.97,3.79,1.05,2.87.18,2.3-3.38,1.79-5.19-1.15-4.05-3.59-6.98-5.87-10.4-.06-.09.09-.21.15-.12h0Z"/>
          <path class="cls-1" d="M84.83,61.86c2.1,3.52,6.82,9.92,5.13,14.26-1.64,4.22-10.05-2.69-11.73-4.12-.36-.3.15-.79.5-.5,1.61,1.28,3.5,2.27,5.29,3.26,2.02,1.12,5.46,3.2,5.41-.72-.05-4.18-2.8-8.52-4.72-12.1-.04-.07.07-.14.11-.07h0Z"/>
        </g>
        <path class="cls-1" d="M62.19,48.51c2.84-.85,5.98-1.03,8.97-.98l2.26.1c.75.04,1.5.15,2.25.22,1.51.13,2.99.41,4.48.67,1.48.28,2.94.67,4.41,1.02,1.44.45,2.91.81,4.33,1.33,1.42.52,2.86.98,4.24,1.61l2.09.89c.69.32,1.36.67,2.04,1.01,2.74,1.31,5.28,3.01,7.75,4.8.62.44,1.18.97,1.77,1.45.58.5,1.19.96,1.73,1.51l1.61,1.65c.26.28.55.54.8.83l.72.91,1.43,1.82c.44.62.85,1.24,1.28,1.87.83,1.25,1.64,2.51,2.44,3.78,1.6,2.53,3.14,5.1,4.63,7.69,2.99,5.17,5.89,10.4,8.73,15.65,2.85,5.25,5.63,10.53,8.27,15.89,1.33,2.67,2.64,5.36,3.91,8.06,1.27,2.71,2.54,5.41,3.66,8.2.55,1.4,1.12,2.78,1.51,4.3.05.19.09.39.12.6,0,.23.1.4-.07.86-.03.06-.07.12-.1.17-.12.12-.05.04-.08.08l-.03.02-.11.09c-.11.07-.31.18-.44.21-.26.06-.51.07-.73.05-.88-.11-1.57-.45-2.27-.79-2.7-1.44-5.04-3.31-7.33-5.24l.27-.25h0c.68.79,1.27,1.63,1.74,2.58.23.48.46.96.55,1.54.05.29.08.59,0,.94-.06.34-.29.72-.61.93-.32.21-.66.29-.96.33-.17.01-.26.02-.49,0l-.38-.05c-.48-.04-1.07-.22-1.57-.35-.99-.31-1.96-.67-2.89-1.07-1.89-.78-3.71-1.69-5.5-2.63-1.8-.93-3.56-1.94-5.3-2.99l.31-.28h0c.29.53.48,1.08.56,1.68.01.15.05.3.04.46,0,.16.01.31-.03.48-.04.16-.04.33-.11.49-.07.16-.11.33-.23.47-.11.15-.21.3-.36.4-.15.11-.29.22-.45.27-.16.05-.32.14-.48.14l-.48.04c-.16,0-.3-.03-.46-.05-.15-.02-.3-.04-.44-.07-.28-.09-.56-.19-.82-.3-.07-.03-.11-.12-.07-.19.02-.05.08-.09.13-.09h.01c.57,0,1.11.04,1.61-.04l.36-.07c.12-.02.2-.09.31-.12.11-.03.18-.11.26-.17.09-.05.14-.14.2-.22.07-.07.1-.18.14-.28.05-.09.06-.22.09-.33.04-.11.02-.24.04-.36.02-.12,0-.25,0-.38-.02-.51-.11-1.06-.22-1.58h0c-.05-.11,0-.24.11-.29.06-.03.13-.02.18,0h.02s5.45,2.64,5.45,2.64c.91.43,1.83.85,2.75,1.25.92.4,1.84.82,2.77,1.19.93.38,1.87.72,2.81,1,.24.08.45.11.68.17.21.06.45.11.71.13l.38.04h.27c.2-.02.36-.07.47-.14.19-.1.28-.43.23-.87-.05-.43-.19-.89-.35-1.35-.35-.91-.8-1.81-1.27-2.69h0c-.06-.09-.05-.2.04-.27.07-.05.16-.05.22,0h0c1.19.9,2.41,1.75,3.65,2.56,1.24.8,2.51,1.59,3.83,2.19.65.29,1.35.56,1.96.6.15,0,.28,0,.38-.04.04-.02.01,0,.06-.02l.1-.09.03-.02s.07-.07-.03.03c-.02.01-.03.03-.04.05-.03.11,0-.11-.05-.24-.03-.16-.07-.32-.12-.49-.42-1.35-1.04-2.72-1.65-4.06-2.48-5.38-5.24-10.67-8.03-15.92l-4.25-7.86-4.29-7.84c-2.89-5.2-5.83-10.38-8.87-15.49l-4.6-7.63c-.78-1.26-1.57-2.52-2.37-3.75-.4-.61-.81-1.23-1.23-1.83l-1.32-1.7-.66-.85c-.23-.27-.5-.52-.74-.79l-1.5-1.56c-.5-.52-1.09-.96-1.62-1.44-.56-.46-1.08-.97-1.67-1.39-2.33-1.74-4.78-3.34-7.37-4.71-.65-.34-1.29-.7-1.94-1.04l-2-.92c-1.32-.65-2.71-1.14-4.07-1.69-1.37-.55-2.79-.94-4.18-1.43-1.42-.38-2.83-.8-4.27-1.12-1.44-.3-2.87-.67-4.33-.86-.73-.11-1.45-.25-2.19-.33l-2.2-.21c-.73-.09-1.47-.07-2.2-.09-.73-.01-1.48-.05-2.2.02-.73.06-1.45.05-2.19.15l-2.21.37c-.16.03-.31-.08-.34-.24-.02-.15.07-.29.21-.33h.01Z"/>
      </g>
    </g>
  </g>
</svg>