<?xml version="1.0" encoding="UTF-8"?>
<svg id="Layer_2" data-name="Layer 2" xmlns="http://www.w3.org/2000/svg" viewBox="0 0 214.87 225.01">
  <defs>
    <style>
      .cls-1, .cls-2, .cls-3 {
        fill: #fff;
      }

      .cls-2, .cls-3 {
        stroke: #000;
        stroke-linecap: round;
        stroke-linejoin: round;
      }

      .cls-3 {
        stroke-width: 2px;
      }
    </style>
  </defs>
  <g id="OBJECTS">
    <g>
      <g>
        <path d="M174.85,15.76c-3.66-.24-7.24-.66-10.81-.97.59-.66,1.12-1.37,1.64-2.08,1.18-1.59,2.36-3.18,3.68-4.66.06-.07-.03-.16-.1-.1-1.39,1.19-2.68,2.48-3.96,3.78-.7.71-1.43,1.43-2.11,2.18-.14-4.59-.21-9.24-.91-13.78-.02-.16-.3-.16-.32,0-.7,4.59-.61,9.29-.59,13.93-2.06-1.95-4.62-3.65-6.91-5.14-.07-.04-.15.06-.09.11,1.87,1.62,3.52,3.77,5.44,5.46-3.41-.17-6.83-.14-10.33.37-.33.05-.24.56.08.56,3.79.04,7.56.34,11.33.61-.85.82-1.62,1.74-2.41,2.6-1.18,1.29-2.33,2.6-3.4,3.99-.05.07.06.14.11.09,1.24-1.23,2.56-2.36,3.9-3.47.75-.62,1.54-1.24,2.27-1.92-.04,3.98-.09,8.17.72,11.95.08.39.7.39.78,0,.78-3.71.64-7.83.48-11.74,2.11,1.66,4.72,2.88,6.8,4.45.07.05.14-.06.09-.11-1.9-1.91-4.06-4.03-6.36-5.64,3.65.22,7.3.31,10.99,0,.31-.03.31-.46,0-.48Z"/>
        <path d="M184.79,27.49c-2.81-1-4.68-3.61-4.75-6.58-.02-.71-1.08-.71-1.09,0-.05,3.08-1.71,5.69-4.77,6.51-.52.14-.56.98,0,1.09,3.18.65,4.56,3.46,5.08,6.4.02.13.13.18.24.17.08,0,.16-.03.2-.13,0,0,0-.02.01-.02,0,0,0,0,0-.01.73-3.02,1.59-5.87,5.06-6.48.52-.09.41-.8,0-.94Z"/>
        <g>
          <path d="M146.61,31.7c-.12-.8-1.5-.8-1.62,0,0,.05-.01.09-.02.14-.08.54.22,1.09.83,1.09s.91-.55.83-1.09c0-.05-.01-.09-.02-.14Z"/>
          <path d="M153.78,28.28c-1.82,0-1.82,2.82,0,2.82s1.82-2.82,0-2.82Z"/>
          <path d="M148.33,37.12c-.75,0-1.38.63-1.38,1.38s.63,1.38,1.38,1.38,1.38-.63,1.38-1.38-.63-1.38-1.38-1.38Z"/>
          <path d="M150.77,33.66s-.05.05-.08.07c-.21.17-.21.57,0,.74.03.02.05.04.08.07.4.33,1.06.14,1.06-.44s-.66-.77-1.06-.44Z"/>
          <path d="M158.81,38.52c-.48-.13-1.01.11-1.22.55-.05.06-.1.12-.14.18-.33.48-.09,1.19.39,1.47.48.28,1.21.14,1.47-.38-.03.04-.07.08-.1.11.07-.09.14-.17.2-.26.11-.23.15-.41.18-.66.05-.46-.35-.9-.77-1.01Z"/>
        </g>
        <g>
          <path d="M184.15,13.99c-.77,0-.77,1.19,0,1.19s.77-1.19,0-1.19Z"/>
          <path d="M188.03,10.51c0-.59-.5-1.09-1.09-1.09s-1.09.5-1.09,1.09.5,1.09,1.09,1.09,1.09-.5,1.09-1.09Z"/>
          <path d="M188.75,16.19c.51-.88-.16-1.81-1.08-1.89.07,0,.15.02.23.03-.83-.19-1.67.39-1.67,1.27,0,.46.25.9.65,1.14.37.22.97.27,1.33,0,.23-.17.4-.3.54-.55Z"/>
          <path d="M191.11,12.05c-.86,0-.86,1.34,0,1.34s.86-1.34,0-1.34Z"/>
          <path d="M189.44,21.25c-.41-.27-.88-.14-1.23.16-.33.29-.36.82-.15,1.18,0,.01.01.03.02.04.29.51,1.07.65,1.48.19.41-.46.43-1.21-.13-1.57Z"/>
        </g>
        <path d="M183.14,53.16c-2.02,2.71-5.63,1.04-7.16-.27-3.56-3.05,1.21-10.78,5.64-8.65.27.13.51-.25.24-.41-.22-.14-.44-.25-.66-.35-3.56-2.34-7.98-2.38-11.58.09-3.17,2.17-3.53,6.59-2.64,9.97.91,3.47,3.96,5.39,7.35,5.77,4.09.45,8.87-3.07,9.26-5.82.05-.37-.16-.73-.45-.34Z"/>
        <path d="M47.11,34.78c-2.31-.15-4.57-.42-6.82-.61.37-.42.7-.87,1.03-1.31.74-1,1.49-2,2.32-2.94.04-.04-.02-.1-.06-.06-.88.75-1.69,1.56-2.5,2.39-.44.45-.9.9-1.33,1.38-.09-2.9-.13-5.83-.58-8.7-.02-.1-.19-.1-.2,0-.44,2.9-.39,5.86-.38,8.79-1.3-1.23-2.92-2.3-4.36-3.24-.04-.03-.09.04-.05.07,1.18,1.03,2.22,2.38,3.43,3.45-2.15-.11-4.31-.09-6.52.23-.21.03-.15.35.05.36,2.39.02,4.77.22,7.15.38-.53.52-1.02,1.09-1.52,1.64-.75.82-1.47,1.64-2.14,2.52-.03.04.04.09.07.05.78-.77,1.61-1.49,2.46-2.19.47-.39.97-.78,1.43-1.21-.03,2.51-.06,5.15.46,7.54.05.24.44.25.49,0,.49-2.34.41-4.94.3-7.41,1.33,1.04,2.98,1.81,4.29,2.81.04.03.09-.04.06-.07-1.2-1.21-2.56-2.54-4.01-3.56,2.3.14,4.61.2,6.94,0,.19-.02.19-.29,0-.3Z"/>
        <path d="M64.14,18.72c-2.81-1-4.68-3.61-4.75-6.58-.02-.71-1.08-.71-1.09,0-.05,3.08-1.71,5.69-4.77,6.51-.52.14-.56.98,0,1.09,3.18.65,4.56,3.46,5.08,6.4.02.13.13.18.24.17.08,0,.16-.03.2-.13,0,0,0-.02.01-.02,0,0,0,0,0-.01.73-3.02,1.59-5.87,5.06-6.48.52-.09.41-.8,0-.94Z"/>
        <path d="M68.73,30.21c-1.49-.53-2.48-1.91-2.52-3.49,0-.37-.57-.37-.58,0-.03,1.64-.91,3.02-2.53,3.45-.28.08-.3.52,0,.58,1.69.35,2.42,1.83,2.7,3.39.01.07.07.1.13.09.04,0,.09-.02.11-.07,0,0,0,0,0-.01,0,0,0,0,0,0,.39-1.6.84-3.11,2.69-3.43.27-.05.22-.42,0-.5Z"/>
        <g>
          <path d="M69.68,49.39c-.81.03-.97,1.39-.19,1.6.04.01.09.02.13.04.53.14,1.11-.09,1.18-.7.07-.6-.44-.97-.98-.95-.05,0-.09,0-.14,0Z"/>
          <path d="M59,38.84c-.81.03-.97,1.39-.19,1.6.04.01.09.02.13.04.53.14,1.11-.09,1.18-.7.07-.6-.44-.97-.98-.95-.05,0-.09,0-.14,0Z"/>
          <path d="M67.12,41.88c-.21,1.8,2.58,2.13,2.8.33.21-1.8-2.58-2.13-2.8-.33Z"/>
          <path d="M56.41,34.54c-.21,1.8,2.58,2.13,2.8.33.21-1.8-2.58-2.13-2.8-.33Z"/>
          <path d="M75.27,48.31c-.09.75.46,1.44,1.21,1.53.75.09,1.44-.46,1.53-1.21.09-.75-.46-1.44-1.21-1.53-.75-.09-1.44.46-1.53,1.21Z"/>
          <path d="M51.75,43.19c-.09.75.46,1.44,1.21,1.53.75.09,1.44-.46,1.53-1.21.09-.75-.46-1.44-1.21-1.53-.75-.09-1.44.46-1.53,1.21Z"/>
          <path d="M72.12,45.49s.04.06.06.09c.14.22.54.27.74.09.02-.02.05-.05.08-.07.37-.36.26-1.03-.31-1.1-.58-.07-.84.56-.56,1Z"/>
          <path d="M77.87,38.07c-.19.46,0,1.02.41,1.28.05.05.11.11.16.16.44.39,1.17.23,1.5-.21.33-.44.28-1.19-.21-1.5.03.04.07.08.1.12-.08-.08-.16-.16-.24-.23-.21-.14-.39-.2-.63-.25-.45-.1-.93.25-1.1.65Z"/>
        </g>
        <g>
          <path d="M77.85,7.07c-.66-.4-1.28.62-.62,1.02.66.4,1.28-.62.62-1.02Z"/>
          <path d="M82.97,6.1c.31-.51.14-1.19-.37-1.5-.51-.31-1.19-.14-1.5.37-.31.51-.14,1.19.37,1.5.51.31,1.19.14,1.5-.37Z"/>
          <path d="M80.65,11.33c.89-.49.8-1.63.05-2.18.06.04.12.09.18.14-.61-.6-1.63-.53-2.09.22-.24.4-.25.9-.03,1.31.2.38.69.74,1.14.69.28-.03.5-.05.75-.19Z"/>
          <path d="M84.81,9.01c-.74-.45-1.43.7-.69,1.14.74.45,1.43-.7.69-1.14Z"/>
          <path d="M78.62,16.02c-.21-.44-.68-.58-1.13-.5-.43.08-.74.52-.74.93,0,.01,0,.03,0,.04,0,.59.58,1.11,1.17.93.59-.18,1-.82.71-1.41Z"/>
        </g>
      </g>
      <g>
        <g>
          <g>
            <path class="cls-1" d="M197.87,115.37c-9.14,0-19.69-1.95-22.71-2.55-17.58-3.49-35.69-17.44-34.71-24.25.83-5.71,15.09-19.79,33.53-19.79,3.66,0,7.34.54,10.94,1.62,15.74,4.69,22.92,15.81,25.81,22.02,3.13,6.76,4.01,13.75,2.23,17.81-1.52,3.46-6.46,5.14-15.1,5.14h0Z"/>
            <path d="M173.99,69.78c3.4,0,6.97.48,10.66,1.58,23.68,7.05,30.86,30.59,27.41,38.47-1.52,3.47-7.43,4.54-14.18,4.54-8.61,0-18.58-1.75-22.51-2.53-17.82-3.54-34.76-17.27-33.91-23.12.72-4.94,14.13-18.93,32.54-18.93M173.99,67.78c-19.29,0-33.63,14.52-34.52,20.64-.77,5.34,7.27,11.81,10.76,14.34,7.4,5.36,16.41,9.38,24.74,11.04,3.04.6,13.67,2.57,22.9,2.57s14.32-1.88,16.02-5.74c1.89-4.32,1.01-11.63-2.24-18.63-2.95-6.37-10.32-17.76-26.43-22.56-3.7-1.1-7.48-1.66-11.23-1.66h0Z"/>
          </g>
          <path class="cls-3" d="M210.38,109.59c-.62,3.01-19.04,4.8-35.54.27-16.49-4.54-30.98-17.35-30.58-19.95.41-2.6,12.12-11.75,34.33-4.86,22.2,6.89,33.14,18.01,31.78,24.55Z"/>
          <path d="M177.29,97.53c-.69-5.84-4.61-10.9-9.3-14.74.67.08,1.36.16,2.06.27,3.87,3.47,7.05,7.77,8.11,12.65.68-3.37,2.03-6.58,3.81-9.56.38.13.75.26,1.12.4-1.86,3.05-3.24,6.37-3.87,9.85,3.09-3.23,6.76-5.68,10.83-7.02.53.25,1.07.49,1.58.74-4.72,1.25-8.93,4.07-12.33,7.9,10.66-2.64,21.72,4.62,29.79,12.75-.36.18-.79.34-1.28.5-2.64-2.52-5.49-4.83-8.51-6.88-5.82-3.95-13.17-7-20.17-5.13,6.44,1.47,10.51,7.5,13.8,13.28-.45-.02-.9-.04-1.35-.06-2.97-5.15-6.65-10.41-12.22-11.94,2.14,3.36,3.16,7.19,3.94,11.09-.4-.06-.81-.13-1.22-.19-.78-3.88-1.86-7.67-4.15-10.94-3.76.89-6.81,3.83-9.2,7.28-.36-.15-.72-.3-1.08-.45,2.14-3.12,4.79-5.87,8.02-7.27-4.96-.05-9.85,1.65-14.12,4.34-.39-.21-.77-.42-1.15-.63,4.65-3.05,10.05-4.97,15.52-4.86-8.7-5.2-18.8-6.81-28.47-4.52-.34-.33-.66-.65-.95-.96,9.76-2.5,19.99-1.11,28.9,3.83-6.37-6.34-14.37-11.45-23.2-13.01.72-.25,1.49-.48,2.3-.69,8.72,2.1,16.55,7.45,22.78,13.97Z"/>
          <g>
            <path class="cls-1" d="M148.06,185.1c-1.46,0-2.84-.64-3.78-1.75-.86-1.01-1.28-2.29-1.18-3.61.1-1.33.72-2.53,1.73-3.39.03-.03.08-.07.13-.11l1.03-.79,1.37-1.04.49-.46,1.34-1.22,1.42-1.52c.35-.35.68-.77,1.03-1.2.17-.21.35-.43.53-.65.58-.68,1.15-1.47,1.62-2.15l.87-1.23,1.67-2.65.81-1.43c.58-.99,1.13-2.05,1.64-3.06.47-.89.89-1.79,1.34-2.74l.26-.57c.92-1.97,1.86-4.24,2.98-7.15l1.37-3.78c.14-.43.3-.89.45-1.35.28-.83.55-1.65.81-2.49.9-2.87,1.63-5.42,2.26-7.81.73-2.69,1.36-5.39,1.89-7.68.98-4.3,1.89-8.94,2.7-13.79.72-4.3,1.19-7.73,1.45-9.85.3-2.38.43-3.72.43-3.73.03-.32.27-1.39,2.16-1.39.37,0,1.61.05,2.27.73.26.27.4.62.39.98h-.02c.02.54-.05,1.6-.19,3.88-.15,2.21-.43,5.77-.9,10.14-.56,5.1-1.2,9.76-1.96,14.27-.37,2.2-.88,5.1-1.49,8.02-.49,2.46-1.11,5.16-1.88,8.23-.22.9-.47,1.8-.71,2.71-.13.46-.25.93-.38,1.39l-1.21,4.07c-1.01,3.16-1.88,5.65-2.75,7.85l-.29.74c-.39.98-.8,2-1.25,2.97-.49,1.12-1.03,2.34-1.63,3.5l-.81,1.64-1.74,3.15-.92,1.48c-.52.84-1.14,1.83-1.81,2.73-.17.23-.33.46-.5.69-.43.6-.83,1.17-1.3,1.7l-1.64,1.96-1.6,1.66-.67.69-.7.61-1.89,1.62c-.9.77-2.04,1.19-3.22,1.19Z"/>
            <path d="M176.87,97.51c.78,0,1.67.25,1.66.68h0s-.05,1.42-.21,3.85c-.17,2.45-.45,5.93-.9,10.09-.46,4.17-1.08,9.03-1.95,14.21-.44,2.59-.92,5.27-1.48,7.98-.54,2.72-1.18,5.46-1.87,8.2-.33,1.37-.73,2.73-1.09,4.09-.4,1.35-.8,2.7-1.2,4.04-.85,2.66-1.74,5.27-2.72,7.77-.5,1.25-.97,2.48-1.52,3.66-.52,1.19-1.04,2.35-1.61,3.46-.28.56-.55,1.11-.82,1.65-.29.53-.58,1.06-.87,1.57-.29.52-.57,1.03-.85,1.52-.31.49-.6.97-.9,1.44-.58.94-1.15,1.84-1.77,2.66-.61.82-1.13,1.63-1.75,2.33-.59.71-1.15,1.37-1.66,1.98-.57.59-1.08,1.12-1.55,1.6-.24.24-.46.47-.67.68-.23.2-.44.39-.64.56-.4.34-.74.64-1.02.88-.56.48-.86.73-.86.73-.75.64-1.66.95-2.58.95-1.12,0-2.24-.47-3.02-1.39-1.43-1.67-1.23-4.17.44-5.6.05-.04.09-.08.14-.12l.29-.22s.24-.18.69-.53c.23-.17.51-.38.83-.63.16-.13.34-.26.53-.41.18-.16.37-.34.56-.52.4-.36.84-.77,1.33-1.21.45-.49.95-1.01,1.47-1.57.54-.54,1.04-1.22,1.6-1.89.57-.67,1.12-1.42,1.67-2.22.28-.4.57-.81.87-1.22.28-.43.55-.88.84-1.33.29-.45.57-.91.87-1.37.28-.48.55-.97.83-1.46.58-.98,1.12-2.03,1.66-3.11.57-1.06,1.08-2.19,1.61-3.34,1.06-2.29,2.05-4.72,3.01-7.21.46-1.26.91-2.53,1.37-3.8.42-1.29.87-2.58,1.28-3.89.81-2.61,1.59-5.23,2.27-7.85.71-2.61,1.32-5.2,1.9-7.71,1.15-5.03,2.03-9.77,2.71-13.85.69-4.08,1.16-7.5,1.45-9.89.3-2.4.43-3.76.43-3.76.03-.34.57-.48,1.16-.48M176.87,95.51h0c-2.17,0-3.06,1.24-3.16,2.3,0,0-.13,1.35-.42,3.69-.26,2.11-.72,5.52-1.44,9.81-.81,4.83-1.72,9.45-2.69,13.74-.52,2.28-1.16,4.97-1.88,7.63-.62,2.38-1.36,4.92-2.25,7.77-.25.83-.53,1.67-.81,2.47-.15.45-.3.91-.45,1.36l-1.36,3.77c-1.09,2.84-2.03,5.1-2.94,7.05l-.26.56c-.44.94-.85,1.83-1.3,2.67-.52,1.03-1.06,2.08-1.62,3.03-.2.34-.38.66-.56.98l-.27.47c-.16.25-.31.49-.46.73l-.38.6-.46.72-.35.56c-.29.4-.56.79-.84,1.18-.47.68-1.01,1.44-1.56,2.08-.2.24-.38.46-.55.68-.33.41-.64.8-.93,1.09-.02.02-.03.03-.05.05l-.12.13c-.46.49-.9.96-1.3,1.39-.46.42-.89.81-1.27,1.16-.18.17-.35.32-.5.46l-.11.08-.36.28-.18.14-.63.48c-.46.36-.69.54-.7.54l-.29.22s-.03.02-.04.04c-.09.07-.15.12-.22.18-1.18,1-1.92,2.45-2.04,4.04-.12,1.59.38,3.13,1.41,4.34,1.13,1.33,2.79,2.09,4.54,2.09,1.42,0,2.8-.51,3.88-1.43h0s.3-.26.86-.73c.17-.14.37-.32.6-.51l.42-.36.3-.26.36-.32s.07-.06.1-.1c.21-.22.44-.45.68-.7l.26-.26,1.29-1.33s.07-.07.1-.11l1.64-1.96c.5-.57.93-1.17,1.35-1.76.16-.22.32-.45.49-.68.69-.92,1.33-1.93,1.86-2.79l.43-.68.46-.74s.03-.06.05-.09c.21-.38.42-.76.64-1.15l.21-.38.87-1.58s.03-.05.04-.08l.55-1.1.27-.54c.59-1.16,1.15-2.39,1.65-3.55.44-.96.85-1.99,1.25-2.98l.29-.73c.88-2.23,1.77-4.74,2.77-7.91.41-1.38.81-2.73,1.21-4.08,0-.02.01-.04.02-.05.12-.46.25-.92.38-1.39.24-.89.5-1.81.72-2.74.77-3.08,1.39-5.79,1.89-8.28.61-2.92,1.12-5.83,1.49-8.04.76-4.53,1.4-9.21,1.96-14.33.48-4.39.76-7.96.91-10.18.13-2.06.21-3.21.19-3.92h.02c0-.25-.02-.5-.09-.73-.02-.09-.05-.16-.08-.23-.11-.27-.28-.52-.49-.74-.9-.93-2.39-1.03-2.98-1.03h0Z"/>
          </g>
          <g>
            <path d="M203.8,89c.86.35,1.29,1.36.93,2.22-.35.86-1.36,1.29-2.23.93-.86-.35-1.29-1.37-.93-2.23.35-.86,1.37-1.28,2.23-.93Z"/>
            <path d="M201.46,84.41c.42.43.72.77.76,1.39.1,1.57-1.78,2.45-2.82,1.18-.28-.34-.38-.68-.49-1.09-.35-1.3,1.59-2.44,2.55-1.48Z"/>
            <path d="M199.39,88.13c.88.36,1.03,1.56.28,2.15,0,0-.01,0-.02.01-.72.57-1.86.11-1.97-.81,0,0,0-.02,0-.02-.11-.94.83-1.69,1.71-1.33Z"/>
            <path d="M195.63,84.17c.43-.14.81.02,1.02.42.02.04.05.09.07.13.38.75-.51,1.53-1.22,1.23-.71-.29-.81-1.47,0-1.74.04-.02.09-.03.14-.04Z"/>
            <path d="M195.18,78.86c.37-.89,1.57-.82,1.96,0,0,0,0,.02.01.02.23.49-.04,1.17-.56,1.35,0,0-.02,0-.02.01-.85.31-1.76-.5-1.39-1.39Z"/>
            <path d="M192.82,85.14c1.03.42.38,2-.65,1.59-1.02-.42-.37-2.01.65-1.59Z"/>
            <path d="M162.58,73.63c.85.35,1.27,1.36.92,2.21-.35.85-1.36,1.27-2.21.92-.85-.35-1.27-1.35-.93-2.21.36-.85,1.36-1.27,2.21-.92Z"/>
            <path d="M158.3,76.41c1.41.58.51,2.76-.89,2.19-1.41-.58-.51-2.76.89-2.19Z"/>
          </g>
        </g>
        <g>
          <g>
            <path class="cls-1" d="M11.14,104.76c-3.68,0-6.23-.94-7.6-2.8-2.62-3.58-3.29-10.59-1.7-17.87,1.46-6.69,6.05-19.11,20.39-27.12,5.79-3.23,12.04-4.87,18.59-4.87,14.8,0,27.04,8.36,28.77,12.91,2.45,6.43-12.19,23.99-28.59,31.23-4.52,2-20.05,8.51-29.87,8.51Z"/>
            <path d="M40.82,53.11c14.51,0,26.33,8.31,27.84,12.27,2.1,5.53-11.44,22.62-28.06,29.96-4.93,2.18-20.09,8.43-29.46,8.43-3.08,0-5.53-.67-6.79-2.39-5.08-6.94-3.21-31.48,18.37-43.52,6.14-3.43,12.33-4.74,18.1-4.74M40.83,51.11v2-2h0c-6.72,0-13.14,1.68-19.08,4.99C7.07,64.29,2.36,77.02.87,83.88c-1.65,7.54-.91,14.87,1.87,18.67,1.56,2.13,4.39,3.21,8.41,3.21,10.01,0,25.7-6.58,30.27-8.6,7.77-3.43,15.69-9.32,21.74-16.16,2.86-3.23,9.3-11.29,7.38-16.34-1.82-4.78-14.48-13.56-29.71-13.56h0Z"/>
          </g>
          <path class="cls-3" d="M5.94,100.77c1.26,2.8,19.63.54,34.74-7.48,15.11-8.03,26.45-23.68,25.49-26.14-.96-2.45-14.39-8.83-34.56,2.73-20.16,11.56-28.41,24.8-25.67,30.88Z"/>
          <path d="M35.6,81.79c-.6-5.85,2.13-11.65,5.86-16.41-.64.22-1.29.45-1.95.71-3.02,4.23-5.18,9.12-5.16,14.11-1.4-3.14-3.41-5.98-5.8-8.5-.34.21-.67.42-1.01.63,2.48,2.58,4.55,5.51,5.93,8.77-3.72-2.48-7.84-4.07-12.1-4.5-.47.36-.93.71-1.38,1.07,4.88.19,9.6,2.02,13.75,5.02-10.98-.25-20.19,9.24-26.3,18.93.39.1.84.17,1.36.21,2.03-3.04,4.31-5.91,6.81-8.56,4.82-5.12,11.33-9.7,18.57-9.4-5.97,2.84-8.62,9.61-10.58,15.97.43-.12.87-.23,1.31-.35,1.78-5.67,4.23-11.61,9.33-14.32-1.36,3.75-1.52,7.7-1.43,11.68.38-.15.76-.3,1.14-.45-.08-3.96.15-7.89,1.67-11.58,3.86.05,7.48,2.25,10.57,5.1.32-.22.64-.45.96-.67-2.77-2.58-5.96-4.68-9.41-5.35,4.83-1.13,9.97-.54,14.72,1.16.33-.29.66-.58.98-.87-5.2-1.97-10.89-2.67-16.21-1.37,7.35-6.97,16.86-10.75,26.8-10.61.26-.39.5-.78.72-1.14-10.07-.32-19.75,3.27-27.37,10.04,4.83-7.58,11.53-14.3,19.8-17.75-.75-.09-1.56-.15-2.4-.17-8.05,3.95-14.53,10.88-19.19,18.6Z"/>
          <g>
            <path class="cls-1" d="M82.13,161.01c-.81,0-1.61-.2-2.32-.58l-2.19-1.16-.76-.42-.87-.56-1.86-1.22-2.11-1.62c-.56-.41-1.08-.88-1.63-1.37-.21-.18-.41-.37-.63-.56-.85-.73-1.67-1.56-2.36-2.27l-1.18-1.2c-.41-.46-.8-.9-1.19-1.34-.36-.4-1.19-1.35-1.19-1.35l-1.19-1.47c-.84-1.01-1.63-2.07-2.36-3.07-.63-.83-1.25-1.73-1.84-2.6l-.46-.67c-1.33-1.96-2.72-4.2-4.39-7.05l-2.06-3.7c-.25-.47-.48-.92-.72-1.37-.43-.81-.85-1.61-1.26-2.43-1.42-2.83-2.61-5.33-3.63-7.63-1.21-2.68-2.3-5.29-3.2-7.49-1.72-4.22-3.36-8.64-5.02-13.5-1.43-4.19-2.47-7.59-3.09-9.7-.63-2.15-.93-3.19-1.03-3.75h-.02c-.1-.4,0-.82.27-1.18.55-.71,1.86-1.15,2.76-1.15,1.19,0,1.52.75,1.6.99,0,0,.42,1.29,1.23,3.54.72,2.01,1.92,5.26,3.56,9.3,1.84,4.55,3.74,8.88,5.64,12.87,1.01,2.12,2.23,4.62,3.52,7.07,1.13,2.21,2.41,4.54,3.9,7.13.43.76.88,1.5,1.32,2.23.26.42.51.85.76,1.27l2.15,3.38c1.7,2.56,3.12,4.57,4.46,6.31l.38.5c.64.83,1.24,1.62,1.88,2.36.73.89,1.5,1.82,2.27,2.64l1.14,1.26,2.22,2.23,1.07.96c.65.6,1.35,1.22,2.05,1.75.23.18.45.35.66.52.44.35.85.68,1.25.93l1.81,1.24s1.58.9,1.58.9l.57.33.16.07,1.32.61c.52.25.79.37.79.37l.34.16c.12.06.18.09.24.12,1.15.61,2.01,1.65,2.4,2.92.39,1.27.26,2.61-.36,3.78-.86,1.63-2.55,2.65-4.39,2.65,0,0,0,0,0,0Z"/>
            <path d="M36.6,81.61c.33,0,.58.09.65.29,0,0,.42,1.29,1.24,3.57.81,2.27,2.01,5.5,3.57,9.34,1.55,3.83,3.45,8.27,5.67,12.93,1.11,2.32,2.28,4.72,3.53,7.11,1.24,2.4,2.56,4.8,3.92,7.16.68,1.19,1.4,2.35,2.09,3.52.73,1.14,1.45,2.28,2.17,3.41,1.48,2.22,2.97,4.38,4.51,6.38.77,1,1.51,1.99,2.3,2.9.77.93,1.52,1.84,2.3,2.67.38.42.76.84,1.13,1.25.39.39.77.77,1.14,1.15.38.38.74.75,1.11,1.11.38.34.75.67,1.11,1,.72.66,1.42,1.28,2.12,1.81.69.53,1.32,1.09,1.97,1.5.64.43,1.23.84,1.78,1.21.57.32,1.09.62,1.56.89.23.14.45.26.66.38.22.1.42.19.61.28.37.17.69.32.95.44.51.24.79.37.79.37l.33.15c.05.03.11.05.16.08,1.94,1.03,2.68,3.43,1.65,5.37-.71,1.35-2.09,2.11-3.51,2.11-.63,0-1.26-.15-1.85-.46,0,0-.35-.18-1-.53-.32-.17-.72-.38-1.19-.63-.23-.13-.48-.26-.75-.41-.25-.16-.52-.33-.8-.52-.56-.37-1.18-.77-1.86-1.22-.63-.49-1.31-1.01-2.05-1.57-.75-.55-1.44-1.22-2.21-1.89-.78-.67-1.53-1.42-2.3-2.21-.39-.39-.79-.79-1.19-1.2-.38-.42-.77-.86-1.16-1.3-.39-.44-.79-.89-1.19-1.35-.38-.47-.77-.95-1.16-1.43-.8-.96-1.56-1.98-2.33-3.03-.79-1.04-1.52-2.14-2.28-3.24-1.51-2.22-2.94-4.57-4.35-6.99-.68-1.22-1.36-2.45-2.05-3.68-.65-1.25-1.33-2.49-1.95-3.75-1.26-2.52-2.49-5.06-3.61-7.59-1.14-2.52-2.19-5.03-3.19-7.47-1.98-4.87-3.64-9.47-5-13.45-1.35-3.97-2.38-7.31-3.08-9.66-.68-2.34-1.05-3.71-1.05-3.71h0c-.13-.52,1.21-1.09,2.06-1.09M36.6,79.61c-1.14,0-2.78.54-3.55,1.54-.47.6-.63,1.35-.45,2.05h.01c.06.29.15.62.26,1.01.18.64.44,1.58.79,2.76.63,2.12,1.67,5.53,3.1,9.74,1.66,4.88,3.31,9.31,5.04,13.55.9,2.21,1.99,4.84,3.22,7.54,1.02,2.3,2.21,4.81,3.64,7.66.41.82.84,1.65,1.26,2.44.24.44.47.89.7,1.34,0,.02.02.04.03.05.69,1.23,1.37,2.46,2.05,3.68,1.7,2.91,3.1,5.17,4.44,7.14l.46.67c.6.88,1.22,1.79,1.88,2.66.71.98,1.51,2.06,2.38,3.1l.33.41c.27.33.54.67.8,1,.02.02.04.05.06.07l.09.11c.37.42.74.84,1.11,1.25.39.44.78.88,1.16,1.31.02.02.04.05.07.07l.12.13,1.07,1.08c.69.71,1.53,1.56,2.42,2.32.2.17.4.36.6.54.55.49,1.11,1,1.73,1.45l1.71,1.31.3.23s.08.06.12.08c.68.45,1.31.86,1.87,1.23.23.15.46.3.67.44l.13.08s.09.05.13.08l.34.19.4.22.55.29c.25.14.48.26.68.36.64.34.99.52.99.52.85.45,1.82.69,2.78.69,2.22,0,4.24-1.22,5.28-3.18.75-1.4.9-3.02.43-4.54-.47-1.52-1.49-2.76-2.89-3.51-.06-.04-.13-.07-.19-.1-.02-.01-.07-.03-.09-.04l-.33-.15s-.28-.13-.77-.36l-.89-.41-.09-.04-.36-.17-.15-.07-.51-.29-.08-.04c-.46-.26-.96-.55-1.5-.86-.37-.25-.75-.51-1.16-.79l-.56-.38s-.04-.03-.06-.04c-.35-.22-.74-.54-1.15-.87-.22-.17-.44-.35-.67-.53-.69-.52-1.39-1.15-1.98-1.69-.36-.33-.72-.65-1.09-.98l-.46-.46-.61-.61-.53-.54c-.19-.19-.38-.39-.58-.58l-.36-.4c-.25-.27-.49-.54-.74-.82-.76-.82-1.52-1.72-2.23-2.59-.65-.75-1.24-1.53-1.87-2.35l-.39-.5c-1.32-1.72-2.73-3.72-4.42-6.27-.69-1.09-1.41-2.22-2.13-3.35-.25-.42-.5-.84-.75-1.26-.44-.72-.89-1.47-1.31-2.2-1.49-2.59-2.76-4.91-3.88-7.09-1.29-2.46-2.5-4.95-3.51-7.06-1.89-3.97-3.78-8.29-5.62-12.81-1.64-4.02-2.83-7.25-3.54-9.26-.8-2.22-1.22-3.51-1.22-3.52-.26-.8-1.06-1.67-2.55-1.67h0Z"/>
          </g>
          <g>
            <path d="M7.87,79.24c-.77.53-.96,1.61-.43,2.37.53.77,1.61.96,2.38.43.76-.53.96-1.61.42-2.38-.53-.76-1.61-.95-2.38-.42Z"/>
            <path d="M9.15,74.25c-.32.51-.54.91-.44,1.53.24,1.55,2.27,2.01,3.01.54.2-.39.22-.74.24-1.17.05-1.34-2.09-2.03-2.81-.89Z"/>
            <path d="M11.99,77.43c-.79.55-.66,1.75.19,2.16,0,0,.02,0,.02,0,.83.4,1.83-.3,1.75-1.22,0,0,0-.02,0-.03-.09-.94-1.18-1.47-1.96-.92Z"/>
            <path d="M14.79,72.74c-.45-.05-.79.19-.9.63-.01.05-.02.1-.04.15-.21.82.83,1.38,1.46.94.63-.44.47-1.61-.37-1.7-.05,0-.09,0-.14-.01Z"/>
            <path d="M14.08,67.46c-.55-.79-1.71-.46-1.92.42,0,0,0,.02,0,.02-.12.53.3,1.14.84,1.2.01,0,.02,0,.03,0,.9.11,1.61-.87,1.06-1.66Z"/>
            <path d="M17.75,73.08c-.91.63.07,2.04.98,1.41.91-.63-.07-2.04-.98-1.41Z"/>
            <path d="M44.75,55.26c-.75.53-.94,1.6-.42,2.36.53.76,1.6.95,2.36.42.75-.52.95-1.6.42-2.36-.53-.75-1.6-.94-2.36-.42Z"/>
            <path d="M49.54,57.04c-1.25.87.1,2.81,1.35,1.94,1.25-.87-.1-2.81-1.35-1.94Z"/>
          </g>
        </g>
        <g>
          <g>
            <path class="cls-1" d="M199.99,185.2c-7.13,0-18.89-3.54-27.56-10.31-5.21-4.07-21.94-17.9-18.58-24.93,2.18-4.55,10.97-9.46,21.37-9.46,6.53,0,12.72,1.84,18.4,5.48,10.63,6.81,13.57,17.21,14.37,22.81.99,6.92-.23,12.67-1.88,14.58-1.05,1.21-3.11,1.82-6.12,1.82Z"/>
            <path d="M175.22,141.51c5.63,0,11.83,1.46,17.86,5.33,16.96,10.86,15.44,32.25,12.28,35.89-.86.99-2.79,1.48-5.37,1.48-6.89,0-18.46-3.47-26.94-10.1-4.59-3.59-21.31-17.38-18.29-23.71,1.95-4.08,10.26-8.89,20.46-8.89M175.22,139.51h0c-10.93,0-19.91,5.1-22.27,10.02-1.7,3.56.46,8.51,6.63,15.11,4.74,5.08,10.56,9.74,12.23,11.04,8.85,6.91,20.87,10.52,28.18,10.52,3.32,0,5.63-.73,6.88-2.17,2.15-2.47,3.04-8.94,2.12-15.37-.83-5.77-3.86-16.49-14.83-23.51-5.76-3.69-12.31-5.64-18.94-5.64h0Z"/>
          </g>
          <path class="cls-3" d="M155.8,151.3c-1.53,1.98,7.17,14.31,18.75,22.07,11.58,7.76,27.19,9.88,28.58,8.25,1.39-1.64.8-13.74-15.27-23.77-16.06-10.03-28.75-10.86-32.06-6.55Z"/>
          <path d="M180.84,165.3c3.97-2.68,9.18-2.95,14.04-2.11-.4-.37-.83-.75-1.26-1.13-4.2-.54-8.54-.21-12.12,1.73,1.72-2.21,2.98-4.75,3.87-7.44-.28-.16-.56-.32-.84-.48-.9,2.77-2.21,5.38-4.02,7.63.35-3.62-.09-7.2-1.43-10.41-.43-.2-.87-.4-1.3-.58,1.74,3.58,2.24,7.67,1.68,11.81-4.04-7.99-14.41-10.95-23.72-11.6.08.32.2.67.37,1.06,2.96.28,5.9.82,8.77,1.59,5.54,1.5,11.32,4.4,13.89,9.72-4.34-3.2-10.22-2.5-15.54-1.45.25.26.5.53.75.8,4.76-.91,9.97-1.43,13.87,1.19-3.21.47-6.12,1.87-8.94,3.47.25.22.51.43.77.65,2.81-1.58,5.72-2.93,8.96-3.26,1.45,2.79,1.26,6.24.41,9.55.28.15.57.29.85.43.78-2.98,1.06-6.07.22-8.82,2.67,3.03,4.22,6.95,4.83,11.02.34.13.67.25,1.01.37-.59-4.49-2.28-8.84-5.26-12.16,7.84,2.6,14.21,7.97,17.94,15.16.38.04.75.06,1.09.08-3.65-7.36-9.95-12.92-17.75-15.8,7.3.55,14.71,2.78,20.37,7.39-.23-.58-.49-1.17-.8-1.79-5.94-4.26-13.41-6.24-20.74-6.62Z"/>
          <g>
            <path d="M172,144.41c-.68-.35-1.53-.07-1.87.61-.34.67-.07,1.53.61,1.87.68.34,1.53.06,1.87-.61.34-.67.06-1.53-.61-1.87Z"/>
            <path d="M176.08,143.41c-.49-.03-.86-.03-1.27.27-1.02.76-.57,2.4.77,2.37.36,0,.62-.13.94-.28.98-.48.65-2.28-.44-2.36Z"/>
            <path d="M174.89,146.66c-.69-.35-1.51.2-1.48.97,0,0,0,.01,0,.02.03.75.92,1.2,1.55.79,0,0,.01,0,.02-.01.64-.43.6-1.41-.09-1.76Z"/>
            <path d="M179.33,146.87c-.14-.34-.44-.49-.8-.41-.04,0-.08.02-.12.03-.67.16-.67,1.13-.11,1.41.56.29,1.34-.28,1.08-.92-.02-.03-.04-.07-.05-.11Z"/>
            <path d="M182.85,144.33c.35-.7-.32-1.41-1.04-1.22,0,0-.02,0-.02,0-.43.12-.7.65-.54,1.06,0,.01,0,.01,0,.02.26.69,1.24.82,1.59.12Z"/>
            <path d="M180.22,149.13c-.8-.41-1.44.84-.63,1.25.8.41,1.43-.84.63-1.25Z"/>
            <path d="M203.42,161.66c-.67-.34-1.51-.07-1.85.6-.34.67-.06,1.51.6,1.86.67.34,1.51.06,1.85-.61.34-.67.07-1.51-.61-1.85Z"/>
            <path d="M203.98,165.78c-1.11-.56-1.98,1.15-.87,1.71,1.1.56,1.97-1.15.87-1.71Z"/>
          </g>
          <path class="cls-3" d="M178.15,165.69s-.49.77-1.35,2.13c-.88,1.33-2.05,3.35-3.61,5.57-.77,1.12-1.61,2.32-2.49,3.6-.84,1.3-1.92,2.54-2.93,3.89-1.04,1.32-2.05,2.75-3.26,4.02-1.17,1.31-2.35,2.63-3.53,3.96-1.28,1.22-2.56,2.43-3.82,3.62-1.2,1.25-2.63,2.19-3.89,3.22-1.31.98-2.47,2.05-3.78,2.77-1.26.79-2.45,1.52-3.55,2.2-1.06.73-2.16,1.2-3.11,1.65-.95.45-1.77.84-2.45,1.16-1.35.65-2.12,1.01-2.12,1.01l-.45.21c-2.35,1.12-3.35,3.93-2.23,6.28,1.12,2.35,3.93,3.35,6.28,2.23.15-.07.29-.15.43-.23,0,0,.84-.51,2.31-1.41.73-.45,1.62-.99,2.63-1.62,1.01-.62,2.18-1.29,3.31-2.24,1.15-.9,2.4-1.88,3.72-2.91,1.37-.97,2.55-2.29,3.87-3.53,1.27-1.29,2.71-2.49,3.87-3.99,1.22-1.44,2.45-2.9,3.69-4.36,1.1-1.54,2.21-3.08,3.29-4.6,1.13-1.49,2.02-3.08,2.95-4.57.9-1.52,1.86-2.91,2.59-4.35.76-1.41,1.49-2.75,2.16-3.98,1.36-2.46,2.27-4.53,3.01-5.97.71-1.44,1.12-2.27,1.12-2.27.38-.76-2.25-2.14-2.66-1.5Z"/>
        </g>
        <g>
          <g>
            <path class="cls-1" d="M31.39,173.71c-1.15,0-2.14-.28-2.96-.82-3.05-2.04-5.55-7.27-6.37-13.33-.75-5.56-.71-16.41,8.08-26.59,8.25-9.57,18.98-10.99,24.64-10.99,6.98,0,12.5,2.03,14.15,3.93,3.72,4.29-2.58,21.95-13.18,32.14-3.83,3.68-16.9,15.67-24.36,15.67Z"/>
            <path d="M54.77,122.97c6.6,0,11.92,1.89,13.39,3.59,3.15,3.64-2.44,20.51-13.11,30.76-3.72,3.57-16.68,15.39-23.66,15.39-.92,0-1.73-.2-2.4-.65-5.83-3.89-11.24-23.2,1.91-38.44,7.03-8.15,16.3-10.65,23.88-10.65M54.77,120.97h0c-5.83,0-16.88,1.47-25.39,11.34-9.05,10.48-9.09,21.65-8.31,27.38.86,6.33,3.53,11.84,6.81,14.03.99.66,2.17.99,3.51.99,7.83,0,21.15-12.21,25.05-15.95,10.57-10.15,17.74-28.32,13.24-33.51-2.14-2.48-8.41-4.28-14.9-4.28h0Z"/>
          </g>
          <path class="cls-3" d="M30.03,171.16c1.75,1.79,15.18-5.07,24.5-15.43,9.32-10.36,13.64-25.51,12.22-27.12-1.42-1.61-13.48-2.74-25.69,11.74-12.21,14.47-14.83,26.91-11.03,30.81Z"/>
          <path d="M47.44,148.35c-2.09-4.31-1.62-9.51-.09-14.2-.43.35-.86.71-1.3,1.09-1.13,4.08-1.42,8.43,0,12.24-1.94-2.01-4.28-3.63-6.81-4.89-.2.26-.4.51-.59.76,2.61,1.29,5.02,2.95,6.99,5.06-3.54-.86-7.14-.93-10.51-.06-.26.4-.52.8-.76,1.2,3.79-1.21,7.91-1.13,11.93,0-8.48,2.87-12.88,12.71-14.85,21.84.33-.04.69-.11,1.1-.22.7-2.89,1.64-5.73,2.82-8.46,2.27-5.27,5.97-10.59,11.6-12.38-3.78,3.84-3.92,9.77-3.64,15.17.3-.21.6-.42.9-.63-.22-4.84,0-10.07,3.15-13.56,0,3.25.98,6.32,2.17,9.34.25-.22.5-.44.75-.67-1.16-3.01-2.09-6.08-1.95-9.33,2.97-1.04,6.35-.36,9.51.95.18-.26.37-.52.54-.78-2.84-1.2-5.86-1.91-8.7-1.47,3.38-2.21,7.48-3.19,11.59-3.22.18-.32.34-.63.51-.95-4.53-.05-9.08,1-12.79,3.48,3.68-7.39,9.91-12.93,17.55-15.6.09-.37.17-.74.24-1.07-7.8,2.57-14.21,8.02-18.15,15.33,1.58-7.15,4.84-14.17,10.21-19.12-.6.14-1.23.32-1.88.54-5.06,5.27-8.08,12.39-9.5,19.59Z"/>
          <g>
            <path d="M25.5,154.14c-.44.62-.28,1.5.33,1.94.62.44,1.5.28,1.94-.34.43-.62.28-1.5-.34-1.94-.62-.43-1.5-.28-1.94.34Z"/>
            <path d="M25.09,149.97c-.1.48-.15.85.09,1.29.61,1.12,2.29.9,2.45-.42.04-.36-.04-.63-.14-.97-.33-1.04-2.17-.97-2.4.1Z"/>
            <path d="M28.14,151.61c-.45.64-.02,1.52.75,1.6,0,0,.01,0,.02,0,.75.08,1.32-.74,1-1.42,0,0,0-.01,0-.02-.33-.69-1.31-.8-1.76-.16Z"/>
            <path d="M28.98,147.24c-.36.09-.55.37-.51.73,0,.04,0,.08,0,.12.07.68,1.02.83,1.38.31.36-.51-.09-1.37-.76-1.2-.04.01-.08.03-.12.03Z"/>
            <path d="M26.97,143.39c-.64-.45-1.44.12-1.35.85,0,0,0,.02,0,.02.06.44.55.78.98.68.01,0,.02,0,.02,0,.72-.16.99-1.11.35-1.56Z"/>
            <path d="M31.34,146.67c-.52.74.63,1.54,1.14.8.52-.74-.62-1.54-1.14-.8Z"/>
            <path d="M47.04,125.49c-.43.61-.28,1.49.33,1.92.62.43,1.49.28,1.92-.34.43-.61.28-1.49-.34-1.92-.62-.43-1.49-.28-1.92.34Z"/>
            <path d="M51.2,125.51c-.71,1.02.86,2.12,1.57,1.1.71-1.01-.86-2.12-1.57-1.1Z"/>
          </g>
          <path class="cls-3" d="M47.44,151.07s.7.6,1.92,1.64c1.19,1.06,3.03,2.5,5,4.36.99.92,2.07,1.92,3.21,2.97,1.16,1.02,2.24,2.26,3.44,3.45,1.16,1.22,2.43,2.42,3.52,3.8,1.13,1.34,2.27,2.7,3.42,4.06,1.02,1.44,2.04,2.88,3.04,4.29,1.07,1.37,1.8,2.91,2.64,4.31.78,1.43,1.68,2.73,2.2,4.14.6,1.36,1.16,2.64,1.68,3.83.57,1.16.88,2.31,1.19,3.31.31,1,.58,1.87.8,2.59.45,1.43.7,2.24.7,2.24l.15.47c.78,2.49,3.42,3.87,5.9,3.09,2.49-.78,3.87-3.42,3.09-5.9-.05-.15-.11-.31-.17-.46,0,0-.39-.9-1.07-2.48-.34-.79-.75-1.74-1.23-2.84-.47-1.09-.97-2.34-1.75-3.59-.73-1.27-1.52-2.64-2.35-4.09-.76-1.49-1.9-2.85-2.94-4.33-1.09-1.44-2.08-3.04-3.4-4.4-1.25-1.41-2.52-2.84-3.79-4.27-1.37-1.31-2.74-2.62-4.09-3.91-1.31-1.33-2.76-2.44-4.1-3.57-1.37-1.1-2.62-2.25-3.94-3.18-1.29-.96-2.51-1.86-3.63-2.7-2.24-1.69-4.16-2.89-5.48-3.83-1.33-.91-2.09-1.43-2.09-1.43-.69-.48-2.44,1.92-1.86,2.42Z"/>
        </g>
        <g>
          <path class="cls-3" d="M114.23,224.01c-10.06,0-25.88-4.14-28.8-10.88-1.82-4.19-20.42-66.74-14.52-110.89,3.91-29.3,11.68-34.67,19.31-37.66,2.11-.83,3.06-1.24,3.5-2.45,2.55-6.97,1.89-23.84,1.88-24.01-.02-.54.18-1.07.55-1.47.38-.39.9-.62,1.44-.62h33.27c.55,0,1.07.22,1.44.62.38.39.58.92.55,1.47,0,.16-.66,16.04,1.88,23.01.46,1.25,1.42,1.72,3.55,2.67,7.6,3.38,15.34,9.13,19.26,38.44,5.9,44.14-12.71,106.69-14.52,110.89-1.68,3.88-7.37,6.48-11.84,7.97-5.44,1.82-11.78,2.91-16.96,2.91Z"/>
          <g>
            <path class="cls-1" d="M114.23,221.01c-9.75,0-23.97-4.27-26.05-9.07-1.79-4.13-20.12-65.76-14.3-109.3,4.01-30,12.08-33.17,17.43-35.26,2.21-.87,4.3-1.68,5.22-4.22,2.39-6.55,2.2-20.21,2.09-24.12h31.2c-.11,3.77-.29,16.6,2.1,23.12.91,2.5,2.87,3.37,5.15,4.38,5.37,2.39,13.48,6,17.5,36.1,5.81,43.53-12.51,105.17-14.3,109.3-2.08,4.8-16.3,9.07-26.05,9.07Z"/>
            <path d="M128.81,40.04c-.1,4.74-.07,16.3,2.18,22.46,1.06,2.9,3.41,3.94,5.68,4.95,5.17,2.3,12.97,5.77,16.92,35.32,5.79,43.33-12.45,104.66-14.23,108.77-1.75,4.04-14.9,8.47-25.13,8.47s-23.38-4.43-25.13-8.47c-1.78-4.11-20.01-65.44-14.23-108.77,3.93-29.42,11.68-32.45,16.8-34.46,2.32-.91,4.72-1.85,5.8-4.81,2.27-6.22,2.28-18.54,2.18-23.46h29.15M130.87,38.04h-33.27s.71,17.35-2,24.78c-2.71,7.43-17-3.03-22.7,39.69-5.71,42.72,12.02,104.4,14.37,109.83,2.35,5.43,17.03,9.67,26.96,9.67s24.61-4.25,26.96-9.67c2.35-5.43,20.08-67.11,14.37-109.83-5.71-42.72-19.99-33.26-22.7-40.69-2.71-7.43-2-23.78-2-23.78h0Z"/>
          </g>
          <g>
            <path d="M132.68,128.02c-10.56,1.63-20.99,3.93-31.43,6.86-8.61,2.29-18.16,5.29-26.13,10.25.03.24.05.49.08.73,3.59,32.67,12.67,62.84,13.9,65.68,1.75,4.04,14.9,8.47,25.13,8.47s23.38-4.43,25.13-8.47c1.48-3.42,14.38-46.56,15.3-85.91-7.41.46-14.72,1.26-21.98,2.39Z"/>
            <path d="M154.66,125.63c-15.15-.79-42.45,4.87-52.89,7.8-8.61,2.29-18.69,6.74-26.66,11.71.03.24.05.49.08.73,2.67,1.67,5.44,2.94,7.97,3.69,37.48,9.96,29.86-12.48,71.49-23.92Z"/>
            <g>
              <path d="M109.84,111.17s-.07,0-.1,0c-1.69.03-3.21,1.14-3.67,2.79-.42,1.52.22,3.6,1.75,4.29.03.01.06.03.09.04.97.44,1.88.68,2.95.38,1.29-.35,2.32-1.39,2.67-2.67.65-2.36-1.19-4.89-3.69-4.84Z"/>
              <path d="M119.52,93.92c-.81-.47-1.64-.25-2.33.3-.02.02-.04.03-.06.05-.73.58-.73,2.04,0,2.62.02.02.04.03.06.05.55.44,1.15.69,1.87.49.82-.23,1.41-1,1.41-1.85,0-.68-.37-1.31-.95-1.66Z"/>
              <path d="M109.1,88.23c1.54,0,2.83-1.29,2.83-2.83s-1.29-2.83-2.83-2.83-2.83,1.29-2.83,2.83,1.29,2.83,2.83,2.83Z"/>
              <path d="M118.55,69.69c1.04,0,1.9-.86,1.9-1.9s-.86-1.9-1.9-1.9-1.9.86-1.9,1.9.86,1.9,1.9,1.9Z"/>
              <path d="M125.36,111.42c-2.73,0-5.01,2.28-5.01,5.01s2.28,5.01,5.01,5.01,5.01-2.28,5.01-5.01-2.28-5.01-5.01-5.01Z"/>
              <path d="M132.64,99.76c0-.62-.63-1.15-1.25-.95-.53.17-.93.63-.88,1.21.06.71,1.03,1.2,1.51.63.35-.14.62-.46.62-.89ZM131.71,100.74s-.04,0-.06,0c.03,0,.06,0,.09,0,0,0-.02,0-.02.01Z"/>
              <path d="M93.45,99.63s0-.02-.01-.03c-.42-.8-1.57-.89-2.18-.28-.13.13-.21.28-.28.43-.11.13-.21.28-.23.44-.06.44-.05.83.29,1.16.52.51,1.72.58,2.21-.05.4-.51.54-1.07.22-1.67Z"/>
              <path d="M93.65,127.82c-1,0-1,1.55,0,1.55s1-1.55,0-1.55Z"/>
            </g>
            <path class="cls-1" d="M76.8,145.23s.29.15.85.43c.28.14.62.31,1.02.52.4.19.86.38,1.38.62.5.24,1.09.47,1.73.7.63.25,1.33.47,2.08.68.19.05.38.11.57.17.11.04.38.08.57.12.42.08.85.17,1.29.26.89.19,1.81.39,2.76.54.96.17,1.95.35,2.99.48.52.07,1.05.14,1.58.22.54.05,1.08.1,1.63.15,2.2.18,4.53.26,6.88.03,2.35-.22,4.71-.77,6.98-1.68,2.28-.9,4.43-2.23,6.52-3.72,2.11-1.48,4.17-3.1,6.26-4.68,2.08-1.59,4.21-3.06,6.32-4.43,2.11-1.37,4.25-2.53,6.3-3.59,2.06-1.03,4.05-1.91,5.92-2.64.94-.35,1.83-.72,2.69-1.01.87-.28,1.69-.55,2.46-.8,1.55-.48,2.91-.85,4.03-1.17,2.26-.56,3.55-.84,3.55-.84.28-.06.57.12.63.4.06.26-.09.52-.33.61h-.02s-1.24.46-3.41,1.2c-1.07.4-2.38.88-3.86,1.48-1.47.61-3.12,1.31-4.89,2.13-1.77.82-3.65,1.79-5.61,2.85-1.93,1.11-3.95,2.32-5.96,3.68-2.02,1.36-4.02,2.88-6.07,4.44-2.05,1.57-4.11,3.23-6.32,4.79-2.22,1.54-4.59,2.99-7.16,3.97-2.56,1.01-5.25,1.51-7.83,1.69-2.58.2-5.05-.02-7.35-.31-.57-.08-1.14-.16-1.7-.24-.55-.11-1.09-.21-1.63-.31-1.07-.19-2.09-.44-3.07-.69-.99-.23-1.91-.47-2.77-.73-.43-.13-.85-.25-1.26-.37-.22-.07-.37-.1-.64-.2-.2-.08-.4-.15-.59-.23-.78-.29-1.49-.58-2.13-.9-.65-.3-1.23-.58-1.75-.89-1.06-.55-1.81-1.07-2.32-1.41-.52-.34-.79-.52-.79-.52-.21-.14-.27-.42-.13-.63.13-.2.38-.26.59-.16Z"/>
          </g>
          <g>
            <g>
              <g>
                <path class="cls-1" d="M98.35,187.09c-7.11,0-14.42-2.53-15.05-5.2-.34-1.44.61-4.79,3.03-8.14,1.96-2.72,6.37-7.37,13.83-8.01.62-.05,1.25-.08,1.87-.08,5.41,0,10.62,2.19,14.3,6,2.3,2.39,3.68,5.1,3.61,7.08-.17,4.57-12.77,7.22-16.62,7.92-1.56.28-3.23.43-4.95.43h0Z"/>
                <path d="M102.01,166.16c10.88,0,17.55,8.61,17.41,12.57-.15,4.18-12.79,6.83-16.21,7.45-1.6.29-3.24.42-4.86.42-7.21,0-14.03-2.54-14.57-4.82-.66-2.79,4.46-14.5,16.41-15.54.62-.05,1.23-.08,1.82-.08M102.01,165.16c-.63,0-1.27.03-1.91.08-7.65.66-12.17,5.43-14.19,8.22-2.24,3.1-3.55,6.69-3.11,8.54.78,3.29,8.81,5.59,15.54,5.59,1.76,0,3.45-.15,5.04-.43,5.06-.92,16.86-3.58,17.03-8.39.08-2.11-1.36-4.97-3.75-7.45-3.77-3.91-9.11-6.16-14.66-6.16h0Z"/>
              </g>
              <path class="cls-2" d="M118.62,178.91c.26,1.47-7.74,5.56-16,6.45-8.26.89-17.08-2.31-17.36-3.56-.28-1.25,3.38-7.47,14.63-8.31,11.25-.85,18.17,2.23,18.73,5.42Z"/>
              <path d="M101.53,179.37c-1.35-2.51-4.03-4.1-6.82-5,.32-.09.64-.17.98-.25,2.37.88,4.57,2.25,5.92,4.27-.29-1.64-.26-3.33.02-4.99.19,0,.39-.01.58-.02-.29,1.71-.33,3.45,0,5.14.82-2.01,2.04-3.77,3.64-5.1.29.01.57.03.85.05-1.91,1.41-3.31,3.43-4.16,5.76,4.34-3.09,10.63-1.79,15.73.45-.13.14-.29.3-.49.45-1.64-.67-3.34-1.2-5.07-1.59-3.34-.74-7.19-.81-10.02,1.28,3.17-.49,6.08,1.51,8.6,3.53-.2.07-.41.14-.62.21-2.26-1.8-4.86-3.51-7.65-3.21,1.57,1.13,2.71,2.68,3.76,4.3-.19.04-.39.09-.58.13-1.05-1.61-2.21-3.13-3.83-4.2-1.54,1.07-2.39,2.94-2.86,4.93-.19,0-.38,0-.57-.01.41-1.79,1.12-3.5,2.33-4.71-2.25.86-4.15,2.5-5.6,4.47-.21-.03-.42-.05-.63-.08,1.55-2.2,3.65-4.04,6.14-4.96-4.85-.8-9.7.27-13.66,3.03-.21-.09-.41-.18-.6-.26,3.96-2.87,8.83-4.06,13.73-3.42-4.01-1.73-8.53-2.61-12.79-1.74.28-.24.59-.48.92-.72,4.31-.6,8.8.42,12.77,2.25Z"/>
              <g>
                <path d="M111.98,170.79c.45,0,.82.39.82.84,0,.45-.39.83-.84.82-.45,0-.82-.39-.82-.84,0-.45.39-.82.84-.82Z"/>
                <path d="M110.11,169.14c.27.12.46.22.59.49.33.69-.36,1.42-1.06,1.04-.19-.1-.29-.24-.42-.41-.39-.52.28-1.38.89-1.12Z"/>
                <path d="M109.84,171.18c.46,0,.74.52.51.92,0,0,0,0,0,.01-.22.39-.82.38-1.03-.01,0,0,0,0,0-.01-.22-.4.07-.91.54-.9Z"/>
                <path d="M107.44,170.06c.17-.14.37-.14.53,0,.02.02.04.03.06.05.31.27.04.78-.33.78-.37,0-.63-.52-.31-.79.02-.01.04-.03.06-.04Z"/>
                <path d="M106.28,167.75c0-.47.56-.65.88-.35,0,0,0,0,0,0,.19.18.19.54,0,.71,0,0,0,0,0,0-.33.29-.88.09-.87-.38Z"/>
                <path d="M106.34,171.01c.54,0,.53.84-.01.83-.54,0-.53-.84.01-.83Z"/>
                <path d="M90.63,171.2c.45,0,.82.38.81.83,0,.45-.39.82-.83.81-.45,0-.82-.39-.81-.83,0-.45.38-.82.83-.81Z"/>
                <path d="M89.19,173.21c.74.01.72,1.16-.01,1.15-.74,0-.72-1.16.01-1.15Z"/>
              </g>
              <path class="cls-2" d="M102.85,180.32s.04.54.12,1.5c.1.95.15,2.34.36,3.94.1.8.2,1.67.32,2.59.09.92.31,1.87.47,2.86.18.99.32,2.02.61,3.03.25,1.01.51,2.04.77,3.07.34,1,.68,1.99,1.01,2.97.29.99.78,1.88,1.16,2.78.42.88.73,1.76,1.23,2.51.45.76.87,1.48,1.26,2.15.36.68.81,1.23,1.18,1.73.37.5.7.93.97,1.29.53.71.84,1.12.84,1.12l.18.24c.93,1.24.68,3-.56,3.93-1.24.93-3,.68-3.93-.56-.06-.08-.11-.16-.16-.24,0,0-.3-.5-.83-1.38-.26-.44-.58-.97-.94-1.58-.36-.61-.79-1.28-1.12-2.1-.36-.79-.75-1.65-1.16-2.56-.45-.89-.71-1.91-1.06-2.93-.32-1.03-.74-2.07-.94-3.18-.24-1.09-.49-2.21-.74-3.32-.16-1.12-.31-2.24-.46-3.34-.18-1.1-.21-2.18-.29-3.23-.05-1.05-.17-2.05-.16-3.01-.01-.96-.03-1.86-.04-2.7-.04-1.67.06-3.02.06-3.98.02-.96.04-1.51.04-1.51.01-.5,1.78-.51,1.82-.05Z"/>
            </g>
            <g>
              <g>
                <path class="cls-1" d="M136.98,173.73c-3.61,0-7.15-.53-10.22-1.52-4.13-1.34-17.57-6.1-17.08-11.12.41-4.2,7.76-11.9,18.54-11.9,1.68,0,3.39.19,5.08.57,8.08,1.81,12.24,7.57,13.99,10.84,2.16,4.03,2.71,7.83,2.12,9.35-.95,2.48-6.97,3.78-12.43,3.78Z"/>
                <path d="M128.22,149.69c1.59,0,3.25.17,4.97.56,13,2.91,16.9,16.55,15.76,19.53-.74,1.93-5.89,3.46-11.97,3.46-3.27,0-6.81-.44-10.07-1.5-3.67-1.19-17.18-5.98-16.74-10.6.39-4,7.64-11.45,18.04-11.45M128.22,148.69v1-1h0c-11.07,0-18.62,8-19.04,12.35-.51,5.24,12.01,9.89,17.42,11.64,3.12,1.01,6.71,1.55,10.37,1.55,5.46,0,11.82-1.28,12.9-4.1.75-1.95-.16-6.05-2.15-9.77-1.8-3.35-6.04-9.24-14.32-11.09-1.73-.39-3.47-.58-5.19-.58h0Z"/>
              </g>
              <path class="cls-2" d="M111.03,161.46c-.5,1.58,7.7,7.27,16.65,9.47,8.95,2.2,19.14-.01,19.63-1.34.5-1.33-2.61-8.72-14.87-11.32-12.25-2.6-20.33-.24-21.41,3.19Z"/>
              <path d="M129.76,164.49c1.86-2.56,5.04-3.92,8.25-4.49-.34-.14-.68-.28-1.04-.42-2.73.62-5.36,1.8-7.14,3.82.57-1.76.78-3.63.72-5.5-.21-.04-.42-.07-.63-.11.07,1.92-.15,3.85-.77,5.65-.6-2.33-1.69-4.45-3.25-6.15-.32-.03-.63-.05-.94-.07,1.89,1.83,3.13,4.26,3.72,6.96-4.32-4.05-11.43-3.54-17.37-1.84.12.18.28.37.47.57,1.91-.49,3.85-.83,5.81-1,3.78-.32,8.04.17,10.84,2.9-3.42-1-6.92.76-9.99,2.61.21.11.43.22.65.33,2.75-1.64,5.87-3.15,8.89-2.4-1.89,1.02-3.38,2.55-4.77,4.18.21.08.41.15.62.23,1.39-1.62,2.89-3.12,4.83-4.05,1.53,1.41,2.2,3.59,2.41,5.85.21.03.42.05.63.07-.19-2.03-.71-4.02-1.86-5.53,2.34,1.28,4.2,3.37,5.5,5.75.24,0,.48,0,.71,0-1.38-2.66-3.42-4.98-6.02-6.37,5.46-.16,10.64,1.74,14.58,5.36.25-.07.48-.13.7-.2-3.93-3.75-9.11-5.78-14.6-5.8,4.66-1.31,9.77-1.61,14.34-.02-.27-.31-.57-.62-.9-.93-4.66-1.3-9.75-.85-14.39.58Z"/>
              <g>
                <path class="cls-1" d="M102.95,217.23c-1.08,0-2.07-.54-2.65-1.45-.93-1.46-.5-3.4.96-4.33,0,0,.84-.48.84-.48l.99-.56.38-.27.99-.67,1.08-.87c.28-.21.54-.46.81-.71.13-.12.26-.24.39-.37.45-.4.9-.87,1.27-1.28l.69-.73,1.35-1.59.67-.87c.48-.6.94-1.25,1.37-1.87.38-.52.74-1.07,1.1-1.62l.26-.4c.79-1.22,1.62-2.62,2.63-4.43l1.25-2.36.43-.86c.26-.51.51-1.03.76-1.55.86-1.82,1.58-3.43,2.21-4.93.73-1.71,1.4-3.43,1.96-4.87,1.06-2.77,2.06-5.65,3.06-8.82.87-2.76,1.5-4.97,1.87-6.34.42-1.53.63-2.41.63-2.41.04-.19.23-.62,1.01-.62.54,0,1.3.21,1.63.6.15.18.21.4.17.61-.02.11-.19,1.02-.5,2.53-.3,1.44-.81,3.74-1.53,6.57-.84,3.3-1.69,6.3-2.6,9.18-.48,1.51-1.06,3.29-1.72,5.12-.55,1.57-1.21,3.29-1.99,5.23-.23.56-.47,1.12-.71,1.68l-.39.91-1.17,2.55c-.95,1.97-1.76,3.53-2.53,4.89l-.25.43c-.36.63-.72,1.26-1.1,1.85-.43.7-.9,1.45-1.39,2.14l-.69,1-1.43,1.9-.74.88c-.44.53-.92,1.09-1.44,1.61l-.39.41c-.33.35-.65.68-1,.98l-1.26,1.14-1.7,1.32-.76.5-1.13.72c-.5.32-1.08.49-1.68.49Z"/>
                <path d="M129.26,162.48c.56,0,1.37.29,1.31.62h0s-.17.93-.5,2.51c-.33,1.59-.84,3.85-1.53,6.55-.69,2.7-1.54,5.83-2.6,9.15-.53,1.66-1.09,3.38-1.71,5.1-.61,1.73-1.28,3.47-1.99,5.21-.35.87-.73,1.72-1.09,2.58-.39.85-.78,1.7-1.16,2.54-.81,1.67-1.63,3.3-2.51,4.85-.44.77-.87,1.54-1.34,2.26-.45.73-.9,1.45-1.38,2.13-.23.34-.46.68-.69,1.01-.24.32-.48.64-.72.95-.24.31-.47.62-.7.92-.25.29-.49.58-.72.86-.47.57-.93,1.1-1.41,1.58-.47.48-.89.96-1.36,1.37-.46.41-.88.79-1.27,1.15-.43.33-.82.63-1.17.91-.18.14-.34.27-.5.39-.17.11-.33.21-.47.31-.3.19-.55.35-.75.48-.41.26-.63.4-.63.4-.44.28-.93.41-1.41.41-.87,0-1.72-.43-2.23-1.22-.78-1.23-.42-2.86.81-3.64.04-.02.07-.04.1-.06l.21-.12s.17-.1.5-.29c.16-.09.37-.21.61-.34.12-.07.25-.14.39-.22.13-.09.27-.19.42-.29.3-.2.63-.43.99-.67.34-.28.72-.58,1.11-.9.41-.31.8-.71,1.23-1.1.44-.38.86-.83,1.31-1.31.22-.24.45-.48.68-.72.22-.26.44-.52.67-.79.23-.27.46-.54.7-.82.23-.29.45-.59.68-.88.47-.59.92-1.23,1.38-1.89.47-.65.91-1.34,1.37-2.04.91-1.41,1.78-2.91,2.64-4.46.42-.78.83-1.58,1.25-2.37.4-.81.81-1.61,1.2-2.43.78-1.64,1.53-3.29,2.22-4.94.7-1.65,1.35-3.29,1.96-4.89,1.22-3.2,2.24-6.23,3.07-8.85.83-2.62,1.46-4.82,1.87-6.36.42-1.55.63-2.43.63-2.43.04-.16.26-.23.53-.23M129.26,161.48h0c-1.17,0-1.44.76-1.5,1,0,0-.21.89-.62,2.4-.37,1.36-.99,3.57-1.86,6.32-1,3.15-2,6.03-3.05,8.79-.55,1.44-1.22,3.15-1.95,4.85-.63,1.5-1.35,3.1-2.2,4.91-.24.52-.5,1.03-.75,1.54-.15.29-.29.59-.44.88l-.55,1.05-.68,1.29c-.99,1.78-1.82,3.18-2.6,4.38l-.26.4c-.36.56-.71,1.09-1.07,1.59-.44.63-.89,1.27-1.36,1.85l-.35.45-.35.45-.3.36-.36.43-.32.38-.33.39-.67.7c-.37.4-.81.86-1.24,1.24-.15.13-.28.26-.41.38-.27.25-.52.49-.75.66l-1.11.89-.95.65-.3.21-.08.06-.13.07-.22.13-.24.14-.36.2-.51.29-.21.12c-.08.04-.11.07-.15.09-1.69,1.08-2.19,3.33-1.12,5.02.67,1.05,1.82,1.68,3.07,1.68.69,0,1.36-.2,1.95-.57l.63-.4.5-.32.25-.16.25-.16.24-.16s.04-.03.06-.04l.51-.39.45-.35.72-.56s.04-.03.06-.05l.22-.2,1.05-.95c.35-.3.69-.66,1.02-1,.13-.13.26-.27.39-.4.53-.53,1.01-1.1,1.46-1.64l.31-.37.41-.48.42-.55.31-.41.53-.71.19-.25.63-.91.09-.13c.49-.7.97-1.45,1.41-2.17.38-.6.75-1.24,1.1-1.86l.25-.43c.78-1.38,1.59-2.94,2.55-4.91l1.17-2.56c.14-.33.27-.63.4-.93.24-.56.49-1.13.71-1.7.79-1.95,1.44-3.66,2-5.25.66-1.83,1.24-3.62,1.72-5.13.92-2.89,1.77-5.9,2.61-9.21.72-2.83,1.23-5.15,1.54-6.59.29-1.4.46-2.29.5-2.53,0,0,0,0,0-.01.06-.36-.04-.72-.28-1.01-.52-.62-1.54-.78-2.01-.78h0Z"/>
              </g>
              <g>
                <path d="M119.54,153.51c-.5-.06-.96.3-1.02.8-.06.5.31.96.8,1.03.5.06.96-.31,1.02-.8.06-.5-.3-.96-.8-1.02Z"/>
                <path d="M121.84,151.96c-.31.09-.54.17-.73.46-.46.71.19,1.62,1.02,1.3.22-.09.36-.22.52-.38.5-.52-.11-1.57-.81-1.37Z"/>
                <path d="M121.84,154.26c-.51-.06-.89.46-.7.94,0,0,0,0,0,.01.19.46.85.54,1.14.14,0,0,0,0,0-.01.3-.41.06-1.01-.46-1.08Z"/>
                <path d="M124.65,153.38c-.16-.18-.39-.2-.59-.07-.02.01-.04.03-.07.04-.38.25-.16.85.25.9.41.05.77-.48.46-.82-.02-.02-.04-.04-.05-.06Z"/>
                <path d="M126.26,151c.06-.51-.52-.8-.92-.52,0,0,0,0-.01,0-.24.17-.29.56-.09.78,0,0,0,0,0,.01.32.37.96.23,1.02-.29Z"/>
                <path d="M125.72,154.58c-.59-.07-.7.85-.11.92.59.07.7-.84.11-.92Z"/>
                <path d="M142.97,157.12c-.49-.06-.96.3-1.02.8-.06.49.3.96.8,1.02.49.06.96-.3,1.02-.8.06-.5-.3-.96-.8-1.02Z"/>
                <path d="M144.26,159.55c-.81-.1-.97,1.16-.15,1.26.81.1.97-1.16.15-1.26Z"/>
              </g>
            </g>
          </g>
          <g>
            <path d="M114.23,9.4c8.28,0,16.14,1.87,18.01,3.31,1.87,1.44-2.76,37.27-3.74,39.44-.31.68-4.91,6.6-14.27,6.6s-13.96-5.92-14.27-6.6c-.98-2.17-5.61-38-3.74-39.44,1.87-1.44,9.73-3.31,18.01-3.31Z"/>
            <g>
              <path class="cls-1" d="M104.33,21.02c.23-.82.03-1.93-.66-2.5-.02-.02-.04-.03-.06-.05-.71-.59-1.53-.91-2.47-.65-1.12.31-1.82,1.31-1.86,2.45,0,.03,0,.05,0,.08-.06,1.68,1.69,2.91,3.26,2.48.87-.24,1.56-.93,1.8-1.8Z"/>
              <path class="cls-1" d="M107.49,18.33c-.79,0-1.45.66-1.45,1.45s.66,1.45,1.45,1.45,1.45-.66,1.45-1.45-.66-1.45-1.45-1.45Z"/>
              <path class="cls-1" d="M107.81,22.66c-.86,0-.86,1.34,0,1.34s.86-1.34,0-1.34Z"/>
              <path class="cls-1" d="M103.08,27.17c-1.27,0-1.27,1.97,0,1.97s1.27-1.97,0-1.97Z"/>
              <path class="cls-1" d="M127.3,17.44c-1.03,0-1.89.86-1.89,1.89s.86,1.89,1.89,1.89,1.89-.86,1.89-1.89-.86-1.89-1.89-1.89Z"/>
              <path class="cls-1" d="M122.28,25.75c-1.91,0-1.91,2.97,0,2.97s1.92-2.97,0-2.97Z"/>
              <path class="cls-1" d="M127.21,26.3c-1,0-1,1.55,0,1.55s1-1.55,0-1.55Z"/>
              <path class="cls-1" d="M125.06,30.14c-.4.4-.12,1.16.47,1.14.02,0,.04,0,.05,0,.15,0,.3-.06.42-.16.15-.13.18-.31.19-.5.05-.6-.75-.86-1.14-.47Z"/>
              <path class="cls-1" d="M103.96,46.26c-1.54,0-1.54,2.39,0,2.39s1.54-2.39,0-2.39Z"/>
              <path class="cls-1" d="M108.5,46.41c-1.22,0-1.22,1.9,0,1.9s1.22-1.9,0-1.9Z"/>
              <path class="cls-1" d="M104.42,51.75s-.01.06-.02.09c-.22.91.58,1.71,1.49,1.49.03,0,.06-.01.09-.02.94-.22,1.21-1.46.56-2.12-.66-.66-1.89-.38-2.12.56Z"/>
            </g>
            <path class="cls-1" d="M96.88,13.85c9.76,4.7,24.45,6.51,34.07.26.35-.23.05-.71-.32-.55-10.72,4.75-22.55,1.83-33.56-.16-.26-.05-.46.32-.19.45h0Z"/>
          </g>
          <g>
            <path d="M96.14,71.92c-17.44-2.24-20.99,27.14-18.98,38.93.3,1.75,2.77,1.16,2.9-.39.55-6.72,1.48-13.7,3.05-20.25,1.64-6.84,4.74-16.34,13.03-16.95.88-.06.84-1.23,0-1.34Z"/>
            <path d="M78.08,113.67c-1.53,0-2.81,1.28-2.81,2.81s1.28,2.81,2.81,2.81,2.81-1.28,2.81-2.81-1.28-2.81-2.81-2.81Z"/>
          </g>
          <g>
            <path class="cls-3" d="M135.43,37.94c0,2.43-1.97,4.39-4.39,4.39h-36.01c-2.42,0-4.39-1.97-4.39-4.39h0c0-2.43,1.97-4.39,4.39-4.39h36.01c2.42,0,4.39,1.97,4.39,4.39h0Z"/>
            <g>
              <path d="M105.32,37.6c-2.07-.33-4.1-.63-6.2-.83-.68-.07-4.55-.99-4.74.22-.36,2.21,2.74,2.8,4.3,3.01,2.36.32,4.65-.43,6.77-1.37.43-.19.33-.95-.13-1.03Z"/>
              <path d="M106.7,37.1c-1.4.82.16,2.89,1.36,1.76.92-.87-.25-2.41-1.36-1.76Z"/>
            </g>
          </g>
        </g>
      </g>
    </g>
  </g>
</svg>