<?xml version="1.0" encoding="UTF-8"?>
<svg id="Layer_2" data-name="Layer 2" xmlns="http://www.w3.org/2000/svg" viewBox="0 0 180.98 221.2">
  <defs>
    <style>
      .cls-1, .cls-2 {
        fill: #fff;
      }

      .cls-2, .cls-3, .cls-4 {
        stroke: #000;
        stroke-linecap: round;
        stroke-linejoin: round;
      }

      .cls-2, .cls-4 {
        stroke-width: 2px;
      }
    </style>
  </defs>
  <g id="OBJECTS">
    <g>
      <g>
        <polygon points="51.16 118.15 51.16 118.14 51.16 118.14 51.16 118.15"/>
        <polygon points="51.16 118.16 51.16 118.15 51.15 118.15 51.16 118.16"/>
        <path d="M69.09,156.6c-6.26-.4-8.95-4.96-10.41-10.61-.05-.43-.42-.57-.76-.49-.33.04-.62.29-.51.71.56,4.69.74,11.51-5.01,12.91-.66.16-.72,1.3.04,1.28,5.8-.17,8.6,7.73,10.09,12.2.25.74,1.27.29,1.22-.38-.5-6.17-.73-11.46,5.54-14.39.57-.26.44-1.18-.21-1.22Z"/>
        <path d="M43.27,157.05c-2.38-.18-3.35-1.86-3.92-4-.02-.22-.21-.28-.37-.24-.17.02-.32.14-.26.35.2,1.79.31,4.27-1.86,4.86-.33.09-.37.63.02.64,2.23.04,3.2,2.88,3.81,4.63.13.37.63.14.61-.19-.18-2.34-.28-4.3,2.08-5.43.28-.14.22-.59-.1-.61Z"/>
        <path d="M55.82,125.92c-2.38-.18-3.35-1.86-3.92-4-.02-.22-.21-.28-.37-.24-.17.02-.32.14-.26.35.2,1.79.31,4.27-1.86,4.86-.33.09-.37.63.02.64,2.23.04,3.2,2.88,3.81,4.63.12.37.64.15.61-.19-.18-2.34-.27-4.3,2.08-5.43.28-.14.22-.59-.1-.61Z"/>
        <path d="M53.96,172.05c-1.21.21-.89,2.08.32,1.88,1.21-.21.89-2.08-.32-1.88Z"/>
        <path d="M30.59,151.39c-1.54.26-1.13,2.65.41,2.39,1.54-.26,1.13-2.65-.41-2.39Z"/>
        <path d="M42.28,143.11c-1.04.18-.76,1.78.27,1.61,1.04-.18.76-1.78-.27-1.61Z"/>
        <path d="M62.69,140.52s-.06-.02-.09-.03c-.44-.13-.81.08-.96.43-.24.37-.14.9.22,1.16.49.35,1.35.05,1.36-.62,0-.03,0-.06,0-.1,0-.35-.16-.73-.52-.84Z"/>
      </g>
      <g>
        <polygon points="129.2 51.4 129.19 51.39 129.2 51.39 129.2 51.4"/>
        <path d="M129.2,51.4s0,0,0,0c0,0,0,0,0,0,0,0,0,0,0,0Z"/>
        <path d="M115.16,55.86c4.26-1.84,4.99-5.63,4.65-9.93-.07-.31.15-.49.4-.52.24-.05.5.05.52.36.76,3.34,2.58,8.18,6.46,7.66,0,0,0,0,0,0,.05-.02.11-.02.16-.03,0,0,0-.01,0-.02h0s.05,0,.08,0c.03,0,.05,0,.08,0,.07,0,.14.02.2.05.02,0,.03.02.05.03.04.03.08.06.12.1.09.09.16.19.19.33h0c.03.17-.01.31-.08.42-.01.02-.02.03-.02.05-.01.02-.02.02-.03.04-.05.07-.13.12-.21.16,0,0,0,0,0-.01,0,0,0,0-.02,0,0,0,.01,0,.02,0-.05.02-.09.05-.15.06h0c-3.93.91-3.99,7.33-3.95,10.77,0,.56-.8.5-.92.03-1.17-4.41-2.29-8.12-7.37-8.66-.45-.05-.58-.7-.15-.88Z"/>
        <path d="M135.54,70.97c7.34-3.12,8.65-9.72,8.01-17.12-.12-.54.27-.87.7-.91.42-.09.87.09.91.64,1.3,5.87,3.97,14.12,11.45,13.38.86-.08,1.41,1.25.48,1.55-7.03,2.24-7.05,12.9-6.97,18.89.01.99-1.41.89-1.62.06-2-7.62-3.96-14.06-12.71-14.93-.79-.08-1.02-1.24-.27-1.56Z"/>
        <path d="M160.85,56.31c2.77-1.22,3.23-3.65,3.01-6.45-.07-.27.13-.43.35-.45.21-.05.44.03.46.31.52,2.23,1.43,5.26,4.28,5.05.43-.03.7.6.24.77-2.65.99-2.63,4.8-2.61,7.16,0,.49-.7.44-.81.03-.76-2.88-1.48-5.27-4.78-5.64-.4-.05-.51-.61-.13-.78Z"/>
        <path d="M169.19,114.41c2.78-1.22,3.23-3.65,3.02-6.45-.06-.27.13-.43.35-.45.21-.05.44.04.46.31.52,2.23,1.43,5.26,4.28,5.05.43-.03.71.6.24.77-2.66.98-2.63,4.8-2.61,7.16,0,.49-.7.44-.81.03-.77-2.88-1.48-5.27-4.78-5.64-.4-.04-.51-.61-.13-.78Z"/>
        <path d="M178.95,78.98c2.27-.39,2.87,3.13.6,3.52-2.27.39-2.87-3.13-.6-3.52Z"/>
        <path d="M157.99,84.9c1.32-.23,1.67,1.82.35,2.04-1.32.22-1.67-1.82-.35-2.04Z"/>
        <path d="M144.02,98.44c1.83-.31,2.31,2.53.48,2.84-1.83.31-2.31-2.53-.48-2.84Z"/>
        <path d="M157.79,110.97c1.39-.24,1.76,1.92.37,2.16-1.39.24-1.76-1.92-.37-2.16Z"/>
        <path d="M129.17,78.5c1.54-.26,1.94,2.12.41,2.38s-1.94-2.12-.41-2.38Z"/>
        <path d="M169.33,90.38c1.75-.3,2.22,2.42.46,2.72-1.75.3-2.22-2.43-.46-2.72Z"/>
        <path d="M152.28,40.36c1.96-.34,2.47,2.7.52,3.03-1.96.33-2.47-2.7-.52-3.03Z"/>
        <path d="M126.58,84.97c1.96-.33,2.47,2.7.52,3.03-1.96.33-2.47-2.7-.52-3.03Z"/>
        <path d="M131.42,41.12c1.32-.23,1.67,1.82.35,2.04-1.32.23-1.67-1.82-.35-2.04Z"/>
        <path d="M138.71,28.54s.06-.04.09-.07c.47-.35,1.01-.25,1.33.11.44.34.55,1.02.23,1.48-.45.63-1.6.63-1.89-.17-.01-.04-.03-.08-.04-.11-.15-.42-.12-.94.27-1.23Z"/>
        <path d="M157.07,146.06c4.43-1.91,5.19-5.85,4.83-10.31-.07-.32.16-.51.41-.54.25-.06.51.05.54.37.79,3.47,2.69,8.5,6.71,7.95,0,0,0,0,0,0,.06-.02.11-.02.16-.03,0,0,0-.01,0-.02,0,0,0,0,0,0,.03,0,.06,0,.08,0,.03,0,.06,0,.09,0,.08,0,.14.02.21.05.02,0,.03.02.05.03.05.03.08.06.12.1.09.09.17.2.19.34h0c.03.17-.01.32-.09.43,0,.02-.02.03-.03.05,0,.01-.02.03-.04.04-.05.07-.13.12-.22.16,0,0,0,0,0-.01,0,0-.01,0-.02,0,0,0,.01,0,.02,0-.05.02-.09.05-.15.06,0,0,0,0,0,0-4.08.95-4.14,7.62-4.1,11.18,0,.58-.83.52-.96.03-1.21-4.58-2.38-8.43-7.65-8.99-.47-.05-.6-.73-.16-.92Z"/>
        <path d="M151.54,159.86c2.19-.96,2.54-2.87,2.37-5.08-.05-.21.1-.34.27-.35.16-.04.35.03.36.24.41,1.75,1.12,4.14,3.36,3.97.34-.02.56.47.19.61-2.09.78-2.07,3.78-2.05,5.63,0,.39-.55.35-.64.02-.6-2.27-1.17-4.15-3.76-4.44-.31-.03-.4-.48-.1-.61Z"/>
        <path d="M172.17,155.45c1.79-.3,2.26,2.46.47,2.77-1.79.31-2.26-2.46-.47-2.77Z"/>
        <path d="M159.85,158.15c1.04-.18,1.31,1.43.27,1.61-1.04.18-1.31-1.43-.27-1.61Z"/>
        <path d="M163.1,166.01c1.44-.25,1.82,1.99.38,2.23-1.44.24-1.82-1.99-.38-2.23Z"/>
        <path d="M169.27,136.99c1.09-.19,1.38,1.51.29,1.7-1.09.19-1.38-1.51-.29-1.7Z"/>
        <path d="M154.6,133.6c1.38-.24,1.75,1.91.37,2.14-1.38.24-1.75-1.91-.37-2.14Z"/>
      </g>
      <g>
        <path class="cls-2" d="M91.74,111.17c-1.9.81,1.16,6.26,5.13,7.53,3.97,1.27,8.94,4.62,8.94,4.62l.68-7.48s-12.05-5.83-14.75-4.67Z"/>
        <path class="cls-2" d="M102.08,105.78s-13.44-3.65-14.33-3.6c-.9.04-1.21,4.63,1.6,7.19,2.81,2.56,8.05,4.77,9.2,5.54,1.15.77,5.62,7.43,5.62,7.43l4.24-1.81-.53-11.09-5.78-3.65Z"/>
        <path class="cls-2" d="M145.24,220.2c-3.87-5.1-14.18-11.15-19.41-14.02-1.65-.9-3.4-1.6-5.25-1.93-12.15-2.17-27.41-16.21-29.18-20.34-1.87-4.38-8.5-26.6-9.55-29.04-1.04-2.44-4.55-20.37-2.8-20.69,1.5-.27,8.28,1.16,11.33,7.74,3.04,6.58,4.61,14.24,6.98,17.9,2.37,3.67,5.41,5.56,5.89,4.9.49-.66,2.71-12.81,1.66-18.18-1.04-5.37-1.08-17.46-.7-25.38.37-7.92-2.38-16.22-3.7-20.91-1.32-4.69-1.83-16.12,2.2-17.38,1.01-.32,10.59,21.97,11.7,23.99.51.92,1.91,6.6,1.91,6.6,0,0,7.08,2.68,8.27,3.31,1.19.63,3.8,8.08,3.8,8.08,1.17-3.13-.85-8.65-1.2-13.75-.36-5.1,1.14-11.88,2.99-10.95,1.85.94,8.65,22.28,9.83,24.36,1.18,2.09.2,14.6-.25,20.27-.46,5.67,1.69,29.52,5.27,33.17,3.58,3.65,22.16,16.1,22.16,16.1"/>
        <path d="M129.34,124.54s.3,1.07.75,2.68c.44,1.6,1.03,3.73,1.62,5.86.32,1.05.61,2.12.93,3.09.16.49.31.96.46,1.41.14.45.31.86.45,1.24.14.38.28.73.39,1.04.14.29.26.54.37.75.2.42.32.65.32.65l.04.08c.11.22.02.48-.2.59-.21.1-.46.02-.57-.17,0,0-.15-.25-.4-.69-.12-.22-.28-.49-.45-.8-.14-.31-.3-.66-.47-1.05-.17-.39-.38-.8-.54-1.25-.18-.45-.36-.92-.56-1.4-.39-.97-.75-2.02-1.14-3.06-.74-2.09-1.46-4.2-1.99-5.76-.52-1.55-.91-2.6-.91-2.6h0c-.19-.52.08-1.1.59-1.29.52-.19,1.09.07,1.29.59,0,.02.02.05.02.08Z"/>
        <path d="M117.27,113.15s.68,2.29,1.7,5.71c.51,1.71,1.1,3.71,1.74,5.86.16.54.32,1.08.49,1.63l.25.83.12.42s.06.19.04.16l.09.2c.48,1.06.93,2.19,1.48,3.21.53,1.05,1.06,2.1,1.59,3.13.56,1.03,1.11,2.04,1.64,3.01.51,1,1.12,1.84,1.63,2.71.25.43.57.86.84,1.24.26.43.53.84.73,1.25.44.8.76,1.57,1.02,2.27.26.69.45,1.31.57,1.83.13.52.2.93.23,1.22.04.29.06.44.06.44.02.15-.08.28-.23.3-.14.02-.28-.08-.3-.22v-.03s-.03-.14-.08-.41c-.04-.27-.12-.66-.26-1.15-.13-.49-.34-1.08-.62-1.73-.27-.66-.62-1.39-1.06-2.14-.21-.39-.47-.74-.72-1.13-.3-.39-.59-.75-.88-1.2-.57-.87-1.26-1.77-1.8-2.74-.57-.96-1.17-1.96-1.77-2.98-.58-1.04-1.17-2.1-1.75-3.15-.61-1.05-1.09-2.13-1.62-3.19l-.1-.2-.09-.26-.14-.41-.28-.82c-.18-.54-.37-1.08-.55-1.61-.72-2.12-1.39-4.09-1.96-5.78-1.15-3.39-1.92-5.64-1.92-5.64v-.02c-.18-.52.09-1.09.62-1.27.52-.18,1.09.1,1.27.63,0,.01,0,.03.01.04Z"/>
        <g>
          <path class="cls-3" d="M79.22,144.02c.14.39,5.48-.6,5.79-1.94.32-1.34-4.62-11.11-7.09-10.62-.79.16-.41,7.74,1.3,12.56Z"/>
          <path class="cls-3" d="M104.13,94.69c1.12,2.53,5.24.31,5.23-.22,0-.54-5.49-12.52-6.73-13.1-1.24-.59-1.17,7.31,1.5,13.33Z"/>
          <path class="cls-3" d="M85.51,101.87c-.39.96,7.3,4.87,9.07,4.83,1.77-.04,3.3-2.53,2.9-2.94-.4-.41-11.51-3.04-11.98-1.88Z"/>
          <path class="cls-3" d="M131.58,110.2c.43,1.25,3.85.6,3.86.1,0-.5-3.5-10.05-4.11-10.55-.62-.5-2.49,2.54.26,10.45Z"/>
        </g>
        <g>
          <path d="M140.37,157.39c-.45,0-.9.03-1.35.1-3.41.58-6.22,3.5-7.98,5.85-2.96,3.95-4.5,9.84-3.82,14.65.05.34.3.59.68.66,1.19.23,2.45.24,3.75.01,2.31-.39,4.69-1.5,6.78-3.09-.11.14-.18.32-.16.55.06.72.13,1.44.21,2.17.07.73.15,1.47.21,2.2.02.22.12.4.28.53.16.13.38.18.61.14.38-.06.74-.39.7-.88-.06-.74-.14-1.47-.21-2.21-.07-.72-.14-1.44-.21-2.16-.02-.22-.12-.4-.28-.53-.22-.17-.55-.18-.83-.05,1.51-1.2,2.86-2.64,3.91-4.24.05-.08.07-.17.05-.26-.08-.35-.15-.71-.23-1.07-.04-.18-.22-.3-.4-.27-.14.02-.26.09-.37.18.11-.38.21-.76.29-1.16.04-.18.07-.36.11-.59,0-.04,0-.08,0-.12-.37-2.06-.71-4.33-1-6.75,0-.06-.03-.12-.07-.16-.51-.67-1.12-1.08-1.81-1.22-.34-.07-.68-.07-1.03-.01-2.18.37-4.24,3.27-5.01,7.04-.87,4.21.19,7.92,2.41,8.73-.31.18-.6.34-.89.49-1.58.82-3.27,1.28-4.94,1.34-.43.02-.73-.08-.91-.29-.46-.52-.27-1.74-.12-2.72.04-.24.08-.48.1-.7.41-3.45,1.83-7,3.89-9.76.93-1.24,3.44-4.19,6.61-4.73.39-.07.77-.09,1.15-.08.1,0,.19-.04.26-.11.07-.07.1-.17.09-.27l-.09-.92c-.02-.17-.16-.31-.33-.31ZM136.7,173.98c-.16.03-.3.02-.45,0-1.52-.31-2.24-3.56-1.54-6.95.62-2.99,2.25-5.54,3.72-5.79.15-.03.3-.02.44,0,1.52.31,2.24,3.56,1.54,6.96-.62,2.99-2.25,5.53-3.72,5.78Z"/>
          <path d="M140.26,165.58c-.24-.81-.71-1.33-1.32-1.46-1.16-.24-2.45,1.2-2.86,3.18-.42,2.02.19,3.8,1.37,4.05.17.03.34.03.51,0,1.03-.18,2-1.49,2.34-3.19.19-.93.17-1.85-.05-2.59Z"/>
          <path d="M133.33,179.87c-.24.97-.5,1.93-.76,2.9-.26.99-.53,1.97-.78,2.96-.07.28,0,.55.19.76.2.21.49.32.75.27.28-.05.49-.25.56-.54.25-.98.51-1.96.77-2.94.26-.97.52-1.95.76-2.93.07-.28,0-.55-.19-.76-.4-.44-1.18-.3-1.32.27ZM132.69,186.41h0s0,0,0,0Z"/>
          <path d="M127.56,163.57c.38.39.76.77,1.13,1.17.19.2.45.29.71.25.3-.05.56-.27.66-.55.09-.26.02-.53-.18-.74-.38-.4-.77-.8-1.15-1.19-.56-.57-1.15-1.16-1.68-1.77-.39-.45-1.18-.25-1.37.28-.09.26-.04.54.16.75.55.63,1.14,1.23,1.72,1.81Z"/>
          <path d="M132.53,155.89c.3.64.6,1.28.88,1.92.15.33.48.51.83.45.26-.04.49-.2.6-.43.11-.21.12-.45.02-.69-.28-.64-.58-1.27-.88-1.9-.3-.64-.6-1.28-.89-1.92-.15-.33-.47-.51-.83-.45-.26.04-.48.21-.6.43-.11.21-.12.45-.02.69.28.64.58,1.27.88,1.9Z"/>
          <path d="M139.81,149.95c-.42-.02-.79.25-.87.66l-1.04,5.06c-.05.25.01.48.17.65.18.18.45.27.73.22.35-.06.6-.31.67-.64l.76-3.68s0-.06,0-.09c-.04-.64-.08-1.25-.11-1.84,0-.17-.15-.32-.32-.32Z"/>
        </g>
      </g>
      <g>
        <path class="cls-4" d="M82.25,23.54s1.84-11.15-8.67-18.78c-12.45-9.05-32.43-1.06-33.56,16.52,0,0-16.71-14.84-29.65-4.66-12.94,10.19-13.78,30.55,5.68,38.12,0,0-9.42.21-11.1,11.73-1.68,11.51,15.32,16.64,15.32,16.64,0,0-7.08,3.31-4.75,8.95,2.33,5.63,10.29,9.25,15.42,6.96L82.25,23.54Z"/>
        <path class="cls-4" d="M86.41,64.54s24.9-11.84,8.32-35.71C78.15,4.96.91,13.58,28.06,91.81c0,0-9.76,7.8,4.43,17.9,14.2,10.1,31.55-2.62,39.56,9.49,0,0,4.82-7.37-.68-14.55,0,0,12.13-13.55,6.44-21.77,0,0,13.15-5.99,8.59-18.33Z"/>
        <g>
          <path class="cls-1" d="M69.64,60.23c-.23.18.01.56.27.43,5.91-3.13,12.36-1.49,16.21,3.95.17.24.58-.02.43-.27-3.52-5.86-11.13-8.62-16.91-4.1Z"/>
          <path class="cls-1" d="M66.81,78.95c-.26.12-.13.56.15.48,4.02-1.05,8.83.61,10.94,4.29.12.21.44.07.35-.16-1.65-4.33-7.24-6.56-11.44-4.61Z"/>
          <path class="cls-1" d="M66.87,71.33c-2.9-7.77-12.4-9.21-17.11-2.64-3.5-2.58-9.06-3.07-12.39-.24-.32.27.03.87.41.64,5.42-3.25,15.02-.28,14.53,7-.02.24.37.36.43.1.71-3.02-.52-5.54-2.63-7.24,3.71-4.59,9.66-4.92,13.99-.69,6.41,6.25-.93,13.43-6.55,16.5-4.56,2.49-9.73,4.07-12.48,8.78-1.57,2.69-.63,5.37,2.14,6.46.38.15.65-.38.33-.62-8.62-6.33,11.8-14.26,15.3-17.08,3.13-2.52,5.56-6.91,4.04-10.97Z"/>
          <path class="cls-1" d="M55.05,92.82c-4.53,1.71-7.46,5.29-7.35,10.24,0,.24.35.29.38.04.84-7.73,9.56-12.5,16.31-8.28,5.57,3.48,1.34,17.06-5.28,16.52-.33-.03-.37.46-.05.51,7.66,1.29,10.58-11.77,7.03-16.7-2.25-3.13-7.74-3.56-11.04-2.31Z"/>
          <path class="cls-1" d="M34.26,99.3c-.29.06-.32.41-.04.51,4.11,1.39,8.27-5.85,4.32-9.79-2.5-2.5-7.36-2.22-10.3.2-.72-2.11-1.42-4.23-2.03-6.37-.69-2.34-1.26-4.72-1.79-7.1-.49-2.39-.94-4.79-1.23-7.21-.31-2.42-.53-4.85-.58-7.28-.14-4.86.26-9.76,1.41-14.48,1.14-4.72,3.04-9.27,5.75-13.31,2.69-4.05,6.18-7.55,10.19-10.32,4-2.79,8.51-4.81,13.21-6.15,4.71-1.31,9.61-1.93,14.5-1.8,2.44.05,4.89.3,7.29.74,2.41.43,4.77,1.09,7.07,1.94.06.02.12,0,.14-.06.02-.06,0-.12-.07-.14-2.29-.88-4.67-1.57-7.09-2.03-2.42-.46-4.87-.74-7.34-.82-4.92-.17-9.87.41-14.64,1.68-4.75,1.3-9.35,3.3-13.44,6.1-4.09,2.77-7.7,6.31-10.48,10.41-2.8,4.1-4.79,8.73-6,13.53-1.22,4.81-1.68,9.79-1.58,14.73.03,2.48.23,4.94.51,7.4.27,2.46.71,4.89,1.18,7.32.51,2.42,1.06,4.82,1.74,7.2.61,2.23,1.31,4.44,2.04,6.63-.02.01-.03.03-.05.04-.14.13-.28.27-.41.41-.26.28-.51.57-.73.87-.45.61-.83,1.27-1.11,1.96-.58,1.39-.71,2.93-.43,4.35,0,.04.05.07.09.07.05,0,.08-.04.08-.09-.08-1.42.25-2.82.95-3.99.34-.59.76-1.13,1.24-1.61.1-.1.21-.19.31-.28,2.53-2.06,6.31-3.53,9.49-2.16,2.04.88,2.37,3.05,2.03,5.01-.43,2.43-1.97,3.47-4.2,3.89Z"/>
          <path class="cls-1" d="M61.36,57c-.38.32.03,1.01.48.75,6.74-3.94,7.9-13.6,4.36-20.12-3.59-6.62-14.19-11.43-20.8-6.69-.12.09,0,.27.14.21,7.12-3.2,14.41.46,18.91,6.24,4.63,5.94,2.29,15.13-3.09,19.61Z"/>
          <path class="cls-1" d="M45.45,108.83c-1.9-.35-3.73-.58-5.6-1.13-2.24-.66-3.52-1.79-4.59-3.8-.07-.13-.29-.11-.31.05-.32,4.29,7.42,6.14,10.52,5.64.45-.07.38-.69-.03-.76Z"/>
          <path class="cls-1" d="M39.85,104.71c-.18-.11-.4.1-.26.28.75.93,2,1.37,3.15,1.58.41.08.47-.56.06-.64-1.05-.19-2.04-.69-2.95-1.22Z"/>
          <path class="cls-1" d="M37.85,34.34c.09-.08-.03-.22-.12-.15-8.16,6.04-11.41,16.75-11,26.57.02.4.68.37.7-.02.42-9.48,2.89-20.01,10.42-26.4Z"/>
          <path class="cls-1" d="M33.11,45.93c-1.88,2.68-3,5.66-3.1,8.95-.01.46.7.52.7.07,0-3.2,1-6.1,2.76-8.76.16-.24-.2-.5-.37-.26Z"/>
          <path class="cls-1" d="M27.54,70.07c-1.16,2.84-.12,5.81,1.18,8.41.19.37.71.11.58-.27-.9-2.61-2.25-5.15-1.22-7.93.13-.35-.4-.55-.54-.2Z"/>
          <path class="cls-1" d="M69.68,22.57c-.06,0-.07.09,0,.09,9.46.81,17.48,7.18,22.02,15.25.2.36.76.11.58-.27-4.36-8.98-12.92-13.9-22.59-15.07Z"/>
          <path class="cls-1" d="M81.54,31.17c-.17-.1-.36.15-.18.26,3.38,2.26,5.39,5.7,6.69,9.48.14.41.85.19.73-.23-1.2-3.92-3.68-7.39-7.23-9.52Z"/>
          <path class="cls-1" d="M94.67,41.79c-.18-.39-.74-.44-.99-.09-.2.28-.08.69.22.84.13.18.44.24.6.08.23-.24.32-.51.17-.83Z"/>
          <path class="cls-1" d="M92.81,45.96c-.65.11-.48,1.12.17,1.01.65-.11.48-1.12-.17-1.01Z"/>
          <path class="cls-1" d="M79.87,66.63c1.26,1.61,1.48,3.55,1.52,5.54,0,.37.58.43.57.06-.06-2.14-.33-4.2-1.7-5.92-.2-.26-.59.07-.39.33Z"/>
          <path class="cls-1" d="M82.76,67.71c1.3,2.28,1.89,4.41,1.01,6.97-.11.33.36.62.56.3,1.55-2.5.39-5.24-1.05-7.51-.19-.3-.71-.09-.52.24Z"/>
          <path class="cls-1" d="M72.62,86.82c-.03-.08-.15-.02-.11.05,1.93,4.71.18,8.41-2.5,12.32-.14.21.16.41.31.22,2.99-3.7,4.27-8.12,2.31-12.6Z"/>
          <path class="cls-1" d="M75.46,91.3c-.74,2.85-1.02,5.8-3.34,7.9-.09.08.03.23.12.15,2.33-1.91,3.24-5.06,3.71-7.93.05-.29-.42-.4-.5-.12Z"/>
          <path class="cls-1" d="M69.51,86.57c-.61.1-.45,1.05.16.95.61-.1.45-1.05-.16-.95Z"/>
          <path class="cls-1" d="M71.84,82.79c-.81.14-.6,1.4.21,1.26.81-.14.6-1.4-.21-1.26Z"/>
          <path class="cls-1" d="M16.65,49.77c.58.13.76-.79.23-.99-6.72-2.45-14.19-9.06-11.32-16.92.07-.2-.22-.3-.3-.11-3.56,7.95,3.72,16.37,11.38,18.02Z"/>
          <path class="cls-1" d="M15.73,44.83c.59.15.94-.69.34-.9-4.51-1.54-7.74-4.46-6.9-9.55.04-.21-.32-.3-.37-.09-1.32,5.33,1.82,9.24,6.93,10.54Z"/>
          <path class="cls-1" d="M17.33,77.65c-4.65-1.99-8.21-6.11-6.32-11.37.13-.35-.39-.54-.54-.2-2.43,5.43.92,11.27,6.64,12.5.56.12.69-.72.22-.93Z"/>
          <path class="cls-1" d="M13.8,70.51c.26,2.2,1.66,4.28,3.66,5.25.41.2.68-.42.36-.67-1.62-1.28-3.12-2.54-3.58-4.66-.06-.28-.48-.21-.44.08Z"/>
          <path class="cls-1" d="M46.33,17.02c.69-1.66.87-3.46,1.65-5.1.97-2.06,2.83-3.74,4.71-4.94.37-.24-.03-.83-.41-.64-3.84,1.86-7.25,6.11-6.13,10.67.02.09.15.11.18.02Z"/>
          <path class="cls-1" d="M52.88,10.48c-1.75.33-2.82,1.8-2.77,3.56,0,.2.29.24.32.03.21-1.46,1.2-2.34,2.59-2.71.55-.14.43-.99-.15-.88Z"/>
          <path class="cls-1" d="M17.7,89.53c.03-.16-.22-.18-.26-.03-.49,2.15,1.03,4.11,3.11,4.67.28.08.41-.29.16-.42-1.78-.93-3.43-1.91-3.01-4.23Z"/>
          <path class="cls-1" d="M20.46,90.13c-.25-.33-.74.08-.49.41.53.69,1.24,1.29,1.99,1.72.33.19.61-.22.33-.47-.63-.55-1.32-.99-1.83-1.66Z"/>
        </g>
      </g>
    </g>
  </g>
</svg>