<?xml version="1.0" encoding="UTF-8"?>
<svg id="Layer_2" data-name="Layer 2" xmlns="http://www.w3.org/2000/svg" viewBox="0 0 186.27 215.97">
  <defs>
    <style>
      .cls-1 {
        fill: #fff;
      }
    </style>
  </defs>
  <g id="PREVIEW">
    <g>
      <path d="M185.54,95.13c-2.24-12.18-24.57-26.65-34.11-32.83-1.86-1.2-3.21-2.08-3.66-2.45-1.83-1.55-1.64-8.92-1.09-13.21.01-.1,0-.19-.03-.28,2.39-1.28,3.79-2.85,3.79-4.56v-14.41c0-1.46-1.02-2.82-2.8-3.98,1.29-5.44,3.3-15.74,2.54-17.39-.99-2.16-8.74-6.02-20.63-6.02s-19.64,3.86-20.64,6.02c-.76,1.64,1.26,11.94,2.54,17.39-1.78,1.16-2.79,2.52-2.79,3.98v14.41c0,1.74,1.44,3.33,3.9,4.62-.02.07-.02.15-.01.23.55,4.29.74,11.66-1.09,13.21-.45.38-1.79,1.25-3.66,2.45-9.54,6.18-31.87,20.64-34.1,32.83-2.74,14.92,2.41,50.9,11.02,77.01,2.18,6.61,4.4,12.12,6.87,16.67,0,.04.02.09.04.13,4.83,10.73,15.53,23.25,18.53,24.61,1.58.72,10.81,2.43,19.47,2.43s17.88-1.71,19.47-2.43c3.44-1.55,13.89-14.3,18.54-24.62.02-.04.03-.09.04-.13,2.46-4.55,4.68-10.05,6.86-16.66,8.61-26.11,13.76-62.1,11.02-77.01Z"/>
      <g>
        <path class="cls-1" d="M129.56,204.26c-12.59,0-20.46-2.07-26.32-6.92-5.74-4.75-10.13-12.67-14.69-26.48-8.09-24.54-11.85-51.64-11.54-66.85,2.92,2.28,8.8,4.56,16.71,6.43,10.6,2.5,23.33,3.88,35.84,3.88s25.25-1.38,35.86-3.89c7.89-1.87,13.75-4.14,16.67-6.41.16,15.67-3.66,42.93-11.54,66.84-4.55,13.81-8.94,21.73-14.69,26.48-5.86,4.85-13.73,6.92-26.32,6.92Z"/>
        <path class="cls-1" d="M129.56,112.59c-26.85,0-48.51-6.27-52.39-10.77.5-.89,3.12-2.53,15.14-3.46,10-.76,23.81-.87,37.25-.87s27.22.11,37.21.87c12,.92,14.66,2.56,15.17,3.46-3.86,4.5-25.51,10.77-52.38,10.77Z"/>
      </g>
      <path d="M149.79,197.71c0,2.36-9.42,4.28-21.04,4.28s-21.04-1.91-21.04-4.28,9.42-4.27,21.04-4.27,21.04,1.91,21.04,4.27Z"/>
      <g>
        <path class="cls-1" d="M108.04,53.09c-1.04-4.27-23.51-17.15-26.65-18.31-3.14-1.17-58.5,1.2-78.68,14.58-.34.23-1.55,4-1.68,4.43-1.47,5.22-.72,33.51,6.68,44.56.82,1.22,44.1-22.84,81.86-22.3,1.58.02,16.28-15.46,17.34-18.88.06-.17,1.26-3.51,1.13-4.07ZM94.04,55.62c.69.7,1.07,1.58,1.19,2.48-1.71,1.66-4.45,1.62-6.11-.09-.68-.7-1.07-1.58-1.19-2.48,1.71-1.66,4.45-1.62,6.11.09Z"/>
        <path d="M118.49,29.06h-.01c-12.4.23-18.94,9.9-21.27,14.28-.49-.32-.98-.64-1.47-.94-5.9-3.75-12.48-7.4-14.19-8.03-.52-.19-2.02-.29-4.47-.29-10.34,0-56.13,2.65-74.61,14.92-.17.11-.38.34-.57,1.01-.58,1.38-1.26,3.63-1.27,3.66-1.4,4.97-.95,33.44,6.73,44.92.08.11.22.24.5.24.66,0,2.6-.83,6.92-2.72,13.47-5.88,45.02-19.64,73.55-19.64.42,0,.83,0,1.25,0,1.99,0,16.75-15.96,17.75-19.19,0-.02.03-.09.07-.19.52-1.52.81-2.46.95-3.07.18-.52.17-.84.12-1.05-.51-2.08-5.37-5.74-10.17-8.93,2.17-4.12,8.39-13.48,20.2-13.7.36,0,.64-.3.64-.66,0-.35-.29-.64-.65-.64ZM93.95,56.18c.09.76.28,1.42.56,1.96-.66.48-1.45.75-2.28.75-1.06,0-2.05-.42-2.79-1.17-.56-.58-.9-1.28-1.03-2.02.7-.61,1.6-.94,2.54-.94,1.06,0,2.05.42,2.79,1.18.08.08.14.17.21.25ZM93.86,54.89c-.83-.65-1.84-1.01-2.92-1.01-.93,0-1.82.27-2.59.76.09-.88.47-1.75,1.16-2.42.73-.71,1.69-1.1,2.7-1.1.71,0,1.39.19,1.98.55-.22,1.15-.34,2.24-.34,3.21ZM95.34,52.71c.96,1.3,1,3.06.13,4.4-.35-1-.41-2.53-.13-4.4ZM9.13,94.75h0s0,0,0,0h0ZM7.86,98.39v-.44s0,0,0,0v.44ZM89.58,75.61c-29.05-.42-61.43,13.72-75.15,19.7-3.18,1.39-5.74,2.5-6.46,2.63C.88,87.11.16,60.22,1.35,54.37c-.53,9.88,1.04,31.28,7.27,40.59.08.11.22.24.51.24.67,0,2.49-.78,6.93-2.72,13.47-5.88,45.01-19.64,73.54-19.64.42,0,.83,0,1.25,0,1.58,0,10.75-9.41,14.69-14.42.32-.41.6-.78.86-1.13-1.62,3.7-15.23,18.01-16.82,18.3Z"/>
        <g>
          <g>
            <path class="cls-1" d="M16.39,52.6l.8-.27c.32-.11.74-.12,1.27-.04.52.08.91.23,1.17.45.36.3.63.61.8.94.2.37.48,1.35.84,2.94.11.5.24.93.37,1.32.27.8.55,1.33.86,1.57.35.28.57.56.65.81.04.12.05.22.03.29-.09.37-.31.62-.67.74-.09.03-.18.05-.28.07-.35.06-.74-.16-1.17-.64l-.04.28c-.15.48-.49.92-1.04,1.35-.48.37-.99.63-1.55.79-.5.14-.95.16-1.34.04-1.13-.33-1.88-1.04-2.25-2.13-.25-.73-.2-1.43.15-2.09.34-.67.88-1.15,1.6-1.46.11-.04.25-.1.42-.15.73-.25,1.39-.3,1.97-.18.17.06.31.1.41.14-.03-.16-.05-.25-.05-.27-.05-.3-.11-.55-.18-.76-.11-.34-.27-.6-.46-.78-.32-.3-.63-.43-.92-.4-.29.03-.63.17-1.04.41-.07.04-.15.08-.25.11-.32.11-.67.09-1.03-.06-.37-.15-.6-.38-.71-.71-.03-.09-.05-.21-.06-.36-.01-.5.1-.86.34-1.06.06-.05.11-.09.14-.13.16-.15.28-.25.35-.32.19-.18.48-.33.86-.45ZM18.59,60.85c.2-.24.25-.49.17-.74-.03-.09-.09-.2-.18-.32-.28-.35-.6-.47-.98-.34-.64.22-.91.58-.78,1.1.1.45.32.72.64.78.16.03.32.03.48-.03.27-.09.49-.25.66-.46Z"/>
            <path class="cls-1" d="M24.27,52.25c.21.66.36,1.15.46,1.49.43,1.23.77,2.39,1.04,3.47.17.67.34,1.3.51,1.9.06.13.09.32.09.57,0,.25-.03.44-.09.58-.21.21-.41.34-.6.39-.33.1-.64-.02-.93-.35-.26-.24-.52-.68-.79-1.34-.33-.83-.56-1.4-.69-1.7-.33-.8-.64-1.62-.94-2.46-.26-.72-.55-1.55-.87-2.5-.2-.62-.25-1.2-.13-1.76.09-.43.31-.7.67-.8.11-.03.25-.04.4-.04.71.02,1.32.87,1.85,2.56Z"/>
            <path class="cls-1" d="M28.13,50.78c.18.67.3,1.17.39,1.51.37,1.25.66,2.42.88,3.52.14.67.27,1.32.42,1.92.06.13.08.32.07.57-.01.25-.05.44-.11.58-.22.2-.42.32-.62.37-.33.08-.63-.05-.91-.4-.25-.25-.49-.7-.72-1.37-.3-.85-.5-1.43-.61-1.73-.29-.82-.57-1.65-.83-2.5-.23-.73-.48-1.58-.75-2.54-.17-.62-.19-1.21-.05-1.77.11-.43.35-.68.71-.77.11-.03.25-.03.4-.02.7.05,1.28.93,1.73,2.64Z"/>
          </g>
          <g>
            <path class="cls-1" d="M16.3,69.36c1.02,0,1.93.73,2.74,2.2.14.26.47.95.97,2.06.06.14.13.31.19.49.23.68.3,1.39.2,2.1-.09.72-.4,1.34-.92,1.87-.49.5-1.1.85-1.84,1.06-.8.22-1.46.27-1.99.15-.61-.14-1.1-.42-1.47-.84-.29-.31-.63-.87-1.04-1.66-.37-.73-.64-1.33-.8-1.81-.07-.22-.12-.41-.15-.56-.13-.73-.2-1.24-.2-1.52-.02-.54.08-1.04.28-1.48.36-.8,1.24-1.39,2.63-1.78.64-.18,1.1-.27,1.4-.27ZM17.38,73.38c-.25-.58-.49-1.01-.71-1.28-.38-.45-.8-.6-1.26-.45-.62.2-.98.5-1.09.89-.09.33-.03.82.19,1.46.29.82.55,1.51.77,2.06.32.79.75,1.19,1.29,1.22.19.01.38-.01.55-.07.31-.1.58-.31.82-.61.3-.38.35-.87.15-1.48-.03-.08-.08-.22-.16-.41l-.56-1.33Z"/>
            <path class="cls-1" d="M24.46,70.23c-.67.19-1.04.64-1.11,1.38-.05.55.07,1.26.36,2.14.18.54.32.94.42,1.2.41,1.24.25,1.98-.48,2.22-.83.26-1.38-.06-1.63-.99-.09-.33-.18-.7-.27-1.1l-.36-1.62c-.08-.33-.36-1.15-.86-2.46-.43-1.12-.64-1.84-.64-2.17-.01-.71.38-1.13,1.17-1.26.41-.07.71.06.89.39.1.2.17.4.23.59.04.14.07.29.08.44.23-.37.81-.79,1.75-1.25.3-.15.56-.25.77-.31.64-.18,1.24-.16,1.82.04.8.28,1.44,1.11,1.92,2.49.43,1.22.73,2.19.92,2.91.18.72.29,1.13.31,1.24.18,1.02-.09,1.59-.82,1.71-.58.1-1.03-.15-1.36-.74-.18-.34-.36-.88-.53-1.63-.21-.96-.39-1.67-.53-2.13-.17-.54-.37-.89-.61-1.05-.24-.15-.64-.18-1.19-.08-.08.02-.16.03-.24.05Z"/>
          </g>
          <g>
            <path class="cls-1" d="M40.82,43.61c-.2.12-.63.27-1.3.45-.61.17-1.17.31-1.69.43-.51.12-1,.34-1.47.66-.43.29-.67.65-.72,1.09-.03.17,0,.61.1,1.32.06.25.2.7.43,1.36.31.66.75.95,1.34.87.36-.05.86-.17,1.48-.36.64-.19,1.16-.32,1.56-.4l1.16-.23c.36-.07.7-.04,1.03.08.38.14.61.38.7.71.04.15.08.39.11.73,0,.14-.07.31-.19.51-.34.36-.89.6-1.65.71-.84.12-1.46.22-1.86.3-.59.12-.95.18-1.08.19-.17.02-.31.04-.44.08-.13.03-.24.07-.33.12-.31.08-.46.37-.44.88.01.49.15.8.41.92.34.17.64.24.91.21,1.01-.09,1.9-.26,2.64-.52,1.39-.48,2.27-.41,2.67.19.08.13.14.27.18.43.25.99-.24,1.64-1.49,1.95-.15.04-.57.11-1.25.21-1.88.32-3.02.5-3.43.53-1.78.13-2.91-.68-3.39-2.45-.48-1.76-.94-3.29-1.37-4.57-.18-.55-.33-1.03-.44-1.45-.29-1.13-.47-2.32-.54-3.54-.1-1.65.89-2.92,2.98-3.81.67-.28,1.18-.46,1.52-.54,1.11-.24,2.15-.33,3.1-.26.34.06.67.27.98.61.31.35.48.71.51,1.06.02.22.03.35.03.39-.11.51-.36.87-.75,1.1Z"/>
            <path class="cls-1" d="M50.4,39.03c.35-.26.7-.43,1.03-.49.16-.03.32-.04.49-.03.46.05.79.11.98.19.2.13.34.35.44.67.27.9.48,1.58.61,2.04.18.7.36,2.27.54,4.71.04.57.07,1.03.1,1.37.1,1.16.14,1.99.14,2.47-.02,1.04-.19,1.83-.52,2.37-.42.68-1.2,1.15-2.34,1.4-.52.11-1.09.18-1.7.2-1.55.03-2.59-.4-3.13-1.28-.2-.33-.31-.7-.34-1.11-.05-.71.26-1.14.95-1.27.2-.04.39-.03.55.03.34.12.57.21.68.27.64.2,1.02.28,1.15.24.25-.06.59-.13,1.02-.22.48-.17.82-.36,1-.56.18-.2.28-.53.3-.98.03-.65,0-1.21-.06-1.68,0-.17,0-.29-.02-.37-.02.05-.18.24-.46.58-.38.46-1.19.79-2.41.99-.26.04-.67.05-1.23.04s-.95-.06-1.18-.13c-.14-.04-.27-.09-.38-.14-.19-.06-.41-.24-.66-.53-.32-.35-.58-.84-.78-1.47-.07-.12-.19-.51-.35-1.16-.21-.81-.35-1.36-.44-1.67-.19-.73-.33-1.23-.4-1.51-.11-.45-.04-.92.22-1.42.16-.31.42-.5.76-.58.13-.03.31-.03.54,0,.63.07,1,.33,1.1.78.09.41.14.64.16.69.11.45.17.7.18.73.11.55.2,1.08.26,1.57.14,1.01.46,1.56.97,1.65.22.04.5.04.85.02.09,0,.33-.05.72-.13.32-.14.54-.33.67-.56.1-.18.18-.47.23-.89.02-.36-.07-.99-.25-1.86-.16-.78-.23-1.3-.21-1.57.03-.65.11-1.11.25-1.4Z"/>
            <path class="cls-1" d="M64.11,45.3c-.59.54-1.31.86-2.15.97-.88.11-1.88,0-3.02-.34-.01.18,0,.36.02.55.06.49.25,1.03.57,1.6.5.91,1.1,1.35,1.79,1.33.83-.01,1.63-.2,2.41-.55.14-.06.29-.11.45-.12.55-.07.9.28,1.05,1.06.2.96-.37,1.75-1.71,2.37-.51.24-1.04.4-1.56.46-.81.1-1.65-.02-2.5-.36-1.41-.56-2.52-2.53-3.33-5.92-.14-.57-.24-1.16-.32-1.76-.31-2.48.19-4.31,1.51-5.49.65-.7,1.55-1.13,2.7-1.27.6-.07,1.26-.08,1.97-.01,2.1.21,3.27,1.25,3.53,3.11.25,1.84-.21,3.3-1.39,4.38ZM59.43,42.49c.05.36.23.65.53.86.3.21.63.31,1,.29.55-.04.98-.22,1.27-.56.16-.18.22-.4.18-.68-.03-.26-.15-.57-.35-.93-.3-.54-.68-.78-1.12-.73-.17.02-.36.09-.58.22-.72.41-1.03.92-.93,1.52Z"/>
            <path class="cls-1" d="M71.31,36.31c1.43-.17,2.89,0,4.38.48.43.14.67.54.71,1.2.04.69-.06,1.23-.28,1.64-.11.2-.37.33-.78.37-.45.05-1.07.01-1.87-.12-.95-.16-1.7-.2-2.24-.14-.31.04-.54.1-.69.2-.44.28-.65.57-.63.89-.02.28-.02.55,0,.8-.03.26.14.47.51.64.48.23,1.15.31,2.01.22,1.16-.12,1.86-.18,2.08-.16.56.05,1.14.16,1.74.35.7.22,1.22.48,1.56.79.61.55.97,1.32,1.08,2.29.04.34.05.71.03,1.1-.03.52-.24,1.1-.63,1.74-.41.68-.84,1.12-1.3,1.3-.82.33-1.32.51-1.51.54l-1.29.25c-.53.11-.96.17-1.28.2-.36.03-.96,0-1.8-.09-1.67-.19-2.55-.69-2.65-1.53-.01-.12,0-.26.02-.42.07-.42.22-.72.45-.9.19-.16.5-.26.93-.31.67-.08,1.66-.06,2.96.06.25.03.52,0,.82-.1.43-.12.81-.33,1.14-.64.39-.36.55-.73.47-1.12-.11-.57-.68-.87-1.72-.9-.18,0-.91.05-2.19.15-1.52.13-2.59-.04-3.2-.51-.78-.6-1.24-1.51-1.38-2.73-.09-.76-.02-1.53.2-2.31.29-.99.72-1.71,1.3-2.15.76-.58,1.76-.94,3.01-1.09Z"/>
          </g>
          <g>
            <path class="cls-1" d="M43.38,70.81c-.45.86-1.21,1.41-2.29,1.63-.17.03-.35.06-.54.07.18.72.39,1.44.64,2.15.18.48.41,1.08.67,1.79.1.3.1.61,0,.92-.1.32-.28.54-.53.68-.26.14-.6.23-1.04.29-.79.09-1.32-.5-1.61-1.78-.16-.74-.51-1.87-1.02-3.39-.99.24-1.87.19-2.65-.17-.78-.35-1.38-.98-1.8-1.89-.22-.48-.73-1.9-1.53-4.28-.25-.74-.43-1.37-.54-1.89-.21-1.03-.17-1.71.13-2.03.43-.45.87-.72,1.34-.79,1.14-.17,1.88.36,2.23,1.59.16.62.47,1.74.93,3.37.09.3.21.76.38,1.38.29,1.06.76,1.65,1.41,1.75.22.04.54.02.96-.06,1.11-.19,1.64-.8,1.61-1.82-.02-.35-.11-.9-.27-1.66-.13-.55-.37-1.58-.71-3.08-.32-1.31-.2-2.17.37-2.57.46-.32.88-.52,1.28-.6.77-.16,1.4.1,1.89.79.37.51.62,1.2.77,2.07.22,1.3.36,2.57.41,3.82.06,1.73-.09,2.96-.47,3.69Z"/>
            <path class="cls-1" d="M49.68,57.84c.36-.08.75-.14,1.15-.19.76-.1,1.33-.14,1.72-.11.47.03.97.19,1.52.48.54.29.95.62,1.2,1.01.49.73.85,1.45,1.06,2.18.1.35.27.91.53,1.7.23.69.39,1.28.49,1.76.26,1.21.48,3.12.66,5.72.02.25-.04.72-.18,1.42-.16.83-.73,1.53-1.7,2.11-.68.4-1.4.68-2.17.84-.17.04-.34.07-.51.09-.83.11-1.36.17-1.6.17-.42,0-.97-.05-1.65-.15-.46-.07-.98-.3-1.54-.69-.62-.44-.98-.86-1.06-1.25l-.99-2.01c-.27-.54-.53-1.36-.78-2.48-.19-.86-.38-1.72-.56-2.58-.23-1.05-.29-2.38-.18-3.99.15-2.08,1.68-3.42,4.59-4.03ZM49.45,61.65c-.71.34-.99,1.37-.85,3.08.07.84.18,1.63.33,2.38.17.83.42,1.67.74,2.52.58,1.55,1.35,2.31,2.29,2.29.26,0,.51-.04.76-.09.57-.12,1.01-.35,1.33-.7.45-.5.57-1.76.35-3.8-.08-.72-.18-1.37-.3-1.96-.19-.93-.47-1.76-.84-2.49-.53-1.06-1.13-1.62-1.8-1.66-.67-.05-1.34.09-2.01.42Z"/>
            <path class="cls-1" d="M71.75,66.24c.27,2.39-.77,4.01-3.11,4.86-.84.31-1.61.51-2.29.63-1.4.24-2.78.05-4.13-.56-1.07-.48-1.81-1.27-2.23-2.38-.19-.5-.53-1.67-1.03-3.51l-1.21-4.48c-.16-.57-.28-1.12-.36-1.63-.15-.91-.16-1.6-.03-2.07.21-.71.69-1.12,1.45-1.23.85-.11,1.47.11,1.85.64.23.31.46.98.69,2,.16.69.34,1.77.54,3.25.2,1.43.4,2.52.58,3.25.3,1.22.58,2,.85,2.34.52.66,1.4.95,2.62.85.5-.04.95-.27,1.35-.71.4-.44.52-1.49.36-3.15-.09-.77-.23-1.92-.42-3.47-.12-.96-.34-2.21-.68-3.72-.33-1.49.03-2.4,1.08-2.72.17-.05.32-.09.46-.11.76-.13,1.39.08,1.88.62.42.46.69,1.09.83,1.89.05.32.08.63.08.92.01,1.18.12,2.6.33,4.26l.53,4.24Z"/>
          </g>
        </g>
      </g>
      <g>
        <path class="cls-1" d="M111.68,31.54c3.77,2.31,10.44,3.69,17.87,3.69,8.07,0,15.24-1.64,18.72-4.27.29-.22.34-.62.13-.91-.22-.29-.62-.34-.91-.12-3.22,2.44-10.26,4.01-17.94,4.01-7.09,0-13.67-1.34-17.19-3.51-.3-.19-.7-.09-.89.21-.19.31-.09.71.21.9Z"/>
        <path class="cls-1" d="M163.52,76.68c-.06-.04-5.91-3.42-12.96-6.58-5.32-2.39-9.88-4.03-13.64-4.92,1.32-.24,2.51-.53,3.59-.85,1.34.45,8.97,3.04,12.57,4.98.1.05.2.08.31.08.23,0,.45-.13.57-.34.17-.31.05-.71-.26-.88-2.96-1.58-8.35-3.54-11.17-4.51,1.82-.69,3.17-1.43,4.1-2.01.3-.19.39-.59.2-.89-.19-.3-.59-.39-.9-.2-1.72,1.08-6.32,3.47-13.94,3.9-.87-.04-1.68-.02-2.41.07-8.44,0-13.64-2.36-15.99-3.77-.3-.18-.7-.08-.89.22-.18.31-.09.7.22.89.76.46,1.81,1.01,3.15,1.56-14.57,7.98-30.8,20.97-30.97,21.11-.28.22-.33.63-.1.91.13.16.32.24.51.24.14,0,.28-.04.41-.14.17-.14,17.07-13.66,31.78-21.53,1.89.64,4.22,1.21,7.01,1.53-8.75,2.47-16.69,7.83-17.08,8.09-.3.2-.37.61-.17.9.2.3.61.37.9.17.11-.07,11.2-7.55,21.3-8.89.84,0,1.63-.03,2.41-.07,10.87.58,30.59,11.94,30.8,12.06.1.06.21.09.32.09.22,0,.44-.11.56-.32.18-.31.07-.71-.24-.89Z"/>
        <path class="cls-1" d="M139.85,60.99c.36,0,.65-.29.65-.65v-11.82c1.94-.44,3.69-1,5.17-1.66.33-.15.47-.53.33-.86-.15-.33-.53-.47-.86-.33-2.11.94-4.81,1.66-7.85,2.12-.01,0-.03,0-.04,0-2.4.35-5.01.55-7.71.55-6.3,0-12.28-1.07-16-2.86-.33-.16-.71-.02-.87.3-.16.33-.02.71.3.87,1.17.56,2.52,1.05,4.01,1.46v11.25c0,.36.29.65.65.65s.65-.29.65-.65v-10.92c3.3.77,7.17,1.19,11.25,1.19,1.52,0,3.01-.06,4.46-.17v13.28c0,.35.29.65.65.65s.65-.29.65-.65v-13.4c.49-.05.97-.11,1.44-.17v12.93c0,.36.29.65.65.65s.65-.29.65-.65v-13.12c.39-.06.78-.13,1.15-.2v11.56c0,.36.29.65.65.65Z"/>
        <path class="cls-1" d="M128.75,47.84c-.24,0-.43-.19-.43-.43s.19-.43.43-.43c7.39,0,13.57-1.5,16.13-3.92,1.35-1.27,1.09-6.52.88-8.43-.03-.24.14-.45.38-.48.24-.03.45.15.48.38.08.74.76,7.35-1.14,9.15-2.75,2.6-9.01,4.15-16.72,4.15Z"/>
      </g>
      <path class="cls-1" d="M129.61,214.46c-8.31,0-17.39-1.63-18.84-2.29-1.52-.69-6.2-5.63-10.69-11.89,6.86,5.91,15.98,8.3,29.53,8.3s22.74-2.42,29.61-8.38c-4.38,6.18-9.01,11.17-10.77,11.97-1.46.66-10.56,2.29-18.84,2.29Z"/>
      <path d="M129.61,213.69c-2.57,0-5.35-.15-8.28-.46-.3-.03-.51-.29-.48-.59.03-.29.3-.5.59-.48,2.89.3,5.65.45,8.18.45,8.4,0,17.05-1.68,18.1-2.13.69-.31,2.59-2.05,5.28-5.22.19-.22.53-.25.75-.06.23.19.26.53.07.76-2.54,2.99-4.65,5.05-5.67,5.5-1.1.48-9.99,2.22-18.53,2.22Z"/>
      <path class="cls-1" d="M129.55,29.98c-8.28,0-15.43-3.08-16.09-3.92-.66-1.31-4-17.74-3.37-19.51.67-1.44,7.66-5.25,19.46-5.25s18.79,3.81,19.46,5.26c.63,1.75-2.71,18.19-3.39,19.53-.64.81-7.79,3.89-16.06,3.89Z"/>
      <g>
        <path d="M129.55,12.25c-14.8,0-19.11-4.99-19.29-5.2-.15-.18-.12-.46.06-.6.18-.15.46-.13.61.06.04.05,4.3,4.89,18.62,4.89,7.49,0,12.16-1.33,14.76-2.45,2.8-1.2,3.85-2.42,3.86-2.43.16-.18.43-.21.61-.05.18.15.21.42.05.6-.18.21-4.49,5.2-19.29,5.2Z"/>
        <g>
          <path d="M115.2,13.88c-2.69,0-2.69,4.17,0,4.17s2.68-4.17,0-4.17Z"/>
          <path d="M121.15,19.15c-1.19,0-2.18.98-2.18,2.17s.99,2.17,2.18,2.17,2.17-.98,2.17-2.17-.99-2.17-2.17-2.17Z"/>
          <path d="M127.75,19.53c-.67,0-.67,1.04,0,1.04s.67-1.04,0-1.04Z"/>
          <path d="M126.59,22.71c-.68,0-1.25.56-1.25,1.25s.56,1.24,1.25,1.24,1.25-.56,1.25-1.24-.57-1.25-1.25-1.25Z"/>
          <path d="M139.16,21.4c-.97,0-1.78.81-1.78,1.78s.81,1.78,1.78,1.78,1.78-.81,1.78-1.78-.81-1.78-1.78-1.78Z"/>
          <path d="M133.13,27.61c-.6,0-1.1.5-1.1,1.09s.5,1.1,1.1,1.1,1.09-.5,1.09-1.1-.5-1.09-1.09-1.09Z"/>
          <path d="M144.11,15.93c-.69,0-.69,1.06,0,1.06s.68-1.06,0-1.06Z"/>
          <path d="M138.48,16.24c1.12,0,1.12-1.73,0-1.73s-1.12,1.73,0,1.73Z"/>
          <path d="M142.52,5.49c-.86,0-.86,1.34,0,1.34s.86-1.34,0-1.34Z"/>
          <path d="M138.83,4c0-.98-.81-1.79-1.79-1.79s-1.78.81-1.78,1.79.81,1.78,1.78,1.78,1.79-.81,1.79-1.78Z"/>
          <path d="M129.64,4.28c-.59,0-1.08.49-1.08,1.08s.49,1.08,1.08,1.08,1.08-.49,1.08-1.08-.49-1.08-1.08-1.08Z"/>
          <path d="M133.67,8.87c.57,0,.57-.88,0-.88s-.57.88,0,.88Z"/>
          <path d="M120.36,6.53c0-.49-.41-.9-.9-.9s-.9.41-.9.9.41.9.9.9.9-.41.9-.9Z"/>
        </g>
      </g>
      <g>
        <path d="M121.99,132.84c0,11.76-9.53,21.29-21.29,21.29s-21.29-9.53-21.29-21.29,9.53-21.29,21.29-21.29,21.29,9.53,21.29,21.29Z"/>
        <path class="cls-1" d="M105.4,143.65c-.01-.1.02-.2.08-.27.07-.08.17-.12.27-.12.15,0,.27.1.29.26.15,1.08.62,1.84,1.49,2.4.09-.39.11-.79.14-1.2.03-.54.06-1.1.26-1.63.05-.14.17-.22.32-.22.11,0,.22.05.28.14.06.08.07.18.03.28-.18.49-.21,1-.24,1.55-.03.47-.05.95-.19,1.41.61.28,1.29.47,2.01.67,1.2.34,2.44.69,3.37,1.49,0-.02.02-.05.02-.07-.21-1.18-.61-2.4-1.16-3.51-.7-1.43-1.65-2.56-2.64-3.75-.16-.19-.31-.38-.47-.57-.15-.19-.29-.37-.43-.58-.42-.06-.75-.25-1.02-.57-.05-.06-.1-.12-.14-.18-.21-.27-.41-.53-.73-.63-.16-.05-.25-.2-.23-.37.03-.2.22-.33.41-.27.36.11.65.33.94.69l.06.07s.07.1.11.14c-.21-.53-.31-1.08-.31-1.65,0-.19.14-.32.33-.32.09,0,.18.04.24.1.06.06.09.14.09.23,0,1.6.96,2.67,1.99,3.8.2.23.41.46.61.69,1.08,1.27,1.95,2.92,2.52,4.77.03.1.06.2.09.3,0-.3,0-.6,0-.9-.01-.42-.02-.85,0-1.27.07-1.14.19-2.63.5-4.1.26-1.22.52-2.54.66-3.88-.02-.02-.04-.04-.05-.07-.35-.59-.51-1.2-.69-1.93-.24-.98-.66-1.58-1.48-2.1-.13-.08-.18-.23-.14-.37.06-.21.3-.31.48-.19.83.53,1.33,1.1,1.57,1.8.1.3.18.6.26.9.05.19.09.37.15.55.06-2.96-.71-6.37-4.42-7.04-.16-.03-.27-.17-.25-.33.02-.17.16-.36.4-.32,1.2.22,2.21.72,2.99,1.5-.16-.9-.71-1.87-1.22-2.54-.07-.1-.09-.21-.04-.31.1-.2.44-.24.59-.05.71.93,1.49,2.46,1.36,3.74,1.13,1.68,1.31,3.82,1.26,5.33-.04,1.07-.16,2.21-.39,3.52.25-.37.52-.74.79-1.1.33-.46.68-.93.99-1.4-.44-1.22-.62-2.47-.78-3.86-.01-.09.01-.17.07-.24.15-.17.55-.12.59.2.13,1.08.27,2.13.58,3.16.88-1.51,1.48-3.31-.04-5.32-.07-.1-.09-.21-.04-.31.1-.2.44-.24.59-.05,1.6,2.13,1.12,4.02.25,5.63.16-.14.31-.29.45-.46.15-.18.44-.12.53.09.06.12.04.26-.05.36-.48.57-1.03.97-1.67,1.22-.29.43-.59.86-.89,1.28-.58.82-1.19,1.66-1.62,2.48-.02.04-.05.08-.09.1-.39,1.9-.57,3.55-.53,5.05v.17c.02.68.04,1.37-.07,2.05,4.01-3.69,6.52-8.98,6.52-14.86,0-4.56-1.51-8.77-4.07-12.15-.29.31-.47.71-.66,1.14-.14.31-.28.63-.47.92-.06.09-.16.15-.27.15-.13,0-.25-.07-.31-.18-.05-.1-.05-.22.02-.32.19-.29.33-.61.47-.92.17-.39.35-.78.62-1.11-.73.2-1.5.52-1.91,1.15-.06.1-.16.15-.27.15-.13,0-.25-.07-.31-.18-.05-.1-.05-.21.02-.32.51-.79,1.39-1.19,2.31-1.43-3.7-4.34-9.21-7.09-15.35-7.09-11.15,0-20.18,9.04-20.18,20.18,0,6.21,2.8,11.75,7.21,15.46.05-.61.04-1.25-.15-1.86-.2-.67-.61-1.17-1.04-1.71-.26-.32-.52-.64-.74-1.01-1.24-.26-2.1-1.34-2.05-2.59,0-.18.15-.32.34-.32.09,0,.18.04.24.1.06.06.09.14.08.23-.03.73.35,1.38.99,1.73-.48-1.34-.57-3.21.35-4.52.14-.2.48-.16.59.04.05.1.04.21-.03.31-.57.81-.74,2.04-.46,3.3.21.94.69,1.57,1.26,2.3.1.13.21.27.32.42.57.76.87,1.63.93,2.68.58-1.59,1.1-2.92,1.62-4.15.1-.23.42-.23.56-.02.06.1.08.22.03.33-.44,1.02-.87,2.14-1.36,3.45.04-.05.09-.1.13-.15l.34-.38c1.19-1.33,2.32-2.59,2.54-4.39.04-.32.44-.37.59-.2.06.06.08.15.07.24-.1.78-.36,1.52-.81,2.29.75-.3,1.34-1.06,1.66-1.73.1-.22.44-.21.56-.01.06.1.07.22.02.32-.47.97-1.46,2.12-2.76,2.21-.37.51-.78.99-1.18,1.47-.63.74-1.27,1.49-1.74,2.33,3.37,2.52,7.55,4.02,12.09,4.02s8.9-1.56,12.3-4.19c-.89-.75-2.08-1.09-3.24-1.42-1.96-.55-4-1.12-4.36-3.77Z"/>
        <path d="M108.79,127.02c0,6.64-5.38,12.02-12.02,12.02s-12.02-5.38-12.02-12.02,5.38-12.02,12.02-12.02,12.02,5.38,12.02,12.02Z"/>
        <path class="cls-1" d="M108.05,126.62c-2.96-.32-6.04-.37-9-.21,2.8-1,5.51-2.29,8.31-3.3-.07-.2-.15-.39-.24-.59-3.46.85-6.93,2.32-10.01,4.01-.12,0-.24.02-.36.03.07-.07.13-.15.2-.22,1.25-.81,2.5-1.62,3.68-2.53,1.68-1.3,3.61-2.15,5.38-3.29-.06-.08-.11-.16-.17-.24-2.98,1.61-5.68,3.44-8.34,5.48,2.27-2.36,4.84-4.59,6.79-7.18-.19-.17-.38-.33-.58-.48-2.31,2.37-4.59,4.91-6.57,7.56,1.93-2.65,3.37-6,3.84-9.13-.17-.07-.34-.13-.52-.19-.79,1.75-1.6,3.48-2.39,5.24-.34.76-.72,1.5-1.09,2.25.32-1.02.59-2.05.82-3.06.36-1.59.9-3.19,1.33-4.8-.51-.11-1.04-.18-1.58-.22-.46,1.31-.76,2.68-1.05,3.97-.44,1.97-.96,4.23-1.09,6.35-.56-2.23-1.37-4.36-2.1-6.55-.32-.95-.5-1.99-.8-2.97-.29.12-.57.24-.84.38.98,3.18,2.33,6.23,3.43,9.37-.84-1.86-1.93-3.62-2.59-5.57-.4-1.16-.71-2.43-1.13-3.65-.36.2-.7.41-1.04.64.46,1.32.97,2.64,1.44,3.89.72,1.94,1.83,3.88,3.08,5.57-1.72-.96-3.44-1.91-5.21-2.79-1.09-.54-2.19-1.16-3.33-1.69-.13.33-.25.66-.36,1,1.09.49,2.22.92,3.27,1.41,1.53.7,3.08,1.37,4.62,2.04-2.73-.57-5.54-.94-8.34-1.1-.03.32-.04.64-.04.96,0,.24.01.49.03.72,2.6.31,5.28.29,7.89.33-1.86.72-3.7,1.52-5.58,2.19-.56.2-1.12.37-1.69.54.09.25.19.5.3.75.74-.25,1.48-.5,2.21-.77,2-.75,3.88-1.78,5.81-2.69.06,0,.12,0,.18,0-1.22,1.09-2.27,2.59-3.19,3.64-.86.98-1.81,2.06-2.7,3.2.41.42.85.8,1.33,1.15.54-.82,1.07-1.63,1.62-2.37,1.24-1.66,2.58-3.24,3.88-4.85-1.05,2.86-2.31,5.61-3.53,8.39.27.13.55.25.83.35,1.36-2.91,2.27-6.12,3.04-9.18.07-.09.14-.19.21-.28.03,0,.05,0,.08,0,.02,0,.04,0,.06,0-.48,2.26-.74,4.63-.82,6.91-.04,1.03-.02,2.1-.07,3.16.46.06.94.09,1.42.09.03,0,.06,0,.09,0,.02-.82-.01-1.64,0-2.39,0-1.33.17-2.72.28-4.11.23.75.48,1.49.72,2.23.43,1.29.86,2.67,1.37,4.01.5-.11.99-.25,1.47-.43-.39-1.13-.85-2.24-1.27-3.29-.68-1.72-1.29-3.5-1.99-5.22,1.96,2.46,4.53,4.25,6.95,6.26.09-.08.18-.17.27-.26-2.42-2.38-5.33-4.27-7.54-6.83,0-.07-.02-.14-.03-.21,1.61.91,3.2,1.76,4.93,2.44,1.58.62,3.21,1.1,4.82,1.64.23-.44.42-.9.59-1.38-1.34-.8-2.82-1.38-4.32-1.89-.94-.32-1.99-.88-3.05-1.34,1.03-.04,2.05-.11,2.98-.09,1.67.03,3.35.1,5.02.16,0-.19.01-.39.01-.58,0-.13,0-.26-.01-.4ZM96.44,126.59s-.02,0-.03,0c.14-.17.29-.35.43-.54-.12.16-.23.33-.35.49-.02.01-.03.03-.05.04Z"/>
        <path d="M99.88,126.36c0,2.41-1.95,4.36-4.36,4.36s-4.36-1.95-4.36-4.36,1.95-4.36,4.36-4.36,4.36,1.95,4.36,4.36Z"/>
      </g>
      <g>
        <path d="M123.06,142.95c.65,11.74,10.69,20.73,22.43,20.09,11.74-.65,20.74-10.69,20.09-22.43-.65-11.74-10.69-20.74-22.43-20.09-11.74.65-20.74,10.69-20.09,22.43Z"/>
        <path class="cls-1" d="M140.22,152.83c0-.1-.03-.2-.09-.27-.07-.08-.18-.12-.28-.11-.15,0-.26.12-.28.27-.09,1.09-.52,1.88-1.36,2.47-.11-.38-.16-.78-.2-1.19-.06-.54-.12-1.09-.35-1.61-.06-.13-.18-.21-.33-.21-.11,0-.22.07-.27.15-.05.08-.06.18-.02.28.21.48.26.99.32,1.53.05.46.1.94.26,1.4-.59.31-1.26.54-1.97.78-1.18.4-2.4.82-3.28,1.67,0-.02-.02-.04-.03-.07.14-1.19.47-2.43.96-3.57.62-1.46,1.5-2.64,2.43-3.89.15-.2.29-.39.44-.6.14-.19.27-.39.4-.6.42-.09.74-.29.98-.63.05-.06.09-.13.13-.19.2-.28.38-.55.7-.67.16-.06.24-.21.21-.38-.04-.2-.24-.31-.43-.24-.35.13-.63.36-.9.74l-.05.08s-.07.1-.1.15c.18-.54.25-1.09.22-1.66,0-.18-.16-.32-.35-.31-.09,0-.18.04-.23.11-.06.06-.08.14-.08.23.09,1.6-.81,2.72-1.77,3.91-.19.24-.39.48-.57.72-1.01,1.33-1.79,3.02-2.25,4.91-.02.1-.05.2-.07.31-.02-.3-.03-.6-.04-.9-.01-.42-.02-.85-.07-1.27-.13-1.13-.33-2.62-.73-4.07-.33-1.21-.66-2.5-.87-3.83.02-.02.04-.05.05-.07.32-.61.45-1.23.58-1.97.18-.99.57-1.62,1.36-2.18.12-.09.17-.24.12-.38-.07-.2-.32-.29-.49-.17-.8.57-1.27,1.17-1.47,1.88-.09.3-.15.61-.21.91-.04.19-.07.38-.12.56-.22-2.95.36-6.39,4.03-7.27.16-.04.26-.18.23-.34-.02-.17-.18-.35-.42-.29-1.19.28-2.16.84-2.9,1.66.11-.91.61-1.91,1.08-2.61.07-.1.08-.21.02-.31-.11-.2-.45-.22-.59-.02-.66.97-1.35,2.54-1.15,3.81-1.04,1.74-1.1,3.89-.96,5.39.1,1.07.28,2.19.58,3.49-.27-.36-.56-.71-.85-1.06-.36-.44-.73-.89-1.06-1.34.38-1.24.48-2.5.57-3.9,0-.09-.02-.17-.08-.23-.16-.16-.56-.09-.58.24-.07,1.08-.15,2.14-.4,3.19-.96-1.46-1.66-3.22-.25-5.32.07-.1.07-.21.02-.31-.11-.2-.45-.22-.59-.02-1.48,2.21-.89,4.07.06,5.63-.16-.13-.32-.27-.48-.44-.16-.17-.44-.09-.53.12-.05.12-.02.26.07.36.51.54,1.08.91,1.74,1.13.31.41.64.82.96,1.22.63.78,1.28,1.59,1.75,2.39.02.04.06.07.09.1.5,1.87.76,3.51.81,5.01v.17c.03.68.05,1.37.19,2.05-4.21-3.46-7.01-8.61-7.33-14.47-.25-4.56,1.03-8.84,3.39-12.35.31.29.51.69.72,1.1.15.3.31.61.52.89.07.09.17.14.28.13.13,0,.24-.08.3-.2.05-.1.03-.22-.04-.32-.2-.27-.37-.59-.52-.89-.19-.38-.39-.76-.68-1.08.74.16,1.53.44,1.97,1.05.07.09.17.14.28.14.13,0,.24-.08.3-.2.05-.1.04-.22-.04-.32-.55-.76-1.46-1.11-2.39-1.3,3.46-4.53,8.8-7.59,14.94-7.92,11.13-.61,20.65,7.91,21.26,19.04.34,6.2-2.15,11.89-6.35,15.83-.08-.6-.1-1.24.05-1.86.16-.68.54-1.21.95-1.76.24-.33.49-.67.69-1.05,1.23-.33,2.03-1.46,1.91-2.7-.02-.18-.17-.31-.35-.3-.09,0-.18.05-.23.11-.05.06-.08.15-.07.24.07.73-.27,1.4-.89,1.78.41-1.36.39-3.24-.6-4.49-.15-.19-.49-.14-.58.07-.05.1-.03.22.05.31.61.78.85,2,.64,3.27-.16.95-.61,1.61-1.13,2.37-.1.14-.19.28-.29.43-.53.79-.78,1.67-.78,2.73-.67-1.56-1.26-2.86-1.85-4.05-.11-.22-.43-.2-.56,0-.06.1-.06.22-.01.33.49,1,.99,2.09,1.55,3.37-.05-.05-.09-.09-.14-.14l-.36-.36c-1.26-1.26-2.46-2.46-2.78-4.24-.06-.32-.46-.35-.6-.17-.05.06-.07.15-.05.24.14.78.44,1.5.94,2.24-.76-.26-1.39-.98-1.75-1.64-.12-.21-.45-.19-.56.02-.06.1-.06.22,0,.32.52.94,1.58,2.04,2.87,2.05.4.49.84.95,1.26,1.4.67.7,1.35,1.42,1.86,2.23-3.23,2.7-7.32,4.42-11.85,4.67-4.63.25-8.97-1.07-12.52-3.51.85-.8,2.02-1.21,3.16-1.59,1.93-.66,3.93-1.34,4.15-4Z"/>
        <path d="M135.92,136.41c.36,6.63,6.04,11.71,12.67,11.35,6.63-.36,11.71-6.04,11.34-12.67-.36-6.63-6.03-11.71-12.67-11.34-6.63.37-11.71,6.04-11.34,12.66Z"/>
        <path class="cls-1" d="M136.64,136.38c.01.2.03.39.05.58,1.67-.15,3.34-.31,5.01-.43.93-.07,1.95-.05,2.98-.07-1.04.52-2.06,1.14-2.98,1.51-1.47.59-2.92,1.25-4.21,2.12.19.46.41.91.67,1.34,1.57-.63,3.18-1.2,4.72-1.9,1.69-.77,3.23-1.71,4.79-2.71,0,.07,0,.14-.01.21-2.07,2.69-4.87,4.73-7.15,7.24.09.08.19.16.28.24,2.3-2.14,4.78-4.07,6.59-6.63-.6,1.76-1.11,3.56-1.7,5.32-.36,1.08-.76,2.21-1.08,3.36.48.15.98.26,1.49.35.44-1.37.79-2.77,1.14-4.08.2-.75.41-1.5.6-2.26.18,1.38.42,2.77.5,4.09.05.75.06,1.57.13,2.39.03,0,.06,0,.09,0,.48-.03.95-.09,1.41-.17-.11-1.06-.15-2.13-.24-3.15-.21-2.27-.6-4.63-1.2-6.85.02,0,.04,0,.06,0,.03,0,.05,0,.08,0,.08.09.15.18.23.26.94,3.01,2.03,6.17,3.54,9,.28-.12.55-.25.81-.39-1.37-2.71-2.78-5.39-3.99-8.19,1.38,1.54,2.81,3.05,4.14,4.63.59.71,1.16,1.5,1.75,2.28.45-.38.87-.79,1.26-1.22-.95-1.08-1.96-2.11-2.88-3.04-.98-1-2.11-2.45-3.39-3.47.06,0,.12,0,.18-.02,1.98.8,3.91,1.73,5.95,2.36.74.23,1.49.44,2.24.65.09-.25.18-.5.26-.76-.57-.14-1.15-.28-1.72-.45-1.91-.57-3.79-1.26-5.69-1.88,2.61-.19,5.28-.32,7.86-.77,0-.24,0-.48-.01-.72-.02-.32-.05-.64-.1-.96-2.79.31-5.58.83-8.27,1.55,1.5-.76,3.01-1.51,4.5-2.3,1.03-.54,2.13-1.03,3.19-1.58-.12-.33-.26-.66-.41-.98-1.1.6-2.18,1.28-3.23,1.88-1.71.97-3.38,2.02-5.05,3.07,1.16-1.76,2.16-3.76,2.77-5.73.4-1.28.84-2.62,1.23-3.96-.35-.21-.7-.41-1.07-.58-.35,1.24-.6,2.53-.93,3.71-.56,1.98-1.55,3.79-2.28,5.7.93-3.19,2.11-6.31,2.91-9.54-.28-.12-.57-.24-.86-.34-.24,1-.38,2.04-.64,3.01-.61,2.23-1.29,4.4-1.74,6.65-.24-2.11-.89-4.34-1.43-6.28-.36-1.27-.74-2.62-1.26-3.9-.53.07-1.06.17-1.56.31.52,1.58,1.14,3.15,1.59,4.72.29,1,.61,2.01.99,3.01-.41-.73-.83-1.45-1.21-2.19-.88-1.71-1.78-3.4-2.67-5.1-.17.07-.34.14-.51.22.65,3.1,2.26,6.36,4.34,8.91-2.13-2.53-4.54-4.95-6.98-7.18-.19.17-.37.34-.55.51,2.09,2.48,4.78,4.57,7.18,6.79-2.77-1.88-5.57-3.57-8.63-5.01-.05.08-.1.16-.15.24,1.83,1.04,3.8,1.78,5.55,2.99,1.22.85,2.52,1.59,3.81,2.32.07.07.14.14.21.21-.12,0-.24,0-.37,0-3.17-1.53-6.71-2.8-10.22-3.46-.07.2-.14.4-.2.6,2.86.86,5.64,2,8.48,2.84-2.97.01-6.03.22-8.98.71,0,.13,0,.26.01.39ZM148.17,135.27c-.13-.16-.25-.32-.38-.47.15.17.3.34.45.51,0,0-.02,0-.03,0-.02-.01-.03-.02-.05-.04Z"/>
        <path d="M144.77,135.26c.13,2.4,2.19,4.25,4.59,4.11,2.41-.13,4.25-2.19,4.11-4.59-.13-2.41-2.19-4.25-4.59-4.12-2.4.13-4.25,2.19-4.11,4.59Z"/>
      </g>
      <g>
        <path d="M116.42,154.06c11.18-3.65,23.2,2.46,26.84,13.64,3.65,11.18-2.46,23.2-13.64,26.84-11.18,3.64-23.2-2.46-26.84-13.64-3.65-11.18,2.46-23.2,13.64-26.84Z"/>
        <path class="cls-1" d="M131.84,166.49c-.09.05-.19.05-.28,0-.1-.04-.17-.12-.2-.22-.05-.15.02-.29.16-.36.98-.48,1.56-1.17,1.82-2.16-.4.03-.78.14-1.19.24-.52.14-1.06.28-1.63.26-.15,0-.26-.09-.31-.23-.04-.11-.02-.23.05-.31.06-.08.15-.12.26-.12.52.02,1.02-.11,1.54-.25.45-.12.92-.25,1.4-.26.08-.67.05-1.37.02-2.11-.05-1.25-.1-2.54.37-3.66-.02,0-.05,0-.07,0-1.06.56-2.09,1.32-2.98,2.19-1.14,1.11-1.92,2.35-2.75,3.67-.13.21-.26.42-.4.63-.13.2-.27.4-.41.59.07.42,0,.8-.23,1.14-.04.07-.08.13-.13.19-.19.29-.38.55-.37.89,0,.17-.11.3-.28.33-.2.03-.38-.11-.38-.31,0-.38.11-.72.37-1.1l.05-.08s.07-.1.1-.15c-.44.36-.93.63-1.47.8-.18.05-.35-.04-.41-.21-.03-.09-.02-.18.02-.26.04-.08.1-.13.19-.16,1.52-.49,2.24-1.74,3-3.07.15-.27.31-.54.47-.8.87-1.42,2.17-2.76,3.76-3.88.09-.06.17-.12.26-.18-.29.09-.57.19-.85.29-.4.14-.8.28-1.21.39-1.1.29-2.56.64-4.05.79-1.24.13-2.57.29-3.89.58-.01.03-.03.05-.05.07-.46.52-.98.86-1.62,1.25-.85.53-1.3,1.12-1.54,2.06-.04.15-.16.24-.31.25-.22,0-.39-.19-.33-.4.25-.96.63-1.61,1.22-2.05.25-.19.52-.36.77-.52.16-.1.32-.21.48-.31-2.84.86-5.83,2.65-5.32,6.38.02.17-.07.31-.23.34-.17.04-.39-.04-.42-.29-.17-1.21,0-2.32.5-3.31-.8.43-1.56,1.26-2.04,1.95-.07.1-.17.15-.28.13-.22-.03-.37-.34-.23-.54.67-.97,1.88-2.18,3.13-2.45,1.25-1.6,3.23-2.43,4.67-2.85,1.03-.3,2.15-.53,3.47-.72-.43-.13-.87-.27-1.29-.41-.54-.17-1.09-.35-1.64-.51-1.02.8-2.16,1.35-3.43,1.94-.08.04-.17.04-.25,0-.21-.09-.28-.49.01-.62.98-.46,1.94-.92,2.83-1.53-1.71-.37-3.6-.38-5.05,1.69-.07.1-.17.15-.28.13-.22-.03-.37-.34-.23-.54,1.53-2.18,3.47-2.31,5.27-1.98-.18-.11-.37-.2-.58-.29-.21-.09-.25-.38-.08-.54.1-.09.23-.12.36-.06.69.28,1.24.68,1.68,1.21.5.14,1,.3,1.49.45.96.3,1.95.62,2.86.77.05,0,.09.02.13.05,1.92-.21,3.55-.56,4.96-1.06l.16-.06c.64-.23,1.3-.46,1.98-.57-4.75-2.67-10.56-3.42-16.15-1.6-4.34,1.41-7.87,4.16-10.29,7.63.39.18.83.23,1.29.27.34.03.68.07,1.02.16.11.03.19.11.23.22.04.12,0,.26-.08.35-.08.08-.19.11-.31.08-.33-.09-.68-.13-1.02-.17-.42-.05-.85-.09-1.25-.24.41.63.96,1.26,1.69,1.46.11.03.19.11.23.21.04.12.01.26-.08.35-.08.08-.19.11-.31.08-.9-.24-1.56-.96-2.08-1.75-2.98,4.87-3.89,10.95-1.98,16.8,3.46,10.6,14.85,16.39,25.45,12.93,5.9-1.92,10.31-6.31,12.46-11.65-.59.14-1.2.35-1.72.72-.57.4-.93.94-1.3,1.52-.22.34-.45.7-.73,1.02.13,1.26-.62,2.41-1.83,2.76-.17.05-.35-.05-.41-.22-.03-.09-.02-.18.02-.26.04-.07.11-.13.2-.15.71-.2,1.2-.76,1.34-1.48-1.12.87-2.88,1.53-4.4,1.06-.23-.07-.3-.41-.14-.57.08-.08.19-.11.31-.07.94.29,2.17.07,3.28-.59.83-.49,1.28-1.15,1.8-1.91.1-.14.19-.28.3-.43.55-.78,1.28-1.33,2.26-1.71-1.69-.06-3.12-.14-4.45-.26-.25-.02-.35-.33-.2-.52.07-.09.18-.14.3-.13,1.11.1,2.3.17,3.7.22-.06-.03-.12-.05-.18-.08l-.47-.21c-1.64-.72-3.18-1.4-4.96-1.06-.32.06-.49-.3-.38-.5.04-.07.11-.12.21-.14.77-.15,1.55-.13,2.43.06-.52-.62-1.42-.94-2.16-1.04-.24-.03-.34-.35-.19-.54.07-.09.18-.13.3-.12,1.07.14,2.47.73,2.95,1.94.6.19,1.19.44,1.76.67.89.37,1.81.74,2.75.93,1.35-3.99,1.48-8.42.07-12.74-1.44-4.41-4.25-7.97-7.8-10.4-.44,1.08-.39,2.32-.34,3.52.09,2.04.17,4.15-2.23,5.31Z"/>
        <path d="M114.98,168.42c6.31-2.06,13.1,1.39,15.16,7.7,2.06,6.31-1.39,13.1-7.7,15.16-6.31,2.06-13.1-1.39-15.16-7.7-2.06-6.31,1.39-13.1,7.7-15.16Z"/>
        <path class="cls-1" d="M114.83,169.24c.61,2.92,1.52,5.85,2.59,8.62-1.81-2.35-3.88-4.53-5.72-6.88-.17.13-.33.27-.48.41,1.88,3.03,4.35,5.87,6.92,8.27.05.11.09.23.14.34-.09-.04-.18-.08-.27-.12-1.15-.94-2.31-1.88-3.54-2.71-1.76-1.19-3.16-2.76-4.8-4.1-.06.08-.12.16-.17.23,2.45,2.33,5.04,4.33,7.8,6.23-2.94-1.43-5.87-3.17-8.93-4.23-.1.23-.19.46-.28.7,2.97,1.46,6.09,2.84,9.22,3.91-3.12-1.02-6.75-1.34-9.87-.82-.01.18-.02.37-.02.55,1.91.21,3.81.45,5.72.65.82.09,1.65.21,2.48.33-1.07.01-2.13.07-3.17.17-1.62.15-3.31.14-4.97.23.05.52.15,1.05.28,1.57,1.38.03,2.78-.11,4.1-.23,2.01-.19,4.32-.4,6.37-.94-1.94,1.23-3.72,2.65-5.57,4.03-.8.59-1.73,1.1-2.57,1.68.2.24.41.46.63.68,2.72-1.92,5.2-4.15,7.84-6.17-1.51,1.37-2.85,2.96-4.49,4.19-.98.74-2.09,1.43-3.12,2.21.3.28.61.54.93.79,1.12-.85,2.2-1.74,3.25-2.58,1.62-1.29,3.12-2.94,4.34-4.66-.38,1.93-.75,3.87-1.04,5.82-.18,1.2-.42,2.44-.58,3.69.35.03.71.04,1.06.03.13-1.19.19-2.39.32-3.55.19-1.67.35-3.35.51-5.03.3,2.77.82,5.56,1.54,8.27.31-.07.62-.16.93-.26.23-.08.46-.16.68-.25-.51-2.57-1.36-5.11-2.13-7.61,1.26,1.55,2.59,3.04,3.81,4.62.36.47.7.95,1.04,1.44.21-.17.42-.34.62-.51-.46-.63-.93-1.25-1.42-1.86-1.33-1.67-2.89-3.14-4.36-4.69-.02-.06-.03-.11-.05-.17,1.41.82,3.17,1.35,4.46,1.9,1.2.51,2.52,1.08,3.88,1.58.27-.52.5-1.06.68-1.62-.94-.26-1.88-.51-2.76-.81-1.96-.66-3.88-1.45-5.82-2.18,3.05.12,6.05.46,9.07.76.03-.3.06-.6.07-.9-3.19-.39-6.52-.25-9.67-.04-.11-.04-.22-.08-.33-.12,0-.03-.01-.05-.02-.08,0-.02-.02-.04-.02-.05,2.29-.24,4.63-.73,6.82-1.36.99-.28,2-.64,3.03-.92-.09-.46-.2-.92-.35-1.38,0-.03-.02-.06-.03-.08-.79.24-1.56.52-2.27.75-1.26.41-2.64.68-4,1.01.64-.45,1.27-.92,1.89-1.38,1.09-.81,2.28-1.64,3.39-2.54-.26-.44-.55-.87-.86-1.26-.95.72-1.86,1.5-2.73,2.23-1.43,1.18-2.92,2.31-4.35,3.51,1.73-2.62,2.64-5.62,3.8-8.54-.11-.06-.22-.12-.33-.18-1.51,3.04-2.41,6.39-4.16,9.29-.06.03-.13.06-.19.09.36-1.81.68-3.59.79-5.44.1-1.7.05-3.4.06-5.09-.49-.08-.99-.12-1.49-.13-.35,1.52-.44,3.11-.46,4.69-.01.99-.23,2.16-.33,3.32-.35-.97-.74-1.91-1.01-2.8-.49-1.6-.94-3.21-1.41-4.82-.19.05-.37.11-.56.17-.13.04-.25.09-.37.13ZM118.4,180.29s0,.02,0,.02c-.21-.08-.42-.16-.64-.24.19.06.39.12.58.18.02.01.03.02.05.03Z"/>
        <path d="M117.11,177.09c2.29-.75,4.75.5,5.5,2.79.75,2.29-.5,4.75-2.79,5.5-2.29.75-4.75-.5-5.5-2.79-.75-2.29.5-4.75,2.79-5.5Z"/>
      </g>
      <g>
        <path d="M97.59,167.06c0,2.43-1.97,4.4-4.39,4.4s-4.4-1.97-4.4-4.4,1.97-4.4,4.4-4.4,4.39,1.97,4.39,4.4Z"/>
        <path d="M162.92,119.48c0,1.65-1.34,2.98-2.98,2.98s-2.98-1.33-2.98-2.98,1.33-2.98,2.98-2.98,2.98,1.34,2.98,2.98Z"/>
        <path d="M111.77,106.11c0,1.65-1.34,2.98-2.98,2.98s-2.98-1.33-2.98-2.98,1.33-2.98,2.98-2.98,2.98,1.34,2.98,2.98Z"/>
        <path d="M175.05,127.95c0,2.41-1.96,4.37-4.37,4.37s-4.37-1.95-4.37-4.37,1.95-4.37,4.37-4.37,4.37,1.96,4.37,4.37Z"/>
        <path d="M178.19,113.33c0,.91-.74,1.66-1.66,1.66s-1.66-.74-1.66-1.66.74-1.66,1.66-1.66,1.66.74,1.66,1.66Z"/>
        <path d="M168.41,102.25c0,1.19-.97,2.16-2.16,2.16s-2.16-.97-2.16-2.16.97-2.16,2.16-2.16,2.16.97,2.16,2.16Z"/>
        <path d="M163.75,125.39c0,.91-.74,1.66-1.65,1.66s-1.66-.74-1.66-1.66.74-1.66,1.66-1.66,1.65.74,1.65,1.66Z"/>
        <path d="M159.22,104.01c0,.91-.74,1.65-1.66,1.65s-1.66-.74-1.66-1.65.74-1.66,1.66-1.66,1.66.74,1.66,1.66Z"/>
        <path d="M119.14,100.84c0,.91-.74,1.66-1.66,1.66s-1.66-.74-1.66-1.66.74-1.66,1.66-1.66,1.66.74,1.66,1.66Z"/>
        <path d="M104.33,160.93c0,1.48-1.2,2.69-2.69,2.69s-2.69-1.2-2.69-2.69,1.2-2.69,2.69-2.69,2.69,1.2,2.69,2.69Z"/>
        <path d="M147.19,187.46c1.03,1.07,2.73,1.11,3.8.08,1.07-1.03,1.1-2.73.08-3.8-1.03-1.07-2.72-1.11-3.79-.08-1.07,1.03-1.11,2.73-.08,3.8Z"/>
        <path d="M164.28,181.24c0,1.48-1.2,2.69-2.69,2.69s-2.69-1.2-2.69-2.69,1.2-2.68,2.69-2.68,2.69,1.2,2.69,2.68Z"/>
        <path d="M96.62,156.39c0,.94-.77,1.71-1.71,1.71s-1.71-.76-1.71-1.71.77-1.71,1.71-1.71,1.71.77,1.71,1.71Z"/>
        <path d="M168.63,117.38c0,.64-.52,1.16-1.16,1.16s-1.16-.52-1.16-1.16.52-1.16,1.16-1.16,1.16.52,1.16,1.16Z"/>
        <path d="M104.81,101.75c0,.64-.52,1.16-1.16,1.16s-1.16-.52-1.16-1.16.52-1.16,1.16-1.16,1.16.52,1.16,1.16Z"/>
        <path d="M164.4,167.82c0,.64-.52,1.16-1.16,1.16s-1.16-.52-1.16-1.16.52-1.16,1.16-1.16,1.16.52,1.16,1.16Z"/>
        <path d="M146.69,170.71c.65.68,1.74.71,2.42.05.68-.65.7-1.74.05-2.42-.65-.68-1.73-.7-2.42-.05-.68.65-.7,1.73-.05,2.41Z"/>
        <path d="M152.71,176.81c.65.68,1.73.7,2.41.05.68-.65.7-1.73.05-2.41-.65-.68-1.73-.71-2.42-.05-.68.65-.7,1.73-.05,2.42Z"/>
      </g>
    </g>
  </g>
</svg>