<?xml version="1.0" encoding="UTF-8"?>
<svg id="Layer_2" data-name="Layer 2" xmlns="http://www.w3.org/2000/svg" viewBox="0 0 249.26 283.02">
  <defs>
    <style>
      .cls-1 {
        fill: #fff;
      }
    </style>
  </defs>
  <g id="PREVIEW">
    <g>
      <path class="cls-1" d="M236.36,151.96c-.53-1.85-71.33-118.85-72.92-120.97-1.59-2.12-116.48,28.59-116.48,28.59,0,0-3.84-.62-5.47,2.24-1.63,2.86-5.31,26.95-4.49,29.4.82,2.45,15.72,28.99,28.79,54.51,13.07,25.52,36.55,74.11,38.59,77.58,2.04,3.47,4.9,5.72,12.45,3.47,7.55-2.25,118.66-36.07,119.28-36.26,1.11-.34,1.37-7.01,1.28-7.53-.09-.51-9.49-8.64-9.49-8.64l.26-13.43s5.82-1.88,6.67-2.23c.86-.34,1.71-6.24,1.54-6.76Z"/>
      <path d="M115.84,222.04c-.86,0-1.65-.27-2.38-.82-2.05-1.54-3.42-5.25-3.97-10.73-.83-8.31,2.65-14.95,4.26-15.82,1.34-.73,109.68-32.71,114.29-34.07.18-.05.38.05.44.24.06.18-.05.38-.24.44-38.85,11.47-112.71,33.33-114.16,34.01-1.05.57-4.74,6.62-3.89,15.13.53,5.28,1.8,8.82,3.69,10.23.78.59,1.66.79,2.62.62,3.18-.59,119.6-38.22,120.78-38.6.18-.06.38.04.44.23.06.18-.04.38-.23.44-4.8,1.55-117.64,38.02-120.86,38.62-.27.05-.53.08-.79.08Z"/>
      <path d="M238.24,176.13l-7.41-11.1c.65-2.76,1.37-4.92,1.39-4.96.09-.25.02-.54-.16-.73-.19-.19-.47-.27-.73-.19l-116.6,34.79c-.32.1-.54.41-.52.74,0,.06,0,.12.01.18-.16.06-.27.09-.3.11-.24.13-.56.46-.91.94.43-.13.84-.31,1.25-.51.01.21.03.42.04.64-.59.33-1.21.58-1.85.74-.14.25-.29.52-.43.81.81-.12,1.59-.4,2.34-.77.01.2.03.42.04.63-.86.49-1.79.82-2.74.92-.1.24-.21.48-.31.74,1.08-.05,2.12-.38,3.1-.9.01.21.03.42.04.63-1.06.62-2.23,1-3.43,1.01-.08.22-.15.46-.23.7,1.29.04,2.55-.32,3.7-.94.01.21.03.42.04.63-1.22.73-2.58,1.16-3.96,1.06-.06.23-.13.45-.19.69,1.46.14,2.9-.25,4.2-.97.01.2.03.41.04.62-1.34.83-2.86,1.28-4.4,1.07-.05.23-.1.46-.14.69,1.6.24,3.18-.18,4.59-.98.01.2.03.41.04.61-1.44.92-3.08,1.4-4.75,1.09-.04.23-.07.46-.1.7,1.71.31,3.4-.12,4.9-1,.01.2.03.4.04.6-1.51.99-3.26,1.5-5.02,1.12-.02.23-.04.47-.06.71,1.79.37,3.57-.09,5.13-1.03.01.2.03.4.04.59-1.56,1.04-3.38,1.58-5.21,1.15,0,.24-.02.48-.02.72,1.84.4,3.68-.09,5.28-1.07.01.2.03.4.04.59-1.58,1.08-3.44,1.66-5.31,1.2,0,.25,0,.49.02.74,1.87.4,3.73-.12,5.34-1.14.01.2.03.39.04.59-1.58,1.11-3.45,1.71-5.33,1.28.02.19.02.38.04.58,0,.05.01.1.02.16,1.87.36,3.72-.19,5.33-1.22.01.2.03.39.04.58-1.56,1.13-3.41,1.76-5.28,1.39.03.24.06.49.09.72,1.84.3,3.66-.27,5.24-1.3.01.19.02.38.04.57-1.52,1.12-3.32,1.78-5.16,1.49.04.25.08.49.12.73,1.8.22,3.56-.37,5.09-1.4.01.19.03.38.04.56-1.46,1.11-3.2,1.79-4.98,1.59.05.25.11.49.17.73,1.72.12,3.4-.49,4.86-1.5.01.19.02.37.04.55-1.38,1.07-3.02,1.77-4.71,1.69.07.25.14.48.22.71,1.61,0,3.18-.61,4.55-1.57.01.19.02.37.04.55-1.27,1.01-2.77,1.71-4.32,1.77.09.24.18.47.27.68,1.46-.12,2.87-.73,4.1-1.62.01.21.02.39.03.55-1.13.91-2.43,1.58-3.81,1.78.12.23.25.44.37.65,1.24-.23,2.43-.81,3.48-1.59.01.15.07.3.17.41-.39.7-1.38,1.85-2.83,1.93-.19.01-.34.18-.33.37.01.19.16.33.35.33,0,0,.01,0,.02,0,1.79-.1,3-1.46,3.47-2.4.02,0,.04,0,.06,0l20.22-5.58c.93,3.85,1.39,8.61.5,13.96-.21,1.28-.5,2.8-.82,4.5-2.84,15.18-8.76,46.77,11.21,51.77.06.01.11.02.17.02.28,0,.54-.17.65-.44.13-.32,0-.69-.29-.87-.3-.18-7.22-4.45-5.03-16.09,1.11-5.93,1.98-10.8,2.57-14.26.65,4.89,2.29,11.68,6.37,15.79,3.29,3.3,7.65,4.3,12.85,2.92.35-.09.57-.44.51-.8-.06-.36-.39-.61-.75-.58-.01,0-.08,0-.2,0-.78,0-3.49-.2-5.72-2.77-3.07-3.54-4-10.19-2.71-19.23.51-3.59,1.04-7.03,1.56-10.36,1.9-12.33,3.46-22.47,2.63-30.05l73.27-20.21c.21-.06.39-.21.47-.42.09-.2.07-.44-.03-.63-.03-.06-2.46-4.51-3.62-8.81,2.85.17,5.22.54,7.03,1.1.07.02.14.03.21.03h.01c.4,0,.72-.33.72-.72,0-.2-.08-.37-.2-.5Z"/>
      <path d="M238.08,182.89c-.05-.3-.13-.75-9.48-8.84l.24-12.6c1.42-.46,5.51-1.79,6.24-2.08,1.41-.57,2.14-7.04,1.95-7.6,0,0,0,0,0,0-.71-2.34-72.41-120.37-73.03-121.19-.25-.34-.69-.39-1.09-.39-8.51,0-109.99,27.08-116,28.68-.79-.09-4.36-.32-6.04,2.61-1.72,3-5.41,27.37-4.55,29.97.36,1.07,3.07,6.14,7.23,13.87.01.05.03.09.05.14l7.05,13.1s.06.08.09.12c4.51,8.42,9.59,17.99,14.4,27.38,5.65,11.04,13.2,26.28,20.19,40.47.01.04.02.07.03.09.01.03.02.06.04.09l7.27,14.78s.05.08.08.12c5.76,11.71,10.16,20.63,11,22.06,1.22,2.07,2.93,4.17,6.36,4.63.11.02.21.03.31.03h0s0,0,0,0c.35.03.7.06,1.09.06,1.59,0,3.39-.3,5.5-.93,7.19-2.14,118.57-36.04,119.29-36.26,1.88-.58,1.78-8.24,1.77-8.31ZM162.92,31.59s.06,0,.09,0c3.91,5.76,67.01,110.4,72.34,119.94l-124.14,36.38-9.64-19.5s-.01-.07-.03-.1l-5.47-11.06s-.05-.05-.07-.08l-35.53-71.84s-.01-.07-.03-.1l-5.72-11.56s-.05-.06-.07-.09l-6.69-13.53c10.02-2.67,106.94-28.45,114.95-28.45ZM42.09,62.18c.97-1.69,2.92-1.95,3.99-1.95.16,0,.3,0,.42.01l6.62,13.38c-1.88.96-6.88,4.31-8.79,13.44-1.32,6.3-1.39,11.32-1.21,14.48-3.03-5.63-5.19-9.72-5.46-10.53-.75-2.24,2.94-26.22,4.43-28.83ZM86.13,170.47c-1.18,5.25-1.41,9.14-1.32,11.79-6.47-13.12-13.22-26.74-18.4-36.84-4.81-9.4-9.89-18.96-14.4-27.38-.1-.56-1.19-7.37.6-17.61,1.67-9.58,5.47-12.94,6.9-13.89l34.99,70.75c-1.69,1.11-6.51,4.92-8.37,13.19ZM94.03,201.01s0,0,0,0c-.02-.07-1.55-6.61.28-17.18,1.62-9.4,4.98-13.02,6.33-14.13l9.3,18.81c-2.07,1.44-9.13,7.25-9.03,19.57.03,4.04.77,7.59,1.83,10.56-1.98-3.96-5.07-10.23-8.71-17.62ZM235.82,189.89c-3.44,1.05-112.1,34.12-119.2,36.23-1.95.58-3.66.87-5.1.87-.44,0-.85-.03-1.24-.08-1.64-.43-7.89-6.79-7.98-18.85-.05-6.94,2.36-11.65,4.4-14.38,2.01-2.7,4.05-4.05,4.43-4.28l124.52-36.49c-.15,1.55-.74,4.62-1.17,5.2-.85.32-4.61,1.55-6.54,2.18-.29.09-.48.35-.49.65l-.26,13.43c0,.21.08.41.24.54,4.06,3.51,8.57,7.52,9.27,8.34.06,1.17-.3,5.9-.88,6.64Z"/>
      <g>
        <path d="M150.95,53.39c-.21-.16-.45-.18-.64-.18-2.27,0-19.89,4.66-36.11,9.27-15.08,4.28-33.23,9.66-34.11,11.03-.15.24-.18.53-.06.77l40.58,88.95c.12.27.38.43.66.43.07,0,.14-.01.2-.03.19-.06,19.09-5.62,37.75-11.32,21.86-6.68,31.22-9.78,35.24-11.38,2.31-.89,2.84-1.26,2.96-1.6.06-.11.06-.21.06-.3,0-1.9-44.79-84.32-46.53-85.63Z"/>
        <path class="cls-1" d="M190.78,140.89c-8.69-16.8-42.3-78.52-43.64-79.52-.18-.13-.39-.15-.56-.15-3.73,0-47.39,12.18-63.15,17.38l-2.04-4.47c4.68-2.5,63.73-19.34,68.81-19.58,2.98,4.17,43.5,78.67,45.86,84.3-.44.24-1.7.8-5.28,2.06Z"/>
        <g>
          <path class="cls-1" d="M149.34,117.92c-27.74-2.04-39.94-12.37-42.09-21.41-1.07-4.47.44-8.55,3.92-10.63,2.22-1.32,4.62-1.99,7.15-1.99,7.16,0,13.07,5.37,13.13,5.42l.84.78.14-1.14c.01-.11,1.51-11.17,9.19-11.17.49,0,1.01.04,1.54.14,3.91.66,6.81,2.61,8.61,5.78,5.91,10.42-1.28,31.06-2.44,34.22Z"/>
          <path class="cls-1" d="M149.69,119.25c-27.77-1.94-40.54-12.17-43.43-21.45-.06.46-.1.84-.11,1.08-.46,7.46,7.8,22.17,42.22,24.71.27-.74.82-2.28,1.44-4.35-.03,0-.05.01-.08.01h-.05Z"/>
        </g>
      </g>
      <g>
        <path d="M13.53,76.52c3.08-.08,6.2-.09,9.25-.09-.97-.96-1.95-1.94-2.94-2.88-.21-.2-.22-.54-.02-.76.2-.22.55-.22.76-.02,1,.95,1.99,1.93,2.97,2.9,0-3.04-.01-6.16-.09-9.23,0-.3.23-.54.52-.55.29,0,.54.23.55.52.08,3.08.09,6.2.09,9.25.96-.97,1.94-1.95,2.88-2.94.2-.22.55-.23.76-.02.22.2.23.54.02.76-.95,1.01-1.93,1.99-2.9,2.97,3.05,0,6.16,0,9.23-.09.29,0,.55.23.55.53,0,.29-.23.54-.52.55-3.08.08-6.2.09-9.25.09.97.96,1.95,1.94,2.94,2.88.21.2.22.55.02.76-.11.11-.25.17-.39.17-.13,0-.27-.05-.37-.15-1-.95-1.99-1.93-2.97-2.9,0,3.05.01,6.16.09,9.23,0,.3-.23.54-.52.55h-.01c-.29,0-.53-.23-.54-.52-.08-3.08-.09-6.2-.09-9.25-.96.97-1.94,1.95-2.88,2.94-.11.11-.25.17-.39.17-.13,0-.27-.05-.37-.15-.22-.21-.22-.55-.02-.76.95-1,1.93-1.99,2.9-2.97-3.04,0-6.16.01-9.23.09h-.01c-.29,0-.53-.23-.54-.52,0-.3.23-.54.52-.55Z"/>
        <path d="M248.84,88.68c-3.17-.09-6.38-.1-9.51-.1,1.03-1.02,2.07-2.06,3.13-3.06.17-.16.18-.43.02-.61-.16-.17-.44-.18-.61-.02-1.07,1.01-2.12,2.05-3.15,3.08,0-3.13,0-6.33.1-9.49,0-.24-.18-.44-.42-.44-.24,0-.44.18-.44.42-.09,3.17-.09,6.38-.09,9.51-1.03-1.03-2.06-2.07-3.06-3.13-.16-.17-.44-.18-.61-.02-.17.16-.18.44-.02.61,1.01,1.07,2.05,2.12,3.08,3.15-3.13,0-6.33,0-9.49-.09-.24,0-.44.18-.44.42,0,.24.18.43.42.44,3.17.09,6.38.09,9.51.09-1.03,1.03-2.07,2.06-3.13,3.06-.17.17-.18.44-.02.61.08.09.2.13.31.13.11,0,.21-.04.3-.12,1.07-1.01,2.12-2.05,3.15-3.08,0,3.13,0,6.33-.09,9.49,0,.24.18.44.42.44h.01c.23,0,.42-.19.43-.42.09-3.17.09-6.38.09-9.51,1.03,1.03,2.06,2.07,3.07,3.13.08.09.2.13.31.13.11,0,.21-.04.3-.12.17-.16.18-.44.02-.61-1.01-1.07-2.05-2.12-3.08-3.15,3.13,0,6.33,0,9.49.09h.01c.23,0,.42-.18.43-.42,0-.24-.18-.44-.42-.44Z"/>
        <path d="M.63,51.87c3.73-.1,7.51-.11,11.2-.12-1.17-1.17-2.37-2.35-3.57-3.49-.26-.24-.27-.65-.02-.91.25-.26.65-.27.91-.02,1.22,1.15,2.42,2.34,3.6,3.51,0-3.68-.01-7.45-.11-11.17,0-.36.27-.65.63-.66.34-.03.65.27.66.63.1,3.73.11,7.51.11,11.2,1.17-1.17,2.35-2.37,3.49-3.57.25-.26.66-.27.91-.02.26.25.27.65.02.91-1.15,1.22-2.34,2.42-3.52,3.6,3.69,0,7.45-.01,11.17-.11h.02c.35,0,.64.28.65.63,0,.36-.27.65-.63.66-3.73.1-7.51.11-11.2.12,1.17,1.17,2.37,2.35,3.57,3.49.26.25.27.66.02.91-.13.13-.3.2-.47.2-.16,0-.32-.06-.44-.18-1.22-1.15-2.42-2.34-3.6-3.51,0,3.69.01,7.45.11,11.17,0,.36-.27.65-.63.66h-.02c-.35,0-.64-.28-.64-.63-.1-3.73-.11-7.51-.12-11.21-1.17,1.17-2.35,2.37-3.49,3.57-.13.13-.3.2-.47.2-.16,0-.32-.06-.44-.18-.26-.25-.27-.65-.02-.91,1.15-1.22,2.34-2.42,3.52-3.6-3.69,0-7.46.01-11.17.11h-.02c-.35,0-.64-.28-.65-.63,0-.36.27-.65.63-.66Z"/>
        <path d="M123.62,25.3c-2.28-.06-4.58-.07-6.84-.07.71-.7,1.42-1.41,2.15-2.1.17-.16.18-.44.02-.61-.16-.17-.44-.18-.61-.02-.73.69-1.45,1.41-2.17,2.12,0-2.25,0-4.55.07-6.81,0-.24-.18-.44-.42-.44-.23,0-.44.18-.44.42-.06,2.28-.07,4.58-.07,6.84-.7-.71-1.41-1.42-2.1-2.15-.16-.17-.44-.18-.61-.02-.17.16-.18.44-.02.61.69.73,1.41,1.45,2.12,2.16-2.25,0-4.55,0-6.82-.07-.23,0-.44.18-.44.42,0,.24.18.44.42.44,2.28.06,4.58.07,6.83.07-.7.7-1.42,1.41-2.14,2.1-.17.16-.18.44-.02.61.08.09.2.13.31.13.11,0,.21-.04.3-.12.73-.69,1.45-1.41,2.16-2.12,0,2.25,0,4.55-.07,6.82,0,.24.18.44.42.44h.01c.23,0,.42-.18.43-.42.06-2.28.07-4.58.07-6.84.7.71,1.41,1.42,2.1,2.15.09.09.2.14.31.14s.21-.04.3-.12c.17-.16.18-.44.02-.61-.69-.73-1.41-1.45-2.12-2.16,2.25,0,4.55,0,6.82.07h.01c.23,0,.42-.18.43-.42,0-.24-.18-.44-.42-.44Z"/>
        <path d="M158.2,12.29c-2.28-.06-4.58-.07-6.83-.07.71-.7,1.42-1.41,2.15-2.1.17-.16.18-.44.02-.61-.16-.17-.44-.18-.61-.02-.73.69-1.45,1.41-2.16,2.11,0-2.25,0-4.55.07-6.82,0-.24-.18-.44-.42-.44-.23,0-.44.18-.44.42-.06,2.28-.07,4.58-.07,6.84-.7-.71-1.41-1.42-2.1-2.15-.16-.17-.44-.18-.61-.02-.17.16-.18.44-.02.61.69.73,1.41,1.45,2.12,2.16-2.25,0-4.55,0-6.82-.07-.23,0-.43.18-.44.42,0,.24.18.43.42.44,2.28.06,4.58.07,6.84.07-.71.7-1.42,1.41-2.15,2.1-.17.16-.18.44-.02.61.08.09.2.14.31.14.11,0,.21-.04.3-.12.73-.69,1.45-1.41,2.17-2.12,0,2.25,0,4.55-.07,6.82,0,.24.18.44.42.44h.01c.23,0,.42-.19.43-.42.06-2.28.07-4.58.07-6.84.7.71,1.41,1.42,2.1,2.15.08.09.2.14.31.14s.21-.04.3-.12c.17-.16.18-.44.02-.61-.69-.73-1.41-1.45-2.12-2.17,2.25,0,4.55,0,6.82.07h.01c.23,0,.42-.19.43-.42,0-.24-.18-.44-.42-.44Z"/>
        <path d="M212.03,80.73c1.67.05,3.37.05,5.03.06-.49.48-.98.97-1.48,1.44-.17.16-.18.44-.02.61.08.09.2.13.31.13s.21-.04.3-.12c.51-.48,1.01-.97,1.5-1.46,0,1.66,0,3.34-.05,5.01,0,.24.18.44.42.44h.01c.23,0,.42-.18.43-.42.04-1.67.05-3.37.05-5.03.49.49.97.98,1.45,1.48.08.09.2.13.31.13.11,0,.21-.04.29-.12.17-.16.18-.44.02-.61-.48-.51-.97-1.01-1.46-1.5,1.66,0,3.34,0,5.01.05h.01c.23,0,.42-.18.43-.42,0-.24-.18-.44-.42-.44-1.67-.04-3.37-.05-5.03-.05.49-.49.98-.97,1.48-1.44.17-.16.18-.44.02-.61-.16-.17-.44-.18-.61-.02-.51.48-1.01.97-1.5,1.46,0-1.66,0-3.34.05-5.01,0-.24-.18-.44-.42-.44-.24,0-.44.18-.44.42-.05,1.67-.05,3.37-.05,5.03-.49-.49-.97-.98-1.44-1.48-.16-.17-.44-.18-.61-.02-.17.16-.18.44-.02.61.48.51.97,1.01,1.46,1.5-1.66,0-3.34-.01-5.01-.05-.24,0-.44.18-.44.42,0,.24.18.43.42.44Z"/>
        <path d="M35.62,49.36c1.67-.04,3.37-.05,5.03-.06-.49-.48-.98-.97-1.48-1.44-.17-.16-.18-.43-.02-.61.16-.17.44-.18.61-.02.51.48,1.01.97,1.5,1.46,0-1.66,0-3.35-.05-5.01,0-.24.18-.44.42-.44.24,0,.44.18.44.42.05,1.67.05,3.37.06,5.03.49-.49.97-.98,1.44-1.48.16-.17.44-.18.61-.02.17.16.18.43.02.61-.48.51-.97,1.01-1.46,1.5,1.66,0,3.34,0,5.01-.05.24-.02.44.18.44.42,0,.24-.18.44-.42.44-1.67.04-3.37.05-5.03.05.49.48.98.97,1.48,1.44.17.16.18.44.02.61-.09.09-.2.13-.31.13-.11,0-.21-.04-.3-.12-.51-.48-1.01-.97-1.5-1.46,0,1.66,0,3.34.05,5.01,0,.24-.18.44-.42.44h-.01c-.23,0-.42-.18-.43-.42-.05-1.67-.05-3.37-.05-5.03-.49.49-.97.98-1.44,1.48-.08.09-.2.13-.31.13-.11,0-.21-.04-.3-.12-.17-.16-.18-.44-.02-.61.48-.51.97-1.01,1.46-1.5-1.66,0-3.35,0-5.01.06h-.01c-.23,0-.42-.19-.43-.42,0-.24.18-.44.42-.44Z"/>
        <path d="M121.83,6.11c1.67-.05,3.37-.05,5.03-.05-.49-.48-.98-.97-1.48-1.44-.17-.16-.18-.44-.02-.61.16-.17.44-.18.61-.02.51.48,1.01.97,1.5,1.47,0-1.66,0-3.35-.05-5.01,0-.24.18-.44.42-.44.24,0,.44.18.44.42.05,1.67.05,3.37.05,5.03.49-.49.97-.98,1.44-1.48.16-.17.44-.18.61-.02.17.16.18.43.02.61-.48.51-.97,1.01-1.46,1.5,1.66,0,3.34-.01,5.01-.06.24-.02.44.18.44.42,0,.24-.18.44-.42.44-1.67.04-3.37.05-5.03.05.49.49.98.97,1.48,1.45.17.16.18.44.02.61-.08.09-.2.13-.31.13-.11,0-.21-.04-.3-.12-.51-.48-1.01-.97-1.5-1.46,0,1.66,0,3.34.05,5.01,0,.24-.18.43-.42.44h-.01c-.23,0-.42-.19-.43-.42-.05-1.68-.05-3.37-.05-5.03-.49.49-.97.98-1.44,1.48-.08.09-.2.13-.31.13-.11,0-.21-.04-.3-.12-.17-.16-.18-.44-.02-.61.48-.51.97-1.01,1.46-1.5-1.66,0-3.34.01-5.01.06h-.01c-.23,0-.42-.19-.43-.42,0-.24.18-.44.42-.44Z"/>
        <path d="M230.65,106.1c-1.67-.04-3.37-.05-5.03-.05.49-.49.98-.97,1.48-1.45.17-.16.18-.43.02-.61-.16-.17-.43-.18-.61-.02-.51.48-1.01.97-1.5,1.46,0-1.66,0-3.34.05-5.01,0-.24-.18-.43-.42-.44-.24,0-.44.18-.44.42-.04,1.68-.05,3.37-.05,5.03-.49-.49-.97-.98-1.44-1.48-.16-.17-.44-.18-.61-.02-.17.16-.18.44-.02.61.48.51.97,1.01,1.46,1.5-1.66,0-3.34-.01-5.01-.05-.24-.02-.44.18-.44.42,0,.24.18.43.42.44,1.67.05,3.37.05,5.03.06-.49.48-.98.97-1.48,1.44-.17.16-.18.44-.02.61.09.09.2.14.31.14.11,0,.21-.04.3-.12.51-.48,1.01-.97,1.5-1.46,0,1.66,0,3.34-.05,5.01,0,.24.18.44.42.44h.01c.23,0,.42-.19.43-.42.05-1.68.05-3.37.05-5.03.49.49.97.98,1.44,1.48.08.09.2.13.31.13.11,0,.21-.04.3-.12.17-.16.18-.44.02-.61-.48-.51-.97-1.01-1.46-1.5,1.66,0,3.34,0,5.01.05h.01c.23,0,.42-.19.43-.42,0-.24-.18-.44-.42-.44Z"/>
        <path d="M193.49,18.42c-3.62-.1-7.29-.11-10.88-.11,1.13-1.13,2.29-2.27,3.45-3.37.26-.24.27-.65.03-.91-.25-.26-.65-.27-.91-.02-1.18,1.11-2.33,2.26-3.48,3.4,0-3.58.01-7.24.11-10.85,0-.36-.27-.65-.63-.66-.34-.02-.65.27-.66.63-.1,3.62-.11,7.29-.11,10.87-1.13-1.13-2.27-2.29-3.37-3.45-.25-.26-.65-.27-.91-.02s-.27.65-.02.91c1.11,1.18,2.26,2.33,3.4,3.47-3.58,0-7.24-.01-10.84-.11-.37-.02-.65.27-.66.63-.01.36.27.65.63.66,3.62.1,7.29.11,10.87.11-1.13,1.13-2.29,2.27-3.45,3.37-.26.25-.27.65-.02.91.13.13.3.2.47.2.16,0,.32-.06.45-.18,1.18-1.11,2.33-2.26,3.47-3.4,0,3.58-.01,7.24-.11,10.84,0,.36.27.65.63.66,0,0,.01,0,.02,0,.35,0,.64-.28.65-.63.1-3.62.11-7.29.11-10.88,1.13,1.13,2.27,2.29,3.37,3.45.13.13.3.2.47.2.16,0,.32-.06.44-.18.26-.24.27-.65.02-.91-1.11-1.18-2.26-2.34-3.4-3.48,3.58,0,7.24.01,10.84.11,0,0,.01,0,.02,0,.35,0,.64-.28.64-.63,0-.36-.27-.65-.63-.66Z"/>
      </g>
      <g>
        <path class="cls-1" d="M183.61,107.4v2.8c-4.07,1-7.09,1.72-7.41,1.69-1.04-.1-18.98-6.15-18.98-6.15v-2.4c0-.93,7.82-14.6,9.07-15.01.35-.12,2.96-.97,6.52-2.11l10.79,21.19Z"/>
        <path d="M211.38,100.85l-.19-.49c-.36-.94-13.7-21.03-14.77-21.79-.22-.16-.46-.16-.54-.16-1.22,0-8.01,2.16-18.23,5.47-1.76.57-3.48,1.12-5.05,1.63-.03,0-.06.04-.09.05-3.49,1.12-6.09,1.97-6.44,2.09-.31.1-1.12.37-5.39,7.62-.66,1.11-3.78,6.45-4.13,7.85,0,0,0,0,0,.01,0,.02,0,.04,0,.06,0,.05-.02.11-.02.14v2.4c0,.3.19.57.48.67,3.01,1.01,18.07,6.08,19.12,6.18.03,0,.08,0,.1,0,.31,0,1.17-.13,7.38-1.67.06,0,.12,0,.17-.02,8.27-2.04,20.97-5.34,23.69-6.05l3.88,6.43c.12.2.34.34.59.35.01,0,.02,0,.03,0,.23,0,.45-.11.58-.29.19-.25,1.14-1.56,1.37-2.38.14-.49.04-1.43-2.54-8.1ZM166.56,88.97c.45-.15,2.76-.9,5.88-1.91l10.1,19.84c-2.97.62-6,1.18-6.44,1.16-.65-.12-10.85-3.09-17.98-5.2,1.22-2.73,7.3-13.09,8.44-13.9ZM157.92,105.23v-.96c4.35,1.28,17.28,5.08,17.97,5.18.04,0,.09,0,.15,0,.98,0,4.61-.72,6.84-1.19v1.39c-4.86,1.2-6.31,1.5-6.64,1.53-1.04-.19-11.3-3.59-18.32-5.95Z"/>
        <path class="cls-1" d="M185.48,107.23c-.16,0-.3-.11-.34-.26-.05-.19.07-.38.26-.43l25.03-6.26c.19-.05.38.07.43.26.05.19-.07.38-.26.42l-25.03,6.26s-.06.01-.09.01Z"/>
        <path d="M238.37,150.58c-.28-1.26-12.47-21.19-16.2-27.26-.19-.32-.6-.44-.93-.28-.23.11-.91.45-26.38,39.5-.09.13-.13.29-.11.45l.65,8.3c.02.22.13.42.31.54.12.08.26.12.41.12.07,0,.14-.01.21-.03,6.5-1.98,38.95-11.88,39.83-12.33,1.41-.72,2.49-7.78,2.21-9.01Z"/>
        <path d="M183.95,58.54s0,0,0-.02c-.36-.94-2.04-4-8.96-16.16-4.28-7.52-9.09-15.88-9.22-16.08-.13-.2-.41-.33-.65-.33-1.47,0-30.8,6.89-36.66,8.27-.33.08-.56.37-.56.7v3.49c0,.29.17.54.43.66l54.27,24.38c.09.04.19.06.3.06.13,0,.25-.03.36-.1.2-.12.33-.33.35-.56.15-1.69.35-3.6.41-3.86.02-.1.04-.18-.07-.47Z"/>
        <path class="cls-1" d="M129.21,38.05v-2.2l53.45,23.35c-.09.69-.2,1.87-.28,2.73l-53.17-23.89Z"/>
        <path class="cls-1" d="M196.09,163.37l41.03-11.85c-.07,1.88-1.04,6.3-1.59,6.92-1.52.6-27.85,8.66-38.88,12.02l-.56-7.08Z"/>
        <g>
          <path d="M203.24,162.15c-.88,1.88-1.77,3.75-2.78,5.56-.22.39.39.75.61.35,1.01-1.81,1.9-3.69,2.78-5.56.19-.41-.41-.77-.61-.35h0Z"/>
          <path d="M205.79,161.48c-1.03,1.81-2.12,3.57-3.23,5.34-.24.39.37.74.61.35,1.1-1.76,2.2-3.53,3.23-5.34.22-.39-.38-.75-.61-.35h0Z"/>
          <path d="M207.46,161.81c-.82,1.39-1.78,2.7-2.56,4.11-.22.4.39.75.61.35.78-1.42,1.73-2.73,2.56-4.12.23-.39-.37-.74-.61-.35h0Z"/>
          <path d="M209.8,161.26c-.63,1.06-1.19,2.15-1.78,3.23-.22.39.39.75.61.35.59-1.08,1.15-2.17,1.78-3.23.23-.39-.38-.74-.61-.35h0Z"/>
          <path d="M226.89,155c-.59,1.75-1.83,3.16-2.63,4.81-.2.41.41.76.61.35.83-1.71,2.09-3.16,2.71-4.98.14-.43-.53-.61-.68-.19h0Z"/>
          <path d="M228.37,155.59c-.63.96-1.21,1.96-1.89,2.89-.27.37.34.71.61.35.68-.93,1.26-1.93,1.89-2.89.25-.38-.36-.73-.61-.35h0Z"/>
          <path d="M165.94,90.27c-1.29,4.1-3.73,7.67-5.41,11.59-.18.41.43.77.61.35,1.71-3.98,4.18-7.61,5.48-11.76.14-.43-.54-.62-.68-.19h0Z"/>
          <path d="M166.53,93.86c-1,2.04-1.79,4.18-3,6.12-.24.38.37.74.61.35,1.21-1.93,2-4.07,3-6.12.2-.4-.41-.76-.61-.35h0Z"/>
          <path d="M167.64,96.08c-.56,1.02-1,2.09-1.56,3.12-.22.4.39.75.61.35.56-1.02,1-2.09,1.56-3.11.22-.4-.39-.75-.61-.35h0Z"/>
          <path d="M173.61,53.53c.45,1.95.78,3.92,1.11,5.89.08.45.75.26.68-.19-.33-1.97-.66-3.94-1.11-5.89-.1-.44-.78-.25-.68.19h0Z"/>
          <path d="M175.38,55.11c.11,1.72.26,3.42.68,5.1.11.44.79.25.68-.19-.41-1.61-.54-3.26-.66-4.91-.03-.45-.73-.45-.7,0h0Z"/>
          <path d="M176.84,55.68c-.22,1.6-.12,3.18.22,4.75.1.44.77.25.68-.19-.31-1.44-.42-2.91-.22-4.37.06-.44-.62-.63-.68-.19h0Z"/>
          <path d="M178.18,56.65c.22,1.37.35,2.75.56,4.11.07.45.74.26.68-.19-.2-1.37-.34-2.75-.56-4.11-.07-.45-.75-.26-.68.19h0Z"/>
          <path d="M179.51,57.09c.22,1.45.42,2.89.43,4.35,0,.45.71.45.7,0-.02-1.53-.23-3.03-.46-4.54-.07-.45-.75-.26-.68.19h0Z"/>
          <path d="M132.2,35.94c.79,1.67,1.19,3.48,2.02,5.13.21.4.81.05.61-.35-.83-1.65-1.24-3.46-2.02-5.13-.19-.41-.8-.05-.61.35h0Z"/>
          <path d="M133.88,36.97c.74,1.51,1.36,3.07,1.94,4.65.15.42.83.24.68-.19-.59-1.64-1.24-3.25-2.01-4.82-.2-.41-.81-.05-.61.36h0Z"/>
          <path d="M135.54,37.94c.72,1.55,1.32,3.15,2.08,4.68.2.41.81.05.61-.35-.75-1.53-1.35-3.13-2.08-4.68-.19-.41-.8-.05-.61.35h0Z"/>
          <path d="M137.16,38.3c.28.72.48,1.48.8,2.19.41.91.99,1.74,1.39,2.66.18.41.79.06.61-.36-.32-.72-.74-1.38-1.12-2.07-.44-.82-.67-1.74-1-2.61-.16-.42-.84-.24-.68.19h0Z"/>
        </g>
      </g>
      <g>
        <path class="cls-1" d="M191.61,118.5c0,.63-2.77,22.62-3.03,23.25-.25.62-3.41,4.29-5.06,4.54-1.64.25-21.48,1.39-23.75,1.14-2.27-.25-5.94-4.04-6.32-5.06,0,0-.51-3.66,0-4.92.41-1.04,3.92-15.53,6.45-21.1.55-1.21,2.98-2.73,3.15-2.78.1-.03.41-.07.88-.13,1.28-.17,3.74-.43,6.52-.72,4.09-.42,8.9-.87,11.74-1.08,1.4-.1,2.34-.14,2.46-.09.3.12,1.92,1.58,3.52,3.14,1.73,1.69,3.43,3.48,3.43,3.81Z"/>
        <path d="M170.6,116.12c-3.68,0-6.57,2.3-6.57,5.24,0,1.51.79,2.91,2.14,3.89-.64,1.16-1.18,2.15-1.62,2.98-1.42,2.68-1.94,3.68-.87,4.54.43.35.92.35,1.15.35,1.41,0,7.15-.83,7.8-.93.71-.1,1.24-.71,1.24-1.43v-4.84c2.01-.92,3.3-2.65,3.3-4.55,0-2.94-2.89-5.24-6.57-5.24Z"/>
        <path class="cls-1" d="M181.51,107.3c-.4,1.8-1.43,3.34-3.52,3.89-4.09,1.08-6.21-1.4-6.35-1.57h0c.56-1.04,1.35-2.13,2.45-2.94.28-2.09-.68-5-1.54-6.15-.17-.23-.34-.39-.49-.46-1.29-.6-.69,1-.69,1-1.03.54-1.91,1.22-2.68,1.98-3.82-9.19,3.08-12.94,6.43-11.4,2.81,1.29,4.71,5.23,5.7,8.33.2.62.37,1.22.5,1.75.39,1.6.62,3.73.2,5.58Z"/>
        <path d="M174.09,107.05c-.2,0-.36-.16-.36-.35h0c0-.21.16-.37.36-.37s.36.16.36.36-.16.36-.36.36Z"/>
        <g>
          <path class="cls-1" d="M188.18,114.69c-1.6-1.56-3.22-3.02-3.52-3.14-.13-.05-1.06,0-2.46.09.11-1.24.07-3-.69-4.34.42-1.85.2-3.97-.2-5.58-.13-.53-.29-1.12-.5-1.75,6.54,1.35,8.63,7.3,7.37,14.71Z"/>
          <g>
            <path class="cls-1" d="M174.09,106.68c-1.1.81-1.89,1.9-2.45,2.93h0c-.88,1.64-1.18,3.11-1.18,3.11-2.79.28-5.24.55-6.52.72,0,0,.64-6.33,4.75-10.39.77-.76,1.65-1.44,2.68-1.98.38-.2.77-.38,1.19-.54.86,1.15,1.82,4.06,1.54,6.15Z"/>
            <path d="M188.93,114.44c1.28-8.13-1.47-13.57-7.57-15.04-.89-2.65-2.77-6.92-5.95-8.38-.58-.27-1.23-.4-1.93-.4-2.07,0-4.12,1.14-5.35,2.98-1.58,2.37-1.67,5.66-.26,9.31-3.31,3.5-4.31,8.29-4.56,9.92-.25.04-.36.06-.44.08-.31.09-2.94,1.7-3.6,3.17-1.88,4.15-4.28,13.12-5.58,17.95-.42,1.58-.79,2.95-.89,3.19-.51,1.29-.16,4.34-.06,5.12,0,.11,0,.21.04.31.43,1.14,4.25,5.22,6.92,5.52.25.03.65.04,1.23.04,4.63,0,21.09-.93,22.71-1.18,1.97-.3,5.3-4.2,5.62-4.99.04-.09.05-.18.05-.28.55-2.66,3.01-23.1,3.01-23.25,0-.31-.01-.74-3.38-4.06ZM187.68,113.24s-.06-.05-.08-.08c-.01,0-.02-.02-.03-.03-.14-.13-.28-.26-.42-.39-.05-.04-.09-.09-.14-.13-.09-.08-.18-.16-.27-.24-.07-.06-.14-.13-.21-.19-.06-.05-.12-.1-.17-.16-.06-.05-.12-.1-.18-.16-.07-.06-.14-.12-.21-.18-.07-.06-.14-.12-.21-.17-.04-.04-.09-.07-.13-.11-.08-.07-.16-.13-.23-.19-.03-.02-.06-.04-.08-.06-.06-.04-.12-.08-.17-.12-.02-.02-.05-.03-.07-.05,0,0-.02-.01-.02-.01,0,0-.01,0-.02-.01-.05-.03-.09-.05-.13-.07-.01,0-.02,0-.04-.01-.02,0-.04-.02-.07-.02t0,0s0,0,0,0c0,0,0,0-.01,0-.05-.01-.1-.02-.17-.02,0,0-.02,0-.03,0-.07,0-.14,0-.23,0-.06,0-.14,0-.22,0-.02,0-.05,0-.08,0-.07,0-.14,0-.22,0-.03,0-.06,0-.09,0-.09,0-.18,0-.27.01-.07,0-.14,0-.21,0-.04,0-.09,0-.13,0-.07,0-.12,0-.19.01.03-1.15-.11-2.52-.7-3.69,0-.03.01-.07.02-.1.01-.07.02-.14.04-.21.01-.08.02-.16.03-.23,0-.07.02-.14.03-.21,0-.08.02-.16.02-.23,0-.07.01-.14.02-.21,0-.08.01-.16.01-.23,0-.07,0-.13,0-.2,0-.08,0-.16,0-.24,0-.06,0-.13,0-.19,0-.08,0-.16,0-.24,0-.06,0-.12,0-.18,0-.08,0-.16,0-.23,0-.06,0-.12,0-.17,0-.08-.01-.16-.02-.23,0-.05,0-.11-.01-.16,0-.08-.01-.16-.02-.23,0-.05,0-.1-.02-.14,0-.08-.02-.16-.03-.23,0-.04-.01-.08-.02-.12-.01-.08-.02-.16-.03-.23,0-.03,0-.07-.02-.1-.01-.08-.02-.15-.04-.23,0-.03-.01-.06-.02-.09-.01-.08-.03-.15-.04-.22,0-.02,0-.05-.01-.07-.02-.08-.03-.16-.05-.24,0,0,0-.02,0-.03-.04-.17-.07-.31-.1-.43-.05-.19-.09-.38-.15-.58,4.5,1.5,6.58,5.87,5.83,12.26ZM181.54,110.99c-.51.04-1.09.09-1.7.14.66-.44,1.21-1.02,1.62-1.74.08.57.1,1.13.08,1.6ZM171.86,110.78c.4.31.95.66,1.65.93-.7.07-1.4.14-2.09.21.11-.33.26-.72.44-1.14ZM169.3,94.37c1.16-1.73,2.92-2.35,4.18-2.35.49,0,.96.09,1.34.27,2.95,1.36,4.71,5.98,5.33,7.91.19.58.36,1.17.49,1.7.03.11.06.24.09.4.19.91.44,2.49.24,4.07-.03.26-.08.53-.14.79h0s0,0,0,0c-.4,1.81-1.42,2.95-3.01,3.36-.62.16-1.23.25-1.81.25-1.79,0-2.94-.78-3.48-1.25.05-.08.09-.16.14-.23.06-.1.13-.2.2-.3.1-.14.2-.27.31-.41.07-.09.14-.17.21-.25.12-.13.24-.26.36-.39.06-.06.12-.13.19-.19.19-.18.38-.34.58-.49.15-.11.25-.28.28-.47.02-.14.03-.28.04-.42s.01-.29.01-.44h0c0-2.09-.83-4.59-1.73-5.8,0,0,0,0,0,0,0,0,0,0,0-.01-.27-.34-.5-.55-.75-.66-.73-.34-1.31-.23-1.63.23-.22.31-.23.71-.18,1.06-.04.02-.08.05-.12.08-.15.09-.3.19-.45.29-.11.07-.21.14-.32.22-.15.11-.31.23-.46.35-.07.06-.15.11-.23.17-1.31-3.76-.58-6.12.32-7.47ZM169.18,103.55c.76-.76,1.61-1.38,2.51-1.85.2-.1.39-.2.58-.28.01.02.02.03.03.05.03.06.06.13.09.19.05.1.1.21.15.32.03.08.06.16.1.23.05.12.09.24.14.36.03.09.06.18.09.26.04.13.08.26.12.39.03.09.06.19.08.28.04.14.07.28.1.42.02.1.04.19.06.29.03.15.05.29.08.44.01.09.03.18.04.28.02.16.03.32.04.48,0,.08.02.15.02.23,0,.23,0,.46,0,.67-.93.75-1.73,1.74-2.4,2.97,0,.02-.02.04-.03.07-.59,1.11-.93,2.14-1.09,2.73-.55.06-1.07.11-1.57.16-.07,0-.14.01-.21.02-.18.02-.36.04-.53.06-.18.02-.36.04-.53.06-.04,0-.07,0-.1,0-.84.09-1.58.17-2.18.25.34-1.83,1.42-6.12,4.41-9.08ZM158.08,136.75c-.85.21-2.65,2.16-4.1,3.86-.08-1.16-.08-2.38.13-2.9.12-.3.39-1.3.94-3.35,1.28-4.78,3.67-13.69,5.5-17.73.39-.87,2.29-2.16,2.74-2.4.09-.02.29-.04.74-.1.15-.02.32-.04.5-.06,1.3-.16,3.43-.39,6-.65,4.37-.45,9.09-.88,11.72-1.08.15-.01.29-.02.42-.03.05,0,.1,0,.16,0,.09,0,.18-.01.26-.02.03,0,.06,0,.08,0,.24-.01.45-.02.63-.03l-4.64,22.7c-3.37.13-20.05,1.54-21.08,1.79ZM188.1,140.49c-2.56-1.89-6-4.38-7.56-5.23l4.59-22.46c.28.25.63.56,1.04.94.05.05.1.1.16.15.15.14.31.28.47.44.07.06.13.13.2.19.19.18.39.37.59.57.04.03.07.07.11.1h0c1.99,1.94,2.97,3.06,3.2,3.42-.16,1.75-2.17,17.67-2.8,21.88Z"/>
          </g>
        </g>
        <g>
          <path d="M176.52,95.1c-.93,1.17-1.92,2.23-3.26,2.93-.4.21-.05.82.35.61,1.39-.72,2.44-1.82,3.41-3.04.28-.35-.22-.85-.5-.5h0Z"/>
          <path d="M177.14,96.77c-.66.73-1.37,1.48-2.3,1.84-.42.16-.24.84.19.68,1.06-.41,1.87-1.19,2.61-2.02.3-.34-.19-.84-.5-.5h0Z"/>
          <path d="M177.23,98.62c-.32.38-.7.62-1.16.79-.42.15-.24.83.19.68.57-.2,1.08-.5,1.47-.97.29-.34-.21-.85-.5-.5h0Z"/>
          <path d="M183.44,132.7c1.59.8,3.16,1.64,4.49,2.84.33.3.83-.19.5-.5-1.37-1.25-2.99-2.12-4.64-2.95-.4-.2-.76.4-.35.61h0Z"/>
          <path d="M182.65,133.93c1.4,1.02,2.99,1.71,4.39,2.72.37.27.72-.34.35-.61-1.4-1.02-2.99-1.71-4.39-2.72-.37-.27-.72.34-.35.6h0Z"/>
          <path d="M183.44,136.04c1.02.68,2.04,1.37,3,2.14.35.28.85-.21.5-.5-1-.81-2.07-1.53-3.14-2.25-.38-.25-.73.36-.35.61h0Z"/>
          <path d="M185.37,118.39c1.24.63,2.44,1.34,3.44,2.32.33.32.82-.18.5-.5-1.05-1.01-2.29-1.77-3.58-2.42-.4-.21-.76.4-.35.6h0Z"/>
          <path d="M186.6,117.25c.81.56,1.68,1.02,2.39,1.7.33.31.82-.18.5-.5-.75-.73-1.67-1.22-2.53-1.81-.37-.26-.73.35-.36.61h0Z"/>
          <path d="M185.74,121.06c.79.61,1.57,1.23,2.28,1.93.32.32.82-.18.5-.5-.71-.7-1.5-1.32-2.28-1.93-.35-.27-.85.22-.5.5h0Z"/>
          <path d="M177.83,107.51c.75-.37,1.51-.73,2.19-1.23.36-.26.01-.87-.35-.61-.68.5-1.44.85-2.19,1.23-.41.2-.05.81.35.61h0Z"/>
          <path d="M178.62,108.91c.18-.09.35-.18.53-.26.41-.21.05-.81-.35-.61-.17.09-.35.18-.53.26-.41.2-.05.81.35.61h0Z"/>
          <path d="M165.97,110.1c.78-.07,1.54.07,2.28.34.43.15.61-.52.19-.68-.79-.29-1.62-.44-2.46-.36-.45.04-.45.74,0,.7h0Z"/>
          <path d="M166.5,109.05c.62,0,1.23,0,1.84.16.44.12.62-.56.19-.68-.66-.18-1.34-.19-2.02-.19-.45,0-.45.7,0,.7h0Z"/>
          <path d="M166.85,107.73c.45,0,.89,0,1.31.16.43.16.61-.53.19-.68-.48-.17-.99-.19-1.5-.19-.45,0-.45.7,0,.7h0Z"/>
        </g>
        <path class="cls-1" d="M160.89,147.57c-.45,0-.79-.01-1-.03-2.24-.25-5.79-4.05-6.16-5.04-.07-.18.02-.38.21-.45.18-.07.38.02.45.2.31.83,3.7,4.38,5.58,4.59,2.09.23,19.33-.93,20.69-1.14.19-.03.37.1.4.29.03.19-.1.37-.29.4-1.29.2-15.55,1.18-19.87,1.18Z"/>
        <path class="cls-1" d="M164.84,131.77c-.15,0-.26,0-.31-.05-.03-.02-.05-.04-.08-.06.02-.58,1.54-3.34,3.23-6.37l.29-.52-.52-.29c-1.31-.73-2.09-1.9-2.09-3.12,0-2.15,2.35-3.9,5.23-3.9.22,0,.46.01.74.04.05,0,.1.05.1.11s-.04.11-.1.11c-2.45.26-4.3,1.82-4.3,3.64,0,1.34.99,2.58,2.6,3.23.03.01.05.04.06.06.01.03,0,.06,0,.09-1.5,2.68-3.33,6.03-3.53,6.75v.04s-.02.05-.02.05c0,.05-.05.09-.1.1-.56.06-.97.08-1.21.08Z"/>
      </g>
      <g>
        <path class="cls-1" d="M157.92,266.78c-3.37-3.88-4.38-10.7-3.02-20.26.51-3.59,1.04-7.04,1.56-10.37,2.29-14.84,4.18-27.14,1.48-34.8l73.12-21.1c-.07-.17-.13-.34-.2-.51l-72.98,21.42c-.43-1.17-.96-2.23-1.62-3.17l-21.73,5.29c.55.98,1.27,2.38,1.98,4.15l-19.98,5.86,20.02-5.77c1.78,4.5,3.45,11.32,2.1,19.43-.22,1.29-.5,2.79-.82,4.52-1.43,7.65-3.6,19.22-2.99,29.34.64,10.47,4.18,17.19,10.54,20.01-2.17-2.46-4.91-7.35-3.39-15.43,2.29-12.16,3.52-19.9,3.53-19.98.05-.29.3-.5.58-.5.02,0,.03,0,.05,0,.31.03.55.28.55.59,0,.14.02,14.3,6.43,20.74,2.08,2.08,4.63,3.14,7.59,3.14.26,0,.52,0,.79-.02-1.14-.46-2.43-1.25-3.59-2.58Z"/>
        <path class="cls-1" d="M230.73,162.49l-115.67,33.95,115.51-33.33c.06-.21.11-.42.17-.62Z"/>
        <path class="cls-1" d="M229.11,171.76l-113.38,34.81,113.38-34.25c0-.18,0-.37,0-.57Z"/>
        <path class="cls-1" d="M229.84,166.15l-114.65,32.26,114.32-30.5c.1-.6.21-1.19.33-1.77Z"/>
        <path class="cls-1" d="M229.66,176.02l-113.92,30.67,114.31-29.27c-.14-.46-.28-.93-.39-1.39Z"/>
      </g>
    </g>
  </g>
</svg>