<?xml version="1.0" encoding="UTF-8"?>
<svg id="Layer_2" data-name="Layer 2" xmlns="http://www.w3.org/2000/svg" viewBox="0 0 141.2 246.15">
  <defs>
    <style>
      .cls-1, .cls-2 {
        fill: #fff;
      }

      .cls-2 {
        stroke: #000;
        stroke-linecap: round;
        stroke-linejoin: round;
        stroke-width: 2px;
      }
    </style>
  </defs>
  <g id="OBJECTS">
    <g>
      <g>
        <path class="cls-2" d="M128.47,116.64l-96.78-.7c-26.43,23.06-16.87,65.37-16.87,65.37,0,0-6.71,11.38-11.21,25.44-4.5,14.06-4.64,25.43,11.21,26.8,0,0,1.18,6.31,8.24,7.69,7.06,1.38,12.08-4.04,12.08-4.04,0,0,3.27,8.44,12.23,7.92,8.96-.52,10.34-6.89,10.34-6.89,0,0,4.65,7.92,16.19,5.34,11.54-2.58,12.74-20.84,19.12-28.25,0,0,32.04-3.27,42.03-27.56,9.99-24.29,4.18-57.87-6.58-71.14Z"/>
        <g>
          <g>
            <path d="M58.07,212.23c-2.32.63-5.46-2.07-5.63-4.64-1.49,1.08-3.31,2.24-5.3,1.57-2.07-.66-2.34-2.76-.91-4.31,1.9-2.07,6.21-7.04,8.86-6.71,2.65.33,10.02,12.17,2.98,14.08Z"/>
            <path d="M57.8,211.27c-1.94.47-4.21-1.85-4.37-3.67-.06-.68-.83-1.35-1.5-.86-1.34.97-3.23,2.27-4.91,1.3-1.19-.68-.57-1.93.14-2.71,1.86-2.04,3.78-4.35,6.23-5.7.42-.23.99-.46,1.34-.48.1,0,.38.03.14-.02.02,0,.14.04.15.04.03-.04.13.06,0,0,.08.04.15.08.23.12.08.05.42.29.25.16.17.13.33.28.48.42.34.32.65.67.94,1.04,1.27,1.57,2.39,3.66,2.89,5.72.25,1.05.33,2.05,0,3.02-.04.13-.11.26-.25.5-.09.16-.19.26-.41.47-.32.3-.83.52-1.35.67-1.24.35-.71,2.28.53,1.93,6.44-1.82,2.99-9.88.24-13.42-.65-.83-1.38-1.67-2.29-2.21-1.09-.66-2.31-.43-3.42.08-1.58.73-2.94,1.97-4.18,3.17-1.14,1.1-2.26,2.26-3.28,3.47-1.4,1.66-1.48,4.12.47,5.39,2.35,1.53,5.06.22,7.07-1.22l-1.5-.86c.27,3.14,3.6,6.39,6.9,5.6,1.25-.3.72-2.23-.53-1.93Z"/>
          </g>
          <g>
            <path class="cls-1" d="M55.42,208.59c-.66-2.24-.42-2.98-2.98-2.73-2.73.33-4.55-.99-3.48-3.89,0,0,0-.02,0-.02-1.09,1.09-2.07,2.19-2.74,2.92-1.43,1.55-1.16,3.64.91,4.31,1.99.66,3.81-.5,5.3-1.57.17,2.57,3.31,5.27,5.63,4.64.07-.02.13-.04.19-.07-1.31-.64-2.38-1.94-2.84-3.58Z"/>
            <path d="M56.39,208.32c-.26-.89-.39-1.98-1.01-2.71s-1.6-.84-2.52-.79-2.06.27-2.82-.35c-.04-.03-.15-.15-.21-.25-.09-.13-.13-.25-.17-.46-.02-.11-.02-.39,0-.56.02-.16.06-.32.1-.47.01-.04.15-.45.07-.29.45-.98-.72-2.07-1.57-1.21-1.09,1.1-2.33,2.23-3.21,3.51-.75,1.08-.98,2.55-.33,3.73.72,1.3,2.29,1.93,3.72,1.89,1.69-.05,3.16-.94,4.49-1.9l-1.5-.86c.15,1.71,1.09,3.26,2.43,4.33s3.02,1.77,4.66,1.21c.76-.26,1.05-1.41.24-1.83-1.21-.62-2-1.69-2.38-2.98s-2.29-.71-1.93.53c.52,1.76,1.64,3.33,3.3,4.18l.24-1.83c-1.99.68-4.39-1.73-4.56-3.61-.06-.68-.83-1.35-1.5-.86-.94.67-1.96,1.41-3.13,1.6-.8.13-2.03-.07-2.38-.93-.29-.7.15-1.43.62-1.95.86-.95,1.73-1.9,2.64-2.81l-1.57-1.21c-.51,1.12-.67,2.53-.09,3.65.54,1.05,1.65,1.6,2.77,1.75.65.09,1.26.04,1.9,0,.28-.02.57-.04.85-.01,0,0,.35.07.24.04.19.06.02,0,.05.02.16.13,0-.01.04.04.02.02.13.25.08.15-.04-.09.05.16.07.2.17.52.29,1.06.44,1.58.36,1.23,2.29.71,1.93-.53Z"/>
          </g>
          <g>
            <path d="M73.31,168.84c-9.07,2.77-11.59,21.12-10.73,26.17,1.57,8.45,7.63,13.17,14.77,13.58,6.21.25,12.7-2.15,15.84-8.86,2.71-5.88,3.14-12.01.79-18.05-1.28-3.56-10.65-15.9-20.67-12.83Z"/>
            <path d="M73.04,167.87c-3.18,1-5.49,3.58-7.09,6.4-1.78,3.14-2.89,6.67-3.61,10.19-.61,2.95-1.03,6.03-.9,9.06.16,3.84,1.82,7.72,4.34,10.59,5.61,6.42,16.12,7.23,23.01,2.4,4.33-3.04,6.65-8.13,7.43-13.25.7-4.54.18-9.69-2.18-13.72-1.74-2.97-4.15-5.67-6.83-7.82-3.13-2.52-6.97-4.52-11.09-4.36-1.04.04-2.08.21-3.07.51-1.23.37-.71,2.3.53,1.93,7.04-2.1,13.82,3.72,17.63,9.06.39.55.76,1.11,1.1,1.69.12.21.24.42.35.64.06.12.12.24.18.36.03.06.18.42.07.15.95,2.35,1.51,4.84,1.58,7.38.08,2.72-.4,5.41-1.3,7.97-.78,2.22-1.86,4.34-3.5,6.06-5.24,5.48-15.06,6.1-20.89,1.19-1.47-1.24-2.66-2.74-3.55-4.44-.48-.91-.86-1.86-1.17-2.85-.16-.5-.29-1.02-.41-1.53-.06-.26-.11-.52-.16-.78-.06-.31,0,.09-.02-.13-.27-2.47,0-5.06.37-7.46.51-3.24,1.32-6.5,2.64-9.51,1.17-2.67,2.82-5.46,5.31-7,.6-.37,1.11-.61,1.75-.81,1.22-.38.7-2.32-.53-1.93Z"/>
          </g>
          <g>
            <path class="cls-1" d="M82.62,205.21c-7.14-.41-13.2-5.13-14.77-13.58-.69-4.07.81-16.73,6.15-22.97-.23.05-.46.11-.69.18-9.07,2.77-11.59,21.12-10.73,26.17,1.57,8.45,7.63,13.17,14.77,13.58,4.62.19,9.41-1.1,12.84-4.54-2.4.91-5.01,1.27-7.57,1.17Z"/>
            <path d="M82.62,204.21c-2.88-.18-5.67-1.13-8-2.86s-4.16-4.43-5.11-7.27c-.28-.83-.5-1.67-.66-2.52-.02-.11-.04-.23-.06-.34.04.25,0-.04-.01-.1-.02-.23-.04-.46-.06-.69-.06-1.1-.02-2.21.05-3.32.21-2.92.74-5.83,1.54-8.65.91-3.22,2.2-6.51,4.39-9.09.64-.75.04-1.91-.97-1.67-4.03.95-6.74,4.33-8.48,7.9-1.88,3.86-2.94,8.1-3.49,12.35-.22,1.67-.37,3.36-.34,5.05.03,1.92.43,3.79,1.1,5.59,1.78,4.77,5.43,8.55,10.3,10.17,6.09,2.02,13.48.54,18.08-4,.67-.66,0-2.03-.97-1.67-2.35.88-4.8,1.22-7.3,1.13-1.29-.04-1.29,1.96,0,2,2.66.09,5.34-.27,7.83-1.2l-.97-1.67c-3.79,3.74-9.73,5.09-14.85,3.85-4.43-1.07-7.95-4.11-9.82-8.24-.53-1.16-.89-2.4-1.16-3.64-.05-.23-.09-.46-.13-.69s.03.24,0,0c0-.05-.01-.09-.02-.14-.03-.29-.05-.57-.06-.86-.07-1.5.03-3.01.18-4.49.4-3.78,1.29-7.69,2.78-11.24.78-1.86,1.78-3.71,3.11-5.24s2.83-2.56,4.76-3.02l-.97-1.67c-2.14,2.53-3.53,5.61-4.54,8.75s-1.61,6.33-1.91,9.57c-.24,2.57-.22,5.06.49,7.56.94,3.26,2.73,6.32,5.34,8.52,2.81,2.37,6.29,3.64,9.94,3.87,1.29.08,1.28-1.92,0-2Z"/>
          </g>
          <g>
            <path d="M38,164.93c-9.39-1.38-19.52,14.12-20.9,19.05-2.2,8.3,1.26,15.17,7.53,18.6,5.5,2.88,12.4,3.5,18.11-1.22,4.97-4.15,7.98-9.51,8.44-15.98.37-3.77-2.81-18.93-13.18-20.45Z"/>
            <path d="M38.26,163.97c-3.74-.52-7.22,1.14-10.12,3.38-3.18,2.45-5.82,5.55-8.08,8.85-1.68,2.45-3.4,5.19-4.09,8.11-1.07,4.54-.59,9.44,1.96,13.42s6.6,6.51,11.08,7.58c5.04,1.2,10.2.16,14.25-3.11,3.81-3.07,6.74-7.28,8.08-12,.51-1.81.89-3.77.85-5.66-.02-1.2-.2-2.41-.43-3.59-1.23-6.41-4.56-13.71-10.99-16.29-.81-.33-1.65-.55-2.52-.68-.53-.08-1.08.13-1.23.7-.13.47.16,1.15.7,1.23,6.52,1,10.03,7.57,11.6,13.36.18.66.34,1.33.47,2,.06.29.11.58.16.88.02.15.05.29.07.44.04.3.02.09.05.34.11.96.15,1.89.06,2.85-.4,4.49-2.27,8.74-5.26,12.11-1.61,1.81-3.45,3.46-5.62,4.55-2.01,1-4.25,1.44-6.49,1.38-4.21-.12-8.5-1.93-11.43-4.98s-4.12-6.94-3.88-10.99c.1-1.63.46-3.47,1.05-4.87.48-1.14,1.23-2.5,1.93-3.66,1.85-3.07,4.07-5.94,6.66-8.43,2.36-2.27,5.29-4.51,8.63-4.98.6-.08,1.41-.1,2.01-.02.53.07,1.07-.13,1.23-.7.13-.47-.16-1.16-.7-1.23Z"/>
          </g>
          <g>
            <path class="cls-1" d="M30.84,201.79c-6.27-3.43-9.73-10.29-7.53-18.6,1.12-3.97,7.9-14.77,15.39-18.12-.23-.05-.46-.1-.7-.13-9.39-1.38-19.52,14.12-20.9,19.05-2.2,8.3,1.26,15.17,7.53,18.6,4.1,2.15,8.97,3.03,13.55,1.39-2.56-.2-5.07-1-7.34-2.18Z"/>
            <path d="M31.34,200.93c-2.56-1.42-4.71-3.46-6.08-6.07-1.44-2.73-1.87-5.89-1.48-8.93.31-2.51,1.16-4.43,2.39-6.57,1.45-2.53,3.17-4.93,5.1-7.12,2.24-2.53,4.82-4.89,7.93-6.3.78-.35.56-1.66-.24-1.83-4.19-.89-8.07,1.04-11.27,3.6s-6.11,6.09-8.41,9.68c-.89,1.39-1.72,2.84-2.4,4.35-.82,1.83-1.24,3.74-1.4,5.74-.4,4.91,1.34,9.82,4.91,13.25,4.63,4.44,11.93,6.35,18.05,4.22,1.09-.38.86-1.87-.27-1.96-2.39-.2-4.71-.95-6.83-2.05-1.14-.59-2.15,1.13-1.01,1.73,2.46,1.27,5.08,2.08,7.84,2.32l-.27-1.96c-5.05,1.76-11.05.5-15.17-2.88-3.43-2.81-5.34-6.93-5.31-11.36.01-1.92.31-3.87,1.02-5.66.06-.16.15-.35.29-.65.15-.33.31-.66.48-.98.38-.74.79-1.46,1.22-2.17,2-3.31,4.42-6.41,7.28-9.01s6.73-5.13,10.72-4.28l-.24-1.83c-2.95,1.34-5.49,3.54-7.68,5.89s-4.1,4.93-5.74,7.67c-1.3,2.18-2.39,4.41-2.82,6.93-.6,3.45-.31,6.98,1.11,10.2s4.11,6.01,7.27,7.75c1.13.62,2.14-1.1,1.01-1.73Z"/>
          </g>
        </g>
        <g>
          <path d="M13.83,233.5s-.05-.28-.08-.82c-.04-.54-.05-1.3-.01-2.19.03-.9.15-1.94.3-3.05.09-.55.2-1.12.32-1.7.11-.58.23-1.16.41-1.74.17-.58.33-1.15.49-1.72.16-.57.37-1.11.57-1.63.43-1.04.77-2.03,1.22-2.82.84-1.6,1.5-2.6,1.5-2.6.17-.26.51-.33.77-.16.19.12.28.34.24.55v.04s-.19,1.18-.61,2.85c-.12.41-.2.87-.3,1.36-.1.48-.21.99-.32,1.51-.27,1.03-.43,2.17-.67,3.28-.24,1.11-.4,2.24-.64,3.28-.18,1.05-.4,2.03-.56,2.87-.17.84-.33,1.54-.44,2.02-.12.5-.19.78-.19.78-.13.54-.69.88-1.23.74-.4-.1-.69-.42-.76-.81v-.05Z"/>
          <path d="M34.16,237.26s-.09-.31-.18-.88c-.1-.57-.23-1.4-.3-2.38-.1-.98-.14-2.13-.13-3.36-.02-.62.02-1.25.06-1.9.04-.65.08-1.31.15-1.96.15-1.31.38-2.62.6-3.84.32-1.22.63-2.35.92-3.3.79-1.89,1.42-3.06,1.41-3.06.19-.35.63-.49.98-.3.27.14.41.44.38.72v.11s-.16,1.29-.53,3.08c-.08.94-.21,2.03-.36,3.18-.04.59-.09,1.19-.13,1.81-.04.62-.13,1.23-.15,1.86-.03,1.26-.16,2.51-.2,3.7-.03.59-.06,1.16-.11,1.71-.04.54-.07,1.06-.1,1.53-.08.95-.14,1.74-.2,2.29-.06.56-.1.89-.1.89-.06.56-.57.96-1.12.89-.42-.05-.76-.35-.86-.74v-.04Z"/>
          <path d="M56.62,238.56s-.04-.31-.07-.85c-.03-.54-.08-1.31-.08-2.23,0-.92.03-2,.13-3.15.09-1.15.23-2.38.45-3.6.1-.61.23-1.22.35-1.82.12-.6.3-1.18.44-1.75.15-.56.35-1.1.51-1.61.17-.51.39-.98.56-1.42.17-.44.41-.82.58-1.17.17-.35.35-.64.51-.87.31-.47.49-.73.49-.73.21-.29.6-.35.89-.15.23.16.32.46.24.72l-.02.07s-.09.28-.26.75c-.09.23-.2.51-.29.86-.09.34-.21.72-.31,1.14-.21.85-.42,1.84-.6,2.93-.08.55-.2,1.1-.26,1.68-.08.57-.18,1.15-.23,1.74-.29,2.34-.5,4.71-.68,6.49-.19,1.78-.32,2.96-.32,2.96-.06.55-.57.95-1.12.88-.46-.05-.82-.42-.88-.86v-.02Z"/>
        </g>
        <path d="M107.92,201.94c-15.92,4.62-23.98,11.3-26,23.78-.89,5.49-1.4,10.37-1.69,14.11,6.01-6.41,7.84-18.74,12.8-24.51,0,0,32.04-3.27,42.03-27.56,2.31-5.62,3.77-11.74,4.52-17.99-6.91,17.68-20.26,28.86-31.66,32.16Z"/>
        <path d="M30.67,128.49c-1.91,1.13-3.61,2.53-5.08,4.13-.46-.87-.89-1.75-1.31-2.66-.11-.22-.5-.06-.4.17.41.99.83,1.98,1.28,2.97-.93,1.08-1.74,2.24-2.44,3.47-.47-.89-.77-1.84-.81-2.91-.01-.37-.56-.37-.57,0-.04,1.35.32,2.6.92,3.75-1.03,2-1.77,4.17-2.15,6.45-.09.51.66.74.79.22.48-1.94,1.15-3.82,2-5.61.51.74,1.11,1.44,1.77,2.1-.54,1.15-1.02,2.32-1.42,3.52-.14.44.55.74.75.32.5-1.05.97-2.08,1.45-3.1.34.31.7.61,1.05.89-.3.78-.51,1.59-.58,2.45-.04.46.73.56.8.11.12-.69.29-1.35.51-1.99,1,.75,2.01,1.42,2.93,2.01.39.25.84-.33.5-.64-.88-.82-1.94-1.62-3.02-2.46.33-.79.71-1.56,1.14-2.31.28.37.57.73.88,1.07.28.32.86-.12.59-.46-.35-.46-.68-.94-1.01-1.41.01-.02.02-.03.03-.05.16-.26-.12-.47-.35-.39-.35-.5-.68-1.01-1-1.52.8-1.28,1.71-2.51,2.85-3.66.23-.23-.12-.58-.36-.36-1.08,1-2.06,2.12-2.94,3.31-.5-.81-.98-1.64-1.43-2.48,1.38-1.7,3.01-3.21,4.92-4.44.3-.2.03-.68-.29-.49ZM28.36,138.81c-.52.75-1,1.53-1.41,2.33-.35-.28-.7-.56-1.04-.85.47-.98.97-1.94,1.51-2.88.3.48.61.94.94,1.4ZM26.94,136.61c-.66.95-1.26,1.95-1.8,2.98-.68-.64-1.31-1.31-1.83-2.04.65-1.25,1.41-2.44,2.26-3.55.42.89.88,1.76,1.37,2.61Z"/>
        <g>
          <path d="M131.3,143.08c-3.38,4.54-7.22,8.66-10.76,13.07-.42.53.26,1.26.76.76,4.02-4.05,7.5-8.71,10.76-13.38.33-.47-.43-.89-.76-.45Z"/>
          <path d="M130.31,150.11c-2.33,3.49-4.84,6.87-7.46,10.14-.35.43.24,1.06.62.62,2.87-3.2,5.15-6.79,7.33-10.48.19-.32-.29-.59-.49-.29Z"/>
          <path d="M130.92,156.44c-2.34,2.76-4.43,5.71-6.77,8.47-.41.49.26,1.19.71.71,2.51-2.62,4.42-5.73,6.68-8.56.35-.44-.25-1.06-.62-.62Z"/>
        </g>
        <path class="cls-2" d="M128.47,117.33c0,5.28-21.78,9.56-48.65,9.56s-48.65-4.28-48.65-9.56,21.78-9.56,48.65-9.56,48.65,4.28,48.65,9.56Z"/>
        <path d="M120.6,117.33c0,2.99-12.26,7.03-40.77,7.03-22.52,0-40.77-3.15-40.77-7.03s18.25-7.03,40.77-7.03,40.77,3.15,40.77,7.03Z"/>
        <g>
          <g>
            <path d="M128.14,52.79c-24.39,17.69-40.16,43.45-49.56,71.57.41,0,.82,0,1.24,0,.22,0,.43,0,.65,0,9.28-27.48,24.71-52.73,48.58-70.03.93-.67.03-2.23-.91-1.55Z"/>
            <g>
              <g>
                <path d="M117.97,62.23c11.6-1.37,20.53-12.86,20.75-17.47-4.58-.56-17.43,6.27-20.76,17.47h0Z"/>
                <path d="M117.97,63.23c4.67-.57,8.95-2.59,12.64-5.46,3.04-2.36,5.8-5.32,7.66-8.71.72-1.32,1.36-2.78,1.45-4.3.03-.58-.49-.94-1-1-1.25-.14-2.57.16-3.76.53-1.68.52-3.3,1.28-4.83,2.15-3.76,2.14-7.1,5.08-9.65,8.58-1.53,2.11-2.73,4.45-3.48,6.95-.27.91.72,1.46,1.47,1.13h0c.49-.22.61-.94.36-1.37-.3-.51-.87-.58-1.37-.36h0c.49.38.98.75,1.47,1.13,1.24-4.09,3.79-7.64,6.93-10.49,2.62-2.39,5.77-4.46,9.1-5.61.72-.25,1.45-.45,2.19-.58.06-.01.12-.02.18-.03.29-.05-.2.02.08-.01.15-.02.3-.03.45-.04.28-.01.56,0,.85.03l-1-1c0,.06-.05.45,0,.18-.02.11-.04.21-.06.31-.06.29-.14.57-.23.85-.21.63-.37.98-.69,1.59-.73,1.41-1.64,2.73-2.65,3.95-2.55,3.07-5.71,5.67-9.28,7.46-2.13,1.07-4.46,1.83-6.84,2.12-.54.07-1,.41-1,1,0,.49.46,1.07,1,1Z"/>
              </g>
              <g>
                <path d="M111.59,68.31c7.49,4.8,19.91,2.7,22.99.25-2.26-2.51-13.95-4.87-22.99-.25h0Z"/>
                <path d="M111.09,69.17c3.17,2.01,6.97,2.83,10.69,2.99,3.31.15,6.75-.19,9.92-1.17,1.28-.4,2.53-.9,3.59-1.73.44-.34.33-1.06,0-1.41-.71-.77-1.7-1.23-2.65-1.62-1.29-.53-2.66-.87-4.04-1.11-3.63-.63-7.38-.6-11,.1-2.26.44-4.46,1.18-6.52,2.22-.64.32-.66,1.41,0,1.73h0c1.16.55,2.17-1.17,1.01-1.73h0v1.73c3.27-1.65,6.94-2.41,10.59-2.49,2.94-.07,5.96.25,8.75,1.23.57.2.96.36,1.49.66.21.12.41.25.61.39.09.07-.03-.03-.04-.03.05.04.1.08.15.12.08.07.15.15.23.22v-1.41c.2-.16-.07.04-.11.07-.08.05-.17.11-.25.16-.2.12-.41.23-.62.33-.43.21-.88.38-1.42.56-1.36.45-2.77.75-4.18.94-3.28.46-6.72.41-9.95-.34-1.85-.43-3.62-1.11-5.23-2.13-1.09-.69-2.1,1.04-1.01,1.73Z"/>
              </g>
              <g>
                <path d="M111.59,68.3c-4.46-7.7-1.8-20.01.78-22.97,2.41,2.37,4.24,14.15-.78,22.98h0Z"/>
                <path d="M112.45,67.8c-1.68-2.95-2.26-6.4-2.26-9.76,0-3.08.44-6.21,1.45-9.13.22-.64.42-1.14.72-1.72.12-.23.25-.46.39-.68.07-.11.14-.22.22-.33.13-.19-.06.07.11-.14h-1.41c.05.06.12.11.16.18.14.2-.05-.09.05.06.12.18.23.36.33.54.26.47.35.71.53,1.25.41,1.21.67,2.47.83,3.74.42,3.35.24,6.81-.55,10.09-.5,2.07-1.25,4.05-2.29,5.91l1.57-.2h0c-.91-.91-2.33.5-1.41,1.41h0c.45.45,1.25.36,1.57-.2,1.97-3.5,2.98-7.45,3.25-11.44.22-3.19.02-6.56-.97-9.61-.36-1.11-.83-2.29-1.66-3.14-.36-.36-1.06-.41-1.41,0-1.69,1.98-2.41,4.83-2.88,7.33-.69,3.61-.81,7.35-.15,10.98.38,2.06,1.06,4.06,2.09,5.88.64,1.12,2.37.11,1.73-1.01Z"/>
              </g>
              <g>
                <path d="M104.54,77.26c7.49,4.8,19.91,2.7,22.99.25-2.26-2.51-13.95-4.87-22.99-.25h0Z"/>
                <path d="M104.04,78.13c3.17,2.01,6.97,2.83,10.69,2.99,3.31.15,6.75-.19,9.92-1.17,1.28-.4,2.53-.9,3.59-1.73.44-.34.33-1.06,0-1.41-.71-.77-1.7-1.23-2.65-1.62-1.29-.53-2.66-.87-4.04-1.11-3.63-.63-7.38-.6-11,.1-2.26.44-4.46,1.18-6.52,2.22-.91.46-.45,1.86.5,1.86h0c1.29,0,1.29-2,0-2h0l.5,1.86c3.27-1.65,6.94-2.41,10.59-2.49,2.94-.07,5.96.25,8.75,1.23.57.2.96.36,1.49.66.21.12.41.25.61.39.09.07-.03-.03-.04-.03.05.04.1.08.15.12.08.07.15.15.23.22v-1.41c.2-.16-.07.04-.11.07-.08.05-.17.11-.25.16-.2.12-.41.23-.62.33-.43.21-.88.38-1.42.56-1.36.45-2.77.74-4.18.94-3.28.46-6.72.41-9.95-.34-1.85-.43-3.62-1.11-5.23-2.13-1.09-.69-2.1,1.04-1.01,1.73Z"/>
              </g>
              <g>
                <path d="M104.54,77.26c-6.29-6.3-6.88-18.88-5.14-22.41,2.93,1.67,7.73,12.59,5.14,22.41h0Z"/>
                <path d="M105.25,76.55c-2.4-2.43-3.84-5.63-4.7-8.9-.79-2.99-1.16-6.14-.93-9.22.05-.69.1-1.08.24-1.75.06-.27.12-.54.21-.8.04-.12.08-.23.12-.35.09-.26-.04.06.08-.17l-1.37.36c.07.04.15.09.22.14.16.1,0,0,.05.04.16.14.31.29.46.44.35.38.55.64.83,1.07.71,1.06,1.29,2.22,1.76,3.4,1.25,3.13,1.97,6.49,2.05,9.86.05,2.14-.16,4.26-.7,6.33l1.96.27h0c0-1.29-2-1.29-2,0h0c0,1.12,1.68,1.37,1.96.27,1-3.89.97-7.95.21-11.88-.6-3.13-1.66-6.34-3.39-9.04-.63-.99-1.39-2.01-2.42-2.62-.44-.26-1.13-.13-1.37.36-1.14,2.36-1.09,5.32-.91,7.87.26,3.65,1.1,7.28,2.67,10.6.89,1.89,2.06,3.66,3.54,5.15.91.92,2.32-.5,1.41-1.41Z"/>
              </g>
              <g>
                <path d="M96.26,88.54c7.58,4.66,19.96,2.33,22.99-.18-2.3-2.47-14.03-4.61-22.99.18h0Z"/>
                <path d="M95.76,89.41c3.21,1.94,7.01,2.7,10.72,2.8,3.33.09,6.78-.31,9.95-1.36,1.25-.42,2.5-.94,3.53-1.78.43-.35.34-1.06,0-1.41-.72-.76-1.72-1.21-2.68-1.58-1.29-.5-2.64-.81-4-1.02-3.65-.57-7.41-.48-11.03.28-2.26.48-4.45,1.26-6.49,2.34-.64.34-.66,1.4,0,1.73h0c1.15.57,2.16-1.15,1.01-1.73h0v1.73c3.22-1.7,6.85-2.54,10.48-2.69,2.95-.13,6,.12,8.82,1.05.61.2.98.34,1.53.64.21.11.41.24.61.37s-.05-.07.11.08c.08.07.15.14.23.22v-1.41c-.13.1.11-.07-.08.06-.08.06-.16.11-.25.16-.21.13-.43.26-.66.37-.5.25-.86.4-1.43.59-1.34.46-2.72.78-4.12,1.01-3.26.53-6.7.55-9.93-.14-1.87-.4-3.67-1.04-5.31-2.03-1.1-.67-2.11,1.06-1.01,1.73Z"/>
              </g>
              <g>
                <path d="M96.26,88.54c-7.18-5.25-9.71-17.59-8.54-21.34,3.15,1.2,9.58,11.24,8.54,21.34h0Z"/>
                <path d="M96.77,87.68c-2.72-2.02-4.62-5.02-5.97-8.08-1.22-2.76-2.07-5.84-2.3-8.83-.05-.65-.07-1.3-.03-1.94,0-.16.02-.31.04-.47,0-.06.01-.12.02-.18-.02.14-.01.07,0-.03.04-.24.09-.47.16-.7l-1.23.7c-.24-.1.19.1.28.16s.17.11.26.17c.12.08.13.09.14.1.4.31.76.67,1.1,1.04.87.94,1.59,2.01,2.24,3.11,1.73,2.9,2.92,6.12,3.53,9.44.38,2.1.47,4.24.26,6.36l1-1h0c-1.29,0-1.29,2,0,2h0c.58,0,.95-.46,1-1,.39-3.95-.28-7.98-1.64-11.69-1.11-3.03-2.65-6.01-4.8-8.45-.79-.9-1.7-1.73-2.83-2.17-.51-.2-1.09.23-1.23.7-.75,2.48-.2,5.45.37,7.9.81,3.52,2.21,7.01,4.27,10,1.21,1.75,2.64,3.31,4.36,4.58.43.32,1.12.07,1.37-.36.3-.51.08-1.05-.36-1.37Z"/>
              </g>
              <g>
                <path d="M91.73,96.12c5.84,4.74,16.48,4.14,19.3,2.37-1.66-2.32-11.27-5.4-19.3-2.37h0Z"/>
                <path d="M91.02,96.83c2.5,2,5.56,3.11,8.7,3.61,2.87.45,5.82.5,8.69-.03,1.07-.2,2.19-.49,3.12-1.06.42-.26.69-.93.36-1.37-.72-.98-1.79-1.61-2.88-2.11-1.56-.71-3.21-1.21-4.89-1.53-4.19-.81-8.64-.69-12.66.81-.75.28-1.06,1.4-.24,1.83h0c1.14.6,2.15-1.13,1.01-1.73h0c-.08.61-.16,1.22-.24,1.83,3.63-1.35,7.63-1.54,11.42-.84,1.5.28,3,.67,4.4,1.28.55.24,1.08.51,1.58.84.12.08.23.15.34.24-.13-.1.07.06.09.08.09.08.17.15.25.23.04.04.25.31.09.09l.36-1.37c-.14.09-.29.16-.44.24-.16.08-.03.02-.08.04-.1.04-.2.08-.31.12-.46.16-.93.28-1.4.38-1.11.24-2.23.34-3.37.38-2.81.09-5.66-.25-8.32-1.16-1.48-.51-2.94-1.22-4.17-2.2-.42-.34-1-.41-1.41,0-.35.35-.42,1.08,0,1.41Z"/>
              </g>
              <g>
                <path d="M91.73,96.12c.08-7.52-7-15.49-10.14-16.59-.79,2.74,2.77,12.18,10.14,16.59h0Z"/>
                <path d="M92.73,96.12c0-3.21-1.1-6.32-2.66-9.09-1.38-2.45-3.17-4.78-5.31-6.62-.87-.75-1.81-1.45-2.9-1.85-.51-.18-1.1.21-1.23.7-.53,1.95.29,4.29,1.02,6.08,1.18,2.92,2.88,5.62,5.03,7.93,1.34,1.44,2.87,2.7,4.54,3.71.65.39,1.5-.11,1.5-.86h0c0-1.29-2-1.29-2,0h0c.5-.29,1-.57,1.5-.86-2.62-1.59-4.79-3.83-6.48-6.38-1.37-2.08-2.51-4.38-3.06-6.82-.13-.6-.17-.78-.2-1.34,0-.2,0-.4,0-.6s0-.06,0-.05c.02-.09.04-.18.06-.28l-1.23.7c.25.09,0-.02.15.06.11.06.22.11.33.17.25.14.48.29.72.45.49.34.94.73,1.39,1.15,1.18,1.1,2.23,2.34,3.15,3.66,2.06,2.96,3.69,6.46,3.68,10.13,0,1.29,2,1.29,2,0Z"/>
              </g>
            </g>
          </g>
          <g>
            <path d="M34.9,35.55c20.7,25.16,30.16,56.49,32.4,88.48.59.03,1.2.06,1.8.09-2.24-32.5-11.89-64.27-32.93-89.83-.74-.89-2,.38-1.27,1.27Z"/>
            <g>
              <g>
                <path d="M44.46,47.12c-12-4.69-18.33-19.44-17.29-24.43,5.05.68,16.86,11.55,17.29,24.43h0Z"/>
                <path d="M44.73,46.16c-4.33-1.71-8.01-4.86-10.82-8.53-2.41-3.14-4.39-6.78-5.39-10.63-.11-.42-.2-.84-.28-1.27-.09-.49-.1-.54-.14-.99-.03-.34-.05-.68-.04-1.03,0-.15.02-.31.03-.46,0-.06.04-.3,0-.02.01-.09.03-.18.05-.27l-1.23.7c1.31.19,2.22.7,3.36,1.4,1.5.93,2.87,2.08,4.13,3.31,3.15,3.07,5.77,6.82,7.38,10.93.98,2.5,1.59,5.13,1.7,7.82l1.71-.71h0c-.89-.94-2.3.48-1.41,1.41h0c.58.62,1.74.16,1.71-.71-.19-5.07-2.01-9.96-4.77-14.19-2.34-3.59-5.34-6.9-8.92-9.28-1.29-.86-2.78-1.7-4.34-1.93-.5-.07-1.11.12-1.23.7-.29,1.44-.1,2.93.2,4.35.41,1.9,1.11,3.74,1.92,5.5,1.97,4.25,4.84,8.19,8.39,11.25,2.24,1.93,4.73,3.48,7.47,4.56.5.2,1.1-.22,1.23-.7.16-.57-.19-1.03-.7-1.23Z"/>
              </g>
              <g>
                <path class="cls-1" d="M49.58,55.39c-9.33,3.04-22.01-2.66-24.61-6.13,3.11-2.05,16.24-1.32,24.61,6.13h0Z"/>
                <path d="M49.31,54.43c-3.58,1.14-7.45,1-11.09.22-3.34-.71-6.63-1.9-9.56-3.67-.59-.36-1.25-.79-1.72-1.18-.23-.18-.44-.37-.65-.58-.1-.1-.2-.19-.29-.3-.04-.05-.3-.36-.16-.18l-.36,1.37c.16-.1.33-.19.5-.27.13-.06-.17.07-.03.02.05-.02.1-.04.15-.05.13-.04.26-.09.39-.13.48-.14,1.13-.26,1.45-.3,1.45-.17,2.92-.15,4.38-.03,3.69.31,7.38,1.31,10.72,2.91,2.11,1.01,4.09,2.27,5.85,3.82l.71-1.71h0c-1.29,0-1.29,2,0,2h0c.83,0,1.37-1.12.71-1.71-3.3-2.92-7.31-4.94-11.53-6.14-3.37-.96-7.04-1.53-10.55-1.18-1.26.13-2.65.33-3.74,1.03-.41.27-.7.92-.36,1.37,1.74,2.28,4.61,3.69,7.18,4.78,3.71,1.57,7.7,2.59,11.74,2.7,2.29.07,4.62-.19,6.81-.89,1.22-.39.7-2.32-.53-1.93Z"/>
              </g>
              <g>
                <path class="cls-1" d="M49.58,55.39c6.9-6.97,7.5-20.86,5.56-24.74-3.22,1.86-8.46,13.92-5.56,24.75h0Z"/>
                <path d="M50.29,56.09c2.88-2.94,4.65-6.82,5.68-10.76.92-3.54,1.37-7.33,1.03-10.99-.13-1.43-.36-2.9-1-4.2-.24-.48-.93-.62-1.37-.36-.98.58-1.71,1.52-2.34,2.44-.88,1.29-1.55,2.7-2.14,4.14-1.52,3.71-2.34,7.77-2.42,11.78-.05,2.53.23,5.07.88,7.52.23.87,1.37.94,1.83.24h0c.71-1.08-1.02-2.09-1.73-1.01h0c.61.08,1.22.16,1.83.24-1.03-3.91-1.03-8.04-.29-12,.61-3.21,1.64-6.45,3.35-9.26.35-.57.67-1.05,1.08-1.51.17-.19.34-.37.53-.54.04-.04.09-.08.13-.11.14-.12-.07.05.02-.02s.18-.13.28-.18l-1.37-.36s.06.1.06.13c.02.21-.05-.12,0,0,.04.11.09.22.12.34.09.25.16.51.22.77.15.6.23,1.16.29,1.66.17,1.56.16,3.14.06,4.71-.25,3.66-1.08,7.39-2.64,10.72-.9,1.91-2.03,3.69-3.51,5.2-.9.92.51,2.34,1.41,1.41Z"/>
              </g>
              <g>
                <path d="M56.87,70.8c-9.33,3.04-22.01-2.66-24.61-6.13,3.11-2.05,16.24-1.32,24.61,6.13h0Z"/>
                <path d="M56.6,69.83c-3.58,1.14-7.45,1-11.09.22-3.34-.71-6.63-1.9-9.56-3.67-.59-.36-1.25-.79-1.72-1.17-.23-.18-.44-.37-.65-.58-.1-.1-.2-.19-.29-.3-.04-.05-.3-.36-.16-.18l-.36,1.37c.16-.1.33-.19.5-.27.13-.06-.17.07-.03.02.05-.02.1-.04.15-.05.13-.04.26-.09.39-.13.48-.14,1.13-.26,1.45-.3,1.45-.17,2.92-.15,4.38-.03,3.69.31,7.38,1.31,10.72,2.91,2.11,1.01,4.09,2.27,5.85,3.82l.44-1.67h0c-1.25.32-.72,2.25.53,1.93h0c.7-.18,1.01-1.17.44-1.67-3.3-2.92-7.31-4.93-11.53-6.14-3.37-.96-7.04-1.53-10.55-1.18-1.26.13-2.65.33-3.74,1.03-.41.27-.7.92-.36,1.37,1.74,2.28,4.61,3.68,7.18,4.78,3.71,1.57,7.7,2.58,11.74,2.7,2.29.07,4.62-.19,6.81-.89,1.22-.39.7-2.32-.53-1.93Z"/>
              </g>
              <g>
                <path d="M56.87,70.79c8.46-4.97,12.6-18.24,11.72-22.49-3.6.97-11.75,11.29-11.73,22.49h0Z"/>
                <path d="M57.38,71.66c3.55-2.11,6.26-5.41,8.27-8.97,1.78-3.16,3.17-6.67,3.79-10.25.25-1.44.42-2.94.13-4.39-.1-.53-.74-.84-1.23-.7-1.09.31-2.03,1.02-2.88,1.75-1.19,1.02-2.2,2.22-3.15,3.47-2.42,3.19-4.25,6.9-5.35,10.75-.69,2.43-1.08,4.96-1.08,7.49,0,.88,1.09,1.3,1.71.71h0c.94-.89-.48-2.3-1.41-1.42h0c.57.24,1.14.47,1.71.71,0-4.04,1.06-8.04,2.8-11.67,1.41-2.95,3.24-5.82,5.62-8.09.5-.47.93-.85,1.42-1.18.21-.14.43-.27.66-.39.06-.03.38-.16.16-.08.11-.04.22-.08.33-.11l-1.23-.7s.06.36.04.22.02.2.02.26c.02.26.02.53.02.79-.01.58-.08,1.27-.15,1.71-.25,1.56-.65,3.09-1.16,4.58-1.18,3.47-2.93,6.84-5.29,9.66-1.36,1.62-2.92,3.05-4.74,4.13-1.11.66-.1,2.39,1.01,1.73Z"/>
              </g>
              <g>
                <path class="cls-1" d="M62.36,87.32c-9.39,2.86-21.96-3.07-24.49-6.59,3.14-1.99,16.26-1.01,24.49,6.59h0Z"/>
                <path d="M62.09,86.36c-3.6,1.08-7.47.85-11.1,0-3.33-.77-6.59-2.03-9.49-3.85-.61-.38-1.19-.78-1.69-1.21-.22-.19-.44-.38-.64-.59-.1-.1-.19-.2-.28-.3-.04-.04-.07-.09-.11-.13-.14-.16.09.13-.04-.05l-.36,1.37c.07-.04.15-.08.22-.13.05-.03.1-.05.15-.07.12-.06-.17.07-.04.02.22-.09.45-.16.68-.22.55-.15,1.03-.22,1.46-.26,1.45-.14,2.93-.09,4.38.05,3.68.38,7.36,1.46,10.66,3.12,2.09,1.05,4.05,2.35,5.77,3.94l.2-1.57h0c-1.15.58-.14,2.3,1.01,1.73h0c.56-.28.66-1.16.2-1.57-3.25-2.98-7.22-5.06-11.42-6.35-3.35-1.03-7.01-1.66-10.53-1.37-1.26.1-2.65.29-3.75.97-.42.26-.69.92-.36,1.37,1.69,2.3,4.55,3.78,7.1,4.91,3.68,1.63,7.65,2.72,11.69,2.91,2.29.11,4.62-.11,6.83-.76,1.23-.37.71-2.3-.53-1.93Z"/>
              </g>
              <g>
                <path class="cls-1" d="M62.36,87.32c9.12-3.6,15.27-16.07,15.05-20.41-3.7.4-13.36,9.34-15.06,20.41h0Z"/>
                <path d="M62.63,88.28c3.83-1.53,7.01-4.3,9.55-7.51,2.31-2.92,4.25-6.2,5.45-9.73.45-1.31.84-2.74.79-4.13-.02-.49-.44-1.07-1-1-2.63.32-4.99,2.41-6.82,4.17-2.88,2.79-5.29,6.15-6.97,9.79-1.06,2.29-1.84,4.69-2.23,7.18-.1.63.26,1.27.96,1.27h0c1.29,0,1.29-2,0-2h0l.96,1.27c.64-4.05,2.3-7.83,4.59-11.21,1.82-2.68,4.08-5.25,6.74-7.09.55-.38,1.11-.73,1.72-1.01.14-.07.28-.12.21-.09.11-.04.23-.09.34-.13s.24-.07.36-.1c.08-.02.45-.07.13-.03l-1-1c0,.23,0,.46-.01.68,0,.11-.02.23-.03.34.03-.22-.03.21-.05.28-.11.61-.27,1.21-.45,1.8-.45,1.44-1.06,2.83-1.76,4.17-1.72,3.3-3.97,6.36-6.76,8.83-1.55,1.37-3.31,2.57-5.25,3.34-.5.2-.85.67-.7,1.23.13.48.73.9,1.23.7Z"/>
              </g>
              <g>
                <path d="M65.95,103.03c-7.56,3.43-18.75-.17-21.26-2.85,2.42-2.02,13.53-2.63,21.26,2.84h0Z"/>
                <path d="M65.44,102.17c-2.89,1.29-6.18,1.45-9.29,1.14-2.77-.28-5.62-.97-8.15-2.15-.55-.26-1.1-.54-1.61-.87-.47-.3-.62-.4-1.01-.8v1.41c-.21.17.16-.1.26-.16s.52-.25.36-.18c.44-.18.9-.31,1.35-.41,1.16-.27,2.32-.37,3.53-.4,3.15-.07,6.31.43,9.28,1.46,1.87.65,3.64,1.55,5.27,2.69l.24-1.83h0c-1.25.32-.72,2.25.53,1.93h0c.89-.23.91-1.36.24-1.83-3.04-2.13-6.62-3.44-10.26-4.03-3-.49-6.14-.61-9.13.03-1.1.24-2.2.6-3.08,1.32-.43.35-.34,1.06,0,1.41,1.67,1.74,4.3,2.65,6.55,3.32,3.26.97,6.77,1.44,10.17,1.13,2-.18,3.92-.63,5.76-1.45.49-.22.61-.94.36-1.37-.3-.51-.87-.58-1.37-.36Z"/>
              </g>
              <g>
                <path d="M65.95,103.03c2.01-8.05,11.78-14.59,15.44-14.89.08,3.15-6.35,12.23-15.44,14.89h0Z"/>
                <path d="M66.92,103.29c.78-3.05,2.61-5.73,4.78-7.97,2.01-2.08,4.34-3.9,6.93-5.2.57-.29.98-.47,1.55-.67.24-.08.48-.16.73-.22.11-.03.22-.05.33-.07.24-.05-.13,0,.15-.02l-1-1c0,.1-.05.54,0,.27-.03.19-.08.39-.13.58-.14.5-.26.78-.43,1.15-.53,1.12-1.21,2.17-1.95,3.16-1.87,2.49-4.24,4.66-6.87,6.32-1.66,1.05-3.43,1.89-5.32,2.45l1.27.96h0c0-1.29-2-1.29-2,0h0c0,.64.64,1.15,1.27.97,3.6-1.07,6.86-3.07,9.64-5.57,2.2-1.99,4.25-4.36,5.57-7.03.5-1,.97-2.12.96-3.25,0-.5-.46-1.05-1-1-2.43.23-4.76,1.66-6.72,3.03-2.8,1.96-5.32,4.38-7.23,7.23-1.1,1.64-1.97,3.45-2.46,5.36-.32,1.25,1.61,1.78,1.93.53Z"/>
              </g>
            </g>
            <g>
              <path d="M53.29,63.16c.17,0,.34-.1.41-.31.83-2.53,2.08-4.86,2.85-7.43.69-2.3,1.08-4.67,1.36-7.05.07-.57-.83-.57-.9,0-.3,2.57-.81,5.08-1.55,7.57-.65,2.17-1.73,4.15-2.48,6.28-4.33-.98-8.47-3.33-12.66-4.78-.55-.19-.78.68-.24.87,4.3,1.5,8.55,3.94,13.01,4.87.07.01.14.01.21,0Z"/>
              <path d="M59.72,79.55c.24.14.57.09.63-.25.46-2.63,2.5-5.43,3.65-7.85,1.16-2.44,2.18-4.95,2.88-7.56.15-.56-.71-.8-.87-.24-.82,3.07-2.1,5.94-3.48,8.79-.95,1.97-2.45,4.07-2.96,6.23-.01,0-.02,0-.03,0-4.71-.44-8.89-2.27-12.72-4.99-.47-.34-.92.44-.45.77,3.96,2.83,8.3,4.66,13.17,5.11.06,0,.12,0,.17-.02Z"/>
              <path d="M71.01,82.52c-1.77,4.87-4.82,9.12-6.86,13.87-2.38-.79-4.52-2.38-6.82-3.41-2.51-1.12-5.08-2.07-7.55-3.28-.52-.25-.97.52-.45.77,2.47,1.2,5.03,2.19,7.55,3.28,2.45,1.06,4.63,2.74,7.17,3.55.21.07.37-.01.46-.15.16-.02.32-.1.4-.29,2.04-4.85,5.16-9.15,6.96-14.12.2-.54-.67-.78-.87-.24Z"/>
            </g>
          </g>
        </g>
      </g>
      <g>
        <path d="M74.77,15.38c2.46-.16,4.88-.44,7.29-.65-.39-.44-.75-.92-1.1-1.4-.79-1.07-1.6-2.14-2.48-3.14-.04-.05.02-.11.07-.07.94.8,1.81,1.67,2.67,2.55.47.48.96.96,1.42,1.47.1-3.1.14-6.23.62-9.29.02-.11.2-.11.22,0,.47,3.1.41,6.26.4,9.39,1.39-1.31,3.12-2.46,4.66-3.46.04-.03.1.04.06.08-1.26,1.09-2.37,2.54-3.67,3.68,2.29-.11,4.6-.09,6.96.25.22.03.16.38-.05.38-2.56.02-5.1.23-7.63.41.57.55,1.1,1.17,1.62,1.75.79.87,1.57,1.75,2.29,2.69.03.04-.04.1-.08.06-.83-.83-1.72-1.59-2.62-2.34-.51-.42-1.04-.83-1.53-1.29.03,2.68.06,5.51-.48,8.05-.06.26-.47.26-.53,0-.53-2.5-.43-5.28-.32-7.92-1.42,1.12-3.18,1.94-4.59,3-.04.03-.1-.04-.06-.08,1.28-1.29,2.73-2.71,4.29-3.8-2.46.15-4.92.21-7.41,0-.21-.02-.21-.31,0-.32Z"/>
        <path d="M89.94,4.84c1.41-.07,2.78-.2,4.15-.3-.22-.2-.43-.42-.63-.64-.45-.49-.91-.98-1.41-1.43-.02-.02.01-.05.04-.03.53.37,1.03.76,1.52,1.16.27.22.55.44.81.67.05-1.41.08-2.84.35-4.23,0-.05.11-.05.12,0,.27,1.41.24,2.85.23,4.28.79-.6,1.78-1.12,2.66-1.58.03-.01.06.02.03.03-.72.5-1.35,1.16-2.09,1.68,1.31-.05,2.62-.04,3.97.11.13.01.09.17-.03.17-1.46.01-2.91.11-4.35.19.33.25.62.53.93.8.46.4.9.8,1.31,1.23.02.02-.02.04-.04.03-.48-.38-.98-.72-1.5-1.06-.29-.19-.59-.38-.87-.59.02,1.22.04,2.51-.28,3.67-.03.12-.27.12-.3,0-.3-1.14-.25-2.4-.18-3.6-.81.51-1.81.88-2.62,1.37-.03.02-.06-.02-.03-.04.73-.59,1.56-1.24,2.45-1.73-1.4.07-2.81.1-4.23,0-.12,0-.12-.14,0-.15Z"/>
        <path d="M63.41,33.78c2.37-.84,3.94-3.04,4-5.55.01-.59.91-.59.92,0,.04,2.6,1.44,4.79,4.02,5.48.44.12.47.82,0,.92-2.68.55-3.84,2.91-4.28,5.39-.02.11-.11.15-.2.14-.07,0-.14-.03-.17-.11,0,0,0-.01,0-.02,0,0,0,0,0-.01-.61-2.55-1.34-4.95-4.26-5.46-.44-.08-.35-.67,0-.79Z"/>
        <path d="M105.58,16.27c.08-.54,1.01-.54,1.09,0,0,.03,0,.06.01.09.05.37-.15.73-.56.73s-.61-.37-.56-.73c0-.03,0-.06.01-.09Z"/>
        <path d="M95.18,25.39c.08-.54,1.01-.54,1.09,0,0,.03,0,.06.01.09.05.37-.15.73-.56.73s-.61-.37-.56-.73c0-.03,0-.06.01-.09Z"/>
        <path d="M96.65,16.53c1.22,0,1.22,1.9,0,1.9s-1.22-1.9,0-1.9Z"/>
        <path d="M103.49,24.67c.51,0,.93.42.93.93s-.42.93-.93.93-.93-.42-.93-.93.42-.93.93-.93Z"/>
        <path d="M98.83,20.27s.04.03.05.04c.14.11.14.39,0,.5-.02.02-.04.03-.05.05-.27.22-.71.09-.71-.29s.44-.52.71-.3Z"/>
        <path d="M92.96,23.68s.04.03.05.04c.14.11.14.39,0,.5-.02.02-.04.03-.05.05-.27.22-.71.09-.71-.3s.45-.52.71-.29Z"/>
        <path d="M74.9,40.99s.04.03.05.05c.14.11.14.39,0,.5-.02.01-.04.03-.05.04-.27.22-.71.1-.71-.29s.45-.52.71-.3Z"/>
        <path d="M92.43,25.62c.32-.09.68.08.82.38.03.04.06.08.09.12.22.33.06.8-.26.99-.32.19-.81.09-.99-.26.02.03.05.05.07.08-.05-.06-.09-.12-.13-.18-.08-.15-.11-.28-.12-.45-.03-.31.24-.61.52-.68Z"/>
        <path d="M83.84,37.26c.32-.09.68.08.82.38.03.04.06.08.09.12.22.33.06.8-.26.99-.32.19-.82.09-.99-.26.02.03.04.05.07.08-.05-.06-.09-.12-.14-.18-.07-.15-.1-.28-.12-.45-.03-.31.24-.61.52-.68Z"/>
        <path d="M67.59,8.99c.11-.64,1.1-.46.99.18-.11.64-1.1.46-.99-.18Z"/>
        <path d="M59.78,16.77c-.49-.09-.83-.57-.74-1.07.09-.49.57-.83,1.06-.74.49.09.83.57.74,1.07-.09.49-.57.83-1.07.74Z"/>
        <path d="M67.21,17.55c-.8.29-1.48-.4-1.41-1.18,0,.06,0,.13,0,.19-.04-.72.57-1.33,1.3-1.2.39.07.71.34.85.71.12.34.09.84-.2,1.1-.17.16-.31.29-.54.37Z"/>
        <path d="M76.04,30.89c-.8.29-1.48-.4-1.41-1.18,0,.06,0,.13,0,.19-.04-.72.57-1.33,1.3-1.2.39.07.71.34.85.71.12.34.08.84-.2,1.1-.17.16-.31.29-.54.37Z"/>
        <path d="M59.95,23.32c.13-.71,1.23-.52,1.11.2-.13.71-1.23.52-1.11-.2Z"/>
        <path d="M73.66,18.63c-.16-.38.01-.75.32-.99.29-.23.74-.18,1.01.05,0,0,.02.02.03.02.38.32.38.99-.06,1.26-.44.27-1.07.17-1.29-.34Z"/>
        <path d="M66.12,22.12c-.16-.38.01-.75.32-.99.29-.23.74-.18,1,.05,0,0,.02.02.03.02.38.32.38.99-.06,1.26-.44.27-1.07.18-1.29-.34Z"/>
        <path d="M87.5,41.36c1.03,3.72,5.41,3.2,7.5,2.31,4.86-2.07,2.93-12.33-2.48-11.58-.33.05-.43-.46-.09-.54.28-.07.55-.11.82-.14,4.58-1.29,9.16.27,11.93,4.31,2.43,3.54,1.09,8.55-1.14,11.96-2.29,3.5-6.18,4.51-9.83,3.69-4.4-.99-7.97-6.6-7.31-9.79.09-.43.45-.75.6-.2Z"/>
      </g>
    </g>
  </g>
</svg>