<?xml version="1.0" encoding="UTF-8"?>
<svg id="Layer_2" data-name="Layer 2" xmlns="http://www.w3.org/2000/svg" viewBox="0 0 177.17 193.35">
  <defs>
    <style>
      .cls-1, .cls-2, .cls-3 {
        fill: #fff;
      }

      .cls-2, .cls-3, .cls-4 {
        stroke: #000;
        stroke-linecap: round;
        stroke-linejoin: round;
      }

      .cls-3, .cls-4 {
        stroke-width: 2px;
      }
    </style>
  </defs>
  <g id="OBJECTS">
    <g>
      <g>
        <path class="cls-4" d="M24.1,143.13c-1.48.85-13.58,15.7,2.55,30.55l91.64,18.67,49.22-28-6.58-2.12-1.2-15.99s3.62-1.72,5.38-2.89c.59-.39.73-1.15.49-1.49-.94-1.32-82.52-15.91-86.13-16.34-3.61-.42-46.25,15.49-46.25,15.49,0,0-.64,3.18-2.76,3.39s-6.37-1.27-6.37-1.27Z"/>
        <path class="cls-2" d="M160.93,162.23l-1.2-15.99s3.34-1.58,5.57-2.67c1.1-.54.46-1.82.21-2.17l-51.67,20.18c-11.55,18.68,4.46,30.76,4.46,30.76l49.22-28-6.58-2.12Z"/>
        <path class="cls-3" d="M115.5,163.21c-.71.98-3.59,8.96-2.4,14.68,1.19,5.72,5.25,11.39,5.87,11.12.62-.27,42.71-24.38,42.71-24.38l-1.18-18.25-45,16.83Z"/>
        <g>
          <path d="M117.32,170.13c6.3-3.42,12.99-6.28,19.51-9.27,6.08-2.79,12.9-5.23,18.44-9.01.3-.21.12-.75-.26-.62-6.04,2.08-11.87,5.23-17.61,8.02-6.81,3.32-13.9,6.43-20.16,10.75-.08.05,0,.18.08.13Z"/>
          <path d="M154.83,156.1s0-.09-.04-.06c-12.61,6.03-26.1,11.29-37.91,18.79-.28.18-.1.66.23.55,6.4-2.11,12.47-5.81,18.49-8.8,6.52-3.24,12.86-6.95,19.23-10.47Z"/>
          <path d="M158.22,159.88c-9.9,5.64-20.26,10.52-30.02,16.4-.25.15-.03.52.23.39,10.01-4.89,20.97-9.88,29.95-16.53.15-.11.02-.36-.15-.26Z"/>
          <path d="M125.66,178.18c-2.85,1.03-5.31,2.84-8.05,4.14-.04.02,0,.08.03.07,2.83-1.03,5.54-2.37,8.22-3.72.27-.13.08-.58-.2-.48Z"/>
          <path d="M157.14,165.25c-12.17,4.71-23.73,12.11-34.96,18.66-.17.1-.02.34.15.26,12.03-5.47,23.39-12.15,35.06-18.3.34-.18.1-.76-.26-.62Z"/>
        </g>
        <path class="cls-1" d="M110.73,161.33c-26-5.77-52.05-12.93-78.4-16.89-.19-.03-.28.24-.08.29,12.77,3.28,25.61,6.2,38.46,9.15,13.15,3.02,26.55,6.32,39.96,8.01.63.08.68-.43.06-.56Z"/>
        <g>
          <path class="cls-1" d="M101.91,162.38c-2.87,6.4-6.08,17.22-1.99,23.71.25.4,1.05.29.98-.27-1.02-7.87-1.08-15.65,1.15-23.38.02-.08-.1-.14-.14-.06h0Z"/>
          <path class="cls-1" d="M93.04,160.65c-3.5,7.21-6.09,17.23-1.48,24.54.33.52,1.08.18.96-.4-1.66-8.34-1.63-15.8.79-24.02.05-.16-.2-.27-.28-.12h0Z"/>
          <path class="cls-1" d="M68.73,155.42c-4.28,4.88-8.03,17.31-3.02,22.87.37.4,1.14-.02.94-.55-2.61-6.82-1.73-16.08,2.19-22.24.04-.07-.06-.15-.12-.09h0Z"/>
          <path class="cls-1" d="M60.32,154.92c-3.05,4.66-3.79,9.88-3.53,15.35.14,3.02.56,7.6,3.55,9.15.46.24.98-.25.72-.72-3.74-6.84-3.91-16.62-.35-23.56.13-.26-.23-.47-.39-.23h0Z"/>
          <path class="cls-1" d="M41.87,151.87c-3.39,6.33-6.85,17.18-1.21,23.28.37.4,1-.02.88-.51-.89-3.43-1.94-6.37-2-10-.08-4.31,1.1-8.57,2.79-12.5.13-.3-.29-.57-.45-.27h0Z"/>
          <path class="cls-1" d="M34.9,150.66c-4.45,5.96-4.59,14.65-1.2,21.18.19.36.69.1.62-.26-1.35-7.06-3.11-14.13.9-20.73.13-.21-.18-.38-.32-.19h0Z"/>
        </g>
      </g>
      <g>
        <polygon points="24.97 86.26 24.97 86.26 24.97 86.25 24.97 86.26"/>
        <polygon points="24.96 86.26 24.97 86.26 24.96 86.26 24.96 86.26"/>
        <path d="M35.31,124.04c-5.64-1.33-7.38-5.91-7.83-11.27.02-.4-.3-.59-.61-.56-.31-.02-.61.17-.58.56-.22,4.36-1.12,10.59-6.56,10.98-.62.05-.86,1.07-.16,1.17,5.3.74,6.62,8.37,7.29,12.67.11.71,1.11.46,1.17-.16.5-5.7,1.12-10.54,7.28-12.24.55-.15.58-1.01,0-1.15Z"/>
        <path d="M11.74,120.44c-2.14-.53-2.76-2.21-2.95-4.25.01-.2-.15-.29-.3-.28-.16,0-.31.08-.29.28-.1,1.65-.38,3.94-2.45,4.13-.31.03-.43.52-.08.58,2.02.38,2.47,3.12,2.75,4.81.06.35.56.23.58-.08.2-2.15.42-3.96,2.74-4.62.28-.08.29-.5,0-.57Z"/>
        <path d="M28,94.06c-2.14-.53-2.76-2.21-2.95-4.25.01-.2-.15-.29-.3-.28-.16,0-.31.08-.29.28-.1,1.66-.38,3.94-2.45,4.13-.31.03-.43.52-.08.59,2.02.38,2.47,3.12,2.75,4.8.06.36.56.23.58-.08.2-2.15.42-3.96,2.74-4.62.28-.08.29-.5,0-.57Z"/>
        <path d="M19.15,135.75c-1.13,0-1.13,1.76,0,1.76s1.13-1.76,0-1.76Z"/>
        <path d="M1.08,113.32c-1.44,0-1.44,2.23,0,2.23s1.44-2.23,0-2.23Z"/>
        <path d="M13.01,107.6c-.97,0-.97,1.5,0,1.5s.97-1.5,0-1.5Z"/>
        <path d="M31.99,108.41s-.05-.03-.08-.04c-.38-.19-.75-.05-.94.24-.27.3-.27.8.02,1.09.39.39,1.22.25,1.33-.35,0-.03,0-.06.02-.09.06-.32-.03-.69-.35-.85Z"/>
      </g>
      <g>
        <g>
          <path class="cls-1" d="M136.22,143.88c-.66.77-1.41,1.27-2.19,1.76-.78.47-1.59.89-2.42,1.25-.82.39-1.67.67-2.51.99-.85.29-1.71.54-2.57.81l-2.6.67c-.87.21-1.75.37-2.62.56-.87.2-1.76.34-2.64.48-.88.14-1.76.3-2.65.42-1.77.2-3.54.46-5.32.59-1.78.13-3.55.33-5.33.4-1.78.08-3.56.21-5.34.24l-5.34.12-5.33-.03c-1.77,0-3.57-.12-5.35-.18-1.79-.04-3.56-.23-5.34-.34-1.78-.11-3.55-.36-5.33-.53-.89-.11-1.77-.25-2.66-.38-.89-.12-1.77-.25-2.65-.44-.88-.18-1.77-.32-2.65-.52l-2.63-.63c-.87-.26-1.74-.5-2.61-.78-.86-.32-1.73-.58-2.57-.97-.85-.35-1.69-.76-2.51-1.23-.41-.24-.81-.48-1.21-.79-.2-.13-.4-.29-.59-.47-.1-.09-.19-.16-.29-.27-.1-.11-.18-.18-.33-.38l-.02-.03s-.05-.09-.07-.13l-.71-1.82c-.12-.31-.25-.6-.31-.93l-.23-.96-.21-.96c-.04-.32-.07-.65-.1-.98l-.08-.98c-.04-.32.01-.66.02-.98l.05-.98c0-.33.08-.65.14-.97l.18-.96c.05-.32.18-.62.27-.93l.31-.92.4-.88c.13-.29.27-.58.44-.85l.5-.81c.09-.16.3-.2.45-.11.13.08.19.23.14.38v.04c-.19.59-.43,1.14-.55,1.73l-.23.87-.15.88c-.04.29-.12.58-.13.87l-.06.88c-.01.29-.06.58-.03.88l.04.88c.02.29,0,.58.06.87l.14.86c.04.29.08.57.13.86l.24.84.23.84c.06.29.19.55.29.82l.67,1.62-.09-.16s.07.07.12.12c.05.05.12.12.19.18.13.12.28.24.45.36.31.24.66.45,1.01.67.72.41,1.47.79,2.26,1.12.77.36,1.6.62,2.4.92.82.27,1.66.5,2.49.75l2.54.62c.85.2,1.71.34,2.57.52.86.18,1.72.31,2.59.44.87.13,1.73.27,2.6.38,1.75.18,3.49.43,5.25.55s3.51.31,5.27.36c1.76.07,3.51.19,5.28.21l5.3.12,5.3-.03c1.77,0,3.53-.1,5.29-.15,1.77-.03,3.52-.21,5.28-.3,1.76-.1,3.51-.33,5.26-.49.87-.1,1.74-.23,2.62-.34.87-.11,1.75-.23,2.61-.39.86-.16,1.73-.29,2.59-.48l2.57-.58c.84-.24,1.69-.46,2.53-.72.82-.29,1.67-.54,2.46-.89.81-.31,1.6-.69,2.35-1.1.74-.41,1.49-.91,2.01-1.47l.04-.04c.15-.16.41-.17.58-.02.16.15.17.4.03.56Z"/>
          <path class="cls-4" d="M136.8,127.78c1.55,2.95,2.95,8.08,0,14.3,0,0-5.44,7.62-41.2,7.62s-41.2-7.62-41.2-7.62c-2.95-6.22-1.55-11.35,0-14.3h82.39Z"/>
          <path class="cls-3" d="M136.8,127.78c0,2.75-18.45,6.17-41.2,6.17s-41.2-3.42-41.2-6.17,18.44-4.97,41.2-4.97,41.2,2.23,41.2,4.97Z"/>
          <g>
            <path class="cls-1" d="M135.15,133.8c-11.83,4.39-24.11,5.61-36.65,5.25-.61-.02-.55.87.03.93,12.68,1.26,25.07-.7,36.78-5.67.31-.13.17-.63-.15-.51Z"/>
            <path class="cls-1" d="M132.19,139.55c.35-.14.19-.7-.17-.57-8.3,2.9-16.92,3.8-25.62,4.69-.59.06-.58.95.02.93,8.85-.29,17.49-1.81,25.76-5.04Z"/>
            <path class="cls-1" d="M132.47,142.71c-9.05,2.96-18.46,3.16-27.86,3.81-.59.04-.57.93.03.93,9.53-.14,19.04-.73,27.91-4.48.15-.06.09-.31-.08-.25Z"/>
          </g>
        </g>
        <g>
          <path class="cls-4" d="M130.97,116.13c1.32,2.08,2.51,5.69,0,10.06,0,0-4.62,5.36-34.95,5.36s-34.95-5.36-34.95-5.36c-2.51-4.38-1.32-7.99,0-10.06h69.9Z"/>
          <ellipse class="cls-3" cx="96.02" cy="116.13" rx="34.95" ry="3.5"/>
          <g>
            <path class="cls-1" d="M130.31,119.75c-5.54,2.17-11.32,3.21-17.18,4.06-.67.1-.51,1.22.16,1.17,6.1-.44,11.81-1.86,17.25-4.69.3-.15.09-.67-.23-.54Z"/>
            <path class="cls-1" d="M127.8,123.12c-4.6,2.32-9.57,3.35-14.67,3.91-.58.06-.6.98,0,.93,5.34-.45,10.23-1.76,14.87-4.49.22-.13.03-.46-.2-.34Z"/>
          </g>
        </g>
        <path class="cls-3" d="M157.4,58.95c0,26-18.53,48.01-44.06,55.35-5.89,1.69-30.18,1.86-35.56.47-26.42-6.82-45.8-29.23-45.8-55.82C31.99,26.95,60.06,1,94.69,1s62.71,25.95,62.71,57.95Z"/>
        <path d="M93.08,112.23c-6.73,0-12.36-.33-14.36-.84-25.38-6.55-43.12-28.12-43.12-52.45,0-30.03,26.51-54.46,59.09-54.46s59.08,24.43,59.08,54.46c0,23.97-16.67,44.87-41.47,52-2.65.76-10.56,1.29-19.22,1.29Z"/>
        <path class="cls-1" d="M133.38,22.69c3.91,2.13,6.89,4.87,9.29,8.04-1.15,2.76-2.72,5.31-4.55,7.7-3.14-3.66-6.68-7.02-10.34-10.08,2.07-1.76,3.96-3.64,5.6-5.66ZM131.6,44.99c-3.06-4.37-7.29-7.73-11.37-11.13,2.39-1.52,4.73-3.17,6.92-4.97,3.6,3.41,6.91,7.04,9.89,10.92-1.61,1.95-3.37,3.79-5.2,5.55-.08-.12-.16-.25-.24-.37ZM138.03,60.12c-1.03-4.82-2.74-9.33-5.34-13.49,1.87-1.77,3.62-3.69,5.19-5.72,2.86,3.84,5.38,7.92,7.54,12.26-2.14,2.23-4.69,4.78-7.39,6.95ZM138.97,39.43c1.75-2.48,3.22-5.13,4.27-7.95,3.24,4.52,6.33,9.62,7.44,15.47-1.21,1.64-2.49,3.22-3.88,4.75-1.99-4.39-4.69-8.49-7.82-12.27Z"/>
        <g>
          <g>
            <path class="cls-1" d="M93.1,24.9c-1.3-1-2.65-1.98-4.04-2.91.87-.28,1.73-.59,2.56-.87.2-.07.14-.33-.06-.32-.87.07-1.79.17-2.7.31.82-1.45,1.6-2.92,2.38-4.35.1-.18-.14-.35-.27-.18-.98,1.28-1.94,2.61-2.86,3.96-.23-.87-.48-1.71-.75-2.52-.07-.2-.33-.14-.32.06.07.88.12,1.79.21,2.71-1.42-.89-2.87-1.73-4.34-2.48-.34-.18-.63.26-.33.5,1.23,1.01,2.56,1.91,3.93,2.75-.86.21-1.7.47-2.48.81-.27.12-.18.57.12.57.86,0,1.74-.14,2.61-.33-.85,1.36-1.64,2.74-2.36,4.15-.18.35.25.63.5.33.99-1.2,1.87-2.5,2.69-3.83.16.84.38,1.66.7,2.42.12.28.57.18.57-.12,0-.9-.1-1.84-.26-2.77,1.44.81,2.9,1.59,4.32,2.37.18.1.35-.14.18-.27Z"/>
            <path class="cls-1" d="M74.01,19.07c-.83-.64-1.7-1.26-2.58-1.86.56-.18,1.11-.38,1.64-.55.12-.04.09-.21-.04-.2-.56.05-1.14.11-1.72.2.52-.92,1.02-1.86,1.52-2.78.07-.12-.09-.22-.17-.11-.63.82-1.24,1.66-1.83,2.53-.14-.55-.31-1.09-.48-1.61-.04-.13-.21-.09-.2.04.04.56.08,1.14.13,1.73-.9-.57-1.83-1.1-2.77-1.58-.22-.11-.4.16-.21.32.79.64,1.63,1.22,2.51,1.75-.55.13-1.08.3-1.58.51-.18.08-.12.37.07.36.55,0,1.11-.09,1.67-.21-.54.87-1.05,1.75-1.51,2.65-.11.22.16.4.32.21.63-.77,1.19-1.59,1.71-2.45.1.53.24,1.05.45,1.54.07.18.37.12.36-.08,0-.58-.06-1.17-.16-1.77.92.52,1.85,1.01,2.76,1.51.12.06.22-.09.11-.17Z"/>
            <path class="cls-1" d="M109.45,64.29c-1.36-1.04-2.76-2.05-4.2-3.02.91-.29,1.8-.61,2.66-.9.2-.07.15-.35-.07-.33-.91.08-1.86.18-2.8.32.85-1.5,1.66-3.03,2.47-4.51.1-.19-.15-.36-.28-.19-1.02,1.33-2.02,2.7-2.97,4.12-.23-.9-.5-1.78-.78-2.62-.07-.21-.35-.15-.33.07.07.91.13,1.86.22,2.82-1.47-.93-2.98-1.79-4.51-2.57-.36-.18-.66.27-.34.52,1.28,1.05,2.66,1.98,4.08,2.85-.89.22-1.76.49-2.57.84-.29.12-.19.6.12.59.89,0,1.8-.14,2.71-.34-.88,1.41-1.7,2.85-2.45,4.31-.18.36.27.66.52.35,1.02-1.25,1.94-2.59,2.79-3.98.17.87.39,1.72.73,2.51.12.29.59.19.59-.12,0-.94-.1-1.91-.27-2.87,1.49.84,3.01,1.64,4.49,2.46.19.11.36-.15.19-.28Z"/>
            <path class="cls-1" d="M104.5,76.77c-1.03-.79-2.1-1.56-3.2-2.3.69-.22,1.37-.47,2.03-.69.16-.05.11-.26-.05-.25-.69.06-1.41.13-2.13.24.65-1.14,1.26-2.3,1.88-3.44.08-.14-.11-.27-.21-.14-.78,1.01-1.54,2.06-2.26,3.13-.18-.68-.38-1.36-.59-1.99-.05-.16-.26-.11-.25.05.05.69.1,1.42.17,2.14-1.12-.7-2.27-1.37-3.43-1.96-.27-.14-.5.2-.26.4.97.8,2.02,1.51,3.11,2.17-.68.17-1.34.38-1.96.64-.21.09-.14.45.09.45.68,0,1.37-.11,2.06-.26-.67,1.07-1.3,2.17-1.87,3.28-.14.27.2.5.4.26.78-.95,1.47-1.97,2.12-3.03.13.66.3,1.31.55,1.91.09.22.45.14.45-.09,0-.71-.08-1.45-.2-2.19,1.14.64,2.29,1.25,3.42,1.87.14.08.27-.11.14-.21Z"/>
            <path class="cls-1" d="M71.21,70.44c-1.03-.79-2.1-1.57-3.19-2.3.69-.22,1.37-.46,2.03-.69.16-.05.12-.27-.05-.25-.69.06-1.41.13-2.14.25.65-1.15,1.26-2.31,1.88-3.44.08-.14-.11-.27-.21-.14-.78,1.01-1.54,2.06-2.26,3.13-.18-.69-.38-1.36-.59-1.99-.05-.16-.26-.11-.25.05.05.69.1,1.42.17,2.15-1.12-.71-2.27-1.37-3.43-1.96-.27-.14-.5.2-.26.39.97.8,2.02,1.51,3.11,2.17-.68.17-1.34.38-1.96.64-.21.09-.14.45.09.45.68,0,1.37-.11,2.06-.26-.67,1.07-1.3,2.17-1.87,3.28-.14.28.2.5.4.26.78-.95,1.47-1.97,2.12-3.03.13.66.3,1.31.55,1.91.09.22.45.14.45-.09,0-.72-.08-1.45-.2-2.19,1.14.64,2.29,1.25,3.42,1.87.14.08.27-.11.14-.21Z"/>
            <path class="cls-1" d="M53.23,57.08c-.75-.57-1.52-1.13-2.31-1.66.5-.16.99-.34,1.46-.5.11-.04.08-.19-.04-.18-.5.04-1.02.1-1.54.18.47-.83.91-1.67,1.36-2.48.06-.11-.08-.2-.15-.1-.56.73-1.11,1.49-1.63,2.27-.13-.5-.28-.98-.43-1.44-.04-.11-.19-.08-.18.04.04.5.07,1.03.12,1.55-.81-.51-1.64-.99-2.48-1.42-.2-.1-.36.15-.19.29.7.58,1.46,1.09,2.25,1.57-.49.12-.97.27-1.41.46-.16.07-.11.33.07.33.49,0,.99-.08,1.49-.19-.48.78-.94,1.57-1.35,2.37-.1.2.15.36.29.19.56-.69,1.06-1.43,1.54-2.19.09.48.22.95.4,1.38.07.16.33.11.33-.07,0-.52-.05-1.05-.15-1.58.82.46,1.65.9,2.47,1.35.1.06.2-.08.1-.15Z"/>
            <path class="cls-1" d="M140.7,70c-.75-.57-1.52-1.13-2.31-1.66.5-.16.99-.34,1.46-.5.11-.04.08-.19-.04-.18-.5.04-1.02.1-1.54.18.47-.83.91-1.67,1.36-2.49.06-.1-.08-.2-.15-.1-.56.73-1.11,1.49-1.63,2.26-.13-.5-.28-.98-.43-1.44-.04-.12-.19-.08-.18.04.04.5.07,1.02.12,1.55-.81-.51-1.64-.99-2.48-1.42-.2-.1-.36.15-.19.29.7.58,1.46,1.09,2.25,1.57-.49.12-.97.27-1.42.46-.16.07-.1.33.07.33.49,0,.99-.08,1.49-.19-.48.78-.94,1.57-1.35,2.37-.1.2.15.36.29.19.56-.69,1.06-1.43,1.54-2.19.09.48.22.95.4,1.38.07.16.33.1.33-.07,0-.52-.05-1.05-.15-1.58.82.46,1.65.9,2.47,1.35.1.06.2-.08.1-.16Z"/>
            <path class="cls-1" d="M113.53,106.17c-.75-.57-1.52-1.13-2.31-1.66.5-.16.99-.34,1.46-.5.11-.04.08-.19-.04-.18-.5.04-1.02.1-1.54.18.47-.83.91-1.67,1.36-2.49.06-.1-.08-.2-.15-.1-.56.73-1.11,1.49-1.64,2.27-.13-.5-.28-.98-.43-1.44-.04-.11-.19-.08-.18.04.04.5.07,1.02.12,1.55-.81-.51-1.64-.99-2.48-1.42-.2-.1-.36.15-.19.29.7.57,1.46,1.09,2.24,1.57-.49.12-.97.27-1.41.46-.16.07-.11.33.07.33.49,0,.99-.08,1.49-.19-.48.78-.94,1.57-1.35,2.37-.1.2.15.36.29.19.56-.69,1.07-1.42,1.54-2.19.09.48.22.95.4,1.38.06.16.32.1.32-.07,0-.52-.06-1.05-.15-1.58.82.46,1.65.91,2.47,1.35.1.06.2-.08.1-.15Z"/>
          </g>
          <g>
            <path class="cls-1" d="M81.23,20.73c-.42-.13-.65-.55-.53-.97h0c.12-.41.55-.65.97-.52h0c.41.12.64.55.53.96h0c-.11.37-.47.6-.83.55h0s-.09,0-.13-.02ZM77.5,19.63c-.42-.12-.65-.55-.53-.96h0c.13-.42.55-.65.97-.53h0c.41.12.65.55.52.97h0c-.11.36-.46.6-.83.55h0s-.08-.02-.13-.03ZM73.76,18.53c-.41-.12-.65-.55-.52-.97h0c.12-.41.55-.64.96-.53h0c.42.12.65.55.53.97h0c-.11.36-.47.59-.84.55h0s-.08-.01-.13-.02Z"/>
            <path class="cls-1" d="M100.66,56.4c-.14-.41.07-.85.48-.99h0c.41-.14.85.08.99.49h0c.13.41-.08.84-.49.99h0c-.11.04-.23.04-.34.03h0c-.29-.03-.54-.23-.64-.52ZM99.41,52.71c-.14-.41.07-.85.48-.99h0c.41-.14.85.08.99.49h0c.13.41-.08.84-.49.99h0c-.11.03-.22.04-.34.03h0c-.29-.03-.55-.23-.65-.52ZM98.15,49.03c-.14-.41.08-.84.49-.99h0c.41-.14.84.08.98.49h0c.13.41-.08.84-.49.98h0c-.11.04-.22.05-.34.04h0c-.29-.03-.55-.24-.65-.53ZM96.9,45.35c-.13-.41.08-.85.49-.99h0c.41-.13.85.08.99.49h0c.13.41-.08.85-.49.99h0c-.11.04-.23.05-.33.04h0c-.29-.03-.55-.24-.65-.53ZM95.64,41.66c-.13-.41.08-.85.49-.99h0c.41-.14.84.08.99.49h0c.14.41-.08.84-.49.99h0c-.11.04-.22.05-.33.04h0c-.29-.04-.55-.23-.65-.53ZM94.39,37.98c-.13-.4.08-.84.49-.99h0c.41-.13.85.08.99.49h0c.14.41-.08.84-.48.99h0c-.12.04-.23.05-.34.04h0c-.29-.03-.55-.23-.65-.53ZM93.13,34.3c-.13-.41.08-.85.49-.99h0c.41-.13.85.08.98.49h0c.14.41-.07.85-.48.99h0c-.11.04-.23.05-.34.04h0c-.29-.03-.55-.23-.65-.52ZM91.88,30.62c-.13-.41.08-.85.49-.99h0c.41-.13.85.08.99.49h0c.14.41-.07.85-.48.99h0c-.12.04-.23.05-.34.04h0c-.29-.03-.55-.23-.65-.52ZM90.63,26.93c-.14-.41.07-.85.48-.99h0c.41-.14.85.07.99.48h0c.14.41-.08.85-.48.99h0c-.11.04-.23.05-.34.04h0c-.29-.03-.55-.23-.65-.52Z"/>
            <path class="cls-1" d="M132.35,67.99c-.42-.09-.69-.5-.6-.92h0c.09-.42.5-.69.92-.6h0c.42.09.69.49.6.91h0c-.08.4-.45.66-.85.62h0s-.05,0-.08,0ZM128.55,67.19c-.42-.09-.69-.49-.6-.91h0c.09-.42.5-.7.92-.61h0c.42.09.69.5.6.92h0c-.09.4-.45.66-.85.62h0s-.05,0-.08-.02ZM124.74,66.39c-.42-.09-.7-.49-.61-.92h0c.09-.43.5-.69.92-.61h0c.42.09.7.5.61.92h0c-.08.4-.46.66-.85.61h0s-.05,0-.07-.02ZM120.93,65.59c-.42-.09-.7-.49-.61-.92h0c.09-.42.5-.69.92-.6h0c.42.09.7.5.61.92h0c-.08.4-.46.66-.85.62h0s-.04,0-.07-.02ZM117.12,64.8c-.42-.09-.69-.5-.61-.92h0c.1-.42.5-.69.92-.6h0c.42.09.69.5.61.92h0c-.09.4-.46.66-.85.62h0s-.05,0-.07-.02ZM113.31,64c-.42-.09-.69-.5-.6-.92h0c.09-.42.49-.69.92-.6h0c.42.09.69.5.6.92h0c-.08.4-.46.65-.85.61h0s-.05,0-.07,0ZM109.5,63.21c-.42-.09-.69-.5-.6-.92h0c.09-.42.5-.69.92-.6h0c.42.09.69.5.6.92h0c-.08.39-.45.65-.85.61h0s-.05,0-.07,0Z"/>
            <path class="cls-1" d="M105,97.87c-.13-.41.1-.84.5-.98h0c.41-.13.85.1.98.5h0c.13.41-.1.85-.5.98h0c-.11.04-.22.04-.32.03h0c-.29-.03-.56-.24-.65-.54ZM103.82,94.16c-.12-.41.11-.85.51-.98h0c.41-.13.85.1.98.51h0c.13.41-.1.85-.5.98h0c-.12.03-.22.04-.33.03h0c-.29-.04-.56-.24-.66-.54ZM102.65,90.45c-.12-.41.1-.84.51-.98h0c.41-.13.84.1.97.51h0c.13.41-.1.84-.5.98h0c-.12.03-.22.04-.32.03h0c-.3-.04-.56-.24-.66-.54ZM101.48,86.74c-.12-.41.1-.85.51-.98h0c.41-.13.84.1.98.5h0c.12.41-.1.85-.51.98h0c-.11.04-.22.04-.32.03h0c-.3-.03-.56-.24-.66-.54ZM100.3,83.03c-.12-.4.1-.84.51-.97h0c.41-.13.84.1.98.51h0c.12.4-.1.84-.51.97h0c-.11.04-.22.05-.32.04h0c-.3-.04-.56-.24-.66-.55ZM99.13,79.32c-.12-.41.1-.85.51-.97h0c.41-.13.84.1.98.5h0c.12.41-.1.85-.51.97h0c-.11.04-.22.05-.32.04h0c-.29-.04-.55-.24-.65-.54Z"/>
            <path class="cls-1" d="M93.61,73.95c-.43-.08-.7-.49-.62-.91h0c.07-.42.48-.71.9-.62h0c.42.08.7.49.62.91h0c-.08.41-.45.68-.86.63h0s-.03,0-.05,0ZM89.78,73.23c-.42-.08-.7-.48-.62-.9h0c.08-.42.48-.71.91-.62h0c.42.08.7.48.62.9h0c-.08.4-.46.68-.86.64h0s-.04-.01-.05-.01ZM85.95,72.53c-.42-.08-.7-.49-.62-.91h0c.08-.42.49-.7.91-.62h0c.42.08.7.49.62.91h0c-.08.41-.45.68-.86.63h0s-.04,0-.05,0ZM82.13,71.82c-.42-.08-.71-.48-.62-.91h0c.08-.42.49-.7.91-.62h0c.42.07.71.48.62.9h0c-.08.41-.45.68-.86.63h0s-.03,0-.05,0ZM78.3,71.11c-.42-.08-.7-.49-.62-.91h0c.08-.42.49-.71.91-.62h0c.42.08.71.49.62.91h0c-.08.41-.45.68-.86.63h0s-.04,0-.05,0ZM74.47,70.4c-.42-.08-.7-.49-.62-.91h0c.08-.42.48-.7.9-.62h0c.42.08.7.49.62.91h0c-.08.41-.45.68-.85.63h0s-.04,0-.06,0ZM70.65,69.69c-.42-.07-.7-.48-.62-.9h0c.08-.43.48-.71.91-.62h0c.42.08.7.48.62.9h0c-.07.41-.45.69-.85.64h0s-.04,0-.05-.01Z"/>
            <path class="cls-1" d="M58.61,63.12c-.35-.26-.42-.75-.16-1.08h0c.26-.35.75-.42,1.09-.16h0c.35.26.42.75.16,1.09h0c-.17.23-.44.33-.71.3h0c-.13-.02-.26-.06-.37-.15ZM55.5,60.78c-.35-.26-.41-.75-.15-1.09h0c.26-.35.74-.42,1.09-.16h0c.34.26.41.75.15,1.09h0c-.17.23-.45.33-.71.3h0c-.14-.02-.27-.06-.38-.15ZM52.39,58.44c-.34-.26-.41-.75-.15-1.09h0c.26-.35.74-.41,1.09-.15h0c.34.26.41.74.15,1.09h0c-.17.22-.44.33-.71.3h0c-.13-.02-.27-.07-.38-.15Z"/>
            <path class="cls-1" d="M101.19,71.09c-.41-.12-.64-.57-.51-.97h0c.13-.42.57-.64.98-.51h0c.41.13.63.57.5.98h0c-.11.36-.46.57-.83.53h0s-.1,0-.14-.03ZM102.38,67.39c-.41-.13-.63-.57-.5-.97h0c.13-.42.57-.64.98-.51h0c.41.13.63.57.5.98h0c-.12.36-.46.57-.83.53h0s-.1,0-.15-.03Z"/>
          </g>
        </g>
      </g>
      <g>
        <path d="M163.63,23.34c4.33-1.05,5.63-4.52,5.99-8.63-.02-.3.22-.44.46-.42.23-.01.46.13.43.42.18,3.28,1.12,8.15,4.87,8.28,0,0,0,0,0,0,.05-.01.1,0,.16,0,0,0,0-.01,0-.02h0s.05.01.08.02c.03,0,.05,0,.08.02.07.02.13.04.18.08.01,0,.03.02.04.03.04.03.07.07.09.11.07.09.12.21.12.34h0c0,.16-.06.29-.14.38-.01.01-.02.03-.03.04-.01.01-.03.02-.04.03-.06.06-.14.09-.23.11,0,0,0,0,0-.01,0,0-.01,0-.02,0,0,0,0,0,.02.01-.05.01-.09.03-.15.03h0c-3.86.23-4.95,6.29-5.47,9.54-.08.53-.83.34-.87-.12-.39-4.36-.85-8.04-5.57-9.37-.42-.12-.44-.75,0-.86Z"/>
        <path d="M156.45,35.05c2.14-.53,2.76-2.21,2.95-4.25-.01-.2.15-.29.3-.28.16,0,.31.08.29.28.1,1.66.38,3.94,2.45,4.13.31.03.43.52.08.58-2.02.38-2.47,3.12-2.75,4.81-.06.35-.56.23-.58-.08-.2-2.15-.42-3.95-2.74-4.62-.28-.08-.29-.5,0-.57Z"/>
        <path d="M175.91,34.23c1.67,0,1.67,2.59,0,2.59s-1.67-2.59,0-2.59Z"/>
        <path d="M164.28,34.78c.97,0,.97,1.5,0,1.5s-.97-1.5,0-1.5Z"/>
        <path d="M166.02,42.44c1.35,0,1.35,2.09,0,2.09s-1.35-2.09,0-2.09Z"/>
        <path d="M176.14,16.99c1.03,0,1.03,1.59,0,1.59s-1.02-1.59,0-1.59Z"/>
        <path d="M163.31,11.62c1.29,0,1.29,2.01,0,2.01s-1.29-2.01,0-2.01Z"/>
      </g>
    </g>
  </g>
</svg>