<?xml version="1.0" encoding="UTF-8"?>
<svg id="Layer_2" data-name="Layer 2" xmlns="http://www.w3.org/2000/svg" viewBox="0 0 206.55 165.58">
  <defs>
    <style>
      .cls-1 {
        fill: #fff;
      }
    </style>
  </defs>
  <g id="PREVIEW">
    <g>
      <g>
        <g>
          <path d="M1.35,75.86c.09,0,.17.04.23.09.53.4,1.04.92,1.54,1.57.68.88.86,1.51.52,1.88-.23.25-.42.4-.57.44-.16-.04-.35-.13-.59-.27-.19-.12-.39-.25-.58-.37-.61-.37-1.08-.74-1.41-1.14-.5-.58-.62-1.11-.35-1.58.26-.45.66-.66,1.21-.63Z"/>
          <path d="M13.9,70.79c.25-.07.53.02.84.29.26.22.41.45.46.69.03.17.02.44-.04.82-.02.17-.25.53-.69,1.08-.28.35-.64.78-1.09,1.27.44.35.99.81,1.63,1.36.75.65,1.29,1.1,1.61,1.36.32.25.52.55.6.9.09.38.01.73-.23,1.04-.1.13-.19.22-.29.29-.31.23-.63.3-.94.2-.14-.05-.43-.23-.87-.54-.49-.35-1.48-1.11-2.98-2.28-.32.69-.64,1.24-.97,1.65-.66.83-1.43,1.09-2.3.77-.21-.08-.4-.19-.57-.32-.3-.24-.45-.56-.43-.95.03-.6.23-1.09.61-1.49.32-.33.69-.83,1.12-1.48-1.38-1.08-2.33-1.81-2.83-2.2-.66-.51-1.07-.93-1.24-1.25-.26-.52-.14-1.04.37-1.56.71-.73,1.59-.62,2.64.33.49.44.88.79,1.16,1.04l1.62,1.42c.18-.16.32-.3.41-.42.05-.06.09-.12.12-.17.12-.2.29-.41.49-.62.27-.28.46-.47.57-.58.2-.25.6-.47,1.21-.66Z"/>
          <path d="M13.83,67.54c-.41.18-.74.27-1.01.27-.32,0-.63-.14-.93-.42-.12-.11-.25-.26-.4-.45-.39-.49-.6-.94-.62-1.36-.03-.42.17-.85.57-1.31.16-.18.32-.33.47-.45.56-.46,1.2-.47,1.92-.03.27.16.5.33.68.49.28.25.45.52.52.79.17.76.04,1.37-.39,1.82-.31.33-.57.54-.79.63ZM16.21,68.14c.09-.1.23-.22.42-.38.35-.26.94-.12,1.75.41.47.31.99.74,1.54,1.29.23.22.61.51,1.13.88.52.37.9.66,1.13.88.38.37.5.76.36,1.19-.07.23-.19.44-.36.62-.16.18-.35.33-.58.46-.51.3-1.07.26-1.67-.14-.23-.14-.68-.55-1.35-1.22-1.03-1.02-1.61-1.61-1.74-1.77-.75-.89-.99-1.58-.71-2.07,0-.03.03-.08.09-.14Z"/>
          <path d="M18.83,61.78c.61.56,1.06.99,1.36,1.28,1.18,1.03,2.23,2.04,3.16,3.01.57.6,1.13,1.16,1.66,1.68.14.1.29.27.44.54.15.26.23.48.26.66-.09.34-.22.6-.39.77-.28.29-.68.36-1.18.19-.41-.09-.95-.4-1.62-.93-.85-.67-1.43-1.13-1.73-1.37-.82-.64-1.64-1.31-2.45-2.01-.7-.59-1.5-1.29-2.4-2.1-.58-.52-.97-1.11-1.19-1.76-.16-.51-.09-.92.23-1.24.1-.1.23-.19.4-.28.75-.4,1.9.12,3.46,1.57Z"/>
          <path d="M22.66,58.04c.59.58,1.02,1.03,1.31,1.33,1.14,1.07,2.16,2.11,3.05,3.12.55.62,1.08,1.19,1.6,1.73.14.1.28.29.42.55.14.27.22.49.23.66-.11.34-.24.59-.42.75-.29.28-.69.33-1.19.15-.41-.11-.94-.44-1.59-.98-.82-.7-1.38-1.18-1.68-1.43-.8-.67-1.59-1.37-2.38-2.09-.68-.62-1.45-1.35-2.32-2.18-.56-.54-.93-1.14-1.13-1.8-.14-.51-.05-.92.27-1.23.1-.1.24-.19.41-.27.76-.37,1.9.19,3.4,1.69Z"/>
          <path d="M41.1,51.2c.15.38.22,1.01.22,1.89-.02,1.16-.44,2.33-1.28,3.52-.25.36-.57.69-.95,1.01-1.03.86-1.96,1.41-2.79,1.63-1.15.31-3.16-.98-6.01-3.88-1.12-1.13-1.89-1.99-2.31-2.57-.75-1.03-1.18-1.79-1.28-2.27-.17-.77.07-1.58.73-2.44.51-.67,1.04-1.21,1.57-1.64.27-.22.56-.41.86-.57.8-.44,1.58-.74,2.35-.9.77-.17,1.47-.18,2.1-.04.48.1,1.14.37,1.99.82.05.03.11.06.17.07,1.15.64,2.15,1.49,3.01,2.57.68.85,1.22,1.79,1.62,2.82ZM31.19,49.58c-.25.2-.43.41-.54.62-.21.42.02,1.15.69,2.18.46.69.98,1.34,1.55,1.94.63.67,1.12,1.12,1.44,1.36.33.24.72.32,1.17.24.4-.08.77-.25,1.12-.53.26-.21.5-.47.71-.78.46-.68.66-1.36.58-2.05-.07-.58-.36-1.24-.86-1.99-.51-.74-1.28-1.27-2.33-1.59-1.04-.32-1.96-.28-2.76.12-.3.15-.56.32-.79.5Z"/>
          <path d="M44.35,39.41c-.13.16-.45.43-.96.79-.46.33-.89.63-1.29.89-.39.26-.73.6-1.03,1.03-.27.38-.36.76-.26,1.14.03.15.2.51.5,1.09.13.19.39.52.79,1.01.47.46.93.57,1.4.31.29-.16.67-.41,1.14-.77.48-.36.88-.63,1.19-.83l.91-.56c.28-.17.58-.26.89-.26.37,0,.64.13.81.38.08.12.19.31.33.57.04.12.04.29,0,.49-.17.41-.56.79-1.17,1.12-.67.37-1.16.65-1.47.84-.46.28-.74.45-.85.5-.13.07-.25.14-.35.2-.1.07-.18.14-.24.21-.24.16-.27.46-.09.88.16.41.37.63.63.65.34.03.62,0,.84-.11.83-.39,1.52-.82,2.06-1.27,1.02-.84,1.79-1.07,2.31-.68.1.08.2.19.29.31.52.75.31,1.46-.64,2.12-.11.08-.44.27-.98.57-1.49.86-2.39,1.37-2.72,1.53-1.46.68-2.67.34-3.64-.99-.97-1.34-1.83-2.48-2.6-3.42-.33-.4-.6-.76-.83-1.08-.6-.87-1.13-1.81-1.58-2.82-.61-1.36-.17-2.75,1.32-4.15.48-.45.85-.76,1.11-.94.86-.55,1.71-.95,2.53-1.2.31-.06.65.01,1.02.21.37.2.62.44.76.73.09.18.14.29.15.32.07.46-.03.85-.28,1.16Z"/>
          <path d="M55.77,33.72c.47.46,1.23,1.34,2.29,2.64.82,1.01,1.51,1.97,2.07,2.88.38.62.65,1.24.8,1.86.24.91.11,1.51-.37,1.8-.44.27-.83.37-1.16.31-.33-.07-.67-.31-1-.72-.33-.41-.81-1.11-1.44-2.1-.6-.94-1.09-1.63-1.49-2.1-.98-1.15-1.7-1.59-2.16-1.33-.48.27-.82.52-1.02.76-.41.48-.46,1.1-.16,1.85.14.37.48.94,1.02,1.72.82,1.2,1.4,2.03,1.76,2.48.1.13.18.24.24.33.62,1.02.51,1.79-.33,2.3-.08.05-.2.11-.35.18-.73.33-1.41.22-2.05-.34-.4-.35-.83-.96-1.3-1.84-.73-1.36-1.16-2.18-1.3-2.45-.34-.65-.79-1.74-1.36-3.29-.49-1.34-.81-2.39-.94-3.14-.12-.71.03-1.38.43-2.01.35-.55.86-1.03,1.53-1.44.15-.09.33-.19.53-.29,1.7-.84,3.61-.19,5.75,1.93ZM52.34,34.15c-.34-.56-.89-.65-1.63-.26-.48.25-.77.6-.88,1.06-.07.3-.06.54.05.72.05.09.14.16.26.23.28.15.56.16.86.05.1-.03.36-.18.78-.44.53-.32.74-.71.65-1.15-.02-.07-.05-.14-.09-.21Z"/>
          <path d="M66.71,26.28c-.41.54-1.03,1.02-1.85,1.45-.27.14-.57.28-.89.42,1.78,2.57,3.1,4.54,3.95,5.9.66,1.05,1.03,1.66,1.12,1.83.43.91.46,1.58.11,1.99-.26.25-.54.46-.85.63-.34.19-.7.28-1.08.25-.42-.04-.73-.21-.93-.52-.31-.48-.66-1.09-1.05-1.83-.62-1.15-1.13-2.12-1.55-2.92-.54-1.03-.96-1.81-1.28-2.33l-.97-1.57c-.81.55-1.44.93-1.89,1.13-.31.14-.6.24-.87.31-.47.01-.81-.03-1.01-.12-.35-.11-.6-.3-.74-.57-.16-.31-.21-.68-.15-1.12.06-.44.3-.81.72-1.11,1.3-.95,2.57-1.76,3.81-2.44.4-.22,1.19-.65,2.36-1.29.73-.4,1.3-.61,1.73-.63.86-.05,1.48.27,1.85.97.18.34,0,.86-.53,1.55Z"/>
          <path d="M74.75,21.07c-.35-.98-.35-1.66-.01-2.03.17-.19.33-.32.49-.39.41-.19.8-.14,1.17.15.3.23.55.57.73,1.01.28.69.53,1.25.75,1.66l1.5,2.91c.32.62.5.98.55,1.06.59.95,1.03,1.65,1.33,2.12.51.83.89,1.56,1.14,2.2.17.44.21.84.14,1.2-.09.41-.33.71-.73.89-.17.08-.37.13-.6.16-.46.07-.88-.13-1.26-.59-.19-.22-.44-.65-.75-1.28l-1.35-2.7c-.41-.82-.94-1.04-1.59-.65-.73.43-1.28.72-1.63.85-.46.18-.53.61-.22,1.3.32.72.7,1.48,1.13,2.29.43.8.75,1.44.96,1.9.41.94.03,1.57-1.13,1.88-.42.11-.75.12-.99.02-.24-.1-.46-.35-.65-.73-.28-.56-.43-.86-.44-.88-.12-.28-.45-.93-.98-1.93-.76-1.45-1.29-2.46-1.59-3.04-.65-1.23-1.13-2.18-1.44-2.82-.48-1.02-.76-1.66-.85-1.93-.3-.91-.26-1.54.12-1.88.17-.15.33-.27.47-.33.6-.27,1.25.04,1.97.95.37.47.67.98.92,1.54.33.74.54,1.15.64,1.25.25.24.69.23,1.3-.04.88-.39,1.38-.63,1.5-.7.5-.37.62-.83.36-1.36-.55-1.15-.87-1.84-.95-2.06Z"/>
        </g>
        <g>
          <path d="M61.96,152.92c-.02.49-.1,1.05-.22,1.67l-.56,4.89c-.23,1.99-.67,3.41-1.32,4.27-.89,1.18-2.33,1.68-4.32,1.51-3.2-.27-4.9-1.62-5.11-4.06-.04-.43-.05-.8-.04-1.11.08-1.76.81-2.89,2.19-3.38.51-.18,1.02-.26,1.54-.24,1.21.05,2.5.64,3.85,1.77-.05-2.51-.05-4.36,0-5.57.04-.88.11-1.45.21-1.7.23-.56.71-.9,1.45-1.01.12-.02.25-.02.39-.02.56.02,1.06.32,1.5.88.34.44.49,1.13.45,2.08ZM55.21,162.21c.37.02.76-.15,1.16-.5.32-.29.49-.57.5-.83.02-.35-.22-.68-.69-1.02-.38-.26-.74-.4-1.09-.42-.39-.02-.73.15-1.03.49-.22.26-.34.52-.35.79-.02.36.18.71.58,1.06.3.27.61.41.92.42Z"/>
          <path d="M71.22,151.64c1.39.45,2.31,1.85,2.76,4.22.08.42.22,1.51.41,3.25.02.22.04.47.04.75,0,1.04-.21,2.02-.65,2.96-.44.94-1.14,1.65-2.08,2.14-.89.46-1.88.67-2.98.63-1.18-.06-2.11-.28-2.79-.68-.76-.46-1.31-1.06-1.64-1.79-.25-.56-.48-1.46-.67-2.73-.19-1.16-.29-2.1-.29-2.83,0-.34.01-.61.04-.84.15-1.05.28-1.77.4-2.16.22-.75.56-1.38,1.04-1.9.84-.92,2.3-1.34,4.38-1.26.95.04,1.63.12,2.03.25ZM70.92,157.6c-.09-.9-.22-1.59-.4-2.06-.32-.78-.83-1.17-1.52-1.18-.93,0-1.56.24-1.89.74-.28.42-.4,1.11-.39,2.08.03,1.25.08,2.3.14,3.15.09,1.22.5,1.96,1.22,2.24.26.1.52.15.79.14.47,0,.93-.16,1.39-.46.58-.38.86-1.03.86-1.95,0-.12-.01-.33-.04-.64l-.17-2.06Z"/>
          <path d="M93.67,162.92c-.2.34-.49.52-.86.56-.21.02-.43,0-.66-.07-.62-.15-1-.49-1.15-1,.05.38-.17.72-.66,1.04-.73.48-1.71.81-2.92.97-1.06.14-1.99.05-2.79-.25-.95-.37-1.59-1.02-1.92-1.95-.23-.68-.42-1.57-.58-2.69-.19-1.46-.32-2.37-.4-2.73-.16-.71-.26-1.85-.3-3.4-.04-1.42.59-2.13,1.9-2.13.74,0,1.24.67,1.5,2,.08.41.16,1.36.24,2.85.11,1.91.22,3.21.36,3.9.17.86.8,1.25,1.89,1.16,1.04-.08,1.68-.63,1.94-1.66.14-.54.17-1.49.1-2.86-.11-1.81-.19-3.16-.25-4.06-.04-1.1.37-1.69,1.24-1.76.14,0,.28,0,.42,0,.96.09,1.48.69,1.57,1.79.02.3.03.75.02,1.36,0,.61,0,1.06.02,1.36.07.84.19,1.69.39,2.57.37,1.71.68,2.8.93,3.29.11.2.17.43.19.67.03.4-.04.75-.2,1.04Z"/>
          <path d="M99.54,148.66c1.44-.18,2.92-.04,4.43.44.43.14.68.54.73,1.21.04.69-.05,1.24-.26,1.65-.11.21-.37.33-.78.38-.45.06-1.08.03-1.89-.1-.96-.15-1.72-.19-2.26-.12-.31.04-.54.11-.7.21-.44.28-.65.58-.63.91-.02.28-.01.55.02.81-.02.26.15.48.52.64.49.23,1.17.3,2.03.2,1.18-.14,1.88-.2,2.1-.18.57.04,1.16.15,1.77.33.71.21,1.24.47,1.58.78.62.55.99,1.32,1.12,2.31.04.34.06.71.04,1.11-.02.52-.23,1.11-.62,1.77-.41.69-.84,1.14-1.3,1.33-.82.34-1.33.53-1.52.56l-1.3.27c-.54.11-.97.18-1.29.22-.37.03-.97,0-1.82-.08-1.69-.17-2.58-.68-2.69-1.52-.02-.12-.01-.26.01-.42.07-.43.22-.73.44-.92.19-.16.51-.27.94-.32.68-.09,1.67-.08,2.99.03.25.02.53,0,.83-.1.43-.12.82-.34,1.15-.65.39-.36.55-.74.46-1.14-.12-.57-.7-.87-1.75-.89-.18,0-.91.06-2.21.18-1.53.15-2.61-.01-3.24-.49-.8-.6-1.27-1.51-1.43-2.74-.1-.76-.04-1.54.18-2.33.28-1,.71-1.73,1.29-2.19.76-.59,1.77-.97,3.03-1.12Z"/>
          <path d="M126.19,148.58c-.24,1.38-1.02,2.34-2.32,2.89-.26.11-.89.31-1.9.61-.45.13-.92.25-1.4.34-.87.17-1.77.27-2.71.29.57,2.46.98,3.94,1.21,4.45.2.44.36.86.47,1.28.13.49.18.89.15,1.2,0,.39-.18.73-.54,1.03-.36.3-.73.44-1.12.44-.79,0-1.39-.75-1.82-2.24-.21-.74-.37-1.31-.47-1.68-.35-1.13-.64-2.24-.88-3.35l-.66-3.38c-.15-.78-.2-1.61-.14-2.48.1-1.49.95-2.61,2.56-3.39.63-.31,1.73-.61,3.3-.92,1.5-.29,2.75-.26,3.76.1.77.28,1.35.62,1.74,1.03.46.47.73,1.08.82,1.84.07.61.05,1.26-.06,1.94ZM121.76,147.93c-.05-.27-.21-.54-.46-.8-.57-.58-1.29-.79-2.17-.62-.25.05-.47.11-.66.18-1.19.44-1.64,1.26-1.34,2.47.19.8.94,1.1,2.26.89.72-.12,1.17-.24,1.34-.37l.3-.21c.08-.07.13-.13.15-.17.48-.46.68-.92.59-1.38Z"/>
          <path d="M137.88,144.92c.34.65.86,1.85,1.55,3.59.54,1.35.95,2.61,1.23,3.78.2.79.27,1.55.23,2.26-.05,1.05-.39,1.65-1.01,1.8-.56.14-1.01.11-1.35-.07-.33-.19-.61-.55-.82-1.1-.22-.55-.49-1.47-.82-2.73-.32-1.2-.61-2.12-.88-2.75-.66-1.56-1.27-2.28-1.85-2.16-.6.12-1.05.28-1.35.47-.6.38-.87,1.02-.81,1.92.03.44.19,1.17.5,2.19.46,1.57.81,2.65,1.03,3.25.06.17.11.31.14.43.32,1.3-.06,2.08-1.13,2.34-.11.03-.25.05-.43.07-.89.1-1.58-.25-2.07-1.06-.31-.51-.56-1.31-.76-2.4-.31-1.71-.5-2.72-.56-3.05-.14-.81-.25-2.13-.33-3.97-.07-1.6-.05-2.83.07-3.67.12-.8.5-1.47,1.15-2,.56-.47,1.27-.81,2.13-1.02.19-.05.41-.09.66-.13,2.1-.32,3.92,1.02,5.48,4.02ZM134.08,144.22c-.17-.72-.73-1-1.65-.84-.6.1-1.03.38-1.3.83-.18.3-.24.56-.19.79.03.11.09.22.2.33.24.25.54.37.9.35.11,0,.44-.07.98-.21.67-.16,1.03-.5,1.08-1.01,0-.08,0-.16-.03-.25Z"/>
          <path d="M143.84,137.85c1.11-.42,2.45-.72,4.01-.92,1.63-.21,2.78.3,3.46,1.52.32.57.54,1.06.66,1.48.16.55.19,1.04.08,1.48-.44,1.79-1.73,3.01-3.87,3.66-.32.09-.8.21-1.44.34-.64.13-1.1.24-1.4.33-.12.03-.17.09-.14.16.03.12.21.27.52.46,1.04.62,1.91,1.16,2.6,1.63,1,.66,1.74,1.15,2.24,1.47,1.05.72,1.64,1.32,1.78,1.8.15.51-.02.99-.49,1.42-.18.16-.37.26-.57.32-.66.19-1.45.03-2.35-.5-.66-.4-1.3-.92-1.91-1.57l-3.08-3.34c.87,2.14,1.36,3.45,1.49,3.91.23.83.36,1.28.4,1.37.08.27.1.57.06.92-.04.35-.16.62-.36.8-.15.13-.41.28-.8.44-.73.3-1.28-.21-1.67-1.54-.12-.23-.23-.52-.35-.86-.9-2.48-1.6-4.6-2.1-6.35-.34-1.2-.57-2.04-.68-2.51-.42-1.81-.35-3.06.23-3.76.45-.7,1.67-1.42,3.68-2.17ZM144.59,140.39c-.42.12-.77.35-1.04.67-.41.47-.53,1-.37,1.59.21.77.74,1.06,1.58.87,1.64-.39,2.43-1,2.38-1.85-.06-.8-.46-1.25-1.22-1.35-.48-.07-.92-.05-1.32.07Z"/>
          <path d="M164.04,135.22c-.55.52-1.32.95-2.3,1.28-.33.11-.68.22-1.06.31,1.52,3.16,2.63,5.57,3.34,7.23.54,1.28.85,2.02.92,2.22.31,1.08.23,1.82-.23,2.22-.33.23-.68.42-1.05.55-.41.15-.82.18-1.24.09-.46-.11-.78-.36-.94-.74-.26-.59-.54-1.32-.84-2.21-.48-1.38-.88-2.55-1.2-3.5-.41-1.24-.75-2.17-1.01-2.81l-.79-1.91c-.99.47-1.76.78-2.29.92-.37.1-.71.16-1.02.19-.52-.07-.89-.18-1.1-.31-.37-.18-.61-.43-.72-.76-.13-.37-.12-.79.03-1.27.14-.47.47-.84.99-1.1,1.61-.82,3.16-1.5,4.65-2.03.48-.18,1.43-.51,2.84-1.01.87-.31,1.55-.44,2.03-.39.96.09,1.59.56,1.87,1.39.14.41-.14.95-.86,1.62Z"/>
        </g>
      </g>
      <g>
        <g>
          <path class="cls-1" d="M166.53,19.63c-18.81-1.42-51.58,3.24-84.46,17.5-32.87,14.26-56.54,33.38-63.62,46.63-7.08,13.25-3.5,20.96,2.33,23.16,8.11,3.07,26.5,4.55,65.44-9.81,0,0,17.5-25.59,39.65-36.51,25.64-12.65,46.83-7.79,46.83-7.79,0,0,10.72-6.17,12.75-13.65,2.02-7.48-.1-18.1-18.91-19.52ZM170.18,43.26s-37.78-4.15-57.35,6.6c-19.57,10.75-34.18,39.62-34.18,39.62-36.55,18.43-59.25,19.23-59.45,7.23-.2-11.69,13.27-32.06,59.64-54.93,45.72-22.55,93.15-22.86,99.63-13.53,5.2,7.49-8.29,15.01-8.29,15.01Z"/>
          <path d="M178.97,27.9c-2.66-3.83-11.37-6.03-23.9-6.03-23.33,0-51.93,7.24-76.51,19.36-37.83,18.66-60.25,39.41-59.98,55.49,0,.1,0,.21.01.33.13,2.65,1.32,4.71,3.47,6.11,1.89,1.32,4.81,2.3,9.28,2.3h0c2.51,0,5.35-.33,8.44-.97,10.47-1.86,23.99-6.84,39.12-14.47.12-.06.21-.15.27-.27.14-.29,14.75-28.82,33.93-39.36,2.68-1.47,5.71-2.66,8.93-3.61.58-.17,1.17-.34,1.77-.5.08-.02.16-.04.23-.06.61-.16,1.22-.31,1.83-.45,0,0,.01,0,.02,0,8.73-2.03,18.36-2.6,25.72-2.68.01,0,.02,0,.03,0,.56,0,1.11,0,1.64,0,9.56,0,16.74.78,16.81.78.13.01.25-.01.36-.07.34-.19,8.3-4.68,9.62-10.37.45-1.95.08-3.81-1.12-5.52ZM78.2,89.03c-14.71,7.4-27.84,12.26-38.06,14.16-.5-2.32-.65-11.8,22.69-28.4,20.13-14.31,34.77-21.04,49.7-25.47-18.7,10.27-33.05,37.22-34.34,39.7Z"/>
        </g>
        <g>
          <path class="cls-1" d="M196.3,54.17c.26,1.88.26,2.98.26,2.98,0,0-6.37,37.63-49.56,59.58-43.18,21.95-107.52,18.3-107.52,18.3-.63-.44-1.24-.9-1.84-1.38h0s-.17,3.67,3.5,5.1c3.67,1.43,66.02,3.46,106.98-16.71,40.96-20.17,49.93-52.37,51.56-59.71,1.63-7.33-3.39-8.16-3.39-8.16Z"/>
          <path d="M199.5,55.63c-.87-1.23-2.03-1.75-2.66-1.95-.77-5.15-3.28-15.28-11.46-25.06-.31-.65-.68-1.29-1.12-1.93-3.15-4.45-9.09-7.03-17.68-7.67-2.15-.16-4.49-.24-6.93-.24-23.05,0-52.13,6.65-77.81,17.79-34.94,15.16-57.28,34.48-63.92,46.9-4.85,9.07-4.41,14.85-3.18,18.11.28.75.64,1.45,1.06,2.09.87,2.17,8.26,19.94,21.25,30.29.06,1.02.54,4.05,3.88,5.36,1.31.51,7.7.88,15.19.88h0c13.26,0,59.11-1.27,92.29-17.62,40.14-19.77,49.86-51.02,51.88-60.12.64-2.89.38-5.19-.79-6.83ZM185.44,35.22c-.04.98-.17,1.89-.32,2.67,0,.02,0,.04-.01.06-.03.14-.06.27-.09.4-.01.05-.02.11-.04.16h0c-.04.17-.08.33-.12.48-1.78,6.6-10.8,12.28-12.26,13.17-.97-.2-4.74-.88-10.52-.88-8.53,0-21.78,1.52-36.47,8.77-4.42,2.18-8.67,4.95-12.63,8-10.23,7.85-18.59,17.5-23.24,23.38-2.15,2.72-3.51,4.63-3.9,5.18-3.29,1.21-6.5,2.33-9.6,3.36,0,0-.02,0-.03.01-.14.04-.27.09-.41.13-14.16,4.65-26.35,7.35-36.39,8.05-.51.04-1.01.06-1.51.09,3.37-.41,7.23-1.17,11.59-2.44,21.65-6.33,34.17-12.74,34.3-12.8.09-.05.17-.12.23-.21.18-.28,18.62-28.48,35.26-36.6,10.45-5.1,27.51-7.59,50.7-7.43.57,0,1.05,0,1.42,0,1.12,0,11.14-4.94,14.05-13.54ZM18.32,104.73s0,0-.01-.01c-.08-.07-.16-.14-.23-.21-.11-.11-.22-.21-.32-.32-.1-.1-.19-.21-.28-.32-.1-.12-.21-.24-.3-.37-.52-.69-.96-1.47-1.29-2.35-1.13-3.02-1.51-8.44,3.12-17.11,6.54-12.24,28.65-31.31,63.32-46.36,25.53-11.08,54.44-17.69,77.32-17.69,2.42,0,4.72.08,6.84.24,8.2.62,13.84,3.03,16.77,7.16.47.67.84,1.35,1.15,2.04.08.18.16.35.22.53.08.2.15.41.22.61.02.07.04.14.06.21.03.1.06.21.09.31-.49,10.38-12.78,16.32-13.6,16.43-.37,0-.84,0-1.41,0-23.37-.17-40.63,2.37-51.25,7.55-16.52,8.06-34.08,34.48-35.66,36.89-1.44.72-13.64,6.71-33.94,12.65-20.55,6.01-30.12.53-30.82.1ZM199.1,62.2c-2,8.97-11.58,39.76-51.23,59.29-32.95,16.23-78.56,17.49-91.75,17.49-8.65,0-13.91-.48-14.74-.8-1.87-.73-2.62-2.1-2.92-3.14.23.17.46.33.69.49.09.07.2.1.32.11.04,0,4.09.23,10.7.23.85,0,1.77,0,2.74-.01.65,0,1.32-.01,2.02-.03,1.04-.02,2.14-.04,3.29-.07,21.43-.58,60.18-3.8,89.08-18.49,22.45-11.4,34.81-27.1,41.23-38.26,6.97-12.11,8.64-21.66,8.66-21.76,0-.03,0-.07,0-.11h0s0-.78-.15-2.08c.47.24,1.07.65,1.54,1.36.9,1.35,1.07,3.29.52,5.77Z"/>
        </g>
        <g>
          <path class="cls-1" d="M26.96,122.83c.18,2.71,1.82,5.57,5.02,6.48,2.61.74,5.42-.06,7.87-1.01,2.97-1.15,5.77-2.72,8.53-4.3,3.24-1.86,6.45-3.75,9.89-5.23,4.57-1.95,9.42-3.16,14.35-3.7,4.95-.53,9.96-.48,14.91.03,3.88.39,7.73,1.02,11.62,1.31,8.05.61,16.24-.32,21.08-7.58,1.04-1.56,3.57-.1,2.52,1.47-3.94,5.9-10.03,8.79-17.01,9.15-8.19.42-16.26-1.66-24.44-1.82-10.2-.19-19.52,2.05-28.39,7.12-5.15,2.94-10.67,6.75-16.67,7.57-2.61.36-5.22.15-7.45-1.41-3.91-2.73-5.65-9.7-5.18-12.98l3.36,4.89Z"/>
          <path class="cls-1" d="M43.04,126.67c-3.35,1.24-7.24-3.83-6.62-7.87,0,0,6.93,2.5,6.62,7.87Z"/>
          <path class="cls-1" d="M54.69,120.48c1.87-3.05-2.35-7.85-6.43-8.02,0,0,1.11,7.28,6.43,8.02Z"/>
          <path class="cls-1" d="M67.9,115.81c-3.58-.02-5.43-6.14-3.42-9.69,0,0,5.61,4.78,3.42,9.69Z"/>
          <path class="cls-1" d="M81.02,114.67c2.88-2.12.79-8.15-2.92-9.86,0,0-1.73,7.16,2.92,9.86Z"/>
          <path class="cls-1" d="M95.29,116.19c-3.46-.91-3.73-7.3-.9-10.24,0,0,4.24,6.03.9,10.24Z"/>
          <path class="cls-1" d="M48.42,127.49c3.58-.05,5.55,6.03,3.62,9.62,0,0-5.7-4.67-3.62-9.62Z"/>
          <path class="cls-1" d="M35.43,132.43c-3.34,1.27-2.95,7.64.17,10.28,0,0,3.59-6.43-.17-10.28Z"/>
          <path class="cls-1" d="M24.82,126.18c1.23,3.36-3.85,7.23-7.88,6.6,0,0,2.51-6.92,7.88-6.6Z"/>
          <path class="cls-1" d="M29.77,128.06c3.57-.15,5.2-6.33,3.07-9.81,0,0-5.43,4.98-3.07,9.81Z"/>
          <path class="cls-1" d="M61.28,120.85c-2.5,2.56.54,8.18,4.48,9.25,0,0,.55-7.34-4.48-9.25Z"/>
          <path class="cls-1" d="M75.87,118.01c3.36,1.23,3.03,7.61-.06,10.28,0,0-3.66-6.39.06-10.28Z"/>
          <path class="cls-1" d="M88.45,118.41c-2.67,2.38-.03,8.19,3.82,9.54,0,0,1.06-7.29-3.82-9.54Z"/>
          <path class="cls-1" d="M116.32,116.55c-2.28,2.76,1.22,8.1,5.23,8.85,0,0-.06-7.36-5.23-8.85Z"/>
          <path class="cls-1" d="M103.81,119.67c3.41,1.09,3.34,7.48.37,10.27,0,0-3.92-6.23-.37-10.27Z"/>
          <path class="cls-1" d="M170.77,74.17c-.48,0-.96-.22-1.28-.63-.54-.71-.41-1.72.3-2.26.21-.16.45-.28,1.08-.58,16.08-7.76,21.76-18.04,23.58-25.81-.23-.68-.58-1.65-.79-2.22.57-.52,1.58-.37,2.39.46,1,1.02,1.39,3.23,1,4.53-.28.92-.61,1.87-.99,2.83-3.04,7.6-9.7,16.33-23.79,23.12-.29.14-.49.24-.61.3-.27.18-.58.27-.89.27Z"/>
          <g>
            <path class="cls-1" d="M188.14,57.59c1.72-3.56-3.44-8.38-7.95-8.12,0,0,2.01,7.89,7.95,8.12Z"/>
            <path class="cls-1" d="M193.46,46.98c-2.96,2.62-9-1.06-9.96-5.47,0,0,8.14-.19,9.96,5.47Z"/>
            <path class="cls-1" d="M196.77,43.9c3.69,1.41,8.05-4.15,7.41-8.62,0,0-7.69,2.68-7.41,8.62Z"/>
            <path class="cls-1" d="M194.96,53.26c1.98-3.42,8.87-1.84,11.18,2.03,0,0-7.66,2.76-11.18-2.03Z"/>
            <path class="cls-1" d="M179.19,65.68c-3.94-.34-5.45-7.24-2.93-10.98,0,0,5.76,5.75,2.93,10.98Z"/>
            <g>
              <path class="cls-1" d="M185.72,65c-1.78,3.53,3.3,8.44,7.8,8.26,0,0-1.87-7.93-7.8-8.26Z"/>
              <g>
                <path d="M121.44,107.81c-.62,0-1.16.29-1.51.83-3.45,5.17-8.83,7.57-16.94,7.57-1.19,0-2.44-.05-3.81-.15-1.05-.08-2.11-.19-3.17-.31,1.8-3.12.67-7.15-1.3-9.99-.13-.18-.41-.26-.57-.07-2.05,2.27-3.03,7.32-.72,9.75-.36-.04-.71-.09-1.07-.13-1.57-.2-3.19-.4-4.78-.56-1.93-.2-3.84-.32-5.72-.37,2.59-3.04-.53-8.36-3.57-9.87-.2-.1-.48-.02-.54.22-.78,3.3-.4,7.32,2.23,9.62-2.53,0-5,.12-7.39.37-1.4.15-2.77.36-4.14.61,1.05-3.51-1.06-7.19-3.71-9.47-.17-.15-.46-.15-.57.07-1.49,2.85-1.07,8.33,2.15,9.85-2.83.66-5.57,1.54-8.19,2.66-.93.4-1.85.83-2.75,1.28,1.03-3.78-3.73-7.37-7.12-7.63-.26-.02-.39.25-.35.46.52,3.33,2.44,6.97,5.78,8.04-1.62.86-3.21,1.77-4.76,2.67l-.71.41c-1.6.92-3.19,1.82-4.81,2.63-.1-3.82-3.49-6.62-6.88-7.86-.25-.09-.44.14-.46.35-.38,3.16,1.95,8.1,5.47,8.4-.59.27-1.19.52-1.8.76-1.53.59-3.55,1.28-5.56,1.28-.73,0-1.44-.09-2.08-.28-.58-.17-1.1-.4-1.56-.68,3.93-1.05,4.36-7.2,2.63-10.23-.12-.21-.4-.23-.57-.07-2.46,2.29-4.32,5.75-3.52,9.08-1.12-1.27-1.64-2.89-1.73-4.26,0-.07-.03-.13-.06-.18l-3.36-4.89c-.08-.12-.24-.18-.38-.15-.15.03-.26.16-.28.3-.28,1.97.2,5.09,1.38,7.93-3.9,0-6.77,3.43-8.03,6.86-.09.25.14.44.35.46,3.25.4,8.39-2.07,8.42-5.76.84,1.56,1.91,2.94,3.21,3.84,1.55,1.08,3.36,1.61,5.53,1.62-2.72,2.45-1.17,7.97,1.23,10.13.17.15.46.14.57-.07,1.7-3.09,2.39-7.23.21-10.19.06,0,.11,0,.16-.02,4.09-.56,7.89-2.44,11.55-4.54-.86,3.47,1.29,7.02,3.94,9.22.17.14.46.15.57-.07,1.52-3.05.84-9.06-2.99-10.04.38-.23.77-.45,1.15-.68.87-.51,1.73-1.02,2.58-1.51,2.37-1.35,4.78-2.5,7.24-3.46-1.61,3.41,2.13,7.85,5.32,8.84.24.08.45-.12.46-.35.24-3.43-.85-7.37-3.9-9.18,4.18-1.45,8.51-2.35,13.05-2.73-2.24,2.98-1.52,7.17.23,10.28.12.21.4.23.57.07,2.54-2.33,3.97-8.2.69-10.45,1.49-.08,3-.12,4.53-.09,2.2.04,4.41.23,6.61.46-2.79,3.29.97,8.56,4.27,9.84.17.07.42-.07.45-.25.47-3.34-.25-7.35-3.08-9.4.79.09,1.57.19,2.34.28,3.7.45,7.53.92,11.33.94-2.11,3.07-1.23,7.21.65,10.25.12.2.4.24.57.07,2.38-2.38,3.59-8.12.49-10.34.28,0,.56-.02.83-.03,3.61-.19,6.87-1.04,9.7-2.49-1.41,3.53,2.76,7.7,5.99,8.42.23.05.47-.11.46-.35-.05-3.52-1.51-7.5-4.88-8.96,2.37-1.5,4.4-3.48,6.02-5.92.36-.54.41-1.16.12-1.69-.32-.6-1.02-1.01-1.74-1.01ZM94.37,106.56c1.59,2.5,2.49,5.79,1.18,8.49l-.48-4.58c-.02-.2-.2-.35-.4-.32-.2.02-.35.2-.33.4l.53,5.07s0,0-.01,0c-3.06-1.52-2.26-6.67-.49-9.05ZM78.35,105.38c2.55,1.6,5.13,6.05,2.85,8.61l-1.37-4.91c-.05-.19-.26-.31-.45-.25-.19.05-.31.26-.25.45l1.24,4.45c-2.22-2.01-2.59-5.46-2.02-8.34ZM64.6,106.72c2.17,2.02,3.85,4.99,3.26,7.93l-1.61-4.32c-.07-.19-.28-.28-.47-.21-.19.07-.29.28-.21.47l1.78,4.78c-3.36-.7-3.87-5.9-2.75-8.65ZM48.7,112.89c2.94.5,7.06,3.66,5.9,6.89l-3.13-4.03c-.12-.16-.35-.19-.51-.07-.16.12-.19.35-.06.51l2.83,3.65c-2.82-1.03-4.45-4.06-5.03-6.96ZM36.76,119.33c2.73,1.11,5.39,3.32,5.85,6.28l-3.03-3.48c-.13-.15-.36-.17-.51-.04-.15.13-.17.36-.04.51l3.34,3.85c-3.4.5-5.66-4.11-5.61-7.12ZM32.73,118.86c1.21,2.71.9,7.94-2.43,8.75l1.61-4.85c.06-.19-.04-.4-.23-.46-.19-.06-.4.04-.46.23l-1.45,4.39c-.73-2.91.89-5.97,2.97-8.06ZM17.47,132.45c1.12-2.73,3.34-5.38,6.3-5.83l-3.49,3.02c-.15.13-.17.36-.04.52.07.08.17.13.28.13.09,0,.17-.03.24-.09l3.85-3.34c.49,3.4-4.12,5.66-7.14,5.59ZM35.5,142.1c-2.03-2.22-3.32-7.2-.44-9.06v5.1c0,.2.16.36.36.36s.37-.16.37-.36v-4.62c1.6,2.54,1.03,5.94-.29,8.58ZM51.91,136.51c-2.2-1.98-3.96-4.91-3.42-7.87l1.69,4.29c.06.14.19.23.34.23.04,0,.09,0,.13-.03.19-.07.28-.29.21-.47l-1.87-4.75c3.36.64,3.99,5.81,2.92,8.59ZM65.41,129.59c-2.75-1.15-6.08-5.16-4.21-8.04l2.15,4.63c.06.13.19.21.33.21.05,0,.1-.01.15-.03.18-.08.26-.3.18-.48l-1.95-4.21c2.53,1.61,3.44,4.98,3.35,7.92ZM75.9,127.68c-1.35-2.62-1.95-6.02-.38-8.57l.05,4.62c0,.2.16.36.37.36h0c.2,0,.36-.17.36-.37l-.05-5.11c2.95,1.77,1.63,6.86-.35,9.07ZM91.97,127.43c-2.67-1.32-5.68-5.57-3.64-8.31l1.81,4.76c.06.15.19.24.34.24.04,0,.09,0,.13-.02.19-.07.28-.28.21-.47l-1.64-4.31c2.41,1.83,3.07,5.32,2.78,8.12ZM104.24,129.33c-1.46-2.56-2.21-5.94-.74-8.56l.24,4.62c0,.19.17.35.36.35,0,0,.01,0,.02,0,.2,0,.36-.18.35-.38l-.27-5.1c3.01,1.66,1.92,6.78.04,9.08ZM121.17,124.91c-2.87-.93-6.44-4.6-4.86-7.65l2.52,4.43c.07.12.19.19.32.19.06,0,.12-.02.18-.05.18-.1.24-.32.14-.5l-2.29-4.02c2.65,1.4,3.84,4.66,4,7.6ZM122.45,110.11c-3.67,5.5-9.46,8.61-16.73,8.99-.72.04-1.47.06-2.24.06-3.85,0-7.74-.48-11.51-.94-3.48-.43-7.09-.87-10.67-.94-7.12-.14-13.74.91-20.03,3.19,0,0-.01,0-.02,0-.09,0-.16.02-.22.08-2.83,1.04-5.6,2.34-8.31,3.89-.85.49-1.71,1-2.59,1.51-4.43,2.62-9.02,5.34-13.96,6.01-2.99.41-5.3-.03-7.19-1.35-3.38-2.36-5.15-8.1-5.1-11.62l2.71,3.95c.2,2.48,1.69,5.69,5.28,6.71.71.2,1.48.3,2.28.3h0c2.13,0,4.23-.71,5.82-1.33,3-1.17,5.77-2.71,8.58-4.33l.71-.41c1.82-1.05,3.67-2.12,5.57-3.1.02,0,.04-.01.05-.03,1.15-.6,2.32-1.16,3.51-1.67,4.43-1.89,9.22-3.13,14.24-3.67,4.7-.51,9.7-.5,14.83.02,1.59.16,3.21.37,4.77.56.79.1,1.59.2,2.4.29.16.07.32.14.5.2,0,0,0,0,.01,0,0,0,.02,0,.03.01.02,0,.04,0,.06,0,.01,0,.02,0,.04,0,0,0,.01,0,.02,0,.1,0,.18-.04.24-.11,0,0,0,0,0,0,1.19.14,2.38.26,3.57.35,1.39.1,2.65.16,3.86.16,8.26,0,14-2.58,17.55-7.89.28-.42.65-.5.91-.5.45,0,.9.26,1.09.62.16.3.13.62-.09.95Z"/>
                <path d="M206.49,55.09c-1.87-2.94-7.27-5.52-10.5-3.43.15-.34.3-.69.44-1.04.37-.93.71-1.89,1-2.86.27-.88.2-2.19-.18-3.32,4.52.89,7.76-5.33,7.34-9.15-.03-.24-.24-.48-.51-.39-3.58,1.27-7.21,4.11-7.66,8.04-.03-.03-.06-.07-.08-.1-.91-.94-2.22-1.14-2.95-.48-.12.11-.16.28-.11.44.2.54.52,1.44.75,2.1-.11.47-.24.96-.39,1.46-1.67-3.79-6.2-5.33-10.14-5.25-.27,0-.45.25-.39.51.95,3.79,6.17,8.44,10.12,6-.89,2.6-2.27,5.44-4.36,8.34,0-3.9-5.13-6.98-8.68-6.89-.26,0-.46.25-.39.51.97,3.75,3.58,7.63,7.56,8.32-1.93,2.32-4.35,4.65-7.39,6.89,1.16-3.69-.79-7.71-3.43-10.38-.19-.19-.5-.14-.63.08-2.06,3.27-1.84,10.12,2.49,11.42-2.25,1.53-4.81,3.02-7.71,4.42-.66.32-.91.44-1.15.63-.43.33-.7.8-.77,1.33-.07.53.07,1.06.4,1.49.38.5.97.79,1.6.79.4,0,.78-.12,1.09-.32.08-.05.23-.12.42-.21l.17-.08c4.84-2.33,9.03-5,12.57-7.98-.69,4.19,4.77,7.71,8.51,7.68.27,0,.45-.25.39-.51-.91-3.77-3.46-7.7-7.44-8.45,3.57-3.27,6.4-6.89,8.47-10.85,2.75,3.14,7.6,3.15,11.31,1.83.24-.08.39-.36.24-.59ZM203.81,35.86c.03,3.33-2.54,8.41-6.29,7.81l3.74-4.21c.15-.17.13-.42-.03-.57-.17-.15-.42-.13-.57.03l-3.4,3.82c.53-3.27,3.52-5.68,6.54-6.88ZM184.05,41.92c3.25.07,6.92,1.27,8.55,4.15l-4.53-2.39c-.2-.1-.44-.03-.54.17-.1.2-.03.44.17.54l5,2.64c-3.27,1.93-7.53-2.02-8.64-5.11ZM180.73,49.89c3.27.24,8.22,3.27,7.25,6.94l-3.89-4.1c-.15-.16-.41-.17-.57-.02-.16.15-.17.41-.02.57l3.52,3.72c-3.22-.8-5.36-4.01-6.3-7.12ZM176.34,55.38c2.2,2.4,3.84,5.86,2.9,9.04l-1.4-4.92c-.06-.21-.28-.34-.5-.28-.21.06-.34.28-.28.5l1.55,5.44c-3.66-1.02-3.73-6.85-2.28-9.78ZM192.99,72.83c-3.27-.3-8.15-3.41-7.12-7.07l3.81,4.17c.08.09.19.13.3.13.1,0,.2-.04.27-.11.16-.15.17-.41.02-.57l-3.46-3.78c3.2.85,5.29,4.1,6.18,7.23ZM172.09,73.24l-.17.08c-.21.1-.37.18-.49.25-.52.34-1.26.22-1.63-.27-.2-.26-.28-.58-.24-.9.04-.32.21-.6.46-.8.18-.14.4-.25,1.01-.54,8.18-3.95,13.67-8.55,17.34-13.11.02-.01.03-.03.04-.05.02-.02.03-.04.04-.06,3.67-4.59,5.5-9.12,6.38-12.87.02-.07.01-.15-.01-.22-.2-.57-.47-1.35-.68-1.93.44-.18,1.1.05,1.61.58.91.93,1.24,3.02.9,4.13-.29.95-.62,1.89-.98,2.8-3.8,9.48-11.74,17.19-23.59,22.91ZM196.09,53.85l5.04.83s.04,0,.07,0c.19,0,.36-.14.4-.34.04-.22-.11-.43-.33-.46l-5.57-.92c2.5-2.84,7.79-.48,9.81,2.11-3.12.97-6.93.97-9.41-1.22Z"/>
              </g>
            </g>
          </g>
        </g>
        <g>
          <path class="cls-1" d="M105.22,79.15c-4.24,13.73,9.57,35.31,17.41,34.65,7.83-.66,10.04-4.85,10.04-4.85,0,0,2.85,4.3,6.01,3.28,3.16-1.02,10.44-7.74,11.33-7.3.89.44.69,10.17,3.76,12.28,1.93,1.33,2.67-.39,2.67-.39,0,0,2.81,4.59,5.48,3.64,2.67-.95,1.91-3.39,1.91-3.39,0,0,3.5,3.64,5.59.98,0,0,2.44.33,3.89-.56,1.44-.89.65-2.92.65-2.92,0,0,1.84,1.88,2.89,1.73,1.05-.15.99-3.99.99-3.99,0,0,1.47,3.85,3.31,2.35,1.85-1.49-.34-6.93-.34-6.93,0,0,1.46-2.47,1.22-3.57-.24-1.1-4.12-6.19-4.38-6.82-.25-.62,3.35-.3,2.66-5.01-.68-4.71-6.22-7.02-6.39-7.56-.16-.54,2.6-1.42,2.22-6.36-.38-4.94-3.56-15.43-21.49-22.36-17.94-6.93-43.99,5.43-49.44,23.1Z"/>
          <g>
            <path d="M162.06,83.02c.85,1.15,1.73,1.73,2.59,1.73h.03c1.52-.03,3.47-.98,5.12-2.43.02-.02.03-.03.05-.04.11-.1.22-.2.33-.3,1.4-1.33,2.36-2.85,2.8-4.4,0-.02.01-.04.02-.06.03-.11.06-.22.08-.33.01-.05.02-.1.03-.15.02-.1.04-.19.06-.29.01-.08.02-.17.03-.25.02-.12.03-.23.04-.35,0-.1.01-.2.02-.3,0-.06,0-.13,0-.19,0-.1,0-.21,0-.31,0-.05,0-.11,0-.16-.01-.16-.03-.31-.05-.47-.48-3.35-5.93-8.02-10.62-8.02-1.92,0-3.26.93-3.76,2.61t0,0s0,0,0,0c-.04.15-.08.31-.12.47,0,.02,0,.03-.01.05,0,0,0,.01,0,.02-.73,3.67,1.18,10.22,3.37,13.16ZM164.65,84.12h0s0,0,0,0Z"/>
            <path d="M150.78,91.29c0-.07-.02-.14-.03-.21,0-.07-.02-.14-.03-.21-.03-.14-.07-.28-.12-.41-.27-.72-.94-1.65-1.87-2.65-3.32-3.58-9.97-8.17-13.78-8.17h0s0,0,0,0c-.14,0-.28,0-.42.02-.01,0-.02,0-.04,0-1.35.11-2.48.63-3.38,1.41-.01,0-.02.02-.03.03-.07.06-.13.12-.2.19-.55.52-1.03,1.16-1.41,1.91-.01.02-.02.05-.03.08-.63,1.26-.95,2.71-.94,4.12.04,5.94,4.1,14.75,9.62,14.75.4,0,.79-.04,1.19-.13,3.98-.9,8.68-4.33,10.61-7.72,0,0,0,0,0,0,.04-.07.08-.14.12-.2.05-.1.1-.19.14-.29,0,0,0,0,0,0,.07-.15.14-.29.2-.44.02-.04.03-.07.04-.11.04-.11.08-.22.12-.33.02-.07.04-.14.06-.2.02-.08.04-.16.06-.24.02-.09.04-.18.05-.26.01-.06.02-.12.02-.18.01-.1.02-.19.03-.29,0-.06,0-.11,0-.17,0-.09,0-.18,0-.27Z"/>
            <path d="M160.57,99.88c.14,0,.27-.02.4-.07,1.73-.67,2.2-3.58,2.33-5.2.25.13.54.27.84.4,0,0,0,0,0,0,.01,0,.02,0,.03.01.15.06.3.12.45.18.06.02.11.04.17.06.08.03.16.05.24.07.07.02.14.04.2.05.07.02.14.03.21.04.06.01.11.02.17.03.12.02.24.03.35.03.71,0,1.07-.33,1.24-.61.29-.48-.02-1.04-.13-1.25-1.18-2.11-9.28-9.91-11.53-9.91-.1,0-.2.01-.29.04-.22.06-.39.19-.52.37-.03.04-.06.08-.09.14,0,0,0,.01,0,.02-.25.57-.31,1.42-.17,2.61,0,0,0,.01,0,.02.4,3.44,2.34,8.69,3.98,11.23.77,1.2,1.44,1.75,2.1,1.75Z"/>
            <path d="M181.51,107.77c.43-.77,1.38-2.65,1.14-3.76-.17-.75-1.38-2.53-3.07-4.94-.41-.58-.85-1.21-1.11-1.61.95-.42,3.04-1.41,2.48-5.23-.25-1.74-1.1-3.16-2.12-4.3,0,0,0-.01,0-.02-.05-.06-.1-.11-.15-.16-.08-.09-.16-.18-.25-.26-.07-.07-.14-.15-.22-.22-.08-.08-.16-.15-.24-.23-.08-.07-.16-.14-.24-.21-.08-.07-.15-.13-.22-.19-.08-.07-.16-.14-.24-.2-.07-.06-.15-.12-.22-.18-.08-.06-.16-.12-.23-.18-.08-.06-.16-.12-.23-.18-.07-.05-.13-.1-.2-.15-.1-.07-.19-.14-.28-.2-.04-.03-.08-.06-.12-.09-.28-.19-.54-.36-.76-.51-.15-.1-.32-.21-.45-.31,0,0,.01-.01.02-.02.71-.72,2.13-2.17,2.05-5.56,0-.23-.02-.46-.04-.71,0,0,0-.02,0-.02-.03-.34-.07-.68-.11-1.03-1.7-12.75-15.71-19.5-21.78-21.84-3.44-1.33-7.25-2-11.32-2-17.14,0-34.61,11.44-38.95,25.5-2.7,8.76,1.81,20.53,7.15,27.77,3.29,4.45,6.75,7.18,9.66,7.64.01,0,.02,0,.03,0,.18.03.36.04.54.05.03,0,.06,0,.09,0,.2,0,.41,0,.6-.01,6.09-.52,8.93-3.09,10-4.41.89,1.08,2.77,3,5,3,.4,0,.8-.06,1.19-.19,1.76-.57,4.57-2.69,7.05-4.56.4-.3.83-.62,1.25-.94.64-.47,1.26-.93,1.76-1.26.31-.2.57-.37.75-.46.15.52.3,1.65.43,2.59.26,1.92.58,4.25,1.21,6.18,0,.02.01.04.02.05,0,0,0,0,0,.01.48,1.43,1.13,2.63,2.07,3.28.59.41,1.16.61,1.7.61s.97-.2,1.28-.46c.86,1.17,2.73,3.34,4.77,3.34.33,0,.66-.06.97-.17,1.57-.56,2.2-1.61,2.38-2.58.79.57,1.9,1.18,3.02,1.18.82,0,1.56-.33,2.15-.94.77.06,2.66.11,3.95-.68.77-.47,1.07-1.2,1.15-1.92.67.49,1.5.91,2.16.81.86-.12,1.25-1.22,1.42-2.43.5.62,1.15,1.14,1.93,1.14h0c.44,0,.86-.16,1.26-.48,1.69-1.36.79-4.92.2-6.68-.05-.18-.13-.42-.24-.69ZM155.12,117.08c-.27,0-.62-.14-.99-.39-.67-.46-1.17-1.4-1.56-2.55-.06-2.1.12-4.58.27-6.77.28-3.98.42-6.47-.25-7.52-.34-.53-.85-.81-1.46-.81-1.7,0-4.04,2.22-7.29,5.28-1.34,1.26-2.73,2.57-4.19,3.83-.96.83-1.89,1.25-2.76,1.25-3.14,0-5.07-5.31-5.15-5.52-1.18-4.6-3.01-5.75-5.14-7.07-.96-.6-1.95-1.22-3.06-2.22-2.7-2.45-1.49-5.61-.52-7.28.05-.09.08-.16.09-.18.13-.32-.02-.71-.34-.84-.32-.13-.68,0-.81.33l-.04.06c-1.96,3.4-1.68,6.62.77,8.84.58.52,1.13.95,1.66,1.32-.07,2.86-.25,5.72-.39,8.59-.02.41.61.4.63,0,.13-2.72.3-5.44.37-8.17.2.13.41.27.6.39.04,2.88.15,5.76.19,8.64,0,.41.63.41.63,0-.03-2.75-.14-5.5-.18-8.24.14.09.28.18.42.26.13,2.11-.02,4.23-.02,6.34,0,.41.63.41.63,0,0-1.96.13-3.93.05-5.89.19.14.37.28.55.44-.04,1.78-.06,3.56.03,5.33.02.4.65.41.63,0-.08-1.58-.07-3.15-.04-4.73.27.3.53.64.77,1.04.08.94.02,1.88-.13,2.82-.06.4.54.57.61.17.09-.55.15-1.11.18-1.66.21.53.42,1.15.6,1.85-2.78,5.74-6.97,7.95-10.08,8.78-2.31-.9-5.02-3.3-7.6-6.8-5.16-6.99-9.53-18.3-6.96-26.65,4.19-13.58,21.12-24.62,37.74-24.62,3.92,0,7.58.65,10.87,1.92,5.35,2.06,17.08,7.66,20.31,17.82,0,0,0,0,0,.01.17,2.42-.14,5.87-2.61,8.56-.3.33-1,1.09-.73,2.08.37,1.34,2.4,2.51,6.58,3.77.84.98,1.52,2.15,1.72,3.54.43,2.93-.91,3.52-1.79,3.91-.34.15-1.13.5-.83,1.24.11.27.49.82,1.47,2.22.96,1.37,2.75,3.92,2.87,4.49.09.41-.25,1.33-.64,2.16-.25-.32-.54-.58-.89-.73-.43-.18-.87-.15-1.27.08-.71.41-1.22,1.77-1.55,2.99-.31-.39-.63-.66-.91-.83-.66-.41-1.42-.5-2.13-.26-.97.33-1.47,1.63-1.71,2.71-.59-.55-1.24-.83-2.01-.66-.96.22-1.6,1.44-1.99,2.59-.45-.93-.98-1.62-1.62-1.92-.51-.24-1.07-.23-1.61.05-1.41.71-1.85,2.61-1.95,4.2-1.81-2.89-3.22-4.33-4.46-4.62-.54-.12-1.05-.03-1.5.27-1.59,1.09-2.33,4.61-1.47,6.47-.12.14-.31.29-.59.29ZM161.72,119.87c-.18.06-.35.09-.54.09-1.69,0-3.6-2.5-4.19-3.47,0,0,0,0,0-.01,0,0,0-.01,0-.02-.78-1.14-.19-4.33.93-5.1.15-.11.3-.13.5-.09.75.17,2.19,1.37,4.85,6.04.08.31.37,1.87-1.53,2.55ZM164.44,116.78c-.13-1.33-.13-4.51,1.22-5.19.25-.12.39-.08.51-.03,1.17.55,2.06,4.18,2.57,6.32-.34.35-.74.52-1.2.52-1.16,0-2.52-1.06-3.1-1.62ZM172.98,116.96c-.55.34-1.44.53-2.5.53-.21,0-.39,0-.54-.02-.26-1.1-.53-2.16-.83-3.11.29-1.53.96-3.25,1.49-3.37.91-.21,1.89,1.62,2.74,3.56,0,.08,0,.17.04.25,0,.02.59,1.55-.39,2.16ZM176.72,115.68c-.49,0-1.47-.75-2.11-1.35-.39-.9-.8-1.79-1.25-2.54.13-1.28.58-2.73,1.06-2.89.25-.08.63-.12,1.07.15.47.29,1.32,1.15,1.71,3.65-.01,1.37-.23,2.71-.49,2.99ZM180.76,114.17c-.17.14-.32.2-.47.2-.67,0-1.5-1.37-1.86-2.29-.02-.04-.04-.07-.06-.1-.11-.56-.24-1.04-.39-1.46.32-1.71.91-3.41,1.26-3.61.07-.04.11-.04.17-.02.25.1.59.54.88,1.22.08.21.17.45.25.71.02.05.03.1.05.16,0,.02.01.04.02.05.17.54.33,1.14.45,1.74-.22-.43-.42-.88-.63-1.31-.11-.23-.35-.19-.49-.04-.21-.5-.42-1-.61-1.51-.14-.38-.75-.21-.61.17.39,1.06.9,2.08,1.23,3.16.1.34.57.26.62-.02,0,.02.02.03.02.05.14.25.44.17.54-.03.21,1.27.19,2.47-.39,2.94Z"/>
            <path d="M138.86,107.15c-.91.55-1.72.64-2.48.3-2.29-1.05-3.6-5.95-3.91-7.75-.06-.34-.39-.58-.73-.51-.34.06-.57.39-.51.73.05.29,1.26,7.14,4.62,8.68.46.21.94.32,1.43.32.72,0,1.46-.23,2.22-.68.3-.18.4-.56.22-.86-.18-.3-.57-.4-.86-.22Z"/>
            <path d="M159.23,114.18c-.16-.29-.54-.13-.58.12-.21-.43-.44-.85-.69-1.26-.21-.35-.76-.03-.54.32.97,1.57,1.61,3.32,2,5.12.09.4.69.23.61-.17-.11-.54-.26-1.07-.42-1.59.1.3.21.6.32.89.14.38.75.21.61-.17-.41-1.1-.75-2.23-1.31-3.27Z"/>
            <path d="M165.67,113.77c-.15-.37-.76-.21-.61.17.39.93.75,1.86,1.05,2.82.12.39.73.22.61-.17-.31-.96-.67-1.89-1.05-2.82Z"/>
            <path d="M166.24,113.39c-.17-.37-.71-.05-.54.32.23.51.38,1.05.61,1.56.16.37.71.05.54-.32-.23-.51-.38-1.05-.61-1.56Z"/>
            <path d="M172.13,113.89c.2.09.47.01.44-.26-.03-.28-.09-.56-.18-.83-.13-.38-.74-.22-.61.17.04.13.08.26.11.4-.19-.28-.66.01-.51.36-.11-.26-.21-.52-.32-.77-.17-.37-.71-.05-.54.32.37.82.68,1.66,1.01,2.49.15.37.76.21.61-.17-.24-.59-.47-1.18-.71-1.77.22.49.43.99.62,1.5.14.38.75.21.61-.17-.16-.43-.34-.84-.52-1.26Z"/>
            <path d="M174.57,111.27c-.16-.37-.7-.05-.54.32.32.74.61,1.49.85,2.26.12.39.73.22.61-.17-.25-.82-.57-1.62-.92-2.41Z"/>
            <path d="M174.79,109.88c-.16-.37-.7-.05-.54.32.38.89.8,1.77,1.07,2.7.12.39.72.22.61-.17-.29-.98-.74-1.91-1.14-2.85Z"/>
            <path d="M177.15,113.43c-.13-.62-.43-1.18-.64-1.78-.14-.38-.75-.22-.61.17.22.59.51,1.16.64,1.78.09.4.69.23.61-.17Z"/>
            <path d="M179.05,109.7c-.15-.37-.77-.21-.61.17.37.87.75,1.73.96,2.65.09.4.7.23.61-.17-.21-.92-.6-1.78-.96-2.65Z"/>
            <path d="M145.09,81.87c.15.37.76.21.61-.17-.44-1.07-.85-2.14-1.16-3.25-.11-.39-.72-.22-.61.17.31,1.11.72,2.18,1.16,3.25Z"/>
            <path d="M146.26,82.48c.08.4.69.23.61-.17-.23-1.16-.62-2.27-1.03-3.38-.14-.38-.75-.22-.61.17.41,1.11.8,2.22,1.03,3.38Z"/>
            <path d="M147.65,83.24c.15.37.76.21.61-.17-.24-.6-.46-1.2-.66-1.81-.12-.39-.73-.22-.61.17.19.61.42,1.21.66,1.81Z"/>
            <path d="M155.59,71.29c.02.41.65.41.63,0-.07-1.49-.29-2.97-.59-4.43-.08-.4-.69-.23-.61.17.29,1.41.5,2.82.57,4.26Z"/>
            <path d="M157.22,70.7c-.02-.81-.13-1.61-.25-2.4-.06-.4-.66-.23-.61.17.11.74.21,1.49.23,2.24.01.4.64.41.63,0Z"/>
            <path d="M158.31,70.46c-.05-.34-.06-.68-.1-1.02-.05-.4-.68-.4-.63,0,.05.4.07.79.12,1.19.06.4.66.23.61-.17Z"/>
          </g>
          <g>
            <path class="cls-1" d="M148.02,95.22c.23-.79.23-1.51,0-2.13-1.23-3.26-10.63-10.67-15.4-10.67-.56,0-1.08.08-1.58.21.98-1.25,2.34-1.94,3.92-1.96,4.46,0,13.54,7.12,14.68,10.14.4,1.06-.23,2.69-1.62,4.4Z"/>
            <path class="cls-1" d="M170.31,80.35c.34-1.02.44-2.05.29-3.04-.55-3.78-6.57-7.83-10.4-7.83-.12,0-.24,0-.36.01.4-1.16,1.32-1.75,2.73-1.75,3.76,0,9.15,4,9.6,7.14.26,1.81-.42,3.76-1.87,5.47Z"/>
          </g>
        </g>
        <g>
          <path class="cls-1" d="M36.77,73.13c.02,6.54.8,13.03,1.02,19.56.01.39.63.39.61,0-.22-6.53-.99-13.03-1.02-19.56,0-.39-.61-.39-.61,0h0Z"/>
          <path class="cls-1" d="M40.64,71.3c.37,4.96-.18,9.92-.2,14.88,0,.39.61.39.61,0,.02-4.96.58-9.92.2-14.88-.03-.39-.64-.39-.61,0h0Z"/>
          <path class="cls-1" d="M43.09,70.69c-.39,3.79-.21,7.61-.2,11.41,0,.39.61.39.61,0,0-3.81-.19-7.62.2-11.41.04-.39-.57-.39-.61,0h0Z"/>
          <path class="cls-1" d="M45.94,70.07c-.37,3.19-.21,6.38-.2,9.58,0,.39.61.39.61,0-.01-3.2-.16-6.39.2-9.58.04-.39-.57-.39-.61,0h0Z"/>
          <path class="cls-1" d="M32.29,82.71c-.19,6.04.17,12.1-.2,18.14-.02.39.59.39.61,0,.38-6.04.01-12.09.2-18.14.01-.39-.6-.39-.61,0h0Z"/>
          <path class="cls-1" d="M30.05,89.03c0,3.33.02,6.66.2,9.98.02.39.63.39.61,0-.19-3.33-.2-6.65-.2-9.98,0-.39-.61-.39-.61,0h0Z"/>
          <path class="cls-1" d="M144.38,27.4c-1.38,4-2.46,8.11-4.08,12.02-.15.37.44.52.59.16,1.62-3.92,2.69-8.02,4.08-12.02.13-.37-.46-.53-.59-.16h0Z"/>
          <path class="cls-1" d="M146.42,30.05c-.81,2.58-1.8,5.11-2.44,7.74-.09.38.5.55.59.16.64-2.64,1.63-5.16,2.45-7.74.12-.38-.47-.54-.59-.16h0Z"/>
          <path class="cls-1" d="M150.7,29.03c-1,2.43-1.86,4.91-2.85,7.34-.15.36.44.52.59.16,1-2.43,1.85-4.91,2.85-7.34.15-.36-.44-.52-.59-.16h0Z"/>
          <path class="cls-1" d="M138.3,29.17c-1.24,2.73-2.25,5.55-3.09,8.43-.11.38.48.54.59.16.82-2.83,1.81-5.6,3.03-8.28.16-.36-.36-.67-.53-.31h0Z"/>
        </g>
      </g>
      <g>
        <path d="M180.71,14.26c1.67-4.42,3.01-8.95,4.33-13.49.23-.78-.99-1.11-1.21-.34-1.32,4.54-2.66,9.06-4.33,13.49-.29.76.93,1.09,1.21.33h0Z"/>
        <path d="M185.6,16.72c2.83-3.61,5.86-7.22,8.28-11.12.43-.69-.66-1.33-1.09-.64-2.36,3.82-5.32,7.34-8.08,10.87-.49.63.39,1.53.89.89h0Z"/>
        <path d="M187.58,19.55c2.86-.85,5.45-2.48,8.06-3.87.72-.38.08-1.47-.64-1.09-2.52,1.34-5.01,2.93-7.76,3.75-.78.23-.45,1.45.33,1.21h0Z"/>
        <path d="M176.78,13.35c-.45-2.91-.49-5.89-.49-8.82,0-.81-1.26-.81-1.26,0,0,3.05.07,6.14.54,9.16.12.8,1.34.46,1.22-.34h0Z"/>
        <path d="M24.37,144.3c-4.55,1.07-9.02,2.43-13.35,4.22-.74.31-.42,1.52.33,1.21,4.33-1.78,8.8-3.15,13.35-4.22.79-.18.46-1.4-.34-1.21h0Z"/>
        <path d="M23.17,150.68c-2.01,1.26-3.93,2.65-5.97,3.87-.7.41-.06,1.5.63,1.09,2.04-1.21,3.96-2.6,5.97-3.86.69-.43.06-1.52-.64-1.09h0Z"/>
        <path d="M29.56,150.36c-.7,3.39-1.26,6.83-2.11,10.19-.2.79,1.02,1.12,1.22.34.85-3.35,1.41-6.8,2.11-10.19.16-.79-1.05-1.13-1.21-.33h0Z"/>
        <path d="M185.71,117.95c2.4,2.04,4.94,3.89,7.51,5.72.66.47,1.29-.62.64-1.09-2.47-1.77-4.93-3.55-7.25-5.52-.62-.52-1.51.36-.89.89h0Z"/>
        <path d="M187.92,115.67c3.17.34,6.28.98,9.17,2.37.73.35,1.37-.73.64-1.09-3.09-1.5-6.4-2.18-9.8-2.55-.81-.08-.8,1.17,0,1.26h0Z"/>
      </g>
    </g>
  </g>
</svg>