<?xml version="1.0" encoding="UTF-8"?>
<svg id="Layer_2" data-name="Layer 2" xmlns="http://www.w3.org/2000/svg" viewBox="0 0 181.63 172.69">
  <defs>
    <style>
      .cls-1, .cls-2 {
        fill: #fff;
      }

      .cls-2, .cls-3, .cls-4 {
        stroke: #000;
        stroke-linecap: round;
        stroke-linejoin: round;
      }

      .cls-2, .cls-4 {
        stroke-width: 2px;
      }
    </style>
  </defs>
  <g id="OBJECTS">
    <g>
      <path class="cls-3" d="M173.56,166.85l.85-3.51-14.84-2.62,15.55-.32.6-2.48c-84.27.34-175.23,0-175.23,0l2.78,6.96,48.52,1.81-46.45,3.38.85,2.13c78.81-1.98,166.06,0,166.06,0l.62-2.57-27.68-1.77s16.29-.99,28.36-1Z"/>
      <g>
        <g>
          <path d="M63.13,49.69c-4.18-3.51-.46-9.88,3.32-11.34,9.78-3.38,20.39.89,27.55,7.71,11.95,11.48,13.59,30.97,7.79,45.76-4.25,10.8-11.64,19.36-16.49,29.85-5.73,12.51,4.25,27.66,18.7,23.85l.45,3.35c-9.39,2.01-19.6,2.23-26.48-5.38-6.49-7.47-5.83-15.33-3.59-24.15,2.87-11.18,7.77-21.3,8.34-32.75.47-7.83-.57-15.65-4.14-22.56-3.55-6.73-9.86-9.63-15.45-14.33Z"/>
          <path d="M63.84,48.99c-1.76-1.53-1.9-3.77-.92-5.8.51-1.05,1.21-1.99,2.09-2.76s1.79-1.16,2.88-1.47c5.7-1.61,11.8-.58,17.05,1.99s9.52,6.26,12.67,10.96c2.94,4.38,4.81,9.38,5.74,14.56s.92,10.69.02,15.94c-.99,5.75-3.11,11.12-5.89,16.24-3.1,5.71-6.82,11.05-10.02,16.7-1.48,2.61-3.03,5.31-3.93,8.18-.69,2.18-.98,4.52-.83,6.8.29,4.5,2.15,8.88,5.37,12.07s7.81,4.98,12.43,4.71c1.28-.08,2.54-.29,3.78-.61l-1.27-.96.45,3.35.73-.96c-7.34,1.56-15.72,2.16-22.24-2.26-3.37-2.28-5.97-5.83-7.21-9.7s-1.1-7.64-.45-11.44c1.56-9.18,5.42-17.78,7.68-26.79s2.76-19.04-.03-28.1c-1.3-4.23-3.27-8.19-6.38-11.38-2.8-2.86-6.2-5.04-9.39-7.43-.79-.59-1.57-1.2-2.33-1.84-.98-.82-2.4.59-1.41,1.41,3.13,2.62,6.62,4.77,9.72,7.42,1.51,1.29,2.94,2.72,4.11,4.34,1.32,1.84,2.29,3.9,3.08,6.01,3.31,8.9,3.11,18.92.94,28.06s-6.12,17.88-7.82,27.18c-.73,3.97-.98,8.07.04,12.02s3.45,7.9,6.66,10.61c6.31,5.33,14.79,5.65,22.59,4.37.99-.16,1.98-.35,2.97-.56.38-.08.79-.55.73-.96l-.45-3.35c-.08-.64-.57-1.14-1.27-.96-4.49,1.16-9.28.47-12.98-2.45-3.38-2.66-5.55-6.78-6-11.05-.24-2.31-.03-4.64.65-6.87.86-2.83,2.43-5.48,3.89-8.04,3.28-5.77,7.1-11.23,10.22-17.09,2.77-5.2,4.88-10.67,5.84-16.49.89-5.45.91-11.02-.05-16.47s-2.91-10.67-5.97-15.22c-3.24-4.81-7.7-8.77-12.86-11.41s-11.57-4.05-17.57-2.83c-1.34.27-2.76.61-3.94,1.33-1.05.64-1.95,1.5-2.69,2.47-1.47,1.92-2.41,4.47-1.8,6.9.31,1.2,1.01,2.25,1.94,3.06s2.39-.57,1.41-1.41Z"/>
        </g>
        <path class="cls-4" d="M126.79,26.1S108.18-.05,102.37,2.52c-5.81,2.57-.52,43.81-.52,43.81,0,0-18.14,18.46,20.89,33,0,0,2.23,8.4-12.51,24.2-11.46,12.29-23.52,38.29-5.19,55.93h48.88s14.84-26.01,13.09-44.77c-1.75-18.77-15.21-25.97-14.84-35.97,0,0,23.62-12.44,28.1-29.25,2.32-8.7-7.53-16.14-7.53-16.14,0,0-2.61-31.47-7.57-32.28-4.96-.81-19.35,22.43-19.35,22.43,0,0-11.78.85-19.02,2.64Z"/>
        <g>
          <path class="cls-1" d="M155.53,55.69c-.71,3.07-2.63,6.81-5.76,7.98,1.26-2.39.29-5.78.19-8.3-.01-.29-.42-.29-.45,0-.21,2.67.49,6.47-1.44,8.64,0,0,0,.02-.02.03-.02,0-.04,0-.06,0-3.88.16-6.14-3.79-7.18-6.99-.01-.05-.09-.04-.09.01.09,4.08,2.43,7.99,6.82,8.38,5.31.47,7.27-5.77,8.07-9.73.01-.06-.07-.08-.09-.02Z"/>
          <path class="cls-1" d="M143.9,52.15c-1.16,1.69-.11,6.6,5.5,5.84,4.63-.63,5.07-6.04,3.34-7.59-1.22-1.11-7.2-.65-8.85,1.76Z"/>
          <path class="cls-1" d="M121.9,47.22c.7,4.17,3.41,10.8,7.81,12.25,7.7,2.55,7.22-11.9,6.86-15.89-.03-.34-.52-.44-.61-.08-.75,2.83-.61,17.19-6.56,13.34-3.06-1.98-5.77-6.37-6.89-9.79-.13-.39-.67-.23-.6.17h0Z"/>
          <path class="cls-1" d="M158.43,44.03c-.17,4.01.71,11.74,5.82,12.44,5.7.78,5.25-11.05,5.05-14.07-.01-.2-.3-.25-.35-.05-.88,3.38-.33,9.76-3.78,11.95-3.39,2.15-6.26-8.44-6.58-10.29-.02-.1-.17-.07-.18.02h0Z"/>
          <g>
            <path class="cls-1" d="M113.4,69.06c7.68-3.58,15.8-5.68,24.06-7.42.46-.1.26-.77-.19-.69-8.42,1.43-16.45,3.88-24.09,7.72-.26.13-.03.5.23.38h0Z"/>
            <path class="cls-1" d="M173.99,58.29c-5.73-.69-11.17-.32-16.78.95-.46.1-.25.75.19.69,5.49-.77,11.03-1.65,16.59-1.46.12,0,.11-.17,0-.18h0Z"/>
            <path class="cls-1" d="M166.77,64.37c-3.18-.43-6.31-1.29-9.49-1.72-.33-.05-.48.41-.14.52,3.16.94,6.29,1.78,9.6,1.46.14-.01.2-.24.04-.26h0Z"/>
            <path class="cls-1" d="M130.58,68.78c2.5-1.63,5.01-3.28,7.42-5.05.41-.3.01-1-.41-.69-2.42,1.78-4.77,3.66-7.19,5.43-.18.13-.02.44.18.31h0Z"/>
          </g>
        </g>
        <path class="cls-1" d="M107.62,11.19c-1.12.46-.78,26.05,0,26.39.78.34,7.07-7.6,15.1-9.95,0,0-12.08-17.67-15.1-16.44Z"/>
        <path class="cls-1" d="M155.57,24.36s9.43,3.27,13.55,5.62c0,0-1.24-23.03-3.37-23.03s-11.88,16.81-10.18,17.42Z"/>
        <g>
          <path class="cls-1" d="M111.52,115.77c5.44-2.24,11.45-1.23,13.86,4.71,1.6,3.94.1,8.94-1.06,12.77-1.77,5.87-4.43,11.74-7.97,16.76-.22.3.25.65.51.39,6.41-6.5,10.67-19.28,9.78-28.24-.79-7.93-9.16-9.46-15.16-6.45-.04.02-.01.09.03.07h0Z"/>
          <path class="cls-1" d="M109.1,151.99c8.4-2.06,25.41-4.31,26.59,7.41.04.38.61.52.71.1,3.23-13.71-20.81-10.24-27.41-7.9-.24.09-.15.45.11.39h0Z"/>
          <path class="cls-1" d="M130.01,153.35c1.22,1.94,1.44,3.82,1.31,6.06-.03.5.75.6.87.12.58-2.3-.44-4.63-1.87-6.42-.14-.18-.44.05-.32.24h0Z"/>
          <path class="cls-1" d="M127.64,155.8c.33,1.21.47,2.35.37,3.61-.06.77,1.21.79,1.21,0,0-1.35-.44-2.64-.99-3.85-.15-.34-.69-.1-.59.25h0Z"/>
          <path class="cls-1" d="M145.24,155.65c.89,1.18,1.05,2.3,1.01,3.74-.01.52.72.58.87.12.51-1.53-.49-3.09-1.57-4.1-.16-.15-.46.05-.32.25h0Z"/>
          <path class="cls-1" d="M142.4,156.21c.24.94.3,1.81.22,2.77-.07.77,1.21.79,1.21,0,0-1.06-.38-2.07-.84-3.02-.16-.34-.68-.1-.59.25h0Z"/>
          <path class="cls-1" d="M130.96,114.2c-3.44,12.26-5.08,25.55,1.46,37.13.2.35.8.11.66-.28-4.37-12.32-4.12-24.03-1.97-36.8.02-.1-.13-.14-.16-.04h0Z"/>
          <path class="cls-1" d="M140.25,118.44c-1.53,8.32-2.26,17.31-.14,25.6.74,2.91,1.56,5.89,3.05,8.51.25.44.58.95,1.08,1.11,2.34.77,3.59,2.86,4.41,5.1.21.58.96.45,1.03-.14.55-4.6-4.32-5.6-6.02-9.09-4.63-9.49-4.62-20.83-3.26-31.06.01-.09-.14-.11-.16-.02h0Z"/>
          <path class="cls-1" d="M153.68,123.27c-.6,10.34-4.45,20.39-9.65,29.24-.31.53.39,1.03.82.64,7.1-6.41,9.15-20.96,9.15-29.88,0-.21-.31-.21-.32,0h0Z"/>
          <path class="cls-1" d="M145.57,86.41c-.3-.29-.71.14-.45.45,2.46,2.89,5.07,5.64,7.21,8.79,1.19,1.76,2.58,3.77,2.25,5.88-.53,3.48-3.36,4.01-6.04,2.27-.52-.39-1.04-.79-1.56-1.18-.25-.32-.5-.63-.76-.9-.39-.42-1.01.21-.63.63.3.33,2.53,3.07,3.56,9.09.56,3.28-1.95,5.62-4.45,2.8-2.04-2.29-3.91-5.86-4.41-8.9-.01-.08-.15-.06-.14.02.33,3.56,3.18,11.84,7.59,11.94,2.19.05,2.74-3.18,2.81-4.71.11-2.64-.9-5.72-2.39-8.23,3.11,1.75,6.98,1.87,7.6-2.67.81-5.87-6.54-11.75-10.19-15.28Z"/>
        </g>
        <path class="cls-1" d="M98.79,49.71s-.15.38-.42,1.04c-.11.34-.28.72-.41,1.2-.15.47-.3.99-.42,1.58-.14.58-.24,1.22-.3,1.89-.02.34-.06.68-.08,1.04,0,.35,0,.72.01,1.08.06.73.1,1.49.29,2.24.11.77.4,1.5.64,2.25.34.71.59,1.46,1.02,2.12.19.34.39.67.58,1.01.22.31.44.62.65.93.4.63.89,1.18,1.34,1.7.43.54.89,1.01,1.33,1.43.43.43.79.85,1.17,1.17.37.33.7.61.96.85.53.48.83.75.83.75h0c.05.06.06.14,0,.19-.05.05-.12.06-.17.02,0,0-.34-.23-.93-.64-.29-.21-.65-.46-1.06-.76-.41-.29-.83-.68-1.31-1.07-.47-.4-.98-.85-1.46-1.38-.49-.52-1.03-1.05-1.49-1.68-.24-.31-.49-.62-.73-.94-.21-.34-.43-.69-.65-1.05-.47-.69-.77-1.48-1.14-2.24-.26-.8-.58-1.6-.72-2.43-.2-.81-.23-1.65-.28-2.44.01-.4.02-.79.03-1.17.03-.38.09-.75.14-1.11.12-.72.28-1.39.48-1.98.19-.6.41-1.14.63-1.6.2-.46.45-.85.61-1.17.37-.62.61-.95.61-.95h0c.04-.07.13-.08.19-.04.05.04.07.1.05.16Z"/>
      </g>
      <g>
        <path class="cls-2" d="M62.14,147.96s12.31,10.98,22.91,3.98c10.61-7.01,17.99-53.41-11.46-64.01-29.45-10.61-53.5,5.43-53.5,30.87,0,1.52,4.36,4.36,4.36,4.36l-2.65,9.28s-5.87-.95-6.63,3.98c-.76,4.92,8.33,12.12,8.33,12.12,0,0-2.41,5.97-1.33,8.14,2.08,4.16,32.58,4.16,36.55,1.36,2.63-1.86,3.41-10.07,3.41-10.07Z"/>
        <path d="M62.55,146.47s11.55-1.51,10.23-10.23c-1.33-8.71-10.98-10.8-6.44-27.65,0,0-2.38,10.43,3.72,16.23,7.97,7.58,9.91,22.59-7.51,21.64Z"/>
        <path class="cls-4" d="M20.09,118.79c-1.38,1.15-.14,13.2,1.7,13.64,1.84.44,5.71.26,5.04-4.88-.67-5.14-4.17-10.91-6.75-8.76Z"/>
        <path class="cls-4" d="M47.12,116.2c-3.59,2.61-9.3,11.69-7.55,15.24,1.75,3.55,13.83,4.17,16.09-.24,2.26-4.4-4.04-18.27-8.54-15.01Z"/>
        <path class="cls-2" d="M22.52,125.49c-.96-1.92-.65-4.53-.33-6.94-.72-.35-1.44-.32-2.1.23-1.38,1.15-.14,13.2,1.7,13.64,1.66.4,4.98.27,5.1-3.55-1.76-.76-3.57-1.66-4.38-3.39Z"/>
        <path class="cls-2" d="M52.08,131.68c-2.23-.22-5.29-.45-6.85-2.38-1.41-1.79.15-4.69.89-6.55.98-2.39,2.14-4.64,3.47-6.81-.84-.34-1.68-.3-2.47.27-3.59,2.61-9.3,11.69-7.55,15.24,1.63,3.31,12.21,4.07,15.49.6-.99-.12-1.98-.24-2.97-.37Z"/>
        <path class="cls-4" d="M33.02,137.71s1.56,3.57,4.69,2.01c3.13-1.56-3.13-10.87-4.69-10.87s-5.06,6.48-4.32,8.79c.78,2.41,3.05,2.53,4.32.07Z"/>
        <path class="cls-2" d="M33.09,134.43c-.52-1.36-.53-3.73.25-5.49-.12-.06-.23-.1-.32-.1-1.56,0-5.06,6.48-4.32,8.79.78,2.41,3.05,2.53,4.32.07,0,0,1.56,3.57,4.69,2.01.9-.45,1.01-1.54.69-2.85-2.1.61-4.44-.25-5.31-2.43Z"/>
        <g>
          <path d="M30.03,149.42c-1.14,3.04-2.19,6.3-2.16,9.55.49.09,1,.17,1.54.25.05-3.26.22-6.43.99-9.7.06-.25-.29-.33-.37-.1Z"/>
          <path d="M38.05,149.24c-1.22,3.46-1.98,6.97-2.47,10.56.42.02.85.05,1.27.07.45-3.51.89-7.03,1.79-10.46.1-.39-.47-.54-.6-.17Z"/>
          <path d="M45.73,150.59c-.59,3.13-1.47,6.24-2.06,9.39.53,0,1.06-.02,1.58-.03.53-3.07.76-6.23,1.02-9.29.03-.31-.48-.37-.53-.07Z"/>
          <path d="M54.1,150.51c-.02-.55-.83-.55-.86,0-.13,3.09-.73,6.08-1.43,9.05.58-.06,1.13-.12,1.66-.19.56-2.91.75-5.88.62-8.86Z"/>
        </g>
        <path d="M44.97,91.6h-.03c-.17,0-.34.09-.43.25l-4.38,7.36c-.06.11-.04.25.07.32.11.08.26.05.34-.06l4.72-6.77,9.59.19c-.18.12-.37.23-.55.35-.91.61-1.81,1.23-2.67,1.93l-.09.08s-.08.08-.1.14l-2.01,4.79c-.04.1,0,.23.1.28.11.06.25.02.31-.09l2.43-4.37c.98-.42,1.92-.91,2.85-1.42.9-.5,1.79-1.02,2.63-1.63l3.07.06c.21,0,.43-.08.6-.24l.06-.06,6.51-6.52c-1.1-.28-2.19-.51-3.27-.71l-4.33,5.81-15.39.3Z"/>
        <g>
          <path d="M86.52,109.1c.11-.22-.22-.42-.34-.2-1.88,3.57-4.24,6.66-6.89,9.68-.23.26.12.62.38.38,2.95-2.71,5.09-6.3,6.84-9.87Z"/>
          <path d="M80.15,121.64c2.67-2.34,4.67-5.2,6.19-8.39.06-.13-.13-.25-.2-.12-1.59,3.12-3.67,5.89-6.37,8.13-.27.22.12.62.38.38Z"/>
          <path d="M87.5,115.9c-1.89,3.51-4.45,6.32-7.53,8.82-.28.23.08.67.38.49,3.48-2.09,5.76-5.51,7.42-9.15.08-.18-.17-.34-.27-.16Z"/>
          <path d="M86.5,122.26c-1.17,1.63-2.59,3-4.18,4.2-.45.34.04.97.47.61,1.59-1.33,2.99-2.83,4.12-4.58.17-.26-.23-.48-.4-.24Z"/>
        </g>
        <path d="M31.58,102.85c-1.5.57-2.97,1.29-4.33,2.16-.16-.5-.27-1.03-.31-1.59-.01-.2-.31-.2-.31,0,0,.61.09,1.23.23,1.85-.44.3-.87.61-1.28.94-.18-.9-.27-1.83-.23-2.8,0-.09-.14-.11-.15-.02-.17,1.08-.18,2.14-.09,3.19-1.1.96-2.08,2.06-2.86,3.32-.19.3.28.56.47.27.7-1.06,1.56-1.95,2.49-2.75.1.66.25,1.32.45,1.96-.47.44-.9.91-1.28,1.46-.17.25.23.48.4.24.31-.44.66-.82,1.04-1.18.19.58.43,1.15.69,1.71-.46.4-.89.85-1.3,1.26-.25.25.13.63.38.38.39-.37.79-.71,1.21-1.04.17.34.35.68.54,1,.17.3.69.1.57-.24-.16-.43-.32-.85-.49-1.27.28-.22.56-.44.85-.67.25-.21-.07-.56-.33-.43-.27.13-.52.29-.77.46-.23-.59-.46-1.18-.68-1.77.47-.38.96-.72,1.49-1.03.3.6.64,1.16.99,1.68.23.33.7.05.54-.31-.27-.6-.58-1.17-.89-1.73.97-.53,1.99-1,2.97-1.48.31-.15.04-.63-.27-.47-.98.49-1.98.97-2.94,1.51-.31-.56-.6-1.13-.84-1.72,1.38-.86,2.85-1.59,4.33-2.28.36-.17.1-.78-.27-.64ZM27.75,107.85c-.5.3-.98.63-1.44,1-.21-.61-.41-1.23-.57-1.86.42-.33.86-.64,1.31-.93.18.61.42,1.21.69,1.79Z"/>
      </g>
    </g>
  </g>
</svg>