<?xml version="1.0" encoding="UTF-8"?>
<svg id="Layer_2" data-name="Layer 2" xmlns="http://www.w3.org/2000/svg" viewBox="0 0 190.5 194.23">
  <defs>
    <style>
      .cls-1 {
        stroke: #fff;
        stroke-miterlimit: 10;
      }

      .cls-1, .cls-2, .cls-3 {
        fill: #fff;
      }

      .cls-3, .cls-4 {
        stroke: #000;
        stroke-linecap: round;
        stroke-linejoin: round;
        stroke-width: 2px;
      }
    </style>
  </defs>
  <g id="OBJECTS">
    <g>
      <g>
        <path d="M24.2,39c-3.46-.22-6.85-.62-10.22-.92.55-.62,1.06-1.3,1.55-1.97,1.12-1.51,2.24-3.01,3.48-4.41.06-.07-.03-.15-.1-.1-1.32,1.12-2.54,2.34-3.75,3.58-.66.67-1.35,1.35-1.99,2.06-.13-4.35-.2-8.74-.86-13.04-.02-.15-.28-.15-.3,0-.66,4.34-.58,8.79-.56,13.18-1.95-1.84-4.37-3.46-6.54-4.86-.06-.04-.14.06-.08.11,1.77,1.53,3.33,3.57,5.15,5.17-3.22-.16-6.46-.13-9.77.35-.31.04-.22.53.07.53,3.59.03,7.15.33,10.72.58-.8.78-1.54,1.64-2.28,2.46-1.12,1.22-2.21,2.46-3.21,3.78-.05.06.05.13.11.08,1.17-1.16,2.42-2.23,3.69-3.28.71-.59,1.46-1.17,2.15-1.81-.04,3.77-.09,7.73.68,11.3.08.37.66.37.74,0,.74-3.51.61-7.41.45-11.11,2,1.57,4.47,2.72,6.44,4.21.06.05.14-.05.08-.11-1.8-1.81-3.84-3.81-6.02-5.33,3.45.2,6.91.3,10.4,0,.29-.02.29-.43,0-.45Z"/>
        <path d="M70.23,4.33c-1-.06-1.99-.18-2.97-.27.16-.18.31-.38.45-.57.32-.44.65-.87,1.01-1.28.02-.02,0-.04-.03-.03-.38.33-.74.68-1.09,1.04-.19.2-.39.39-.58.6-.04-1.26-.06-2.54-.25-3.79,0-.04-.08-.04-.09,0-.19,1.26-.17,2.55-.16,3.83-.57-.53-1.27-1-1.9-1.41-.02-.01-.04.02-.02.03.51.45.97,1.04,1.49,1.5-.94-.05-1.88-.04-2.84.1-.09.01-.06.15.02.15,1.04,0,2.08.09,3.11.17-.23.23-.45.48-.66.71-.32.35-.64.72-.93,1.1-.01.02.02.04.03.02.34-.34.7-.65,1.07-.95.21-.17.42-.34.62-.53-.01,1.09-.02,2.24.2,3.28.02.11.19.11.21,0,.22-1.02.18-2.15.13-3.23.58.45,1.3.79,1.87,1.22.02.01.04-.02.02-.03-.52-.52-1.11-1.11-1.75-1.55,1,.06,2.01.09,3.02,0,.08,0,.08-.13,0-.13Z"/>
        <path d="M141.08,25.71c-1-.06-1.99-.18-2.97-.27.16-.18.31-.38.45-.57.32-.44.65-.87,1.01-1.28.02-.02,0-.04-.03-.03-.38.33-.74.68-1.09,1.04-.19.2-.39.39-.58.6-.04-1.26-.06-2.54-.25-3.79,0-.04-.08-.04-.09,0-.19,1.26-.17,2.55-.16,3.83-.57-.53-1.27-1-1.9-1.41-.02-.01-.04.02-.02.03.51.45.97,1.04,1.49,1.5-.94-.05-1.88-.04-2.84.1-.09.01-.06.15.02.15,1.04,0,2.08.09,3.11.17-.23.23-.45.48-.66.71-.32.35-.64.72-.93,1.1-.01.02.02.04.03.02.34-.34.7-.65,1.07-.95.21-.17.42-.34.62-.53-.01,1.09-.02,2.24.2,3.28.02.11.19.11.21,0,.22-1.02.18-2.15.13-3.23.58.45,1.3.79,1.87,1.22.02.01.04-.02.02-.03-.52-.52-1.11-1.11-1.75-1.55,1,.06,2.01.09,3.02,0,.08,0,.08-.13,0-.13Z"/>
        <path d="M90.84,23.02c-4.15-1.47-6.89-5.31-6.99-9.7-.02-1.04-1.6-1.04-1.61,0-.07,4.54-2.52,8.38-7.02,9.59-.77.21-.83,1.44,0,1.61,4.68.96,6.71,5.09,7.49,9.43.03.19.19.26.35.25.12,0,.24-.05.3-.19,0-.01.01-.02.02-.04,0,0,0-.01,0-.02,1.07-4.46,2.34-8.65,7.46-9.54.76-.13.61-1.17,0-1.39Z"/>
        <path d="M30,16.36c-.96-.34-1.6-1.23-1.62-2.25,0-.24-.37-.24-.37,0-.02,1.05-.58,1.94-1.62,2.22-.18.05-.19.33,0,.37,1.08.22,1.55,1.18,1.73,2.18,0,.04.04.06.08.06.03,0,.06-.01.07-.04,0,0,0,0,0,0,0,0,0,0,0,0,.25-1.03.54-2,1.73-2.21.18-.03.14-.27,0-.32Z"/>
        <path d="M31.31,28.08c-.18-1.18-2.2-1.18-2.38,0,0,.07-.02.14-.03.2-.12.8.32,1.6,1.22,1.6s1.34-.8,1.22-1.6c-.01-.07-.02-.14-.03-.2Z"/>
        <path d="M48.73,13.93c-2.67,0-2.67,4.15,0,4.15s2.67-4.15,0-4.15Z"/>
        <path d="M33.85,36.06c-1.11,0-2.03.92-2.03,2.03s.92,2.03,2.03,2.03,2.03-.92,2.03-2.03-.92-2.03-2.03-2.03Z"/>
        <path d="M41.65,21.58s-.08.07-.12.1c-.3.25-.3.84,0,1.09.04.03.08.07.12.1.59.49,1.56.21,1.56-.65s-.97-1.13-1.56-.65Z"/>
        <path d="M49.28,38.12c-.71-.2-1.49.16-1.8.82-.07.09-.14.18-.2.27-.49.71-.13,1.75.57,2.16.7.41,1.78.21,2.16-.57-.05.05-.1.11-.15.17.1-.13.2-.25.3-.38.17-.34.23-.6.26-.97.07-.67-.52-1.32-1.14-1.49Z"/>
        <path d="M92.33,5.59c-1.13,0-1.13,1.76,0,1.76s1.13-1.76,0-1.76Z"/>
        <path d="M102.59,23.37c0-.88-.73-1.61-1.61-1.61s-1.61.73-1.61,1.61.73,1.61,1.61,1.61,1.61-.73,1.61-1.61Z"/>
        <path d="M98.6,12.25c.75-1.29-.23-2.67-1.6-2.78.11.01.22.03.33.04-1.22-.29-2.46.57-2.46,1.88,0,.69.37,1.33.96,1.68.55.32,1.43.41,1.96,0,.33-.25.59-.44.8-.81Z"/>
        <path d="M107.31,10.41c-1.27,0-1.27,1.97,0,1.97s1.27-1.97,0-1.97Z"/>
        <path d="M57.76,21.59c-1.13,0-1.13,1.76,0,1.76s1.13-1.76,0-1.76Z"/>
        <path d="M64.03,28.24c.75-1.29-.23-2.67-1.6-2.78.11.01.22.03.33.04-1.22-.29-2.46.57-2.46,1.88,0,.69.37,1.33.96,1.68.55.32,1.43.41,1.96,0,.33-.25.59-.44.8-.81Z"/>
        <path d="M72.74,26.4c-1.27,0-1.27,1.97,0,1.97s1.27-1.97,0-1.97Z"/>
        <path d="M116.09,20.65c-.6-.39-1.3-.21-1.81.24-.48.42-.54,1.21-.22,1.74.01.02.02.04.03.06.43.75,1.58.96,2.19.28.61-.67.63-1.79-.19-2.32Z"/>
        <path d="M71.09,40.33c-.6-.39-1.3-.21-1.81.24-.48.42-.54,1.21-.22,1.74.01.02.02.04.03.06.43.75,1.58.96,2.19.28.61-.67.63-1.79-.19-2.32Z"/>
        <path d="M98.7,34.98c-2.02-.72-3.36-2.59-3.41-4.72-.01-.51-.78-.51-.78,0-.04,2.21-1.23,4.08-3.42,4.67-.37.1-.4.7,0,.78,2.28.47,3.27,2.48,3.65,4.59.02.09.09.13.17.12.06,0,.12-.02.15-.09,0,0,0-.01,0-.02,0,0,0,0,0-.01.52-2.17,1.14-4.21,3.63-4.65.37-.06.3-.57,0-.68Z"/>
      </g>
      <g>
        <path class="cls-3" d="M131.49,128.77s-4.58-62.44-.74-76.79c3.84-14.35,18.39-18.56,31.34-14.08,15.24,5.28,25.48,22.64,25.83,48.46.35,25.82,1.58,78.62,1.58,78.62l-10.73,1.41-47.28-37.62Z"/>
        <path d="M186.79,127.71c.11-2.46-4.33-.04-5.05.61-.12.11-.22.24-.32.36-.06-.02-.13-.03-.18-.05-2.07-.62-2.47-2.79-2.12-4.72.43-2.38,1.83-4.56,2.96-6.63,1.04-1.89,2.68-4.25,2.36-6.58-.09-.64-.31-1.34-.63-2.01,3.09-2.15,2.39-7.36,1.1-10.38-1.47-3.45-7.08-9.42-5.68-13.59,1.15.61,2.48.72,3.85-.05.67-.37,2.55-1.48,1.82-2.65-.81-1.3-2.43-1.09-3.67-.67-1.25.42-2.02,1.14-2.48,2.01-.32-.29-.6-.62-.85-.95-1.3-1.8-1.77-4.33-1.72-6.54.09-3.93,3.15-7.42,2.51-11.5-.2-1.31-.81-2.32-1.65-3.01.56-1.44.64-3.1.15-4.59-1.24-3.75-5.48-5.95-8.61-7.61-1.72-.91-3.43-1.75-5.03-2.9-.19-.14-.38-.3-.55-.47.32-.05.62-.1.91-.18,2.35-.62,3.85-4.21.73-4.78-2.32-.42-4.39,2.04-3.35,4.21-2.05-.12-4.38-1-5.34-2.35-1.19-1.67-1.45-3.69-3.15-5.01-.77-.6-1.75-1.06-2.84-1.4-1.33.11-2.64.32-3.9.63,1.08.01,2.07.07,2.82.11,3.17.19,4.7,2.71,5.93,5.41,1.14,2.52,4.34,3.53,7.09,3.46,2.35,2.76,6.36,3.97,9.31,5.8,1.88,1.17,3.67,2.6,4.81,4.59.87,1.52.87,3.16.28,4.59-1.14-.59-2.55-.68-3.93-.17-2.5.92-1.21,4.76,1.15,4.07,1.4-.41,2.48-1.37,3.16-2.59.28.26.53.56.73.89,1.26,2.04.07,5.22-.58,7.28-1.22,3.83-2.08,6.81-.59,10.74.46,1.21,1.23,2.33,2.19,3.1-.61,2.2.34,5.05,1.37,7.07,2.34,4.58,8.2,10.73,4.06,16.08-.15.19-.31.36-.49.51-1.16-1.82-3.05-3.04-4.89-1.42-.74.65-.67,1.87.11,2.44,1.42,1.02,2.97.93,4.48.23.01.02.03.05.04.07,1.62,2.91-1.16,6.5-2.53,9-1.68,3.07-4.07,7.69-.92,10.6.29.27.76.51,1.31.7-1.03,2.8,1.81,7.37,2.55,9.54.8,2.34.5,4.78-.9,6.56-.59-.71-1.48-1.2-2.78-1.33-1.08-.1-2.59.47-2.9,1.68-.24.92-.36,2.48.83,2.77,1.74.42,3.55-.49,4.89-1.83.98,2.33-1.14,6.68-1.91,8.38-1.02,2.26-2.06,4.58-2.01,7.13.03,1.56.85,2.85,2.01,3.75l1.45-.19c-.21-.11-.41-.22-.6-.35-1.73-1.09-2.17-2.95-1.86-4.94.42-2.73,1.98-5.21,2.97-7.74.83-2.13,1.26-4.74.43-6.55.62-.73,1.11-1.54,1.39-2.33,1.66-4.67-2.5-8.63-2.8-13.08-.03-.47.05-.87.2-1.22,2.12.43,4.8.1,4.89-2.03ZM183.43,128.24c.39-.21,3.68-1.19,1.82.27-.71.56-1.79.56-2.76.4.27-.26.59-.48.94-.67ZM181,82.47c.34-.14.67-.28,1.01-.42,1.05-.45,1.48.04,1.28,1.47-.67.5-1.51.71-2.31.76-.5.03-.97-.09-1.4-.32.32-.54.78-1.04,1.42-1.49ZM162.38,45.04c-.63-1.02-.72-2.24.59-3.05.51-.32,1.2-.31,1.77-.21,2.19.4-.38,2.68-1.05,2.96-.38.16-.82.25-1.3.3ZM174,63.62c-2.15,1.43-2.7-1.56-1.06-2.16.47-.17.97-.2,1.46-.22.53-.02,1.04.14,1.5.39-.47.78-1.12,1.46-1.9,1.98ZM179.36,108.34c-.71-.81.04-1.99.97-1.87.68.09,1.4.8,1.7,1.14.22.22.4.47.57.73-1.01.5-2.47.87-3.25,0ZM181.01,147.02c-.77.48-1.65.81-2.53.88-1.8.13-.35-2.39.57-2.67.89-.27,1.92.1,2.69.56.15.09.28.2.4.31-.33.34-.7.65-1.13.92Z"/>
        <path class="cls-4" d="M178.89,167.47s-.79-40.76-1.14-69.6c-.35-28.84-15.99-50.47-31.23-56.36-2.95-1.14-5.83-1.24-8.52-1.52-4.75-.5-106.53,10.71-106.53,10.71l-14.72,110.29,60.22,25.45,101.92-18.96Z"/>
        <path class="cls-2" d="M32.78,140.25c-.82.13-1.37.9-1.24,1.72.12.74.76,1.26,1.48,1.26.08,0,.16,0,.24-.02l144.81-23.21c-.02-1.01-.03-2.02-.05-3.03l-145.24,23.28Z"/>
        <path class="cls-3" d="M122.93,115.33c-1.36.24-2.27,1.54-2.03,2.9.24,1.36,1.54,2.27,2.89,2.03,4.26-.75,12.06-.99,14.88,1.54.82.73,1.15,1.64,1.06,2.94-.1,1.62-.73,2.91-1.91,3.94-3.39,2.94-10.49,3.08-12.93,2.88-1.37-.11-2.58.91-2.7,2.29-.12,1.35.91,2.58,2.29,2.7.44.04,10.92.84,16.61-4.08,2.23-1.93,3.45-4.42,3.64-7.42.18-2.82-.77-5.23-2.73-6.98-5.55-4.95-17.71-2.98-19.08-2.74Z"/>
        <g>
          <g>
            <path class="cls-2" d="M136.22,142.48c-.61,0-1.21-.06-1.78-.17-2.97-.57-5.29-2.81-6.06-5.85-.39-1.56-.36-3.19.11-4.74,1.43-4.65,5.8-7.89,10.71-8.03.06.31.08.64.05,1.01-.02.34-.08.67-.17,1.03-3.22.21-6.93,1.9-8.27,5.33-.09.22-.14.34-.18.48-.5,1.63-.55,3.43-.14,4.93.57,2.08,1.98,3.43,3.97,3.81.53.1,1.09.15,1.64.15,3.81,0,7.46-2.33,8.89-5.68,1.03-2.41.89-4.78-.37-6.55.27-.77.46-1.59.56-2.44,2.35,2.16,3.09,5.65,1.88,9.16-1.48,4.3-6.14,7.54-10.84,7.54,0,0,0,0,0,0Z"/>
            <path d="M138.76,124.22c0,.15,0,.3,0,.46-.01.19-.04.39-.08.59-3.29.32-6.97,2.12-8.34,5.62l-.03.09c-.05.14-.11.28-.15.42-.53,1.72-.58,3.62-.14,5.21.63,2.27,2.17,3.75,4.35,4.17.56.11,1.15.16,1.74.16,4,0,7.84-2.46,9.34-5.98,1.06-2.48.95-4.94-.27-6.82.14-.42.25-.84.34-1.28,1.66,2.03,2.1,4.97,1.08,7.92-1.42,4.1-5.87,7.2-10.37,7.2-.57,0-1.14-.05-1.69-.16-2.82-.54-4.94-2.59-5.67-5.48-.37-1.47-.34-3.01.1-4.47,0-.03.01-.05.01-.05,0,0,0,0,0,0,1.31-4.25,5.27-7.29,9.78-7.6M139.53,123.19c-5.18,0-9.95,3.31-11.51,8.34,0,.02,0,.04-.01.05-.51,1.69-.52,3.42-.12,5.01.77,3.05,3.09,5.57,6.45,6.21.62.12,1.25.18,1.88.18,4.82,0,9.75-3.34,11.31-7.87,1.39-4.03.31-8.12-2.79-10.32,0,.09,0,.17,0,.26-.07,1.16-.31,2.24-.69,3.25,1.27,1.6,1.49,3.89.47,6.27-1.38,3.24-4.93,5.37-8.43,5.37-.52,0-1.04-.05-1.55-.15-2.01-.39-3.12-1.77-3.58-3.45-.41-1.48-.31-3.2.14-4.65.05-.15.11-.3.16-.44,1.25-3.21,4.87-4.94,8.19-5.03.15-.46.26-.95.29-1.48.04-.59-.02-1.1-.16-1.55-.02,0-.04,0-.06,0h0Z"/>
          </g>
          <g>
            <path class="cls-2" d="M150.23,140.68c-2.89.35-5.63,1.8-8.25,3.99-.94.42-1.87.95-2.79,1.57-3.8-2.89-9.62-4.88-13.82-2.66-1.14.62-4.03,2.19-4.82,2.62-3.72,2.01-5.87,5.95-5.08,10.28,1.57,8.66,12.42,17.19,21.44,21.21l4.54-2.92c7.89-6.26,15.31-14.39,17.18-23.38,1.42-6.95-1.68-11.54-8.41-10.72Z"/>
            <path d="M150.23,139.68c-2.08.27-4.04.98-5.85,2.05-.98.58-1.83,1.29-2.75,1.94-.42.3-.91.49-1.36.74-.54.3-1.07.63-1.58.98h1.01c-3.46-2.6-8.19-4.45-12.55-3.5-1.81.39-3.43,1.46-5.04,2.33s-3.14,1.62-4.45,2.84c-3.16,2.95-4.01,7.35-2.72,11.4s3.99,7.45,6.97,10.34c3.24,3.15,6.99,5.82,10.95,8,.95.52,1.92,1.01,2.9,1.47.53.25,1.08.6,1.66.3.08-.04.16-.1.24-.15l3.14-2.02c3.18-2.04,6.01-4.73,8.61-7.44,3.28-3.41,6.25-7.24,8.24-11.55,1.67-3.62,2.98-7.93,2-11.92-.81-3.3-3.39-5.43-6.73-5.82-.9-.11-1.8-.08-2.7.03-.54.06-1,.42-1,1,0,.49.46,1.06,1,1,2.7-.31,5.53.22,6.9,2.73,1.52,2.78.8,6.38-.12,9.22-2.61,8.02-8.97,14.5-15.36,19.71-1.51,1.23-3.49,2.36-5.24,3.48h1.01c-3.91-1.75-7.63-4.02-10.98-6.7s-6.28-5.64-8.3-9.29c-1.81-3.27-2.65-7.18-.57-10.54.96-1.55,2.34-2.61,3.93-3.47,1.43-.78,2.86-1.57,4.29-2.34,4.15-2.21,9.47.04,12.9,2.62.26.2.74.18,1.01,0,.45-.31.91-.6,1.38-.86s.97-.44,1.4-.71.83-.68,1.26-.99.84-.59,1.28-.87c1.58-.99,3.34-1.75,5.21-2,.54-.07,1-.41,1-1,0-.49-.46-1.07-1-1Z"/>
          </g>
          <g>
            <path d="M125.35,149.24c-3.41,2.48-6.58,5.24-9.66,8.1.13.53.3,1.06.49,1.58,3.18-2.97,6.43-5.85,9.97-8.41.78-.57,0-1.85-.8-1.28Z"/>
            <path d="M125.85,153.52c-2.99,2.46-5.83,5.09-8.58,7.81.25.45.52.89.81,1.33,2.84-2.83,5.77-5.55,8.87-8.11.75-.62-.36-1.64-1.1-1.03Z"/>
            <path d="M128.66,158.33c-2.78,2.44-5.49,4.96-8.18,7.5.33.38.67.74,1.02,1.11,2.72-2.56,5.45-5.11,8.26-7.58.73-.64-.37-1.67-1.09-1.03Z"/>
            <path d="M133.88,157.38c-3.89,3.42-7.51,7.12-11.09,10.85.36.35.73.69,1.1,1.02,3.58-3.73,7.19-7.43,11.09-10.85.73-.64-.37-1.67-1.09-1.03Z"/>
            <path d="M135.63,162.48c-3.07,2.95-6.06,5.99-9.09,8.98.4.31.81.6,1.22.9,2.99-2.95,5.94-5.94,8.97-8.85.7-.67-.4-1.7-1.1-1.03Z"/>
            <path d="M139.52,164.95c-3.12,3.01-6.19,6.08-9.3,9.1.44.28.88.55,1.32.82,3.04-2.95,6.04-5.94,9.08-8.88.7-.68-.4-1.71-1.1-1.03Z"/>
            <path d="M143.9,165.71c-3.31,3.45-6.29,7.19-9.43,10.8.47.24.93.47,1.39.69,3.03-3.49,5.92-7.11,9.13-10.46.67-.7-.42-1.73-1.09-1.03Z"/>
          </g>
          <g>
            <path class="cls-2" d="M139.77,146.69c3.28-3.33,6.74-5.56,10.45-6.02,6.74-.82,9.83,3.77,8.41,10.72-1.87,8.98-9.3,17.12-17.18,23.38-9.02-4.02-19.87-12.55-21.44-21.21-.79-4.33,1.65-7.97,5.36-9.99,4.42-2.33,10.63,0,14.4,3.12Z"/>
            <path d="M140.48,147.4c2.79-2.81,6.25-5.47,10.34-5.78,2.61-.2,5.17.54,6.4,2.96,1.42,2.79.69,6.33-.24,9.15-1.25,3.78-3.41,7.25-5.9,10.33-3.02,3.74-6.57,7.03-10.33,10.01l1.21-.16c-3.51-1.57-6.84-3.56-9.92-5.88s-5.91-4.96-8.09-8.09c-1.8-2.59-3.58-6.01-2.98-9.26s3.48-6.19,6.75-6.88c3.94-.83,8.36,1.15,11.35,3.6.99.81,2.41-.6,1.41-1.41-3.12-2.56-7.23-4.48-11.34-4.35s-7.7,2.68-9.35,6.24-.73,7.59,1.12,10.97c1.97,3.6,4.9,6.66,8.04,9.27,3.64,3.02,7.68,5.59,12,7.52.45.2.83.15,1.21-.16,6.92-5.5,13.66-12.33,16.62-20.86,1.16-3.36,1.83-7.28.36-10.65-1.27-2.91-4.19-4.35-7.26-4.39-5.05-.07-9.39,2.96-12.81,6.4-.91.91.51,2.33,1.41,1.41Z"/>
          </g>
          <path d="M145.21,165.22c-1.1-2.42-2.07-4.87-3.02-7.31,1.6-.61,2.71-2.18,2.66-3.99-.07-2.29-1.97-4.1-4.25-4.04-2.28.07-4.08,1.98-4.01,4.28.05,1.79,1.23,3.28,2.83,3.81-.53,2.64-1.06,5.27-1.74,7.91l7.53-.66Z"/>
          <g>
            <path class="cls-2" d="M140.52,147.58c-.99,0-1.81-.75-1.94-1.78-.13-1.01.46-1.89,1.44-2.15,1.13-.3,2.07-1.01,2.58-1.95.45-.84.52-1.78.2-2.74-.22-.64-1.21-1.13-2.31-1.13-.66,0-1.26.18-1.61.49-.44.39-1.55.42-1.87.42-.35,0-1.41,0-1.85-.81-.14-.26-.32-.8.12-1.48,1.02-1.59,3.24-2.62,5.66-2.62s4.35,1.03,5.2,2.75c1.05,2.13,1.11,4.47.15,6.57-.97,2.14-2.87,3.72-5.22,4.35-.18.05-.36.07-.54.07h0Z"/>
            <path d="M140.92,134.84c1.8,0,3.55.68,4.3,2.2,1.97,3.99-.27,8.4-4.42,9.51-.1.03-.19.04-.28.04-1.04,0-1.4-1.66-.25-1.97,2.61-.69,4.4-3.2,3.47-5.98-.39-1.17-1.85-1.81-3.26-1.81-.86,0-1.71.24-2.27.75-.06.06-.65.17-1.21.17-.66,0-1.27-.16-.89-.75.88-1.37,2.88-2.16,4.81-2.16M140.92,132.84s0,0,0,0c-2.75,0-5.3,1.21-6.5,3.08-.52.81-.58,1.72-.15,2.5.33.61,1.07,1.33,2.72,1.33,1.18,0,2.04-.23,2.54-.68.13-.12.48-.24.94-.24.79,0,1.3.33,1.37.45.23.69.19,1.34-.13,1.94-.38.7-1.09,1.23-1.95,1.46-1.45.39-2.37,1.75-2.17,3.25.2,1.54,1.44,2.65,2.93,2.65.26,0,.53-.04.79-.11,2.64-.7,4.78-2.49,5.87-4.9,1.06-2.35,1-5.05-.17-7.43-1.02-2.07-3.3-3.31-6.09-3.31h0Z"/>
          </g>
        </g>
        <path class="cls-3" d="M20.55,151.18s-12.43-68.53-8.59-84.23c3.84-15.71,26.25-20.16,39.19-15.25,15.24,5.78,25.48,24.78,25.83,53.06.35,28.27,0,84.76,0,84.76l-15.15,3.71-41.28-42.05Z"/>
        <path d="M67.39,185.13c.46-2.99,2.23-5.72,3.35-8.5.94-2.34,1.41-5.2.44-7.17.71-.8,1.26-1.7,1.57-2.57,1.87-5.13-2.94-9.43-3.32-14.3-.04-.52.05-.95.22-1.34,2.44.46,5.51.07,5.6-2.26.11-2.69-4.97-.02-5.8.7-.14.12-.25.26-.36.4-.07-.02-.15-.04-.21-.05-2.38-.67-2.86-3.03-2.47-5.15.48-2.61,2.06-5.01,3.35-7.28,1.18-2.08,3.05-4.68,2.66-7.22-.11-.7-.37-1.47-.74-2.19,3.54-2.38,2.69-8.08,1.19-11.37-1.71-3.76-8.2-10.26-6.63-14.83,1.32.66,2.85.76,4.42-.09.76-.41,2.91-1.64,2.07-2.91-.94-1.41-2.8-1.18-4.22-.71-1.43.47-2.32,1.26-2.83,2.22-.37-.31-.7-.67-.98-1.04-1.51-1.96-2.06-4.73-2.02-7.15.07-4.3,3.56-8.15,2.8-12.61-.24-1.43-.95-2.54-1.91-3.28.63-1.58.71-3.4.13-5.03-1.45-4.1-6.34-6.48-9.94-8.26-1.98-.98-3.96-1.9-5.8-3.13-.22-.15-.43-.32-.63-.51.36-.05.72-.12,1.05-.2,2.69-.7,4.39-4.64.8-5.24-2.67-.45-5.03,2.27-3.82,4.64-2.35-.11-5.04-1.06-6.15-2.54-1.38-1.82-1.69-4.03-3.66-5.46-.28-.21-.57-.39-.87-.55-.56.07-1.12.16-1.68.26,2.37.89,3.74,3.12,4.88,5.47,1.33,2.75,5.01,3.84,8.17,3.74,2.72,3,7.33,4.29,10.74,6.28,2.17,1.26,4.24,2.82,5.56,4.99,1.01,1.65,1.02,3.45.35,5.02-1.32-.64-2.94-.72-4.52-.15-2.86,1.03-1.36,5.22,1.35,4.45,1.61-.46,2.83-1.52,3.61-2.86.33.29.61.61.85.96,1.46,2.22.12,5.72-.62,7.97-1.37,4.21-2.34,7.47-.59,11.77.54,1.32,1.43,2.54,2.54,3.38-.68,2.41.42,5.53,1.62,7.73,2.72,5,9.5,11.68,4.78,17.58-.17.21-.36.4-.56.56-1.35-1.99-3.52-3.31-5.63-1.52-.85.72-.76,2.06.15,2.67,1.63,1.11,3.42.99,5.15.22.02.03.03.05.05.08,1.89,3.18-1.29,7.13-2.84,9.87-1.91,3.37-4.61,8.46-.98,11.61.34.29.87.55,1.51.75-1.17,3.07,2.13,8.05,3,10.43.94,2.55.61,5.23-.98,7.19-.68-.77-1.71-1.31-3.2-1.43-1.23-.1-2.97.53-3.32,1.86-.26,1.01-.39,2.72.98,3.03,2,.44,4.07-.56,5.6-2.05,1.15,2.54-1.26,7.32-2.13,9.19-1.16,2.48-2.33,5.04-2.26,7.82.04,1.38.82,3.4,1.76,4.32l1.02-.46c-1.44-1.21-1.96-3.85-1.67-5.76ZM71.41,149.61c.45-.24,4.22-1.33,2.09.28-.81.62-2.05.63-3.16.46.31-.28.67-.53,1.08-.74ZM68.28,99.51c.38-.16.77-.31,1.15-.47,1.2-.5,1.7.03,1.48,1.6-.76.55-1.73.79-2.65.85-.58.04-1.12-.1-1.61-.34.36-.59.89-1.15,1.62-1.65ZM47.28,55.33c.59-.35,1.38-.35,2.03-.25,2.51.42-.42,2.94-1.19,3.25-.43.17-.94.28-1.49.33-.73-1.11-.84-2.45.65-3.34ZM60.11,78.91c-2.45,1.58-3.11-1.68-1.23-2.36.53-.19,1.11-.23,1.67-.25.61-.02,1.19.14,1.73.42-.53.86-1.27,1.61-2.17,2.19ZM66.59,127.85c-.82-.88.03-2.18,1.1-2.05.79.09,1.61.86,1.96,1.24.25.24.46.51.66.8-1.16.55-2.83.97-3.73.01ZM68.78,170.18c-.87.52-1.88.9-2.9.98-2.07.16-.42-2.62.64-2.93,1.02-.3,2.21.1,3.09.59.18.1.32.22.46.34-.38.37-.8.72-1.29,1.01Z"/>
        <path class="cls-4" d="M5.39,157.97s-1.17-65.62,2.67-81.33c3.84-15.71,14.98-23.06,27.93-18.15,15.24,5.78,25.48,24.78,25.83,53.06s0,81.68,0,81.68L5.39,157.97Z"/>
        <path class="cls-2" d="M42.41,121.95c-2.51-.14-5.02-.27-7.53-.41,9-1.57,18-3.13,27-4.7,0-.34,0-.68,0-1.01-6.58,1.15-13.17,2.29-19.75,3.44-2.48.43-4.95.86-7.43,1.29,9.03-3.81,18.05-7.61,27.08-11.42-.01-.36-.03-.71-.04-1.06-6.79,2.86-13.58,5.73-20.36,8.59-2.35.99-4.7,1.98-7.05,2.98,8.93-6.46,17.87-12.92,26.8-19.38-.04-.38-.09-.76-.13-1.13-7.02,5.08-14.04,10.15-21.06,15.23-2.06,1.49-4.12,2.98-6.18,4.47,8.49-9.72,16.98-19.44,25.48-29.16-.1-.39-.2-.78-.3-1.17-6.97,7.98-13.95,15.96-20.92,23.95-1.67,1.91-3.33,3.82-5,5.72,7.28-13.62,14.57-27.24,21.85-40.86-.18-.37-.36-.74-.54-1.1-6.2,11.6-12.41,23.2-18.61,34.8-1.19,2.23-2.38,4.46-3.58,6.68,4.74-17.51,9.48-35.02,14.22-52.53-.27-.26-.55-.52-.83-.77-4.13,15.25-8.25,30.49-12.38,45.74-.66,2.43-1.32,4.87-1.98,7.3.75-19.92,1.5-39.85,2.24-59.77-.33-.09-.66-.17-.99-.24-.66,17.48-1.31,34.95-1.97,52.43-.08,2.26-.17,4.53-.25,6.79-3.04-19.38-6.07-38.76-9.11-58.14-.32.14-.63.29-.93.45,2.67,17.06,5.35,34.11,8.02,51.17.39,2.48.78,4.96,1.17,7.44-6.35-15.8-12.7-31.59-19.05-47.39-.19.42-.37.86-.55,1.3,5.28,13.12,10.55,26.25,15.83,39.37.95,2.36,1.9,4.72,2.85,7.08-7.25-10.39-14.49-20.78-21.74-31.16-.04.51-.09,1.03-.13,1.56,5.56,7.98,11.13,15.95,16.69,23.93,1.45,2.08,2.9,4.16,4.35,6.24-7.22-6.53-14.45-13.06-21.67-19.59-.02.43-.04.86-.06,1.3,5.14,4.65,10.28,9.29,15.43,13.94,1.88,1.7,3.75,3.39,5.63,5.09-7.1-3.95-14.2-7.91-21.3-11.86-.01.38-.02.75-.03,1.13,4.74,2.64,9.49,5.28,14.23,7.93,2.2,1.23,4.41,2.46,6.61,3.68-6.99-2.02-13.98-4.04-20.97-6.06,0,.34-.01.69-.02,1.04,4.49,1.3,8.97,2.59,13.46,3.89,2.42.7,4.84,1.4,7.26,2.1-6.93-.38-13.86-.76-20.8-1.13,0,.33,0,.67-.01,1,4.41.24,8.82.48,13.23.72,2.51.14,5.02.27,7.53.41-6.94,1.21-13.88,2.42-20.81,3.62,0,.34,0,.68,0,1.01,4.53-.79,9.05-1.58,13.58-2.36,2.48-.43,4.95-.86,7.43-1.29-7.01,2.96-14.02,5.92-21.03,8.87,0,.36,0,.72,0,1.08,4.79-2.02,9.58-4.04,14.37-6.06,2.35-.99,4.7-1.98,7.05-2.97-7.14,5.16-14.28,10.33-21.42,15.49,0,.41,0,.82,0,1.23,5.27-3.81,10.54-7.62,15.81-11.43,2.06-1.49,4.12-2.98,6.18-4.47-7.31,8.37-14.62,16.74-21.93,25.11,0,.52.01,1.02.02,1.5,5.89-6.74,11.78-13.48,17.67-20.22,1.67-1.91,3.33-3.81,5-5.72-6.23,11.65-12.47,23.31-18.7,34.96l.85.53c5.05-9.45,10.1-18.89,15.16-28.34,1.19-2.23,2.38-4.46,3.57-6.68-3.61,13.32-7.21,26.64-10.82,39.96l.89.55c2.97-10.99,5.95-21.97,8.92-32.96.66-2.43,1.32-4.87,1.98-7.3-.58,15.33-1.15,30.66-1.73,45.99l.98.61c.49-13.01.98-26.02,1.47-39.02.08-2.25.17-4.51.25-6.76,2.71,17.32,5.43,34.63,8.14,51.95l1.11.7c-2.41-15.38-4.82-30.76-7.23-46.15-.39-2.48-.78-4.96-1.17-7.44,8.14,20.24,16.28,40.48,24.41,60.72.51,1.28,1.03,2.55,1.54,3.83l1.17.73c.07-.1.1-.24.04-.4-7.79-19.39-15.59-38.78-23.38-58.17-.95-2.36-1.9-4.72-2.85-7.09,9.79,14.04,19.58,28.07,29.37,42.11,0-.57,0-1.15,0-1.73-8.07-11.56-16.13-23.13-24.2-34.69-1.45-2.08-2.9-4.16-4.35-6.24,9.53,8.61,19.05,17.22,28.58,25.83,0-.45,0-.9,0-1.35-7.43-6.71-14.85-13.42-22.28-20.13-1.88-1.7-3.75-3.39-5.63-5.09,9.3,5.18,18.6,10.36,27.91,15.54,0-.38,0-.76,0-1.15-6.93-3.86-13.87-7.72-20.8-11.58-2.2-1.23-4.41-2.46-6.61-3.68,9.13,2.64,18.27,5.28,27.4,7.92,0-.35,0-.7,0-1.04-6.62-1.91-13.24-3.83-19.86-5.74-2.42-.7-4.84-1.4-7.26-2.1,9.03.49,18.06.98,27.1,1.48,0-.33,0-.67,0-1-6.5-.35-13.01-.71-19.51-1.06Z"/>
        <g>
          <g>
            <path class="cls-2" d="M99.8,93.79c-4.76,1.36-7.96,6.72-8.61,11.26-.72,5.13,2.4,9.71,6.94,11.65,2.97,1.16,10.12,1.5,14.74-.38.1-.04.08-.07,0,0-5.18,6.64-15.35,8.33-22.87,4.35-5.24-2.8-8.19-7.94-6.58-14.05,1.62-6.3,9.31-14.17,16.38-12.83Z"/>
            <path class="cls-2" d="M99.67,93.31c-2.92.87-5.22,3.06-6.77,5.63s-2.59,5.72-2.25,8.75,1.95,5.81,4.33,7.71c1.11.88,2.37,1.64,3.74,2.04,1.27.37,2.61.55,3.93.65,1.8.14,3.62.11,5.42-.1.9-.11,1.8-.25,2.69-.46.79-.19,1.73-.38,2.44-.8.55-.33.05-1.19-.5-.86-.37.22-.65.72-.95,1.04-.35.38-.71.74-1.09,1.08-.75.67-1.57,1.27-2.43,1.79-1.73,1.04-3.63,1.75-5.61,2.16-4.02.83-8.36.34-12.04-1.51s-6.56-5.13-7.02-9.27,1.51-8.18,4.2-11.27c2.88-3.31,7.3-6.42,11.92-5.59.63.11.9-.85.27-.96-4.35-.78-8.54,1.53-11.58,4.47s-5.59,7.03-5.84,11.42,2.02,8.36,5.56,10.86,8.2,3.55,12.54,3.15c2.43-.23,4.81-.88,6.99-1.98,1.05-.53,2.05-1.17,2.97-1.9.49-.39.96-.8,1.4-1.25.2-.2.4-.41.59-.62.17-.19.42-.63.63-.76.55-.33.05-1.19-.5-.86s-1.32.48-1.94.63c-.75.19-1.52.33-2.29.44-1.49.2-2.99.26-4.49.22-2.55-.07-5.12-.39-7.31-1.77-2.4-1.51-4.21-3.91-4.84-6.69s.08-5.67,1.34-8.16c1.41-2.79,3.69-5.33,6.77-6.24.62-.18.35-1.15-.27-.96Z"/>
          </g>
          <g>
            <path d="M88.94,111.87c-1.06-.12-2.04.67-2.16,1.73-.12,1.06.67,2.04,1.73,2.16,1.06.12,2.04-.67,2.16-1.72.12-1.06-.67-2.04-1.73-2.16Z"/>
            <path d="M89.11,108.53c.09-.78-.49-1.51-1.28-1.6-.78-.09-1.51.5-1.6,1.28-.09.78.5,1.51,1.28,1.6.78.09,1.51-.49,1.6-1.28Z"/>
            <path d="M88.16,104.83c.58.06,1.12-.37,1.19-.95.06-.58-.37-1.13-.95-1.19-.58-.06-1.13.37-1.19.95-.06.58.37,1.13.95,1.19Z"/>
            <path d="M89.98,100.9s.05,0,.07-.01c.48-.1.53-.72.1-.92-.02,0-.04-.02-.07-.03-.3-.15-.66.1-.69.41-.03.32.26.62.58.56Z"/>
            <path d="M92.79,116.33c-.78-.09-1.51.49-1.6,1.28-.09.78.49,1.51,1.28,1.6.78.09,1.51-.49,1.6-1.28.09-.78-.49-1.51-1.28-1.6Z"/>
            <path d="M96.91,118.8c-.58-.06-1.12.37-1.19.95-.06.58.37,1.13.95,1.19.58.06,1.12-.37,1.19-.95.06-.58-.37-1.12-.95-1.19Z"/>
            <path d="M100.2,119.99s-.03.03-.05.05c-.23.22-.27.59.01.8.32.24.75.02.8-.35,0-.02,0-.05.01-.07.06-.4-.47-.72-.78-.43Z"/>
          </g>
        </g>
        <g>
          <g>
            <path class="cls-2" d="M154.07,87.07c4.39-.07,8.49,3.65,10.22,7.34,1.94,4.17.47,8.86-2.89,11.68-2.22,1.75-8.2,3.89-12.61,3.48-.09,0-.09-.04,0,0,6.11,4.3,15.18,3.11,20.53-2.21,3.72-3.73,4.9-8.85,1.96-13.63-3-4.93-11.56-9.62-17.21-6.66Z"/>
            <path class="cls-2" d="M154.07,87.57c2.64-.01,5.06,1.33,6.93,3.13s3.32,4.07,3.6,6.62-.55,5.02-2.12,6.96c-1.41,1.73-3.31,2.69-5.38,3.44-1.31.47-2.66.84-4.03,1.1-.7.13-1.42.22-2.13.27-.65.04-1.45.14-2.09-.01s-.89.81-.27.96c.17.04.38.26.53.36.2.12.4.24.6.36.43.24.87.46,1.33.65.87.37,1.76.67,2.68.88,1.86.42,3.8.51,5.7.28,3.82-.46,7.51-2.12,10.25-4.85,3-2.99,4.57-7.29,3.3-11.45-1.12-3.7-4.1-6.55-7.39-8.41-3.5-1.98-8.01-3.13-11.77-1.21-.57.29-.07,1.16.5.86,3.1-1.58,6.84-.76,9.82.71s5.97,3.91,7.42,7.1c1.73,3.81.69,8.04-2.02,11.09-2.41,2.71-5.82,4.43-9.37,5.04-1.98.34-4.04.32-6-.1-.95-.2-1.88-.49-2.77-.88-.45-.2-.89-.42-1.32-.67-.38-.22-.8-.63-1.22-.73-.63-.15-.89.81-.27.96,1.24.3,2.75.05,3.99-.13,1.39-.2,2.76-.54,4.09-.98,2.26-.74,4.53-1.72,6.15-3.52,1.81-1.99,2.89-4.65,2.82-7.35s-1.43-5.33-3.27-7.37c-2.12-2.34-5.07-4.13-8.3-4.12-.64,0-.64,1,0,1Z"/>
          </g>
          <g>
            <path d="M167.95,99.61c.87-.37,1.9.04,2.27.91.37.87-.04,1.9-.91,2.27-.87.37-1.9-.04-2.28-.91-.37-.87.04-1.9.91-2.28Z"/>
            <path d="M166.95,96.83c-.28-.64.03-1.41.67-1.69.64-.28,1.41.03,1.68.67.28.64-.03,1.41-.67,1.68-.64.28-1.41-.03-1.68-.67Z"/>
            <path d="M166.79,93.44c-.48.21-1.05-.02-1.26-.5-.21-.48.02-1.05.5-1.26.48-.21,1.05.02,1.26.5.2.48-.02,1.05-.5,1.26Z"/>
            <path d="M164.24,90.58s-.04,0-.06,0c-.43.04-.64-.47-.33-.76.02-.01.03-.03.05-.04.22-.2.58-.08.69.17.11.26-.06.6-.35.62Z"/>
            <path d="M165.83,104.4c.64-.28,1.41.03,1.69.67.28.64-.03,1.41-.67,1.69-.64.28-1.41-.03-1.69-.67-.28-.64.03-1.41.67-1.69Z"/>
            <path d="M162.98,107.56c.48-.21,1.05.02,1.26.5.21.48-.02,1.05-.5,1.26-.48.2-1.05-.02-1.26-.5-.21-.48.02-1.05.5-1.26Z"/>
            <path d="M160.49,109.41s.04.02.05.03c.26.13.38.43.2.68-.21.28-.63.21-.77-.09,0-.02-.02-.04-.03-.06-.15-.32.22-.74.55-.57Z"/>
          </g>
        </g>
        <g>
          <path class="cls-2" d="M58.44,121.88c0,20.99-11.77,38.01-26.28,38.01s-26.28-17.02-26.28-38.01,11.77-38,26.28-38,26.28,17.02,26.28,38Z"/>
          <path d="M53.96,121.88c0,18.02-10.1,32.63-22.55,32.63s-22.55-14.61-22.55-32.63,10.1-32.63,22.55-32.63,22.55,14.61,22.55,32.63Z"/>
          <path class="cls-2" d="M50.85,115.38c0-.07,0-.14,0-.21,0-.02,0-.04,0-.05,0,0,0,0,0,0l-3.5-13.87s-.03-.06-.04-.09c-.02-.06-.04-.11-.08-.16-.03-.04-.06-.06-.09-.09-.04-.04-.08-.08-.13-.11-.01,0-.02-.02-.03-.03-.03-.02-.06-.02-.1-.03-.04-.01-.07-.04-.1-.05-.02,0-.03,0-.05,0-.05,0-.09,0-.13,0-.06,0-.11,0-.17.02-.02,0-.03,0-.05,0l-9.17,3.09s-.04.03-.06.04c-.05.02-.1.05-.14.08-.04.03-.07.05-.1.09-.04.04-.07.08-.1.13-.01.02-.04.04-.05.07l-4.82,10.71-.64-2s-.02-.03-.02-.05c-.01-.03-.02-.05-.04-.08-.03-.05-.07-.1-.11-.15-.02-.02-.03-.04-.05-.06,0,0-.02-.02-.03-.03l-5.44-4.24s0,0,0,0c-.02-.01-.04-.02-.06-.03-.06-.04-.12-.07-.18-.09-.03,0-.07,0-.1-.01-.05,0-.09-.02-.14-.02l-6.82.25s-.04.01-.06.02c-.03,0-.05,0-.08,0-.04,0-.07.03-.11.05-.04.02-.08.03-.11.05-.06.04-.11.09-.16.14-.02.02-.04.03-.06.05l-7.21,9.84s-.02.06-.04.09c-.02.04-.06.08-.07.13,0,.01,0,.03,0,.04-.01.04,0,.08-.01.13,0,.06,0,.12,0,.18,0,.01,0,.03,0,.04l4.09,18.13c.03.13.09.25.19.35l3.72,3.94s0,0,.01,0c.08.08.17.14.27.17,0,0,.01.01.02.01l5.89,1.93v1.55s.02.03.02.04c0,.1.03.19.07.28.01.02.02.04.03.06.05.08.11.16.19.22.01,0,.02.01.03.02,0,0,0,.01.02.02.01,0,.02,0,.04.01.1.06.21.1.33.1.11,0,.22-.02.32-.06.01,0,.03,0,.04,0l16.23-7.57s.05-.04.08-.06c.04-.03.08-.05.12-.09.03-.03.06-.07.08-.1.03-.04.06-.08.08-.13,0-.01.02-.02.03-.04l8.56-22.38s.01-.06.02-.1c0-.03.01-.06.02-.09ZM41.06,136.87l-4.45-.46,6.37-15.06,5.53-3.99-7.45,19.5ZM17.67,121.6l4.95.61,2.06,8.81-.12.26s0,0,0,0c-.04.09-.06.2-.06.3,0,0,0,0,0,.01l.05,8.32-4.96.34-1.92-18.65ZM17.95,110.91l.9,3.94-2.42,4.98-4.09-1.26,5.61-7.67ZM37.03,107.25l.51,4.04-3.31,14.65-5.1,8.63-2.99-3.14,4.34-9.64s0,0,0,0l6.55-14.55ZM26.01,133.48l2.38,2.5-2.33,5.58-.05-8.08ZM29.72,136.67l4.08.8-6.65,5.34,2.57-6.14ZM35.07,136.19l-4.62-.91,5.05-8.54,5.14-3.71-5.57,13.15ZM36.1,124.46l2.76-12.23,4.41,1-1.57,7.2-5.6,4.04ZM46.67,104.7l2.59,10.28-5.73,4.13,3.14-14.41ZM43.59,111.76l-4.62-1.04-.71-5.69,7.34-2.47-2.01,9.2ZM25.69,128.77l-1.6-6.85,4.11-2.18.76,1.77-3.27,7.26ZM19.92,116.08l2.37,1.75.14,2.84-4.48-.55,1.96-4.04ZM23.92,120.32l-.13-2.59,1.96-2.09,1.75,2.78-3.59,1.9ZM28.38,117l-1.79-2.84-.47-3.54,3.56,2.78-1.3,3.61ZM25.08,114.16l-2.15,2.28-2.63-1.94-1.06-4.65,5.24-.19.59,4.5ZM35.76,137.82l3.02.31-8.14,3.8,5.12-4.11ZM29.8,119.66l-.42-.99,1.16-3.22.48,1.49-1.22,2.71ZM12.13,120.08l4,1.23,1.81,17.61-2.06-2.18-3.76-16.67ZM22.8,141.54l1.75-.12v.7s-1.75-.58-1.75-.58Z"/>
          <path d="M31.17,157.24c0-.55.45-1,1-1h0c.57,0,1.02.44,1.02,1h0c0,.55-.46,1-1.01,1h0c-.56,0-1.01-.45-1.01-1ZM25.98,157.19c-.53-.18-.81-.75-.63-1.27h0c.19-.52.77-.8,1.3-.61h0c.53.18.8.75.62,1.27h0c-.14.41-.54.67-.95.67h0c-.11,0-.22-.02-.33-.06ZM37.09,156.56c-.18-.52.09-1.09.62-1.27h0c.53-.19,1.11.09,1.29.61h0c.19.52-.08,1.09-.61,1.27h0c-.11.04-.23.06-.34.06h0c-.42,0-.81-.26-.95-.67ZM20.44,154.29c-.45-.33-.55-.95-.22-1.4h0c.33-.45.97-.54,1.42-.22h0c.46.33.56.95.22,1.4h0c-.19.27-.51.41-.82.41h0c-.2,0-.42-.06-.6-.19ZM42.5,154.04c-.33-.45-.23-1.08.21-1.4h0c.46-.33,1.09-.23,1.42.21h0c.32.45.23,1.07-.22,1.4h0c-.18.13-.39.2-.6.2h0c-.3,0-.62-.15-.81-.41ZM15.89,150.12c-.37-.42-.31-1.05.11-1.41h0c.43-.36,1.07-.32,1.43.1h0c.37.42.31,1.05-.11,1.41h0c-.19.17-.43.24-.66.24h0c-.28,0-.57-.11-.77-.34ZM47.01,150.18c-.42-.36-.47-.99-.1-1.41h0c.37-.42,1-.47,1.43-.11h0c.42.36.47.99.11,1.41h0c-.2.23-.49.35-.77.35h0c-.23,0-.48-.08-.67-.24ZM12.33,145.14c-.28-.48-.12-1.09.36-1.36h0c.49-.28,1.11-.12,1.39.36h0c.28.47.12,1.08-.37,1.36h0c-.16.09-.33.14-.51.14h0c-.35,0-.69-.18-.88-.5ZM50.61,145.45c-.49-.27-.65-.89-.36-1.36h0c.28-.48.9-.64,1.38-.37h0c.49.28.65.89.38,1.37h0c-.19.32-.53.5-.88.5h0c-.17,0-.34-.05-.51-.14ZM9.68,139.67h0c-.2-.51.06-1.09.58-1.29h0c.52-.2,1.11.05,1.32.56h0c.2.52-.05,1.1-.58,1.3h0c-.12.05-.24.07-.36.07h0c-.41,0-.79-.24-.94-.64ZM53.34,140.19c-.52-.21-.78-.78-.58-1.3h0c.2-.51.79-.77,1.32-.57h0c.52.2.78.78.58,1.3h0c-.16.39-.55.64-.95.63h0c-.12,0-.24-.02-.36-.06ZM7.83,133.91c-.13-.54.2-1.08.74-1.21h0c.55-.13,1.1.2,1.23.73h0c.13.54-.2,1.08-.74,1.21h0c-.08.02-.16.03-.24.03h0c-.46,0-.87-.31-.98-.76ZM55.27,134.58c-.55-.13-.88-.67-.75-1.2h0c.13-.54.68-.87,1.23-.74h0c.54.13.87.67.74,1.21h0c-.11.45-.53.76-.98.76h0c-.08,0-.16,0-.23-.03ZM6.75,127.97c-.06-.55.34-1.05.89-1.12h0c.56-.06,1.06.33,1.13.88h0c.06.55-.33,1.05-.89,1.11h0s-.07,0-.11,0h0c-.51,0-.95-.38-1.01-.88ZM56.44,128.78c-.56-.06-.95-.56-.89-1.11h0c.07-.54.57-.94,1.13-.87h0c.56.06.95.56.89,1.1h0c-.06.51-.5.89-1,.89h0s-.08,0-.12-.01ZM6.39,121.95c0-.56.46-1.01,1.01-1.01h0c.56,0,1.01.45,1.01,1h0c0,.56-.45,1-1.01,1h0c-.56,0-1.01-.44-1.01-.99ZM55.89,121.87v-.05h0v-.06h0c-.01-.55.45-1,1-1h0c.57,0,1.01.44,1.02.99h0s0,.04-.01.06h0s.01.04.01.06h0c0,.56-.46,1-1.01,1h0c-.57,0-1.01-.44-1.01-1ZM57.92,121.76h0s0,0,0,0ZM7.63,117.03c-.56-.06-.95-.56-.89-1.11h0c.06-.54.57-.94,1.13-.88h0c.56.07.95.56.89,1.11h0c-.06.51-.5.89-1,.89h0s-.08,0-.12-.01ZM55.53,115.98c-.07-.55.33-1.04.89-1.11h0c.55-.06,1.06.33,1.13.88h0c.06.54-.33,1.04-.89,1.11h-.12c-.51,0-.94-.37-1-.88ZM8.55,111.19c-.55-.13-.88-.67-.75-1.21h0c.13-.54.68-.87,1.23-.74h0c.54.13.87.67.74,1.21h.01c-.12.46-.53.76-.99.76h0c-.07,0-.15,0-.23-.02ZM54.49,110.27c-.13-.54.2-1.08.75-1.21h0c.54-.13,1.09.2,1.23.73h0c.13.54-.2,1.08-.75,1.21h0c-.08.02-.16.03-.23.03h0c-.47,0-.87-.3-.99-.76ZM10.2,105.5c-.52-.2-.78-.78-.58-1.29h0c.2-.52.79-.77,1.31-.57h0c.53.2.79.78.59,1.29h-.01c-.15.4-.54.64-.94.64h0c-.12,0-.24-.02-.37-.07ZM52.72,104.77c-.2-.51.05-1.09.57-1.29h0c.53-.21,1.12.04,1.32.56h0c.2.51-.05,1.09-.57,1.3h0c-.12.04-.25.07-.38.07h0c-.41,0-.79-.24-.94-.64ZM12.64,100.1c-.48-.28-.65-.89-.37-1.37h0c.27-.48.9-.64,1.39-.36h0c.48.27.65.89.37,1.36h0c-.18.32-.53.5-.88.5h0c-.17,0-.34-.04-.51-.13ZM50.19,99.58h0c-.28-.48-.12-1.1.37-1.37h0c.49-.28,1.11-.12,1.39.36h0c.28.47.11,1.08-.37,1.36h0c-.16.1-.33.14-.52.14h0c-.35,0-.68-.18-.87-.49ZM15.94,95.15c-.44-.35-.49-.99-.12-1.41h0c.37-.42,1-.46,1.43-.11h0c.43.36.48.99.12,1.41h0c-.2.24-.49.35-.78.35h0c-.23,0-.47-.07-.65-.24ZM46.83,94.91c-.37-.41-.31-1.05.11-1.41h0c.41-.36,1.06-.31,1.43.11h0c.37.42.31,1.05-.11,1.41h0c-.19.16-.43.24-.66.24h0c-.28,0-.57-.12-.77-.35ZM20.12,90.94c-.32-.44-.23-1.07.22-1.4h0c.45-.32,1.08-.23,1.41.22h0c.33.44.24,1.07-.21,1.4h0c-.18.13-.4.19-.6.19h0c-.31,0-.62-.14-.82-.41ZM42.62,91.06c-.46-.33-.56-.95-.22-1.4h0c.32-.45.96-.55,1.41-.22h0c.46.32.56.95.23,1.39h0c-.2.27-.52.41-.83.41h0c-.2,0-.41-.06-.59-.18ZM25.25,87.88c-.19-.51.08-1.09.61-1.27h0c.53-.19,1.11.08,1.3.6h0c.19.52-.08,1.09-.61,1.28h0c-.11.04-.23.06-.34.06h0c-.42,0-.81-.26-.95-.67ZM37.61,88.45c-.53-.19-.81-.75-.63-1.28h0c.18-.52.76-.8,1.29-.61h0c.53.18.81.75.63,1.27h0c-.14.41-.54.67-.96.67h0c-.1,0-.21-.02-.32-.05ZM31.05,86.53c0-.56.45-1.01,1.01-1.01h0c.56,0,1.01.44,1.01,1h0c0,.55-.45,1-1,1h0c-.57,0-1.02-.44-1.02-.99Z"/>
        </g>
        <g>
          <path class="cls-1" d="M129.37,103.7s-18.09-6.8-22.07-23.06c-3.99-16.26,8.9-30.66,8.9-30.66,0,0,18.09,6.8,22.07,23.06,3.99,16.26-8.9,30.66-8.9,30.66Z"/>
          <path class="cls-3" d="M126.33,91.29c-7.06,1.73-14.36-3.34-16.32-11.32-1.96-7.98,2.18-15.85,9.23-17.58,7.06-1.73,14.36,3.34,16.32,11.32,1.96,7.98-2.17,15.85-9.23,17.58Z"/>
          <path d="M126.9,91.12l-2.7-11.02,6.14,9.34c.33-.23.65-.49.96-.75l-6.25-9.49,8.95,6.2c.21-.36.41-.74.59-1.13l-8.8-6.1,10.03,2.13c.07-.44.12-.88.16-1.32l-10.19-2.16,9.9-2.43c-.04-.22-.08-.44-.13-.66-.05-.22-.13-.43-.19-.65l-9.74,2.39,8.04-6.33c-.23-.39-.47-.76-.73-1.12l-8.17,6.44,5.06-9.64c-.34-.26-.69-.5-1.05-.73l-4.98,9.48,1.34-11.08c-.4-.11-.79-.19-1.2-.25l-1.36,11.26-2.75-11.2c-.2.04-.39.06-.59.11-.2.05-.38.12-.57.18l2.7,11.02-6.14-9.34c-.33.24-.65.49-.96.75l6.25,9.5-8.95-6.21c-.21.37-.41.74-.59,1.13l8.8,6.1-10.02-2.13c-.07.43-.12.87-.16,1.32l10.19,2.16-9.9,2.43c.04.22.08.44.13.66.05.22.13.43.19.65l9.75-2.39-8.04,6.33c.23.38.47.76.73,1.11l8.17-6.44-5.06,9.64c.34.26.69.5,1.05.73l4.98-9.48-1.34,11.07c.39.11.79.19,1.2.26l1.36-11.26,2.75,11.2c.2-.04.39-.06.59-.11.2-.05.38-.12.57-.18Z"/>
          <path class="cls-4" d="M123.98,81.71c-2.38.58-4.84-1.12-5.5-3.81-.66-2.69.73-5.34,3.11-5.92,2.38-.59,4.84,1.12,5.5,3.81.66,2.69-.73,5.34-3.11,5.93Z"/>
          <g>
            <path class="cls-2" d="M148.26,69.02c-2.7.93-5.4,1.83-8.18,2.44-.75.17-.43,1.48.32,1.31,2.78-.62,5.49-1.52,8.18-2.44.72-.25.41-1.57-.32-1.32Z"/>
            <path class="cls-2" d="M150.27,79.06c-2.87-.03-5.73-.08-8.6-.42-.78-.09-.77,1.25,0,1.34,2.87.34,5.74.4,8.6.42.78,0,.78-1.34,0-1.34Z"/>
            <path class="cls-2" d="M141.05,85.65c2.7,1.28,5.47,2.27,8.25,3.25.75.26,1.06-1.01.31-1.28-2.78-.97-5.56-1.97-8.25-3.25-.73-.35-1.03.94-.31,1.28Z"/>
            <path class="cls-2" d="M139.15,91.9c2.32,2.13,4.79,4.02,7.28,5.89.66.5,1.25-.63.59-1.13-2.4-1.8-4.79-3.62-7.03-5.67-.61-.56-1.46.34-.84.91Z"/>
            <path class="cls-2" d="M135.08,97.42c1.69,2.77,3.59,5.36,5.51,7.94.51.69,1.35-.23.84-.91-1.85-2.49-3.68-4.99-5.31-7.65-.45-.73-1.48-.12-1.03.62Z"/>
            <path class="cls-2" d="M145.92,61.34c.69-.37.06-1.56-.62-1.19-2.53,1.35-5.05,2.72-7.43,4.36-.64.44-.03,1.64.62,1.19,2.38-1.63,4.9-3.01,7.43-4.36Z"/>
            <path class="cls-2" d="M141.38,54.06c.55-.58-.32-1.58-.87-.99-2.01,2.15-4.01,4.32-5.81,6.7-.48.64.38,1.64.87.99,1.8-2.38,3.8-4.55,5.81-6.7Z"/>
            <path class="cls-2" d="M130.12,55.1c-.28.79.89,1.2,1.17.42,1.03-2.85,2.31-5.57,3.61-8.28.36-.75-.69-1.48-1.05-.73-1.34,2.81-2.65,5.63-3.72,8.59Z"/>
            <path class="cls-2" d="M125.17,42.5c-.51,3.17-.99,6.35-1.21,9.58-.06.86,1.15.93,1.21.07.21-3.12.68-6.18,1.17-9.24.13-.84-1.03-1.26-1.17-.42Z"/>
            <path class="cls-2" d="M104.97,80.08c-2.75.74-5.57,1.2-8.38,1.62-.76.12-.44,1.43.32,1.32,2.82-.43,5.63-.88,8.38-1.62.75-.2.42-1.52-.32-1.32Z"/>
            <path class="cls-2" d="M107.5,88.36c.64-.44.03-1.63-.62-1.19-2.38,1.63-4.9,3.01-7.43,4.36-.69.36-.06,1.56.62,1.19,2.53-1.35,5.05-2.72,7.43-4.36Z"/>
            <path class="cls-2" d="M110.67,93.1c.48-.64-.38-1.64-.86-.99-1.8,2.38-3.8,4.55-5.81,6.7-.55.58.32,1.58.87.99,2.01-2.15,4.01-4.32,5.81-6.7Z"/>
            <path class="cls-2" d="M115.25,97.76c.28-.79-.89-1.19-1.17-.42-1.03,2.86-2.32,5.58-3.61,8.28-.36.75.69,1.48,1.05.73,1.34-2.81,2.65-5.63,3.72-8.59Z"/>
            <path class="cls-2" d="M120.2,110.36c.51-3.17.99-6.35,1.21-9.58.06-.86-1.15-.93-1.21-.08-.21,3.12-.68,6.18-1.17,9.24-.14.84,1.03,1.26,1.17.42Z"/>
            <path class="cls-2" d="M103.7,72.88c-2.87-.35-5.74-.4-8.6-.42-.78,0-.77,1.33,0,1.34,2.87.03,5.74.08,8.6.42.78.09.77-1.25,0-1.34Z"/>
            <path class="cls-2" d="M104.32,67.22c-2.7-1.28-5.47-2.27-8.25-3.25-.76-.27-1.06,1.02-.31,1.28,2.78.97,5.56,1.97,8.25,3.25.73.35,1.03-.94.31-1.28Z"/>
            <path class="cls-2" d="M106.22,60.97c-2.32-2.13-4.79-4.02-7.28-5.89-.66-.5-1.26.64-.59,1.13,2.4,1.8,4.79,3.62,7.03,5.67.61.56,1.46-.34.84-.91Z"/>
            <path class="cls-2" d="M110.29,55.44c-1.69-2.76-3.59-5.36-5.51-7.94-.51-.68-1.35.23-.84.91,1.85,2.49,3.68,4.98,5.31,7.65.45.73,1.48.11,1.03-.63Z"/>
          </g>
        </g>
      </g>
    </g>
  </g>
</svg>